<svg xmlns="http://www.w3.org/2000/svg" width="42.719" height="9.578" viewBox="0 0 3406.94 763.84" shape-rendering="geometricPrecision" text-rendering="geometricPrecision" image-rendering="optimizeQuality" fill-rule="evenodd" clip-rule="evenodd"><defs><style>.fil0{fill:#fff;fill-rule:nonzero}</style></defs><g id="Слой_x0020_1"><g id="_2187601820800"><path class="fil0" d="M2688.34 333.13c46.99.03 120.81.78 120.81 63.81 0 35.33-22.06 52.27-50.64 60.35 34.15 7.84 61.73 25.86 61.73 66.8 0 68.69-81.41 68.69-131.93 68.69h-33.16c2.59-86.54 2.59-173.08 0-259.65h33.19zm-.45 244.12c40.81 3.83 97.3 4.25 97.3-53.17 0-51.81-53.86-61.19-98.81-57.99.03 37.05.54 74.12 1.51 111.17zm-1.48-126.33c41.39 2.62 90.19-3.95 90.19-53.99 0-50.01-50.91-52.93-88.68-49.52-.9 34.51-1.42 69-1.51 103.51z"/><path d="M3291.16 463.26c-9.77-16.25-18.12-29.99-24.84-41.08-6.72-11.18-13.05-21.49-19.11-30.9l-35.06-55.07-1.78-3.07h40.9c5.73 10.82 12.42 21.7 18.99 33.19l39.94 69.6c4.52-7.51 12.06-19.29 22.64-35.24 10.52-16.04 18.75-28.91 24.78-38.73 5.94-9.77 11.39-19.41 16.16-28.82h27.79c-1.36 2.29-3.41 4.94-5.82 8.32l-57.72 80.72-19.02 28.61 87.93 142h-42.08c-17.72-35.24-39.43-73.58-64.87-114.75-23.78 35.93-46.72 74.15-68.82 114.75h-28.03c19.8-28.21 35.3-50.04 45.85-65.95l42.17-63.57zm-1836.7 129.52h28.24c-2.68-88.02-2.53-178.23-.03-266.76h-9.01l-185.89 207.86v.03l3.95-200.78h-28.24c2.65 88.02 2.53 175.88.03 264.41h11.09l183.81-207.89-3.95 203.13z" fill="#fff"/><path class="fil0" d="M1154.54 592.78h33.19c-2.59-86.54-2.59-173.08 0-259.65h-33.19c1.12 37.05 1.75 74.09 1.9 111.1h-153.61c.15-37.01.81-74.06 1.9-111.1h-33.16a4390.16 4390.16 0 010 259.65h33.16c-1.3-43.77-1.96-87.53-1.93-131.3h153.7c0 43.77-.63 87.53-1.96 131.3zm1096.89-.6h33.19a4338.33 4338.33 0 010-259.62h-33.19c1.12 37.01 1.75 74.06 1.9 111.1h-153.61c.18-37.05.81-74.09 1.9-111.1h-33.16c2.56 86.54 2.56 173.08 0 259.62h33.16c-1.3-43.77-1.96-87.53-1.93-131.3h153.7c0 43.77-.63 87.53-1.96 131.3zm-659.82.6h-33.16c2.59-86.54 2.59-173.08 0-259.65h33.16a4339.17 4339.17 0 00-1.93 120.72c42.23-40.21 82.53-80.45 119.57-120.72h30.29c-41.48 38.49-86.57 81.11-122.89 119.57 38.07 47.32 84.91 92.78 128.14 140.07 0 .03-37.2 0-41.51 0-36.14-43.77-72.76-83.34-113.61-127.14-.03 43.8.63 83.4 1.93 127.14zm294.46-251.33c-62.73 0-90.64 62.94-90.64 121.5 0 58.6 27.91 121.56 90.64 121.56 62.73 0 90.64-62.97 90.64-121.56 0-58.57-27.91-121.5-90.64-121.5zm0 257.27c-75.81 0-128.26-56.94-128.26-135.76 0-78.79 52.45-135.73 128.26-135.73 75.84 0 128.26 56.94 128.26 135.73 0 78.82-52.42 135.76-128.26 135.76zm1228.21-5.94h33.16c-2.59-86.54-2.59-173.08 0-259.65h-33.16a4390.16 4390.16 0 010 259.65zm-647.27-251.33c-62.73 0-90.64 62.94-90.64 121.5 0 58.6 27.91 121.56 90.64 121.56 62.73 0 90.64-62.97 90.64-121.56 0-58.57-27.91-121.5-90.64-121.5zm0 257.27c-75.84 0-128.26-56.94-128.26-135.76 0-78.79 52.42-135.73 128.26-135.73 75.81 0 128.26 56.94 128.26 135.73 0 78.82-52.45 135.76-128.26 135.76zm425.61-5.94h33.16c50.49 0 131.93 0 131.93-68.69 0-68.72-77.68-72.85-133.86-72.7.09-39.43.75-78.82 1.93-118.25h-33.16c2.59 86.57 2.59 173.11 0 259.65zm32.7-15.52c-.96-37.05-1.48-74.12-1.48-111.17 44.91-3.2 98.78 6.18 98.78 57.99 0 57.42-56.49 57-97.3 53.17zM1034.88 235.35v-69.27h-16.31v33.64h-18.12c-7.51 0-12.45-4.49-12.45-11.21v-22.43h-16.28v22.43c0 14.05 11.24 23.42 28.12 23.42h18.72v23.42h16.31zm2317.14-40.75c1.48-11.94 7.69-18.33 17.96-18.33 11.27 0 17.33 6.42 17.33 18.33h-35.3zm-557.57-28.51h-24.48v110.02h16.34v-54.23c5.27 8.8 13.53 14.5 22.79 14.5 18.72 0 31.17-14.26 31.17-35.66 0-20.77-12.45-34.63-31.17-34.63h-14.65zm-142.54 28.51h-7.75c1.48-11.94 7.66-18.33 17.96-18.33 11.27 0 17.33 6.42 17.33 18.33h-27.55zm-375.3-28.51h-24.9c-18.72 0-31.2 13.87-31.2 34.63 0 21.4 12.48 35.66 31.2 35.66 10.01 0 18.87-6.45 24.05-16.25l.78 14.83 14.89.81s-.6-11-.6-19.14v-50.55h-14.23zm-426.39 28.51c1.48-11.94 7.69-18.33 17.96-18.33 11.27 0 17.3 6.42 17.3 18.33h-35.27zm-683.36-28.51h-24.9c-18.72 0-31.2 13.87-31.2 34.63 0 21.4 12.48 35.66 31.2 35.66 10.01 0 18.87-6.45 24.08-16.25l.75 14.83 14.89.81s-.6-11-.6-19.14v-50.55h-14.23zm-39.19 34.63c0-13.44 7.02-22.43 17.54-22.43h19.56v21.43c0 13.41-8.77 24.45-19.56 24.45-10.52 0-17.54-9.37-17.54-23.45zm187.37 33.07v-16.7c-4.91 3.5-11.57 5.43-19.38 5.43-13.08 0-21.79-8.71-21.79-21.79 0-13.08 8.71-21.79 21.79-21.79 7.81 0 14.47 1.93 19.38 5.43v-16.7c-5.85-1.42-12.33-2.59-19.38-2.59-23.21 0-38.7 14.26-38.7 35.66s15.49 35.66 38.7 35.66c7.05 0 13.53-1.18 19.38-2.59zm71.8-33.07c0 21.4 14.26 35.66 35.66 35.66s35.66-14.26 35.66-35.66-14.26-35.66-35.66-35.66-35.66 14.26-35.66 35.66zm16.91 0c0-14.05 7.51-23.42 18.75-23.42s18.75 9.37 18.75 23.42c0 14.08-7.51 23.45-18.75 23.45s-18.75-9.37-18.75-23.45zm130.28 34.63h32.61c18.96 0 31.59-7.75 31.59-19.35 0-8.44-9.56-15.55-22.49-17.69 9.65-2.5 16.37-8.26 16.37-14.92 0-10.37-11.39-17.3-28.51-17.3h-29.57v69.27zm16.34-30.56h16.28c8.56 0 14.26 4.49 14.26 11.21 0 4.88-5.7 8.17-14.26 8.17h-16.28v-19.38zm0-27.49h13.23c7.93 0 13.23 2.83 13.23 7.14 0 4.88-5.31 8.14-13.23 8.14h-13.23V177.3zm123.76 58.05h27.49c19.56 0 32.61-9.1 32.61-22.82 0-13.81-13.05-23.03-32.61-23.03h-11.18v-23.42h-16.31v69.27zm16.31-12.21v-21.4h11.79c9.07 0 15.1 4.31 15.1 10.79 0 6.36-6.03 10.61-15.1 10.61h-11.79zm52.93 12.21h14.29v-69.27h-14.29v69.27zm106.76-29.54h43.53c3.86 0 6.09-2.14 6.09-6.09v-4.7c0-18-12.63-29.96-31.56-29.96-20.8 0-34.66 14.26-34.66 35.66s15.1 35.66 37.71 35.66c6.69 0 12.93-.72 19.35-2.59v-15.07c-5.61 4.01-12.42 5.46-19.35 5.46-12.27 0-19.56-6.39-21.1-18.36zm204.85 29.54h14.26v-47.66l30.38 45h.39l30.35-45v47.66h14.29v-69.27h-15.28l-29.54 44.61-29.54-44.61h-15.31v69.27zm182.48-34.63c0-13.44 6.99-22.43 17.48-22.43h19.59v21.43c0 13.41-8.77 24.45-19.59 24.45-10.49 0-17.48-9.37-17.48-23.45zm187.34 33.07v-16.7c-4.94 3.5-11.57 5.43-19.38 5.43-13.11 0-21.79-8.71-21.79-21.79 0-13.08 8.68-21.79 21.79-21.79 7.81 0 14.44 1.93 19.38 5.43v-16.7c-5.85-1.42-12.33-2.59-19.38-2.59-23.21 0-38.7 14.26-38.7 35.66s15.49 35.66 38.7 35.66c7.05 0 13.53-1.18 19.38-2.59zm70.77-67.7v12.21h23.42v57.06h16.34V178.3h23.42v-12.21h-63.18zm148.54 39.73h43.47c3.86 0 6.12-2.14 6.12-6.09v-4.7c0-18-12.6-29.96-31.56-29.96-20.8 0-34.66 14.26-34.66 35.66s15.1 35.66 37.71 35.66c6.69 0 12.93-.72 19.35-2.59v-15.07c-5.61 4.01-12.42 5.46-19.35 5.46-12.27 0-19.53-6.39-21.07-18.36zm142.21-27.52h19.53c10.52 0 17.51 8.98 17.51 22.43 0 14.08-6.99 23.45-17.51 23.45-10.79 0-19.53-11.42-19.53-25.47V178.3zm183.87 55.49v-16.7c-4.94 3.5-11.54 5.43-19.38 5.43-13.08 0-21.79-8.71-21.79-21.79 0-13.08 8.71-21.79 21.79-21.79 7.84 0 14.44 1.93 19.38 5.43v-16.7c-5.85-1.42-12.33-2.59-19.38-2.59-23.21 0-38.73 14.26-38.73 35.66s15.52 35.66 38.73 35.66c7.05 0 13.53-1.18 19.38-2.59zm150.26 1.57l-36.08-35.69 32.58-33.58h-20.5l-28.82 33.64 29.9 35.63h22.91zm-73.37 0h16.31v-69.27h-16.31v69.27zm147.22 0h10.16l39.73-43.1v43.1h15.28v-69.27h-10.16l-39.76 44.16v-44.16h-15.25v69.27zm157.67-29.54h43.5c3.86 0 6.12-2.14 6.12-6.09v-4.7c0-18-12.63-29.96-31.59-29.96-20.77 0-34.63 14.26-34.63 35.66s15.07 35.66 37.71 35.66c6.66 0 12.93-.72 19.35-2.59v-15.07c-5.67 4.01-12.42 5.46-19.35 5.46-12.24 0-19.56-6.39-21.1-18.36z"/><path d="M316.31 342.57c-5.64 4.67-11.51 9.04-17.63 13.11l-6.27-10.43-1.3-2.14a188.327 188.327 0 0028.54-23.42c32.01-32.01 52.48-75.54 54.71-123.79l7.6-.03 7.48.03c2.26 48.26 22.73 91.78 54.74 123.79 8.71 8.71 18.3 16.58 28.58 23.45l-.33.57-.51.87 10.4 17.75 1.51-2.5 4.43-7.42c24.36 13.08 51.97 20.92 81.26 22.03 1.6-39.67 15.64-76.71 38.79-106.73 20.44-26.5 47.96-47.5 80.24-60.07 2.41 4.28 4.76 8.59 7.02 12.96-30.5 11.51-56.49 31.17-75.69 56.03-21.34 27.67-34.27 61.85-35.72 98.48 2.83-8.53 10.85-14.65 20.32-14.65 9.4 0 17.42 6.06 20.29 14.5h-.15v14.2c-2.98 8.2-10.88 14.08-20.14 14.08-9.46 0-17.51-6.15-20.32-14.68 1.36 35.63 13.62 69 33.97 96.3 19.32 25.95 45.94 46.48 77.44 58.33-2.26 4.4-4.61 8.71-7.02 12.99-33.37-12.96-61.55-34.97-82.14-62.61-22.06-29.6-35.36-65.71-36.89-104.17-29.3 1.09-56.91 8.95-81.29 22.03l-.69-1.18-6.84-11.42c13.17-7.11 27.25-12.84 41.99-16.91-27.88-7.75-53.32-21.28-74.99-39.25a5136.92 5136.92 0 01-64.2-114.36l-1.51-2.8-1.51 2.8c-10.46 19.14-21.1 38.43-31.98 57.81a5643.897 5643.897 0 01-32.16 56.43zm-33.13 22.4a200.916 200.916 0 01-42.02 16.97c27.94 7.75 53.44 21.34 75.11 39.37 21.88 37.8 43.28 75.9 64.17 114.27l1.51 2.77 1.51-2.77c10.43-19.17 21.1-38.43 31.98-57.81a4883.93 4883.93 0 0132.28-56.64c5.58-4.61 11.39-8.95 17.45-12.96l6.33 10.49 1.24 2.08a189.33 189.33 0 00-28.58 23.45c-32.01 32.01-52.51 75.54-54.74 123.83h-15.05c-2.23-48.29-22.73-91.81-54.74-123.83a188.82 188.82 0 00-28.54-23.42l.36-.57.51-.9-10.37-17.72-1.51 2.5-4.43 7.42c-24.42-13.11-52.09-20.98-81.44-22.09-1.54 38.49-14.83 74.6-36.86 104.2-20.59 27.64-48.77 49.61-82.08 62.58a383.08 383.08 0 01-7.02-12.96c31.47-11.88 58.05-32.4 77.38-58.33a172.444 172.444 0 0033.97-96.3c-2.83 8.53-10.88 14.68-20.35 14.68-9.34 0-17.3-6-20.23-14.38h.18v-14.17h-.12c2.95-8.32 10.88-14.23 20.17-14.23 9.46 0 17.51 6.12 20.32 14.65-1.42-36.62-14.38-70.8-35.72-98.48-19.17-24.87-45.12-44.52-75.6-56 2.26-4.37 4.61-8.68 7.02-12.96 32.25 12.57 59.74 33.58 80.15 60.04 23.15 30.02 37.23 67.07 38.79 106.73 29.36-1.12 57.03-8.95 81.41-22.06l.75 1.21 6.78 11.36zm77.25 239.6c0-7.84 4.22-14.71 10.52-18.45h21.76c6.3 3.74 10.52 10.61 10.52 18.45 0 9.34-6.03 17.3-14.38 20.2v-.15h-14.2v.12c-8.29-2.95-14.23-10.85-14.23-20.17zm-5.27-18.39a172.169 172.169 0 00-78.52 33.79c-24.87 19.17-44.52 45.12-56 75.6-4.37-2.26-8.68-4.61-12.96-7.02 12.54-32.25 33.58-59.74 60.04-80.15 11.03-8.53 23.03-15.79 35.78-21.7 17.21-.24 34.45-.42 51.66-.51zm-51.6-409a188.691 188.691 0 01-33.31-19.8c-27.64-20.56-49.61-48.74-62.58-82.08 4.28-2.41 8.59-4.76 12.96-7.02a172.24 172.24 0 0058.33 77.38 172.266 172.266 0 0076.35 32.04c-17.27-.09-34.51-.27-51.75-.51zm67.58.57c-6.33-3.74-10.55-10.61-10.55-18.45 0-9.59 6.3-17.72 14.98-20.44v.24l13.47.21-.03-.24a21.375 21.375 0 0114.35 20.23c0 7.87-4.22 14.71-10.55 18.45h-21.67zm37.35-.06c29.12-4.52 56.06-16.37 78.7-33.79 24.87-19.2 44.52-45.15 56-75.63 4.37 2.26 8.68 4.61 12.96 7.02-12.54 32.25-33.58 59.74-60.04 80.15a188.472 188.472 0 01-35.84 21.73c-17.24.24-34.51.42-51.78.51zm51.84 409a189.618 189.618 0 0133.22 19.77c27.64 20.59 49.61 48.77 62.61 82.08-4.28 2.44-8.59 4.76-12.99 7.02-11.85-31.47-32.37-58.05-58.3-77.38-22.12-16.46-48.2-27.64-76.23-32.01 17.24.09 34.45.27 51.69.51zm-83.28 13.08c-1.21 1.21-1.96 2.89-1.96 4.79 0 1.87.75 3.59 1.96 4.79 1.21 1.21 2.89 1.96 4.79 1.96s3.59-.75 4.79-1.96a6.772 6.772 0 001.96-4.79c0-1.9-.75-3.59-1.96-4.79-1.21-1.21-2.89-1.96-4.79-1.96s-3.59.75-4.79 1.96zm9.74-435.68c1.21-1.21 1.93-2.92 1.93-4.79 0-1.9-.72-3.59-1.93-4.79a6.772 6.772 0 00-4.79-1.96c-1.9 0-3.59.75-4.79 1.96-1.21 1.21-1.96 2.89-1.96 4.79 0 1.87.75 3.59 1.96 4.79 1.21 1.21 2.89 1.93 4.79 1.93 1.87 0 3.59-.72 4.79-1.93zm222.48 212.96c-1.21-1.21-2.89-1.93-4.79-1.93-1.87 0-3.59.72-4.79 1.93a6.772 6.772 0 00-1.96 4.79c0 1.9.75 3.59 1.96 4.79a6.772 6.772 0 004.79 1.96c1.9 0 3.59-.75 4.82-1.96a6.822 6.822 0 001.93-4.79c0-1.87-.75-3.59-1.96-4.79zm-445.2 0c-1.21-1.21-2.89-1.93-4.79-1.93-1.87 0-3.59.72-4.79 1.93-1.21 1.21-1.93 2.92-1.93 4.79 0 1.9.72 3.59 1.93 4.79a6.772 6.772 0 004.79 1.96c1.9 0 3.59-.75 4.79-1.96 1.21-1.21 1.96-2.89 1.96-4.79 0-1.87-.75-3.59-1.96-4.79z" fill="#0e8250" fill-rule="nonzero"/><path d="M381.93 0c105.44 0 200.93 42.77 270.05 111.86 69.12 69.12 111.86 164.61 111.86 270.08 0 105.44-42.74 200.93-111.86 270.05-69.12 69.09-164.61 111.86-270.05 111.86-105.47 0-200.96-42.77-270.08-111.86C42.73 582.87-.01 487.38-.01 381.94c0-105.47 42.74-200.96 111.86-270.08C180.97 42.77 276.46 0 381.93 0zm-33.46 286.14c10.88-19.38 21.52-38.67 31.98-57.81l1.51-2.8 1.51 2.8a5041.272 5041.272 0 00104.05 181.94 5004.495 5004.495 0 00111.65 177.57l1.87 2.8-3.38-.12c-71.8-2.92-143.69-4.4-215.7-4.4-72.01 0-143.93 1.48-215.73 4.4l-3.35.12 1.84-2.8a5032.6 5032.6 0 0058.72-91.3 5119.58 5119.58 0 0056.67-92.48l1.51-2.5 10.4 17.72-.54.9a3367.262 3367.262 0 00-42.17 72.43 3245.86 3245.86 0 00-39 71.14c57.15 2.83 114.39 4.25 171.66 4.25 57.27 0 114.51-1.42 171.66-4.25a3207.739 3207.739 0 00-82.11-145.11c-28.61-47.72-58.48-94.71-89.55-141.01-8.98 13.38-17.84 26.8-26.62 40.3a3442.08 3442.08 0 00-27.31 42.68l-1.48 2.35-11.33-18.57.51-.9c11-18.96 21.91-38.1 32.73-57.36zm31.98 249.43A5016.818 5016.818 0 00276.4 353.6a5049.004 5049.004 0 00-111.68-177.57l-1.84-2.8 3.35.15c71.8 2.92 143.72 4.37 215.73 4.37 72.01 0 143.9-1.45 215.7-4.37l3.38-.15-1.87 2.8a4932.513 4932.513 0 00-58.72 91.33 4764.001 4764.001 0 00-56.64 92.48l-1.51 2.5-10.4-17.75.51-.87c14.38-23.99 28.42-48.11 42.14-72.37a3186.3 3186.3 0 0039.06-71.23c-57.15-2.83-114.39-4.25-171.66-4.25-57.27 0-114.51 1.42-171.66 4.25 26.16 49.16 53.53 97.54 82.11 145.14 28.61 47.69 58.48 94.68 89.55 140.98 8.92-13.29 17.75-26.65 26.5-40.06 9.25-14.23 18.39-28.51 27.43-42.92l1.48-2.35 11.33 18.6-.51.87c-11 18.96-21.91 38.1-32.73 57.39a4980.587 4980.587 0 00-31.98 57.81l-1.51 2.77-1.51-2.77zm29.99-117.68h-10.55l.06-1.78c.33-10.97.51-21.91.51-32.86h-37.11c0 10.94.18 21.88.51 32.86l.06 1.78h-12.3l.03-1.78c.33-11.24.51-22.67.51-34.21 0-11.51-.18-22.94-.51-34.18l-.03-1.78h12.3l-.06 1.78c-.27 9.19-.45 18.39-.51 27.52h37.11c-.06-9.13-.24-18.33-.51-27.52l-.06-1.78h12.33l-.06 1.78c-.36 11.39-.51 22.82-.51 34.18 0 11.54.18 22.97.51 34.21l.03 1.78h-1.75zM387.53 93.98c0 4.55 0 10.91.36 19.11l1.15 26.22-13.47-.21.54-25.05V96.54l-.09-5.31c-.03-1.66-.12-3.07-.18-4.16-.48-8.83-.81-17.72-1.18-26.56h14.2c-.51 11.06-1.27 22.37-1.33 33.46zM105.91 387.57c-4.52 0-10.97-.03-19.26.33l-26.22 1.15.24-13.47 25.05.57h17.51l5.27-.12c1.6-.03 2.98-.09 4.04-.18 8.89-.45 17.81-.78 26.68-1.18v14.2c-11-.48-22.25-1.3-33.31-1.3zm552-11.27c4.52 0 10.97 0 19.23-.36l26.25-1.12-.24 13.44-25.02-.54h-17.54l-5.27.09c-1.6.03-2.98.12-4.04.18-8.86.48-17.81.78-26.68 1.18v-14.2c11 .48 22.28 1.33 33.31 1.33zM387.53 658.07c0 4.55 0 10.91.36 19.11l1.15 26.22-13.47-.21.54-25.05V660.6l-.09-5.27c-.03-1.66-.12-3.07-.18-4.16-.48-8.83-.81-17.72-1.18-26.56h14.2c-.51 11.06-1.27 22.37-1.33 33.46zM631.26 132.6C567.45 68.79 479.28 29.33 381.92 29.33c-97.39 0-185.56 39.46-249.34 103.27-63.81 63.81-103.3 151.95-103.3 249.34 0 97.36 39.49 185.53 103.3 249.31 63.78 63.81 151.95 103.3 249.34 103.3 97.36 0 185.53-39.49 249.34-103.3 63.78-63.78 103.27-151.95 103.27-249.31 0-97.39-39.49-185.53-103.27-249.34z" fill="#fff" fill-rule="nonzero"/></g></g></svg>