<svg xmlns="http://www.w3.org/2000/svg" width="607.34" height="32" viewBox="0 0 16258.18 856.62" shape-rendering="geometricPrecision" text-rendering="geometricPrecision" image-rendering="optimizeQuality" fill-rule="evenodd" clip-rule="evenodd"><path d="M11573.33 642.47h5.61l-26.52 26.51 16.11 16.11c3.3-4.52 6.96-8.79 10.94-12.77 4.17-4.18 8.67-7.99 13.44-11.42a66.272 66.272 0 01-2.59-18.42h4.28c0 5.47.71 10.79 2.04 15.85 11.63-7.66 24.69-13.09 38.44-15.85h43.25c13.74 2.76 26.8 8.2 38.43 15.85a61.934 61.934 0 002.04-15.85h4.29c0 6.39-.91 12.58-2.59 18.42 4.77 3.43 9.26 7.24 13.43 11.42 3.98 3.97 7.63 8.25 10.94 12.78l16.11-16.12-26.52-26.51h5.61l23.72 23.71v5.62l-16.59 16.6c8.04 11.91 13.76 25.41 16.59 39.52v43.25c-2.8 13.96-8.27 26.95-15.84 38.44l-.75 1.09 16.59 16.6v5.61l-23.72 23.72h-5.61l26.52-26.52-16.14-16.14c-3.32 4.51-6.77 8.67-10.91 12.81a109.04 109.04 0 01-13.44 11.42 66.65 66.65 0 012.6 18.42h-4.29c0-5.47-.71-10.8-2.04-15.85-11.63 7.66-24.69 13.09-38.43 15.85h-43.25c-13.75-2.76-26.81-8.2-38.44-15.85a62.32 62.32 0 00-2.04 15.85h-4.28c0-6.39.91-12.58 2.59-18.42a108.878 108.878 0 01-24.38-24.2l-16.11 16.11 26.52 26.52h-5.61l-23.72-23.72v-5.61l16.59-16.59c-8.05-11.9-13.74-25.35-16.59-39.54v-43.25c2.85-14.18 8.54-27.63 16.59-39.54l-16.59-16.58v-5.62l23.72-23.71zm38.37 105.88v2.39c.01-.8.01-1.59 0-2.39zm-.02 2.98c-.3 1.04-.86 1.97-1.61 2.72a6.364 6.364 0 01-4.51 1.86c-1.76 0-3.36-.71-4.51-1.86a6.577 6.577 0 01-1.48-2.32h-29.6v-4.72h29.56l.18-.03c.32-.73.78-1.39 1.34-1.94a6.298 6.298 0 014.51-1.88c1.76 0 3.36.71 4.51 1.87a6.36 6.36 0 011.61 2.73c-.44-15.31-6.49-30.47-18.15-42.14a62.119 62.119 0 00-23.78-14.85c-11.36 16.76-17.99 37-17.99 58.77 0 21.77 6.63 42 17.99 58.76 9.05-3.1 17.16-8.23 23.78-14.85 11.67-11.67 17.72-26.82 18.15-42.12zm-4.63-3.28c-.38-.37-.91-.62-1.49-.62s-1.1.24-1.49.62c-.37.37-.61.9-.61 1.49 0 .58.23 1.1.61 1.48.38.38.91.62 1.49.62s1.1-.23 1.48-.62c.38-.37.62-.9.62-1.48 0-.59-.23-1.11-.61-1.49zm51.49-43.53c15.28-.46 30.42-6.51 42.07-18.15a61.984 61.984 0 0014.86-23.79c-16.78-11.35-37-17.99-58.77-17.99-21.77 0-42 6.64-58.76 17.99 3.1 9.06 8.24 17.17 14.85 23.79 11.64 11.65 26.77 17.69 42.04 18.15a6.464 6.464 0 01-2.66-1.6 6.364 6.364 0 01-1.86-4.51c0-1.76.71-3.36 1.87-4.51.56-.55 1.21-1 1.94-1.33l.03-.19v-29.55h4.74v29.59c.87.33 1.66.84 2.31 1.48a6.372 6.372 0 010 9.02 6.47 6.47 0 01-2.65 1.6zm-3.34-4.62c.37.38.9.62 1.48.62s1.1-.24 1.49-.62a2.126 2.126 0 000-2.98c-.37-.36-.9-.61-1.49-.61-.58 0-1.1.23-1.48.62-.38.37-.62.9-.62 1.48s.23 1.11.62 1.49zm46.52 51.57c.48 15.25 6.52 30.35 18.14 41.98a61.843 61.843 0 0023.79 14.85c11.35-16.76 17.99-36.99 17.99-58.76 0-21.77-6.64-42.01-17.99-58.77a62.322 62.322 0 00-23.79 14.85c-11.63 11.64-17.68 26.74-18.14 41.99.3-.98.85-1.86 1.57-2.58a6.307 6.307 0 014.5-1.87c1.77 0 3.36.71 4.51 1.88.56.56 1.01 1.21 1.34 1.94l.18.03h29.56v4.72h-29.6c-.31.88-.83 1.66-1.48 2.32a6.346 6.346 0 01-4.51 1.86 6.34 6.34 0 01-4.5-1.86c-.72-.72-1.25-1.6-1.57-2.58zm4.59-3.42c-.38.37-.62.9-.62 1.49 0 .58.24 1.1.62 1.48.38.38.91.62 1.48.62.59 0 1.11-.23 1.49-.62.37-.37.62-.9.62-1.48a2.116 2.116 0 00-2.11-2.11c-.57 0-1.09.24-1.48.62zm-47.78 46.5a6.372 6.372 0 012.65 10.61c-.65.65-1.44 1.15-2.31 1.48v29.6h-4.74v-29.56l-.03-.18c-.73-.32-1.39-.78-1.94-1.34a6.33 6.33 0 01-1.87-4.51c0-1.76.71-3.36 1.86-4.51.74-.73 1.64-1.27 2.66-1.59-15.27.46-30.4 6.51-42.04 18.15-6.62 6.62-11.76 14.72-14.85 23.78 16.76 11.36 36.99 17.99 58.76 17.99 21.77 0 42-6.63 58.77-17.99a62.186 62.186 0 00-14.86-23.78c-11.65-11.66-26.79-17.71-42.07-18.15zm-3.34 4.61c-.38.38-.62.91-.62 1.49s.23 1.1.62 1.49c.37.37.9.61 1.48.61.59 0 1.11-.23 1.49-.61.37-.38.61-.91.61-1.49s-.23-1.1-.61-1.48a2.11 2.11 0 00-1.49-.62c-.58 0-1.1.23-1.48.61zm12.18-36.29h-3.76l.02-.47c.06-2.18.11-4.35.14-6.51.03-1.93.04-3.96.05-6.06h-14.36c0 2.01.02 4.04.04 6.06.04 2.16.08 4.33.15 6.51l.01.47h-4.21l.01-.47c.12-4.24.18-8.54.18-12.87 0-4.34-.06-8.64-.18-12.88l-.01-.46h4.21l-.01.46c-.05 1.85-.1 3.68-.13 5.51l-.05 5.06h14.34l-.05-5.06c-.04-1.83-.08-3.66-.13-5.51l-.02-.46h4.22l-.01.46c-.12 4.25-.19 8.54-.19 12.88 0 4.33.07 8.62.19 12.87l.01.47h-.46zm27.92-13.34c-17.04-9.69-29.91-22.56-38.6-38.61-8.7 16.05-21.57 28.92-38.61 38.61 17.04 9.69 29.91 22.56 38.61 38.6 8.69-16.04 21.56-28.91 38.6-38.6zm-79.37-3.35c17.19-9.54 27.83-20.16 37.41-37.43-17-.85-32.32-8.08-43.6-19.37a66.43 66.43 0 01-15.45-24.23c-4.19 3.1-8.13 6.5-11.81 10.17a105.92 105.92 0 00-10.17 11.8c9.2 3.35 17.45 8.67 24.24 15.46 11.27 11.27 18.52 26.59 19.37 43.6zm44.12-37.43c9.53 17.18 20.16 27.84 37.41 37.41.85-17 8.08-32.32 19.37-43.59a66.324 66.324 0 0124.23-15.46c-3.1-4.19-6.5-8.12-10.17-11.8a105.92 105.92 0 00-11.8-10.17 66.324 66.324 0 01-15.46 24.23c-11.28 11.28-26.59 18.52-43.59 19.37zm37.41 44.13c-17.25 9.57-27.88 20.23-37.41 37.41 17 .84 32.31 8.08 43.59 19.36a66.446 66.446 0 0115.46 24.24c4.18-3.1 8.12-6.51 11.8-10.18 3.67-3.66 7.07-7.61 10.17-11.8a66.43 66.43 0 01-24.23-15.45c-11.28-11.28-18.52-26.6-19.37-43.59zm-44.12 37.41c-9.58-17.26-20.23-27.89-37.41-37.43-.85 17-8.09 32.32-19.37 43.6a66.553 66.553 0 01-24.24 15.45c3.1 4.19 6.5 8.13 10.17 11.8s7.62 7.08 11.8 10.18c3.36-9.2 8.68-17.45 15.46-24.24 11.28-11.27 26.6-18.52 43.6-19.36zm562.46-576.13h5.61l-26.52 26.51 16.11 16.11c3.3-4.52 6.96-8.79 10.94-12.77 4.17-4.18 8.67-7.99 13.44-11.42a66.272 66.272 0 01-2.59-18.42h4.28c0 5.47.71 10.79 2.04 15.85 11.63-7.66 24.69-13.09 38.44-15.85h43.25c13.74 2.76 26.8 8.2 38.43 15.85a61.934 61.934 0 002.04-15.85h4.29c0 6.39-.91 12.58-2.59 18.42 4.77 3.43 9.26 7.24 13.43 11.42 3.98 3.97 7.63 8.25 10.94 12.78l16.11-16.12-26.52-26.51h5.61l23.72 23.71v5.62l-16.59 16.6c8.04 11.91 13.76 25.41 16.59 39.52v43.25c-2.8 13.96-8.27 26.95-15.84 38.44l-.75 1.09 16.59 16.6v5.61l-23.72 23.72h-5.61l26.52-26.52-16.14-16.14c-3.32 4.51-6.77 8.67-10.91 12.81a109.04 109.04 0 01-13.44 11.42 66.65 66.65 0 012.6 18.42h-4.29c0-5.47-.71-10.8-2.04-15.85-11.63 7.66-24.69 13.09-38.43 15.85h-43.25c-13.75-2.76-26.81-8.2-38.44-15.85a62.32 62.32 0 00-2.04 15.85h-4.28c0-6.39.91-12.58 2.59-18.42a108.878 108.878 0 01-24.38-24.2l-16.11 16.11 26.52 26.52h-5.61l-23.72-23.72v-5.61l16.59-16.59c-8.05-11.9-13.74-25.35-16.59-39.54v-43.25c2.85-14.18 8.54-27.63 16.59-39.54l-16.59-16.58v-5.62l23.72-23.71zm38.37 105.88v2.39c.01-.8.01-1.59 0-2.39zm-.02 2.98c-.3 1.04-.86 1.97-1.61 2.72a6.364 6.364 0 01-4.51 1.86c-1.76 0-3.36-.71-4.51-1.86a6.577 6.577 0 01-1.48-2.32h-29.6v-4.72h29.56l.18-.03c.32-.73.78-1.39 1.34-1.94a6.298 6.298 0 014.51-1.88c1.76 0 3.36.71 4.51 1.87a6.36 6.36 0 011.61 2.73c-.44-15.31-6.49-30.47-18.15-42.14a62.119 62.119 0 00-23.78-14.85c-11.36 16.76-17.99 37-17.99 58.77 0 21.77 6.63 42 17.99 58.76 9.05-3.1 17.16-8.23 23.78-14.85 11.67-11.67 17.72-26.82 18.15-42.12zm-4.63-3.28c-.38-.37-.91-.62-1.49-.62s-1.1.24-1.49.62c-.37.37-.61.9-.61 1.49 0 .58.23 1.1.61 1.48.38.38.91.62 1.49.62s1.1-.23 1.48-.62c.38-.37.62-.9.62-1.48 0-.59-.23-1.11-.61-1.49zm51.49-43.53c15.28-.46 30.42-6.51 42.07-18.15a61.984 61.984 0 0014.86-23.79c-16.78-11.35-37-17.99-58.77-17.99-21.77 0-42 6.64-58.76 17.99 3.1 9.06 8.24 17.17 14.85 23.79 11.64 11.65 26.77 17.69 42.04 18.15a6.464 6.464 0 01-2.66-1.6 6.364 6.364 0 01-1.86-4.51c0-1.76.71-3.36 1.87-4.51.56-.55 1.21-1 1.94-1.33l.03-.19v-29.55h4.74v29.59c.87.33 1.66.84 2.31 1.48a6.372 6.372 0 010 9.02 6.47 6.47 0 01-2.65 1.6zm-3.34-4.62c.37.38.9.62 1.48.62s1.1-.24 1.49-.62a2.126 2.126 0 000-2.98c-.37-.36-.9-.61-1.49-.61-.58 0-1.1.23-1.48.62-.38.37-.62.9-.62 1.48s.23 1.11.62 1.49zm46.52 51.57c.48 15.25 6.52 30.35 18.14 41.98a61.843 61.843 0 0023.79 14.85c11.35-16.76 17.99-36.99 17.99-58.76 0-21.77-6.64-42.01-17.99-58.77a62.322 62.322 0 00-23.79 14.85c-11.63 11.64-17.68 26.74-18.14 41.99.3-.98.85-1.86 1.57-2.58a6.307 6.307 0 014.5-1.87c1.77 0 3.36.71 4.51 1.88.56.56 1.01 1.21 1.34 1.94l.18.03h29.56v4.72h-29.6c-.31.88-.83 1.66-1.48 2.32a6.346 6.346 0 01-4.51 1.86 6.34 6.34 0 01-4.5-1.86c-.72-.72-1.25-1.6-1.57-2.58zm4.59-3.42c-.38.37-.62.9-.62 1.49 0 .58.24 1.1.62 1.48.38.38.91.62 1.48.62.59 0 1.11-.23 1.49-.62.37-.37.62-.9.62-1.48a2.116 2.116 0 00-2.11-2.11c-.57 0-1.09.24-1.48.62zm-47.78 46.5a6.372 6.372 0 012.65 10.61c-.65.65-1.44 1.15-2.31 1.48v29.6h-4.74v-29.56l-.03-.18c-.73-.32-1.39-.78-1.94-1.34a6.33 6.33 0 01-1.87-4.51c0-1.76.71-3.36 1.86-4.51.74-.73 1.64-1.27 2.66-1.59-15.27.46-30.4 6.51-42.04 18.15-6.62 6.62-11.76 14.72-14.85 23.78 16.76 11.36 36.99 17.99 58.76 17.99 21.77 0 42-6.63 58.77-17.99a62.186 62.186 0 00-14.86-23.78c-11.65-11.66-26.79-17.71-42.07-18.15zm-3.34 4.61c-.38.38-.62.91-.62 1.49s.23 1.1.62 1.49c.37.37.9.61 1.48.61.59 0 1.11-.23 1.49-.61.37-.38.61-.91.61-1.49s-.23-1.1-.61-1.48a2.11 2.11 0 00-1.49-.62c-.58 0-1.1.23-1.48.61zm12.18-36.29h-3.76l.02-.47c.06-2.18.11-4.35.14-6.51.03-1.93.04-3.96.05-6.06h-14.36c0 2.01.02 4.04.04 6.06.04 2.16.08 4.33.15 6.51l.01.47h-4.21l.01-.47c.12-4.24.18-8.54.18-12.87 0-4.34-.06-8.64-.18-12.88l-.01-.46h4.21l-.01.46c-.05 1.85-.1 3.68-.13 5.51l-.05 5.06h14.34l-.05-5.06c-.04-1.83-.08-3.66-.13-5.51l-.02-.46h4.22l-.01.46c-.12 4.25-.19 8.54-.19 12.88 0 4.33.07 8.62.19 12.87l.01.47h-.46zm27.92-13.34c-17.04-9.69-29.91-22.56-38.6-38.61-8.7 16.05-21.57 28.92-38.61 38.61 17.04 9.69 29.91 22.56 38.61 38.6 8.69-16.04 21.56-28.91 38.6-38.6zm-79.37-3.35c17.19-9.54 27.83-20.16 37.41-37.43-17-.85-32.32-8.08-43.6-19.37a66.43 66.43 0 01-15.45-24.23c-4.19 3.1-8.13 6.5-11.81 10.17a105.92 105.92 0 00-10.17 11.8c9.2 3.35 17.45 8.67 24.24 15.46 11.27 11.27 18.52 26.59 19.37 43.6zm44.12-37.43c9.53 17.18 20.16 27.84 37.41 37.41.85-17 8.08-32.32 19.37-43.59a66.324 66.324 0 0124.23-15.46c-3.1-4.19-6.5-8.12-10.17-11.8a105.92 105.92 0 00-11.8-10.17 66.324 66.324 0 01-15.46 24.23c-11.28 11.28-26.59 18.52-43.59 19.37zm37.41 44.13c-17.25 9.57-27.88 20.23-37.41 37.41 17 .84 32.31 8.08 43.59 19.36a66.446 66.446 0 0115.46 24.24c4.18-3.1 8.12-6.51 11.8-10.18 3.67-3.66 7.07-7.61 10.17-11.8a66.43 66.43 0 01-24.23-15.45c-11.28-11.28-18.52-26.6-19.37-43.59zm-44.12 37.41c-9.58-17.26-20.23-27.89-37.41-37.43-.85 17-8.09 32.32-19.37 43.6a66.553 66.553 0 01-24.24 15.45c3.1 4.19 6.5 8.13 10.17 11.8s7.62 7.08 11.8 10.18c3.36-9.2 8.68-17.45 15.46-24.24 11.28-11.27 26.6-18.52 43.6-19.36zm348.31-147.82h5.61l-26.52 26.51 16.11 16.11c3.3-4.52 6.96-8.79 10.94-12.77 4.17-4.18 8.67-7.99 13.44-11.42a66.272 66.272 0 01-2.59-18.42h4.28c0 5.47.71 10.79 2.04 15.85 11.63-7.66 24.69-13.09 38.44-15.85h43.25c13.74 2.76 26.8 8.2 38.43 15.85a61.934 61.934 0 002.04-15.85h4.29c0 6.39-.91 12.58-2.59 18.42 4.77 3.43 9.26 7.24 13.43 11.42 3.98 3.97 7.63 8.25 10.94 12.78l16.11-16.12-26.52-26.51h5.61l23.72 23.71v5.62l-16.59 16.6c8.04 11.91 13.76 25.41 16.59 39.52v43.25c-2.8 13.96-8.27 26.95-15.84 38.44l-.75 1.09 16.59 16.6v5.61l-23.72 23.72h-5.61l26.52-26.52-16.14-16.14c-3.32 4.51-6.77 8.67-10.91 12.81a109.04 109.04 0 01-13.44 11.42 66.65 66.65 0 012.6 18.42h-4.29c0-5.47-.71-10.8-2.04-15.85-11.63 7.66-24.69 13.09-38.43 15.85h-43.25c-13.75-2.76-26.81-8.2-38.44-15.85a62.32 62.32 0 00-2.04 15.85h-4.28c0-6.39.91-12.58 2.59-18.42a108.878 108.878 0 01-24.38-24.2l-16.11 16.11 26.52 26.52h-5.61l-23.72-23.72v-5.61l16.59-16.59c-8.05-11.9-13.74-25.35-16.59-39.54v-43.25c2.85-14.18 8.54-27.63 16.59-39.54l-16.59-16.58v-5.62l23.72-23.71zm38.37 105.88v2.39c.01-.8.01-1.59 0-2.39zm-.02 2.98c-.3 1.04-.86 1.97-1.61 2.72a6.364 6.364 0 01-4.51 1.86c-1.76 0-3.36-.71-4.51-1.86a6.577 6.577 0 01-1.48-2.32h-29.6v-4.72h29.56l.18-.03c.32-.73.78-1.39 1.34-1.94a6.298 6.298 0 014.51-1.88c1.76 0 3.36.71 4.51 1.87a6.36 6.36 0 011.61 2.73c-.44-15.31-6.49-30.47-18.15-42.14a62.119 62.119 0 00-23.78-14.85c-11.36 16.76-17.99 37-17.99 58.77 0 21.77 6.63 42 17.99 58.76 9.05-3.1 17.16-8.23 23.78-14.85 11.67-11.67 17.72-26.82 18.15-42.12zm-4.63-3.28c-.38-.37-.91-.62-1.49-.62s-1.1.24-1.49.62c-.37.37-.61.9-.61 1.49 0 .58.23 1.1.61 1.48.38.38.91.62 1.49.62s1.1-.23 1.48-.62c.38-.37.62-.9.62-1.48 0-.59-.23-1.11-.61-1.49zm51.49-43.53c15.28-.46 30.42-6.51 42.07-18.15a61.984 61.984 0 0014.86-23.79c-16.78-11.35-37-17.99-58.77-17.99-21.77 0-42 6.64-58.76 17.99 3.1 9.06 8.24 17.17 14.85 23.79 11.64 11.65 26.77 17.69 42.04 18.15a6.464 6.464 0 01-2.66-1.6 6.364 6.364 0 01-1.86-4.51c0-1.76.71-3.36 1.87-4.51.56-.55 1.21-1 1.94-1.33l.03-.19v-29.55h4.74v29.59c.87.33 1.66.84 2.31 1.48a6.372 6.372 0 010 9.02 6.47 6.47 0 01-2.65 1.6zm-3.34-4.62c.37.38.9.62 1.48.62s1.1-.24 1.49-.62a2.126 2.126 0 000-2.98c-.37-.36-.9-.61-1.49-.61-.58 0-1.1.23-1.48.62-.38.37-.62.9-.62 1.48s.23 1.11.62 1.49zm46.52 51.57c.48 15.25 6.52 30.35 18.14 41.98a61.843 61.843 0 0023.79 14.85c11.35-16.76 17.99-36.99 17.99-58.76 0-21.77-6.64-42.01-17.99-58.77a62.322 62.322 0 00-23.79 14.85c-11.63 11.64-17.68 26.74-18.14 41.99.3-.98.85-1.86 1.57-2.58a6.307 6.307 0 014.5-1.87c1.77 0 3.36.71 4.51 1.88.56.56 1.01 1.21 1.34 1.94l.18.03h29.56v4.72h-29.6c-.31.88-.83 1.66-1.48 2.32a6.346 6.346 0 01-4.51 1.86 6.34 6.34 0 01-4.5-1.86c-.72-.72-1.25-1.6-1.57-2.58zm4.59-3.42c-.38.37-.62.9-.62 1.49 0 .58.24 1.1.62 1.48.38.38.91.62 1.48.62.59 0 1.11-.23 1.49-.62.37-.37.62-.9.62-1.48a2.116 2.116 0 00-2.11-2.11c-.57 0-1.09.24-1.48.62zm-47.78 46.5a6.372 6.372 0 012.65 10.61c-.65.65-1.44 1.15-2.31 1.48v29.6h-4.74v-29.56l-.03-.18c-.73-.32-1.39-.78-1.94-1.34a6.33 6.33 0 01-1.87-4.51c0-1.76.71-3.36 1.86-4.51.74-.73 1.64-1.27 2.66-1.59-15.27.46-30.4 6.51-42.04 18.15-6.62 6.62-11.76 14.72-14.85 23.78 16.76 11.36 36.99 17.99 58.76 17.99 21.77 0 42-6.63 58.77-17.99a62.186 62.186 0 00-14.86-23.78c-11.65-11.66-26.79-17.71-42.07-18.15zm-3.34 4.61c-.38.38-.62.91-.62 1.49s.23 1.1.62 1.49c.37.37.9.61 1.48.61.59 0 1.11-.23 1.49-.61.37-.38.61-.91.61-1.49s-.23-1.1-.61-1.48a2.11 2.11 0 00-1.49-.62c-.58 0-1.1.23-1.48.61zm12.18-36.29h-3.76l.02-.47c.06-2.18.11-4.35.14-6.51.03-1.93.04-3.96.05-6.06h-14.36c0 2.01.02 4.04.04 6.06.04 2.16.08 4.33.15 6.51l.01.47h-4.21l.01-.47c.12-4.24.18-8.54.18-12.87 0-4.34-.06-8.64-.18-12.88l-.01-.46h4.21l-.01.46c-.05 1.85-.1 3.68-.13 5.51l-.05 5.06h14.34l-.05-5.06c-.04-1.83-.08-3.66-.13-5.51l-.02-.46h4.22l-.01.46c-.12 4.25-.19 8.54-.19 12.88 0 4.33.07 8.62.19 12.87l.01.47h-.46zm27.92-13.34c-17.04-9.69-29.91-22.56-38.6-38.61-8.7 16.05-21.57 28.92-38.61 38.61 17.04 9.69 29.91 22.56 38.61 38.6 8.69-16.04 21.56-28.91 38.6-38.6zm-79.37-3.35c17.19-9.54 27.83-20.16 37.41-37.43-17-.85-32.32-8.08-43.6-19.37a66.43 66.43 0 01-15.45-24.23c-4.19 3.1-8.13 6.5-11.81 10.17a105.92 105.92 0 00-10.17 11.8c9.2 3.35 17.45 8.67 24.24 15.46 11.27 11.27 18.52 26.59 19.37 43.6zm44.12-37.43c9.53 17.18 20.16 27.84 37.41 37.41.85-17 8.08-32.32 19.37-43.59a66.324 66.324 0 0124.23-15.46c-3.1-4.19-6.5-8.12-10.17-11.8a105.92 105.92 0 00-11.8-10.17 66.324 66.324 0 01-15.46 24.23c-11.28 11.28-26.59 18.52-43.59 19.37zm37.41 44.13c-17.25 9.57-27.88 20.23-37.41 37.41 17 .84 32.31 8.08 43.59 19.36a66.446 66.446 0 0115.46 24.24c4.18-3.1 8.12-6.51 11.8-10.18 3.67-3.66 7.07-7.61 10.17-11.8a66.43 66.43 0 01-24.23-15.45c-11.28-11.28-18.52-26.6-19.37-43.59zm-44.12 37.41c-9.58-17.26-20.23-27.89-37.41-37.43-.85 17-8.09 32.32-19.37 43.6a66.553 66.553 0 01-24.24 15.45c3.1 4.19 6.5 8.13 10.17 11.8s7.62 7.08 11.8 10.18c3.36-9.2 8.68-17.45 15.46-24.24 11.28-11.27 26.6-18.52 43.6-19.36zm345.49 280.49h5.62l-26.52 26.51 16.1 16.11c3.31-4.52 6.96-8.79 10.94-12.77 4.18-4.18 8.67-7.99 13.44-11.42a66.646 66.646 0 01-2.59-18.42h4.28c0 5.47.72 10.79 2.04 15.85 11.64-7.66 24.7-13.09 38.44-15.85h43.25c13.74 2.76 26.81 8.2 38.44 15.85a61.934 61.934 0 002.04-15.85h4.28c0 6.39-.9 12.58-2.59 18.42 4.77 3.43 9.27 7.24 13.44 11.42 3.97 3.97 7.62 8.25 10.93 12.78l16.12-16.12-26.52-26.51h5.61l23.72 23.71v5.62l-16.6 16.6c8.05 11.91 13.77 25.41 16.6 39.52v43.25c-2.8 13.96-8.28 26.95-15.84 38.44l-.76 1.09 16.6 16.6v5.61l-23.72 23.72h-5.61l26.52-26.52-16.14-16.14c-3.32 4.51-6.77 8.67-10.91 12.81-4.18 4.17-8.67 7.99-13.45 11.42 1.69 5.85 2.6 12.03 2.6 18.42h-4.28c-.01-5.47-.72-10.8-2.05-15.85-11.63 7.66-24.69 13.09-38.43 15.85h-43.25c-13.74-2.76-26.8-8.2-38.43-15.85-1.34 5.06-2.04 10.38-2.05 15.85h-4.28c0-6.39.91-12.58 2.6-18.42-4.77-3.43-9.27-7.25-13.45-11.42-3.98-3.98-7.63-8.26-10.94-12.78l-16.11 16.11 26.52 26.52h-5.61l-23.71-23.72v-5.61l16.58-16.59c-8.04-11.9-13.74-25.35-16.58-39.54v-43.25c2.84-14.18 8.54-27.63 16.58-39.54l-16.58-16.58v-5.62l23.71-23.71zm38.37 105.88v2.39c.02-.8.02-1.59 0-2.39zm-.01 2.98c-.3 1.04-.87 1.97-1.62 2.72a6.364 6.364 0 01-4.51 1.86c-1.76 0-3.36-.71-4.51-1.86a6.552 6.552 0 01-1.47-2.32h-29.6v-4.72h29.56l.18-.03c.32-.73.78-1.39 1.33-1.94a6.298 6.298 0 014.51-1.88c1.76 0 3.36.71 4.51 1.87.75.75 1.32 1.69 1.62 2.73-.44-15.31-6.49-30.47-18.15-42.14-6.63-6.62-14.73-11.75-23.79-14.85-11.35 16.76-17.99 37-17.99 58.77 0 21.77 6.64 42 17.99 58.76 9.06-3.1 17.16-8.23 23.79-14.85 11.67-11.67 17.71-26.82 18.15-42.12zm-4.64-3.28c-.37-.37-.91-.62-1.49-.62s-1.1.24-1.48.62c-.38.37-.62.9-.62 1.49 0 .58.24 1.1.61 1.48.38.38.91.62 1.49.62s1.11-.23 1.49-.62c.37-.37.62-.9.62-1.48 0-.59-.23-1.11-.62-1.49zm51.5-43.53c15.28-.46 30.41-6.51 42.07-18.15 6.62-6.62 11.76-14.73 14.85-23.79-16.76-11.35-36.99-17.99-58.76-17.99-21.77 0-42.01 6.64-58.77 17.99a62.322 62.322 0 0014.85 23.79c11.65 11.65 26.77 17.69 42.04 18.15a6.429 6.429 0 01-2.65-1.6 6.372 6.372 0 01-1.87-4.51c0-1.76.72-3.36 1.88-4.51.56-.55 1.21-1 1.94-1.33l.03-.19v-29.55h4.72v29.59c.88.33 1.66.84 2.32 1.48a6.406 6.406 0 011.86 4.51c0 1.76-.72 3.36-1.86 4.51-.73.73-1.64 1.28-2.65 1.6zm-3.35-4.62c.37.38.9.62 1.49.62.58 0 1.1-.24 1.48-.62.38-.37.62-.91.62-1.49s-.23-1.1-.61-1.49c-.38-.36-.91-.61-1.49-.61-.59 0-1.11.23-1.49.62-.37.37-.62.9-.62 1.48s.24 1.11.62 1.49zm46.52 51.57c.48 15.25 6.52 30.35 18.14 41.98 6.63 6.63 14.73 11.76 23.79 14.85 11.35-16.76 17.99-36.99 17.99-58.76 0-21.77-6.64-42.01-17.99-58.77a62.398 62.398 0 00-23.79 14.85c-11.63 11.64-17.68 26.74-18.14 41.99.31-.98.86-1.86 1.57-2.58a6.33 6.33 0 014.51-1.87c1.76 0 3.36.71 4.51 1.88.56.56 1.01 1.21 1.33 1.94l.19.03h29.56v4.72h-29.6a6.44 6.44 0 01-1.48 2.32 6.364 6.364 0 01-4.51 1.86c-1.76 0-3.36-.71-4.51-1.86a6.58 6.58 0 01-1.57-2.58zm4.59-3.42c-.37.37-.61.9-.61 1.49 0 .58.23 1.1.62 1.48.37.38.9.62 1.48.62s1.1-.23 1.49-.62c.37-.37.61-.9.61-1.48 0-.59-.23-1.11-.62-1.49-.37-.37-.9-.62-1.48-.62s-1.1.24-1.49.62zm-47.77 46.5c1.01.31 1.92.86 2.65 1.59a6.406 6.406 0 011.86 4.51c0 1.76-.72 3.36-1.86 4.51-.66.65-1.44 1.15-2.32 1.48v29.6h-4.72v-29.56l-.03-.18c-.73-.32-1.39-.78-1.94-1.34a6.34 6.34 0 01-1.88-4.51c0-1.76.72-3.36 1.87-4.51.73-.73 1.64-1.27 2.65-1.59-15.27.46-30.39 6.51-42.04 18.15a62.044 62.044 0 00-14.85 23.78c16.76 11.36 37 17.99 58.77 17.99 21.77 0 42-6.63 58.76-17.99-3.1-9.06-8.24-17.16-14.85-23.78-11.66-11.66-26.79-17.71-42.07-18.15zm-3.35 4.61c-.37.38-.62.91-.62 1.49s.24 1.1.62 1.49c.37.37.9.61 1.49.61.58 0 1.1-.23 1.49-.61.37-.38.61-.91.61-1.49s-.23-1.1-.62-1.48c-.37-.38-.9-.62-1.48-.62-.59 0-1.11.23-1.49.61zm12.18-36.29h-3.75l.01-.47c.07-2.18.12-4.35.15-6.51.02-1.93.04-3.96.04-6.06h-14.35c0 2.01.01 4.04.04 6.06.03 2.16.08 4.33.14 6.51l.02.47h-4.22l.01-.47c.12-4.24.19-8.54.19-12.87 0-4.34-.07-8.64-.19-12.88l-.01-.46h4.22l-.01.46c-.06 1.85-.11 3.68-.13 5.51l-.06 5.06h14.35l-.06-5.06c-.03-1.83-.08-3.66-.13-5.51l-.01-.46h4.22l-.01.46c-.13 4.25-.19 8.54-.19 12.88 0 4.33.06 8.62.19 12.87l.01.47h-.47zm27.93-13.34c-17.04-9.69-29.91-22.56-38.61-38.61-8.69 16.05-21.56 28.92-38.61 38.61 17.05 9.69 29.92 22.56 38.61 38.6 8.7-16.04 21.57-28.91 38.61-38.6zm-79.38-3.35c17.19-9.54 27.84-20.16 37.41-37.43-17-.85-32.32-8.08-43.59-19.37a66.324 66.324 0 01-15.46-24.23c-4.18 3.1-8.12 6.5-11.8 10.17a105.92 105.92 0 00-10.17 11.8c9.2 3.35 17.45 8.67 24.23 15.46 11.28 11.27 18.52 26.59 19.37 43.6zm44.13-37.43c9.53 17.18 20.16 27.84 37.41 37.41.84-17 8.08-32.32 19.36-43.59a66.446 66.446 0 0124.24-15.46c-3.11-4.19-6.5-8.12-10.18-11.8-3.67-3.67-7.61-7.07-11.8-10.17a66.324 66.324 0 01-15.46 24.23c-11.27 11.28-26.59 18.52-43.58 19.37zm37.41 44.13c-17.25 9.57-27.88 20.23-37.41 37.41 16.99.84 32.31 8.08 43.58 19.36a66.6 66.6 0 0115.47 24.24c4.18-3.1 8.11-6.51 11.79-10.18 3.68-3.66 7.07-7.61 10.18-11.8a66.47 66.47 0 01-24.24-15.45c-11.27-11.28-18.52-26.6-19.36-43.59zm-44.13 37.41c-9.57-17.26-20.23-27.89-37.41-37.43-.85 17-8.08 32.32-19.37 43.6a66.43 66.43 0 01-24.23 15.45c3.1 4.19 6.5 8.13 10.17 11.8s7.61 7.08 11.8 10.18c3.35-9.2 8.67-17.45 15.46-24.24 11.27-11.27 26.59-18.52 43.59-19.36zm562.46-576.13h5.62l-26.52 26.51 16.1 16.11c3.31-4.52 6.96-8.79 10.94-12.77 4.18-4.18 8.67-7.99 13.44-11.42a66.646 66.646 0 01-2.59-18.42h4.28c0 5.47.72 10.79 2.04 15.85 11.64-7.66 24.7-13.09 38.44-15.85h43.25c13.74 2.76 26.81 8.2 38.44 15.85a61.934 61.934 0 002.04-15.85h4.28c0 6.39-.9 12.58-2.59 18.42 4.77 3.43 9.27 7.24 13.44 11.42 3.97 3.97 7.62 8.25 10.93 12.78l16.12-16.12-26.52-26.51h5.61l23.72 23.71v5.62l-16.6 16.6c8.05 11.91 13.77 25.41 16.6 39.52v43.25c-2.8 13.96-8.28 26.95-15.84 38.44l-.76 1.09 16.6 16.6v5.61l-23.72 23.72h-5.61l26.52-26.52-16.14-16.14c-3.32 4.51-6.77 8.67-10.91 12.81-4.18 4.17-8.67 7.99-13.45 11.42 1.69 5.85 2.6 12.03 2.6 18.42h-4.28c-.01-5.47-.72-10.8-2.05-15.85-11.63 7.66-24.69 13.09-38.43 15.85h-43.25c-13.74-2.76-26.8-8.2-38.43-15.85-1.34 5.06-2.04 10.38-2.05 15.85h-4.28c0-6.39.91-12.58 2.6-18.42-4.77-3.43-9.27-7.25-13.45-11.42-3.98-3.98-7.63-8.26-10.94-12.78l-16.11 16.11 26.52 26.52h-5.61l-23.71-23.72v-5.61l16.58-16.59c-8.04-11.9-13.74-25.35-16.58-39.54v-43.25c2.84-14.18 8.54-27.63 16.58-39.54l-16.58-16.58v-5.62l23.71-23.71zm38.37 105.88v2.39c.02-.8.02-1.59 0-2.39zm-.01 2.98c-.3 1.04-.87 1.97-1.62 2.72a6.364 6.364 0 01-4.51 1.86c-1.76 0-3.36-.71-4.51-1.86a6.552 6.552 0 01-1.47-2.32h-29.6v-4.72h29.56l.18-.03c.32-.73.78-1.39 1.33-1.94a6.298 6.298 0 014.51-1.88c1.76 0 3.36.71 4.51 1.87.75.75 1.32 1.69 1.62 2.73-.44-15.31-6.49-30.47-18.15-42.14-6.63-6.62-14.73-11.75-23.79-14.85-11.35 16.76-17.99 37-17.99 58.77 0 21.77 6.64 42 17.99 58.76 9.06-3.1 17.16-8.23 23.79-14.85 11.67-11.67 17.71-26.82 18.15-42.12zm-4.64-3.28c-.37-.37-.91-.62-1.49-.62s-1.1.24-1.48.62c-.38.37-.62.9-.62 1.49 0 .58.24 1.1.61 1.48.38.38.91.62 1.49.62s1.11-.23 1.49-.62c.37-.37.62-.9.62-1.48 0-.59-.23-1.11-.62-1.49zm51.5-43.53c15.28-.46 30.41-6.51 42.07-18.15 6.62-6.62 11.76-14.73 14.85-23.79-16.76-11.35-36.99-17.99-58.76-17.99-21.77 0-42.01 6.64-58.77 17.99a62.322 62.322 0 0014.85 23.79c11.65 11.65 26.77 17.69 42.04 18.15a6.429 6.429 0 01-2.65-1.6 6.372 6.372 0 01-1.87-4.51c0-1.76.72-3.36 1.88-4.51.56-.55 1.21-1 1.94-1.33l.03-.19v-29.55h4.72v29.59c.88.33 1.66.84 2.32 1.48a6.406 6.406 0 011.86 4.51c0 1.76-.72 3.36-1.86 4.51-.73.73-1.64 1.28-2.65 1.6zm-3.35-4.62c.37.38.9.62 1.49.62.58 0 1.1-.24 1.48-.62.38-.37.62-.91.62-1.49s-.23-1.1-.61-1.49c-.38-.36-.91-.61-1.49-.61-.59 0-1.11.23-1.49.62-.37.37-.62.9-.62 1.48s.24 1.11.62 1.49zm46.52 51.57c.48 15.25 6.52 30.35 18.14 41.98 6.63 6.63 14.73 11.76 23.79 14.85 11.35-16.76 17.99-36.99 17.99-58.76 0-21.77-6.64-42.01-17.99-58.77a62.398 62.398 0 00-23.79 14.85c-11.63 11.64-17.68 26.74-18.14 41.99.31-.98.86-1.86 1.57-2.58a6.33 6.33 0 014.51-1.87c1.76 0 3.36.71 4.51 1.88.56.56 1.01 1.21 1.33 1.94l.19.03h29.56v4.72h-29.6a6.44 6.44 0 01-1.48 2.32 6.364 6.364 0 01-4.51 1.86c-1.76 0-3.36-.71-4.51-1.86a6.58 6.58 0 01-1.57-2.58zm4.59-3.42c-.37.37-.61.9-.61 1.49 0 .58.23 1.1.62 1.48.37.38.9.62 1.48.62s1.1-.23 1.49-.62c.37-.37.61-.9.61-1.48 0-.59-.23-1.11-.62-1.49-.37-.37-.9-.62-1.48-.62s-1.1.24-1.49.62zm-47.77 46.5c1.01.31 1.92.86 2.65 1.59a6.406 6.406 0 011.86 4.51c0 1.76-.72 3.36-1.86 4.51-.66.65-1.44 1.15-2.32 1.48v29.6h-4.72v-29.56l-.03-.18c-.73-.32-1.39-.78-1.94-1.34a6.34 6.34 0 01-1.88-4.51c0-1.76.72-3.36 1.87-4.51.73-.73 1.64-1.27 2.65-1.59-15.27.46-30.39 6.51-42.04 18.15a62.044 62.044 0 00-14.85 23.78c16.76 11.36 37 17.99 58.77 17.99 21.77 0 42-6.63 58.76-17.99-3.1-9.06-8.24-17.16-14.85-23.78-11.66-11.66-26.79-17.71-42.07-18.15zm-3.35 4.61c-.37.38-.62.91-.62 1.49s.24 1.1.62 1.49c.37.37.9.61 1.49.61.58 0 1.1-.23 1.49-.61.37-.38.61-.91.61-1.49s-.23-1.1-.62-1.48c-.37-.38-.9-.62-1.48-.62-.59 0-1.11.23-1.49.61zm12.18-36.29h-3.75l.01-.47c.07-2.18.12-4.35.15-6.51.02-1.93.04-3.96.04-6.06h-14.35c0 2.01.01 4.04.04 6.06.03 2.16.08 4.33.14 6.51l.02.47h-4.22l.01-.47c.12-4.24.19-8.54.19-12.87 0-4.34-.07-8.64-.19-12.88l-.01-.46h4.22l-.01.46c-.06 1.85-.11 3.68-.13 5.51l-.06 5.06h14.35l-.06-5.06c-.03-1.83-.08-3.66-.13-5.51l-.01-.46h4.22l-.01.46c-.13 4.25-.19 8.54-.19 12.88 0 4.33.06 8.62.19 12.87l.01.47h-.47zm27.93-13.34c-17.04-9.69-29.91-22.56-38.61-38.61-8.69 16.05-21.56 28.92-38.61 38.61 17.05 9.69 29.92 22.56 38.61 38.6 8.7-16.04 21.57-28.91 38.61-38.6zm-79.38-3.35c17.19-9.54 27.84-20.16 37.41-37.43-17-.85-32.32-8.08-43.59-19.37a66.324 66.324 0 01-15.46-24.23c-4.18 3.1-8.12 6.5-11.8 10.17a105.92 105.92 0 00-10.17 11.8c9.2 3.35 17.45 8.67 24.23 15.46 11.28 11.27 18.52 26.59 19.37 43.6zm44.13-37.43c9.53 17.18 20.16 27.84 37.41 37.41.84-17 8.08-32.32 19.36-43.59a66.446 66.446 0 0124.24-15.46c-3.11-4.19-6.5-8.12-10.18-11.8-3.67-3.67-7.61-7.07-11.8-10.17a66.324 66.324 0 01-15.46 24.23c-11.27 11.28-26.59 18.52-43.58 19.37zm37.41 44.13c-17.25 9.57-27.88 20.23-37.41 37.41 16.99.84 32.31 8.08 43.58 19.36a66.6 66.6 0 0115.47 24.24c4.18-3.1 8.11-6.51 11.79-10.18 3.68-3.66 7.07-7.61 10.18-11.8a66.47 66.47 0 01-24.24-15.45c-11.27-11.28-18.52-26.6-19.36-43.59zm-44.13 37.41c-9.57-17.26-20.23-27.89-37.41-37.43-.85 17-8.08 32.32-19.37 43.6a66.43 66.43 0 01-24.23 15.45c3.1 4.19 6.5 8.13 10.17 11.8s7.61 7.08 11.8 10.18c3.35-9.2 8.67-17.45 15.46-24.24 11.27-11.27 26.59-18.52 43.59-19.36zm562.46 66.33h5.62l-26.52 26.52 16.1 16.11c3.31-4.52 6.96-8.8 10.94-12.78 4.18-4.17 8.67-7.98 13.44-11.41a66.77 66.77 0 01-2.59-18.43h4.28c0 5.48.72 10.8 2.04 15.85 11.64-7.66 24.7-13.09 38.44-15.85h43.25c13.74 2.76 26.81 8.2 38.44 15.85a61.82 61.82 0 002.04-15.85h4.28c0 6.39-.9 12.58-2.59 18.43 4.77 3.43 9.27 7.24 13.44 11.41 3.97 3.98 7.62 8.26 10.93 12.78l16.12-16.11-26.52-26.52h5.61l23.72 23.72v5.61l-16.6 16.6c8.05 11.92 13.77 25.41 16.6 39.53v43.25c-2.8 13.95-8.28 26.95-15.84 38.44l-.76 1.08 16.6 16.6v5.61l-23.72 23.72h-5.61l26.52-26.52-16.14-16.14c-3.32 4.52-6.77 8.68-10.91 12.81-4.18 4.18-8.67 7.99-13.45 11.43 1.69 5.85 2.6 12.03 2.6 18.41h-4.28c-.01-5.47-.72-10.79-2.05-15.84-11.63 7.66-24.69 13.09-38.43 15.84h-43.25c-13.74-2.75-26.8-8.19-38.43-15.84-1.34 5.06-2.04 10.37-2.05 15.84h-4.28c0-6.38.91-12.57 2.6-18.41a109.96 109.96 0 01-13.45-11.43 109.74 109.74 0 01-10.94-12.77l-16.11 16.1 26.52 26.52h-5.61l-23.71-23.72v-5.61l16.58-16.59c-8.04-11.9-13.74-25.35-16.58-39.53v-43.25c2.84-14.18 8.54-27.64 16.58-39.54l-16.58-16.59v-5.61l23.71-23.72zm38.37 105.89v2.38c.02-.8.02-1.59 0-2.38zm-.01 2.97c-.3 1.04-.87 1.97-1.62 2.72a6.372 6.372 0 01-9.02 0 6.512 6.512 0 01-1.47-2.31h-29.6v-4.74h29.56l.18-.03c.32-.73.78-1.39 1.33-1.94a6.33 6.33 0 014.51-1.87c1.76 0 3.36.71 4.51 1.86.75.76 1.32 1.69 1.62 2.73-.44-15.3-6.49-30.46-18.15-42.13-6.63-6.62-14.73-11.76-23.79-14.85-11.35 16.76-17.99 36.99-17.99 58.76 0 21.77 6.64 42.01 17.99 58.77a62.3 62.3 0 0023.79-14.86c11.67-11.66 17.71-26.82 18.15-42.12zm-4.64-3.27c-.37-.37-.91-.62-1.49-.62s-1.1.24-1.48.62c-.38.37-.62.9-.62 1.48 0 .59.24 1.11.61 1.49.38.37.91.62 1.49.62s1.11-.24 1.49-.62c.37-.38.62-.91.62-1.49 0-.59-.23-1.1-.62-1.48zm51.5-43.54c15.28-.45 30.41-6.5 42.07-18.14 6.62-6.63 11.76-14.74 14.85-23.79-16.76-11.36-36.99-17.99-58.76-17.99-21.77 0-42.01 6.63-58.77 17.99a62.398 62.398 0 0014.85 23.79c11.65 11.64 26.77 17.69 42.04 18.14a6.372 6.372 0 01-4.52-6.1c0-1.76.72-3.36 1.88-4.51.56-.56 1.21-1.01 1.94-1.34l.03-.18v-29.56h4.72v29.6c.88.32 1.66.83 2.32 1.48a6.406 6.406 0 011.86 4.51c0 1.76-.72 3.36-1.86 4.51-.73.73-1.64 1.27-2.65 1.59zm-3.35-4.61c.37.37.9.61 1.49.61.58 0 1.1-.23 1.48-.62.38-.37.62-.9.62-1.48s-.23-1.1-.61-1.49c-.38-.37-.91-.61-1.49-.61-.59 0-1.11.23-1.49.62-.37.37-.62.9-.62 1.48s.24 1.1.62 1.49zm46.52 51.57c.48 15.25 6.52 30.35 18.14 41.97a62.059 62.059 0 0023.79 14.86c11.35-16.76 17.99-37 17.99-58.77 0-21.77-6.64-42-17.99-58.76-9.06 3.1-17.16 8.24-23.79 14.85-11.63 11.63-17.68 26.74-18.14 41.99.31-.99.86-1.87 1.57-2.59a6.364 6.364 0 014.51-1.86c1.76 0 3.36.71 4.51 1.87.56.56 1.01 1.21 1.33 1.94l.19.03h29.56v4.74h-29.6c-.32.87-.83 1.66-1.48 2.31a6.372 6.372 0 01-9.02 0 6.473 6.473 0 01-1.57-2.57zm4.59-3.42c-.37.37-.61.89-.61 1.48 0 .58.23 1.1.62 1.49.37.37.9.62 1.48.62s1.1-.24 1.49-.62c.37-.37.61-.9.61-1.49 0-.58-.23-1.1-.62-1.48-.37-.37-.9-.62-1.48-.62s-1.1.24-1.49.62zm-47.77 46.49a6.388 6.388 0 014.51 6.11c0 1.76-.72 3.35-1.86 4.51-.66.64-1.44 1.14-2.32 1.47v29.6h-4.72v-29.56l-.03-.18c-.73-.32-1.39-.77-1.94-1.33a6.357 6.357 0 01-1.88-4.51c0-1.77.72-3.36 1.87-4.51.73-.73 1.64-1.28 2.65-1.6-15.27.47-30.39 6.51-42.04 18.15-6.62 6.63-11.75 14.73-14.85 23.79 16.76 11.35 37 17.99 58.77 17.99 21.77 0 42-6.64 58.76-17.99-3.1-9.06-8.24-17.16-14.85-23.79-11.66-11.65-26.79-17.7-42.07-18.15zm-3.35 4.62c-.37.37-.62.91-.62 1.49s.24 1.1.62 1.48c.37.38.9.62 1.49.62.58 0 1.1-.24 1.49-.61.37-.38.61-.91.61-1.49s-.23-1.11-.62-1.49c-.37-.37-.9-.62-1.48-.62-.59 0-1.11.23-1.49.62zm12.18-36.3h-3.75l.01-.46c.07-2.19.12-4.35.15-6.52.02-1.92.04-3.95.04-6.06h-14.35c0 2.02.01 4.05.04 6.06.03 2.17.08 4.33.14 6.52l.02.46h-4.22l.01-.46c.12-4.25.19-8.54.19-12.88 0-4.33-.07-8.63-.19-12.87l-.01-.47h4.22l-.01.47c-.06 1.84-.11 3.68-.13 5.5l-.06 5.06h14.35l-.06-5.06c-.03-1.82-.08-3.66-.13-5.5l-.01-.47h4.22l-.01.47c-.13 4.24-.19 8.54-.19 12.87 0 4.34.06 8.63.19 12.88l.01.46h-.47zm27.93-13.34c-17.04-9.69-29.91-22.56-38.61-38.6-8.69 16.04-21.56 28.91-38.61 38.6 17.05 9.69 29.92 22.56 38.61 38.61 8.7-16.05 21.57-28.92 38.61-38.61zm-79.38-3.35c17.19-9.53 27.84-20.16 37.41-37.41-17-.85-32.32-8.09-43.59-19.37a66.446 66.446 0 01-15.46-24.24c-4.18 3.1-8.12 6.51-11.8 10.17-3.67 3.67-7.07 7.62-10.17 11.81 9.2 3.35 17.45 8.67 24.23 15.46 11.28 11.27 18.52 26.59 19.37 43.59zm44.13-37.43c9.53 17.19 20.16 27.84 37.41 37.41.84-16.99 8.08-32.31 19.36-43.58 6.79-6.79 15.04-12.12 24.24-15.46-3.11-4.19-6.5-8.13-10.18-11.81-3.67-3.66-7.61-7.07-11.8-10.17a66.446 66.446 0 01-15.46 24.24c-11.27 11.27-26.59 18.52-43.58 19.36zm37.41 44.13c-17.25 9.57-27.88 20.24-37.41 37.41 16.99.85 32.31 8.08 43.58 19.36a66.6 66.6 0 0115.47 24.24c4.18-3.1 8.11-6.5 11.79-10.17 3.68-3.67 7.07-7.62 10.18-11.8a66.363 66.363 0 01-24.24-15.46c-11.27-11.27-18.52-26.59-19.36-43.59zm-44.13 37.41c-9.57-17.26-20.23-27.88-37.41-37.43-.85 17-8.08 32.32-19.37 43.6a66.324 66.324 0 01-24.23 15.46c3.1 4.18 6.5 8.12 10.17 11.8 3.67 3.67 7.61 7.07 11.8 10.17 3.35-9.2 8.67-17.45 15.46-24.24 11.27-11.27 26.59-18.51 43.59-19.36zm562.46 66.34h5.62l-26.52 26.51 16.1 16.11c3.31-4.52 6.96-8.79 10.94-12.77 4.18-4.18 8.67-7.99 13.44-11.42a66.646 66.646 0 01-2.59-18.42h4.28c0 5.47.72 10.79 2.04 15.85 11.64-7.66 24.7-13.09 38.44-15.85h43.25c13.74 2.76 26.81 8.2 38.44 15.85a61.934 61.934 0 002.04-15.85h4.28c0 6.39-.9 12.58-2.59 18.42 4.77 3.43 9.27 7.24 13.44 11.42 3.97 3.97 7.62 8.25 10.93 12.78l16.12-16.12-26.52-26.51h5.61l23.72 23.71v5.62l-16.6 16.6c8.05 11.91 13.77 25.41 16.6 39.52v43.25c-2.8 13.96-8.28 26.95-15.84 38.44l-.76 1.09 16.6 16.6v5.61l-23.72 23.72h-5.61l26.52-26.52-16.14-16.14c-3.32 4.51-6.77 8.67-10.91 12.81-4.18 4.17-8.67 7.99-13.45 11.42 1.69 5.85 2.6 12.03 2.6 18.42h-4.28c-.01-5.47-.72-10.8-2.05-15.85-11.63 7.66-24.69 13.09-38.43 15.85h-43.25c-13.74-2.76-26.8-8.2-38.43-15.85-1.34 5.06-2.04 10.38-2.05 15.85h-4.28c0-6.39.91-12.58 2.6-18.42-4.77-3.43-9.27-7.25-13.45-11.42-3.98-3.98-7.63-8.26-10.94-12.78l-16.11 16.11 26.52 26.52h-5.61l-23.71-23.72v-5.61l16.58-16.59c-8.04-11.9-13.74-25.35-16.58-39.54v-43.25c2.84-14.18 8.54-27.63 16.58-39.54l-16.58-16.58v-5.62l23.71-23.71zm38.37 105.88v2.39c.02-.8.02-1.59 0-2.39zm-.01 2.98c-.3 1.04-.87 1.97-1.62 2.72a6.364 6.364 0 01-4.51 1.86c-1.76 0-3.36-.71-4.51-1.86a6.552 6.552 0 01-1.47-2.32h-29.6v-4.72h29.56l.18-.03c.32-.73.78-1.39 1.33-1.94a6.298 6.298 0 014.51-1.88c1.76 0 3.36.71 4.51 1.87.75.75 1.32 1.69 1.62 2.73-.44-15.31-6.49-30.47-18.15-42.14-6.63-6.62-14.73-11.75-23.79-14.85-11.35 16.76-17.99 37-17.99 58.77 0 21.77 6.64 42 17.99 58.76 9.06-3.1 17.16-8.23 23.79-14.85 11.67-11.67 17.71-26.82 18.15-42.12zm-4.64-3.28c-.37-.37-.91-.62-1.49-.62s-1.1.24-1.48.62c-.38.37-.62.9-.62 1.49 0 .58.24 1.1.61 1.48.38.38.91.62 1.49.62s1.11-.23 1.49-.62c.37-.37.62-.9.62-1.48 0-.59-.23-1.11-.62-1.49zm51.5-43.53c15.28-.46 30.41-6.51 42.07-18.15 6.62-6.62 11.76-14.73 14.85-23.79-16.76-11.35-36.99-17.99-58.76-17.99-21.77 0-42.01 6.64-58.77 17.99a62.322 62.322 0 0014.85 23.79c11.65 11.65 26.77 17.69 42.04 18.15a6.429 6.429 0 01-2.65-1.6 6.372 6.372 0 01-1.87-4.51c0-1.76.72-3.36 1.88-4.51.56-.55 1.21-1 1.94-1.33l.03-.19v-29.55h4.72v29.59c.88.33 1.66.84 2.32 1.48a6.406 6.406 0 011.86 4.51c0 1.76-.72 3.36-1.86 4.51-.73.73-1.64 1.28-2.65 1.6zm-3.35-4.62c.37.38.9.62 1.49.62.58 0 1.1-.24 1.48-.62.38-.37.62-.91.62-1.49s-.23-1.1-.61-1.49c-.38-.36-.91-.61-1.49-.61-.59 0-1.11.23-1.49.62-.37.37-.62.9-.62 1.48s.24 1.11.62 1.49zm46.52 51.57c.48 15.25 6.52 30.35 18.14 41.98 6.63 6.63 14.73 11.76 23.79 14.85 11.35-16.76 17.99-36.99 17.99-58.76 0-21.77-6.64-42.01-17.99-58.77a62.398 62.398 0 00-23.79 14.85c-11.63 11.64-17.68 26.74-18.14 41.99.31-.98.86-1.86 1.57-2.58a6.33 6.33 0 014.51-1.87c1.76 0 3.36.71 4.51 1.88.56.56 1.01 1.21 1.33 1.94l.19.03h29.56v4.72h-29.6a6.44 6.44 0 01-1.48 2.32 6.364 6.364 0 01-4.51 1.86c-1.76 0-3.36-.71-4.51-1.86a6.58 6.58 0 01-1.57-2.58zm4.59-3.42c-.37.37-.61.9-.61 1.49 0 .58.23 1.1.62 1.48.37.38.9.62 1.48.62s1.1-.23 1.49-.62c.37-.37.61-.9.61-1.48 0-.59-.23-1.11-.62-1.49-.37-.37-.9-.62-1.48-.62s-1.1.24-1.49.62zm-47.77 46.5c1.01.31 1.92.86 2.65 1.59a6.406 6.406 0 011.86 4.51c0 1.76-.72 3.36-1.86 4.51-.66.65-1.44 1.15-2.32 1.48v29.6h-4.72v-29.56l-.03-.18c-.73-.32-1.39-.78-1.94-1.34a6.34 6.34 0 01-1.88-4.51c0-1.76.72-3.36 1.87-4.51.73-.73 1.64-1.27 2.65-1.59-15.27.46-30.39 6.51-42.04 18.15a62.044 62.044 0 00-14.85 23.78c16.76 11.36 37 17.99 58.77 17.99 21.77 0 42-6.63 58.76-17.99-3.1-9.06-8.24-17.16-14.85-23.78-11.66-11.66-26.79-17.71-42.07-18.15zm-3.35 4.61c-.37.38-.62.91-.62 1.49s.24 1.1.62 1.49c.37.37.9.61 1.49.61.58 0 1.1-.23 1.49-.61.37-.38.61-.91.61-1.49s-.23-1.1-.62-1.48c-.37-.38-.9-.62-1.48-.62-.59 0-1.11.23-1.49.61zm12.18-36.29h-3.75l.01-.47c.07-2.18.12-4.35.15-6.51.02-1.93.04-3.96.04-6.06h-14.35c0 2.01.01 4.04.04 6.06.03 2.16.08 4.33.14 6.51l.02.47h-4.22l.01-.47c.12-4.24.19-8.54.19-12.87 0-4.34-.07-8.64-.19-12.88l-.01-.46h4.22l-.01.46c-.06 1.85-.11 3.68-.13 5.51l-.06 5.06h14.35l-.06-5.06c-.03-1.83-.08-3.66-.13-5.51l-.01-.46h4.22l-.01.46c-.13 4.25-.19 8.54-.19 12.88 0 4.33.06 8.62.19 12.87l.01.47h-.47zm27.93-13.34c-17.04-9.69-29.91-22.56-38.61-38.61-8.69 16.05-21.56 28.92-38.61 38.61 17.05 9.69 29.92 22.56 38.61 38.6 8.7-16.04 21.57-28.91 38.61-38.6zm-79.38-3.35c17.19-9.54 27.84-20.16 37.41-37.43-17-.85-32.32-8.08-43.59-19.37a66.324 66.324 0 01-15.46-24.23c-4.18 3.1-8.12 6.5-11.8 10.17a105.92 105.92 0 00-10.17 11.8c9.2 3.35 17.45 8.67 24.23 15.46 11.28 11.27 18.52 26.59 19.37 43.6zm44.13-37.43c9.53 17.18 20.16 27.84 37.41 37.41.84-17 8.08-32.32 19.36-43.59a66.446 66.446 0 0124.24-15.46c-3.11-4.19-6.5-8.12-10.18-11.8-3.67-3.67-7.61-7.07-11.8-10.17a66.324 66.324 0 01-15.46 24.23c-11.27 11.28-26.59 18.52-43.58 19.37zm37.41 44.13c-17.25 9.57-27.88 20.23-37.41 37.41 16.99.84 32.31 8.08 43.58 19.36a66.6 66.6 0 0115.47 24.24c4.18-3.1 8.11-6.51 11.79-10.18 3.68-3.66 7.07-7.61 10.18-11.8a66.47 66.47 0 01-24.24-15.45c-11.27-11.28-18.52-26.6-19.36-43.59zm-44.13 37.41c-9.57-17.26-20.23-27.89-37.41-37.43-.85 17-8.08 32.32-19.37 43.6a66.43 66.43 0 01-24.23 15.45c3.1 4.19 6.5 8.13 10.17 11.8s7.61 7.08 11.8 10.18c3.35-9.2 8.67-17.45 15.46-24.24 11.27-11.27 26.59-18.52 43.59-19.36zM15211.12 0h5.61l-26.52 26.52 16.11 16.11c3.3-4.52 6.96-8.8 10.94-12.78 4.17-4.17 8.67-7.98 13.44-11.41a66.396 66.396 0 01-2.59-18.43h4.28c0 5.48.71 10.8 2.04 15.85 11.63-7.66 24.69-13.09 38.44-15.85h43.25c13.74 2.76 26.8 8.2 38.43 15.85a61.82 61.82 0 002.04-15.85h4.29c0 6.39-.91 12.58-2.59 18.43 4.77 3.43 9.26 7.24 13.43 11.41 3.98 3.98 7.63 8.26 10.94 12.78l16.11-16.11L15372.25 0h5.61l23.72 23.72v5.61l-16.59 16.6c8.04 11.92 13.76 25.41 16.59 39.53v43.25c-2.8 13.95-8.27 26.95-15.84 38.44l-.75 1.08 16.59 16.6v5.61l-23.72 23.72h-5.61l26.52-26.52-16.14-16.14c-3.32 4.52-6.77 8.68-10.91 12.81-4.17 4.18-8.67 7.99-13.44 11.43a66.632 66.632 0 012.6 18.41h-4.29c0-5.47-.71-10.79-2.04-15.84-11.63 7.66-24.69 13.09-38.43 15.84h-43.25c-13.75-2.75-26.81-8.19-38.44-15.84a62.243 62.243 0 00-2.04 15.84h-4.28c0-6.38.91-12.57 2.59-18.41-4.77-3.44-9.27-7.25-13.44-11.43-3.98-3.98-7.64-8.25-10.94-12.77l-16.11 16.1 26.52 26.52h-5.61l-23.72-23.72v-5.61l16.59-16.59c-8.05-11.9-13.74-25.35-16.59-39.53V85.46c2.85-14.18 8.54-27.64 16.59-39.54l-16.59-16.59v-5.61L15211.12 0zm38.37 105.89v2.38c.01-.8.01-1.59 0-2.38zm-.02 2.97c-.3 1.04-.86 1.97-1.61 2.72a6.372 6.372 0 01-9.02 0 6.537 6.537 0 01-1.48-2.31h-29.6v-4.74h29.56l.18-.03c.32-.73.78-1.39 1.34-1.94a6.33 6.33 0 014.51-1.87c1.76 0 3.36.71 4.51 1.86.75.76 1.31 1.69 1.61 2.73-.44-15.3-6.49-30.46-18.15-42.13-6.62-6.62-14.73-11.76-23.78-14.85-11.36 16.76-17.99 36.99-17.99 58.76 0 21.77 6.63 42.01 17.99 58.77a62.261 62.261 0 0023.78-14.86c11.67-11.66 17.72-26.82 18.15-42.12zm-4.63-3.27c-.38-.37-.91-.62-1.49-.62s-1.1.24-1.49.62c-.37.37-.61.9-.61 1.48 0 .59.23 1.11.61 1.49.38.37.91.62 1.49.62s1.1-.24 1.48-.62c.38-.38.62-.91.62-1.49 0-.59-.23-1.1-.61-1.48zm51.49-43.54c15.28-.45 30.42-6.5 42.07-18.14a62.134 62.134 0 0014.86-23.79c-16.78-11.36-37-17.99-58.77-17.99-21.77 0-42 6.63-58.76 17.99 3.1 9.06 8.24 17.16 14.85 23.79 11.64 11.64 26.77 17.69 42.04 18.14a6.444 6.444 0 01-2.66-1.59 6.364 6.364 0 01-1.86-4.51c0-1.76.71-3.36 1.87-4.51.56-.56 1.21-1.01 1.94-1.34l.03-.18V20.36h4.74v29.6c.87.32 1.66.83 2.31 1.48a6.372 6.372 0 010 9.02 6.45 6.45 0 01-2.65 1.59zm-3.34-4.61a2.102 2.102 0 003.58-1.49c0-.58-.23-1.1-.61-1.49-.37-.37-.9-.61-1.49-.61-.58 0-1.1.23-1.48.62-.38.37-.62.9-.62 1.48s.23 1.1.62 1.49zm46.52 51.57c.48 15.25 6.52 30.35 18.14 41.97a61.984 61.984 0 0023.79 14.86c11.35-16.76 17.99-37 17.99-58.77 0-21.77-6.64-42-17.99-58.76-9.06 3.1-17.17 8.24-23.79 14.85-11.63 11.63-17.68 26.74-18.14 41.99.3-.99.85-1.87 1.57-2.59a6.34 6.34 0 014.5-1.86c1.77 0 3.36.71 4.51 1.87.56.56 1.01 1.21 1.34 1.94l.18.03h29.56v4.74h-29.6c-.31.87-.83 1.66-1.48 2.31a6.354 6.354 0 01-4.51 1.87c-1.76 0-3.35-.72-4.5-1.87a6.361 6.361 0 01-1.57-2.57zm4.59-3.42c-.38.37-.62.89-.62 1.48 0 .58.24 1.1.62 1.49.38.37.91.62 1.48.62a2.116 2.116 0 002.11-2.11c0-.58-.24-1.1-.62-1.48-.37-.37-.9-.62-1.49-.62-.57 0-1.09.24-1.48.62zm-47.78 46.49c1.02.31 1.92.87 2.65 1.6a6.354 6.354 0 011.87 4.51c0 1.76-.72 3.35-1.87 4.51-.65.64-1.44 1.14-2.31 1.47v29.6h-4.74v-29.56l-.03-.18c-.73-.32-1.39-.77-1.94-1.33a6.348 6.348 0 01-1.87-4.51c0-1.77.71-3.36 1.86-4.51.74-.73 1.64-1.28 2.66-1.6-15.27.47-30.4 6.51-42.04 18.15-6.62 6.63-11.76 14.73-14.85 23.79 16.76 11.35 36.99 17.99 58.76 17.99 21.77 0 42-6.64 58.77-17.99a62.3 62.3 0 00-14.86-23.79c-11.65-11.65-26.79-17.7-42.07-18.15zm-3.34 4.62c-.38.37-.62.91-.62 1.49s.23 1.1.62 1.48c.37.38.9.62 1.48.62.59 0 1.11-.24 1.49-.61.37-.38.61-.91.61-1.49a2.1 2.1 0 00-.61-1.49c-.38-.37-.91-.62-1.49-.62s-1.1.23-1.48.62zm12.18-36.3h-3.76l.02-.46c.06-2.19.11-4.35.14-6.52.03-1.92.04-3.95.05-6.06h-14.36c0 2.02.02 4.05.04 6.06.04 2.17.08 4.33.15 6.52l.01.46h-4.21l.01-.46c.12-4.25.18-8.54.18-12.88 0-4.33-.06-8.63-.18-12.87l-.01-.47h4.21l-.01.47c-.05 1.84-.1 3.68-.13 5.5l-.05 5.06h14.34l-.05-5.06c-.04-1.82-.08-3.66-.13-5.5l-.02-.47h4.22l-.01.47c-.12 4.24-.19 8.54-.19 12.87 0 4.34.07 8.63.19 12.88l.01.46h-.46zm27.92-13.34c-17.04-9.69-29.91-22.56-38.6-38.6-8.7 16.04-21.57 28.91-38.61 38.6 17.04 9.69 29.91 22.56 38.61 38.61 8.69-16.05 21.56-28.92 38.6-38.61zm-79.37-3.35c17.19-9.53 27.83-20.16 37.41-37.41-17-.85-32.32-8.09-43.6-19.37a66.553 66.553 0 01-15.45-24.24c-4.19 3.1-8.13 6.51-11.81 10.17-3.67 3.67-7.07 7.62-10.17 11.81 9.2 3.35 17.45 8.67 24.24 15.46 11.27 11.27 18.52 26.59 19.37 43.59zm44.12-37.43c9.53 17.19 20.16 27.84 37.41 37.41.85-16.99 8.08-32.31 19.37-43.58a66.195 66.195 0 0124.23-15.46c-3.1-4.19-6.5-8.13-10.17-11.81-3.67-3.66-7.62-7.07-11.8-10.17a66.446 66.446 0 01-15.46 24.24c-11.28 11.27-26.59 18.52-43.59 19.36zm37.41 44.13c-17.25 9.57-27.88 20.24-37.41 37.41 17 .85 32.31 8.08 43.59 19.36a66.446 66.446 0 0115.46 24.24c4.18-3.1 8.12-6.5 11.8-10.17 3.67-3.67 7.07-7.62 10.17-11.8a66.324 66.324 0 01-24.23-15.46c-11.28-11.27-18.52-26.59-19.37-43.59zm-44.12 37.41c-9.58-17.26-20.23-27.88-37.41-37.43-.85 17-8.09 32.32-19.37 43.6a66.446 66.446 0 01-24.24 15.46c3.1 4.18 6.5 8.12 10.17 11.8 3.67 3.67 7.62 7.07 11.8 10.17 3.36-9.2 8.68-17.45 15.46-24.24 11.28-11.27 26.6-18.51 43.6-19.36zm776.61 280.49h5.61l-26.52 26.52 16.11 16.11c3.3-4.52 6.96-8.8 10.94-12.78 4.17-4.17 8.67-7.98 13.44-11.41a66.396 66.396 0 01-2.59-18.43h4.28c0 5.48.71 10.8 2.04 15.85 11.63-7.66 24.69-13.09 38.44-15.85h43.25c13.74 2.76 26.8 8.2 38.43 15.85a61.82 61.82 0 002.04-15.85h4.29c0 6.39-.91 12.58-2.59 18.43 4.77 3.43 9.26 7.24 13.43 11.41 3.98 3.98 7.63 8.26 10.94 12.78l16.11-16.11-26.52-26.52h5.61l23.72 23.72v5.61l-16.59 16.6c8.04 11.92 13.76 25.41 16.59 39.53v43.25c-2.8 13.95-8.27 26.95-15.84 38.44l-.75 1.08 16.59 16.6v5.61l-23.72 23.72h-5.61l26.52-26.52-16.14-16.14c-3.32 4.52-6.77 8.68-10.91 12.81-4.17 4.18-8.67 7.99-13.44 11.43a66.632 66.632 0 012.6 18.41h-4.29c0-5.47-.71-10.79-2.04-15.84-11.63 7.66-24.69 13.09-38.43 15.84h-43.25c-13.75-2.75-26.81-8.19-38.44-15.84a62.243 62.243 0 00-2.04 15.84h-4.28c0-6.38.91-12.57 2.59-18.41-4.77-3.44-9.27-7.25-13.44-11.43-3.98-3.98-7.64-8.25-10.94-12.77l-16.11 16.1 26.52 26.52h-5.61l-23.72-23.72v-5.61l16.59-16.59c-8.05-11.9-13.74-25.35-16.59-39.53v-43.25c2.85-14.18 8.54-27.64 16.59-39.54l-16.59-16.59v-5.61l23.72-23.72zm38.37 105.89v2.38c.01-.8.01-1.59 0-2.38zm-.02 2.97c-.3 1.04-.86 1.97-1.61 2.72a6.372 6.372 0 01-9.02 0 6.537 6.537 0 01-1.48-2.31h-29.6v-4.74h29.56l.18-.03c.32-.73.78-1.39 1.34-1.94a6.33 6.33 0 014.51-1.87c1.76 0 3.36.71 4.51 1.86.75.76 1.31 1.69 1.61 2.73-.44-15.3-6.49-30.46-18.15-42.13-6.62-6.62-14.73-11.76-23.78-14.85-11.36 16.76-17.99 36.99-17.99 58.76 0 21.77 6.63 42.01 17.99 58.77a62.261 62.261 0 0023.78-14.86c11.67-11.66 17.72-26.82 18.15-42.12zm-4.63-3.27c-.38-.37-.91-.62-1.49-.62s-1.1.24-1.49.62c-.37.37-.61.9-.61 1.48 0 .59.23 1.11.61 1.49.38.37.91.62 1.49.62s1.1-.24 1.48-.62c.38-.38.62-.91.62-1.49 0-.59-.23-1.1-.61-1.48zm51.49-43.54c15.28-.45 30.42-6.5 42.07-18.14a62.134 62.134 0 0014.86-23.79c-16.78-11.36-37-17.99-58.77-17.99-21.77 0-42 6.63-58.76 17.99 3.1 9.06 8.24 17.16 14.85 23.79 11.64 11.64 26.77 17.69 42.04 18.14a6.444 6.444 0 01-2.66-1.59 6.364 6.364 0 01-1.86-4.51c0-1.76.71-3.36 1.87-4.51.56-.56 1.21-1.01 1.94-1.34l.03-.18v-29.56h4.74v29.6c.87.32 1.66.83 2.31 1.48a6.372 6.372 0 010 9.02 6.45 6.45 0 01-2.65 1.59zm-3.34-4.61a2.102 2.102 0 003.58-1.49c0-.58-.23-1.1-.61-1.49-.37-.37-.9-.61-1.49-.61-.58 0-1.1.23-1.48.62-.38.37-.62.9-.62 1.48s.23 1.1.62 1.49zm46.52 51.57c.48 15.25 6.52 30.35 18.14 41.97a61.984 61.984 0 0023.79 14.86c11.35-16.76 17.99-37 17.99-58.77 0-21.77-6.64-42-17.99-58.76-9.06 3.1-17.17 8.24-23.79 14.85-11.63 11.63-17.68 26.74-18.14 41.99.3-.99.85-1.87 1.57-2.59a6.34 6.34 0 014.5-1.86c1.77 0 3.36.71 4.51 1.87.56.56 1.01 1.21 1.34 1.94l.18.03h29.56v4.74h-29.6c-.31.87-.83 1.66-1.48 2.31a6.354 6.354 0 01-4.51 1.87c-1.76 0-3.35-.72-4.5-1.87a6.361 6.361 0 01-1.57-2.57zm4.59-3.42c-.38.37-.62.89-.62 1.48 0 .58.24 1.1.62 1.49.38.37.91.62 1.48.62a2.116 2.116 0 002.11-2.11c0-.58-.24-1.1-.62-1.48-.37-.37-.9-.62-1.49-.62-.57 0-1.09.24-1.48.62zm-47.78 46.49c1.02.31 1.92.87 2.65 1.6a6.354 6.354 0 011.87 4.51c0 1.76-.72 3.35-1.87 4.51-.65.64-1.44 1.14-2.31 1.47v29.6h-4.74v-29.56l-.03-.18c-.73-.32-1.39-.77-1.94-1.33a6.348 6.348 0 01-1.87-4.51c0-1.77.71-3.36 1.86-4.51.74-.73 1.64-1.28 2.66-1.6-15.27.47-30.4 6.51-42.04 18.15-6.62 6.63-11.76 14.73-14.85 23.79 16.76 11.35 36.99 17.99 58.76 17.99 21.77 0 42-6.64 58.77-17.99a62.3 62.3 0 00-14.86-23.79c-11.65-11.65-26.79-17.7-42.07-18.15zm-3.34 4.62c-.38.37-.62.91-.62 1.49s.23 1.1.62 1.48c.37.38.9.62 1.48.62.59 0 1.11-.24 1.49-.61.37-.38.61-.91.61-1.49a2.1 2.1 0 00-.61-1.49c-.38-.37-.91-.62-1.49-.62s-1.1.23-1.48.62zm12.18-36.3h-3.76l.02-.46c.06-2.19.11-4.35.14-6.52.03-1.92.04-3.95.05-6.06h-14.36c0 2.02.02 4.05.04 6.06.04 2.17.08 4.33.15 6.52l.01.46h-4.21l.01-.46c.12-4.25.18-8.54.18-12.88 0-4.33-.06-8.63-.18-12.87l-.01-.47h4.21l-.01.47c-.05 1.84-.1 3.68-.13 5.5l-.05 5.06h14.34l-.05-5.06c-.04-1.82-.08-3.66-.13-5.5l-.02-.47h4.22l-.01.47c-.12 4.24-.19 8.54-.19 12.87 0 4.34.07 8.63.19 12.88l.01.46h-.46zm27.92-13.34c-17.04-9.69-29.91-22.56-38.6-38.6-8.7 16.04-21.57 28.91-38.61 38.6 17.04 9.69 29.91 22.56 38.61 38.61 8.69-16.05 21.56-28.92 38.6-38.61zm-79.37-3.35c17.19-9.53 27.83-20.16 37.41-37.41-17-.85-32.32-8.09-43.6-19.37a66.553 66.553 0 01-15.45-24.24c-4.19 3.1-8.13 6.51-11.81 10.17-3.67 3.67-7.07 7.62-10.17 11.81 9.2 3.35 17.45 8.67 24.24 15.46 11.27 11.27 18.52 26.59 19.37 43.59zm44.12-37.43c9.53 17.19 20.16 27.84 37.41 37.41.85-16.99 8.08-32.31 19.37-43.58a66.195 66.195 0 0124.23-15.46c-3.1-4.19-6.5-8.13-10.17-11.81-3.67-3.66-7.62-7.07-11.8-10.17a66.446 66.446 0 01-15.46 24.24c-11.28 11.27-26.59 18.52-43.59 19.36zm37.41 44.13c-17.25 9.57-27.88 20.24-37.41 37.41 17 .85 32.31 8.08 43.59 19.36a66.446 66.446 0 0115.46 24.24c4.18-3.1 8.12-6.5 11.8-10.17 3.67-3.67 7.07-7.62 10.17-11.8a66.324 66.324 0 01-24.23-15.46c-11.28-11.27-18.52-26.59-19.37-43.59zm-44.12 37.41c-9.58-17.26-20.23-27.88-37.41-37.43-.85 17-8.09 32.32-19.37 43.6a66.446 66.446 0 01-24.24 15.46c3.1 4.18 6.5 8.12 10.17 11.8 3.67 3.67 7.62 7.07 11.8 10.17 3.36-9.2 8.68-17.45 15.46-24.24 11.28-11.27 26.6-18.51 43.6-19.36z" fill="#11ab68" fill-rule="nonzero"/><path d="M4580.03 23.76c-13.97-7.82-27.93-15.58-41.9-23.38l-.01 33.87c-5.66-3.35-11.77-6.02-18.18-7.97-7.84-2.4-16.14-3.68-24.75-3.68-8.59 0-16.9 1.28-24.72 3.68a83.62 83.62 0 00-18.2 7.99l-.01-33.89-41.9 23.38c.1 55.78.01 111.54.01 167.32l41.9 23.35.01-33.8c5.7 3.32 11.79 6.02 18.22 7.98 7.79 2.39 16.11 3.67 24.7 3.67 8.61 0 16.91-1.28 24.75-3.67 6.39-1.96 12.5-4.66 18.17-7.98v33.81l41.91-23.36V23.76zm-5.6 164.01l-30.71 17.14-.01-34.61-4.36 2.93a79.3 79.3 0 01-21.02 10.02 79.268 79.268 0 01-23.13 3.43c-8.04 0-15.79-1.2-23.09-3.43-7.56-2.3-14.63-5.72-21.06-10.02l-4.36-2.93v34.61l-30.71-17.14V27.06l30.69-17.12.01 34.64 4.36-2.93a80.065 80.065 0 0121.06-10.04c7.3-2.21 15.03-3.39 23.09-3.39 8.04 0 15.82 1.18 23.14 3.39a79.652 79.652 0 0121.02 10.04l4.37 2.95.01-34.66 30.7 17.12v160.71zM4495.2 57.01c-13.92 0-26.54 5.65-35.66 14.76-9.13 9.14-14.76 21.74-14.76 35.66 0 13.92 5.64 26.53 14.76 35.66 9.13 9.14 21.74 14.76 35.66 14.76 13.91 0 26.53-5.63 35.65-14.77 9.14-9.13 14.79-21.73 14.79-35.65 0-13.92-5.66-26.53-14.78-35.65-9.14-9.13-21.75-14.77-35.66-14.77zm-31.67 18.74c8.07-8.1 19.3-13.12 31.67-13.12 12.39 0 23.58 5.01 31.69 13.11 8.12 8.1 13.12 19.31 13.12 31.7 0 12.36-5.02 23.58-13.12 31.67-8.1 8.15-19.29 13.16-31.69 13.16a44.51 44.51 0 01-31.67-13.16 44.599 44.599 0 01-13.14-31.67c0-12.38 5.02-23.59 13.14-31.69zM169.67 23.76C155.7 15.94 141.73 8.18 127.76.38l-.01 33.87c-5.65-3.35-11.78-6.02-18.2-7.97-7.82-2.4-16.1-3.68-24.73-3.68-8.6 0-16.9 1.28-24.72 3.68a82.653 82.653 0 00-18.21 7.99L41.88.38-.01 23.76C.09 79.54 0 135.3 0 191.08l41.89 23.35.03-33.8a84.741 84.741 0 0018.2 7.98c7.8 2.39 16.1 3.67 24.7 3.67 8.63 0 16.91-1.28 24.74-3.67a84.8 84.8 0 0018.18-7.98l.01 33.81 41.92-23.36V23.76zm-5.61 164.01l-30.72 17.14-.02-34.61-4.34 2.93a79.34 79.34 0 01-21.05 10.02 79.033 79.033 0 01-23.11 3.43c-8.01 0-15.8-1.2-23.09-3.43-7.55-2.3-14.65-5.72-21.09-10.02l-4.34-2.93v34.61L5.59 187.77V27.06L36.28 9.94l.01 34.64 4.35-2.93c6.42-4.32 13.52-7.71 21.06-10.04 7.3-2.21 15.08-3.39 23.11-3.39s15.8 1.18 23.11 3.39a79.839 79.839 0 0121.05 10.04l4.36 2.95.01-34.66 30.71 17.12v160.71zM84.82 57.01c-13.92 0-26.53 5.65-35.65 14.76-9.15 9.14-14.77 21.74-14.77 35.66 0 13.92 5.63 26.53 14.77 35.66 9.13 9.14 21.73 14.76 35.65 14.76 13.93 0 26.53-5.63 35.64-14.77 9.13-9.13 14.79-21.73 14.79-35.65 0-13.92-5.67-26.53-14.78-35.65-9.13-9.13-21.73-14.77-35.65-14.77zM53.13 75.75c8.11-8.1 19.3-13.12 31.69-13.12 12.38 0 23.59 5.01 31.68 13.11 8.13 8.1 13.12 19.31 13.12 31.7 0 12.36-5 23.58-13.12 31.67-8.08 8.15-19.29 13.16-31.68 13.16-12.38 0-23.57-5.02-31.69-13.16-8.11-8.08-13.12-19.3-13.12-31.67 0-12.38 5.01-23.59 13.12-31.69zm455.76 376.13c-13.94-7.82-27.91-15.61-41.88-23.38v33.86a83.84 83.84 0 00-18.19-7.98c-7.83-2.39-16.14-3.65-24.75-3.65-8.59 0-16.89 1.26-24.72 3.65a82.97 82.97 0 00-18.19 7.99l-.02-33.87-41.89 23.38c.09 55.75 0 111.54 0 167.27l41.91 23.4v-33.83c5.69 3.33 11.77 6.04 18.2 7.98a84.48 84.48 0 0024.71 3.68c8.62 0 16.92-1.3 24.75-3.68a83.549 83.549 0 0018.18-7.98l.01 33.83 41.89-23.4-.01-167.27zm-5.55 164l-30.71 17.14-.03-34.6-4.35 2.92a79.22 79.22 0 01-21.05 10.03c-7.29 2.24-15.07 3.42-23.12 3.42-8.02 0-15.77-1.18-23.08-3.42a79.912 79.912 0 01-21.09-10.03l-4.34-2.92v34.59l-30.75-17.13V455.17l30.73-17.12.01 34.65 4.35-2.94A79.684 79.684 0 01401 459.71c7.3-2.2 15.04-3.39 23.08-3.39 8.03 0 15.82 1.19 23.12 3.39a79.569 79.569 0 0121.05 10.05l4.38 2.95.01-34.66 30.7 17.12v160.71zm-79.26-130.76c-13.9 0-26.52 5.64-35.65 14.77-9.12 9.14-14.78 21.74-14.78 35.66 0 13.91 5.67 26.51 14.78 35.65 9.14 9.14 21.75 14.77 35.65 14.77 13.92 0 26.54-5.64 35.66-14.78 9.13-9.14 14.79-21.73 14.79-35.64 0-13.92-5.67-26.52-14.79-35.65-9.13-9.15-21.75-14.78-35.66-14.78zm-31.68 18.74c8.11-8.1 19.3-13.12 31.68-13.12 12.4 0 23.59 5.01 31.7 13.11 8.09 8.1 13.12 19.32 13.12 31.71 0 12.35-5.04 23.58-13.12 31.67-8.1 8.12-19.29 13.14-31.7 13.14-12.37 0-23.56-5.02-31.68-13.14a44.632 44.632 0 01-13.11-31.67c0-12.38 5-23.6 13.11-31.7zm625.39-266.04c-13.96-7.81-27.94-15.6-41.9-23.4v33.87a85.258 85.258 0 00-18.21-7.98c-7.81-2.38-16.12-3.65-24.72-3.65-8.61 0-16.92 1.27-24.75 3.65a84.822 84.822 0 00-18.19 8l-.01-33.89-41.89 23.4c.1 55.76.01 111.55.01 167.28l41.89 23.39.02-33.82c5.69 3.33 11.77 6.03 18.19 7.97 7.81 2.39 16.12 3.67 24.74 3.67 8.6 0 16.9-1.28 24.72-3.67a83.809 83.809 0 0018.19-7.97l.01 33.83 41.9-23.4V237.82zm-5.61 163.99l-30.71 17.15-.01-34.62-4.36 2.95c-6.41 4.3-13.5 7.71-21.03 10.01a79.268 79.268 0 01-23.1 3.43c-8.05 0-15.8-1.2-23.13-3.43a79.843 79.843 0 01-21.04-10.01l-4.35-2.95v34.62l-30.74-17.15V241.12l30.72-17.13.01 34.65 4.36-2.93a78.404 78.404 0 0121.04-10.04c7.33-2.22 15.07-3.4 23.12-3.4 8.01 0 15.79 1.18 23.11 3.4a78.03 78.03 0 0121.03 10.04l4.37 2.94.01-34.66 30.7 17.13v160.69zm-79.21-130.75c-13.96 0-26.56 5.63-35.68 14.77-9.12 9.14-14.76 21.74-14.76 35.64 0 13.94 5.65 26.54 14.76 35.67 9.13 9.12 21.72 14.77 35.68 14.77 13.9 0 26.52-5.66 35.63-14.78 9.13-9.13 14.79-21.72 14.79-35.66 0-13.9-5.67-26.51-14.78-35.63-9.13-9.16-21.75-14.78-35.64-14.78zm-31.71 18.73c8.11-8.09 19.31-13.12 31.71-13.12 12.37 0 23.56 5.03 31.66 13.11 8.12 8.11 13.13 19.31 13.13 31.7 0 12.37-5.03 23.59-13.13 31.7-8.09 8.12-19.28 13.11-31.66 13.11-12.39 0-23.59-5-31.71-13.11-8.11-8.1-13.1-19.32-13.1-31.7 0-12.38 4.99-23.58 13.1-31.69zm625.44 376.16c-13.97-7.83-27.95-15.61-41.9-23.39l-.01 33.83c-5.7-3.31-11.77-6-18.19-7.94-7.83-2.4-16.14-3.67-24.75-3.66-8.6-.01-16.9 1.26-24.74 3.66a84.401 84.401 0 00-18.18 7.96l-.02-33.85-41.88 23.39c.09 55.75.01 111.52.01 167.28l41.89 23.37.01-33.82a84.404 84.404 0 0018.18 7.98c7.83 2.4 16.14 3.67 24.74 3.67 8.61 0 16.91-1.27 24.75-3.67a84.325 84.325 0 0018.17-7.98l.01 33.83 41.91-23.38V665.95zm-5.6 164l-30.71 17.13-.02-34.61-4.38 2.93a78.281 78.281 0 01-21.02 10.03c-7.29 2.22-15.08 3.41-23.11 3.41s-15.79-1.19-23.09-3.41a78.94 78.94 0 01-21.08-10.03l-4.35-2.93v34.6l-30.73-17.12V669.22l30.71-17.13.01 34.67 4.35-2.94a79.433 79.433 0 0121.08-10.04c7.29-2.21 15.06-3.39 23.09-3.39s15.82 1.18 23.12 3.39c7.54 2.29 14.62 5.72 21.02 10.04l4.4 2.95.01-34.68 30.7 17.13v160.73zm-79.24-130.77a50.2 50.2 0 00-35.65 14.78c-9.14 9.13-14.79 21.74-14.79 35.64 0 13.92 5.66 26.53 14.79 35.65 9.12 9.15 21.74 14.77 35.65 14.77s26.5-5.63 35.66-14.77c9.11-9.13 14.77-21.73 14.77-35.65 0-13.9-5.67-26.52-14.77-35.63-9.17-9.16-21.75-14.79-35.66-14.79zm-31.71 18.74c8.11-8.1 19.32-13.12 31.71-13.12 12.38 0 23.57 5.01 31.69 13.12 8.11 8.09 13.11 19.3 13.11 31.69 0 12.37-5 23.59-13.11 31.69-8.11 8.11-19.3 13.13-31.69 13.13-12.38 0-23.59-5.03-31.71-13.13a44.728 44.728 0 01-13.09-31.69c0-12.38 5-23.59 13.09-31.69zm455.78-480.1c-13.95-7.81-27.92-15.6-41.9-23.4v33.87a85.904 85.904 0 00-18.18-7.98c-7.83-2.38-16.14-3.65-24.75-3.65-8.59 0-16.92 1.27-24.73 3.65a84.684 84.684 0 00-18.2 8l-.02-33.89-41.88 23.4c.1 55.76.01 111.55.01 167.28l41.89 23.39.01-33.82c5.69 3.33 11.77 6.03 18.2 7.97 7.81 2.39 16.13 3.67 24.73 3.67 8.6 0 16.91-1.28 24.75-3.67a84.215 84.215 0 0018.16-7.97l.01 33.83 41.91-23.4-.01-167.28zm-5.6 163.99l-30.69 17.15-.02-34.62-4.37 2.95c-6.39 4.3-13.5 7.71-21.04 10.01a79.016 79.016 0 01-23.1 3.43c-8.04 0-15.8-1.2-23.11-3.43a79.398 79.398 0 01-21.04-10.01l-4.36-2.95v34.62l-30.74-17.15V241.12l30.73-17.13v34.65l4.35-2.93a78.61 78.61 0 0121.05-10.04c7.32-2.22 15.06-3.4 23.11-3.4 8.04 0 15.8 1.18 23.11 3.4a77.665 77.665 0 0121.04 10.04l4.39 2.94v-34.66l30.69 17.13v160.69zm-79.22-130.75c-13.92 0-26.53 5.63-35.66 14.77-9.14 9.14-14.78 21.74-14.78 35.64 0 13.94 5.65 26.54 14.78 35.67 9.14 9.12 21.74 14.77 35.66 14.77 13.91 0 26.51-5.66 35.63-14.78 9.15-9.13 14.8-21.72 14.8-35.66 0-13.9-5.66-26.51-14.79-35.63-9.14-9.16-21.74-14.78-35.64-14.78zm-31.71 18.73c8.11-8.09 19.32-13.12 31.71-13.12 12.37 0 23.58 5.03 31.67 13.11 8.11 8.11 13.13 19.31 13.13 31.7 0 12.37-5.03 23.59-13.13 31.7-8.08 8.12-19.29 13.11-31.67 13.11a44.727 44.727 0 01-44.8-44.81c0-12.38 4.99-23.58 13.09-31.69zm455.8-51.97c-13.93-7.81-27.91-15.6-41.89-23.4l-.01 33.87a85.018 85.018 0 00-18.18-7.98c-7.83-2.38-16.16-3.65-24.74-3.65-8.59 0-16.91 1.27-24.74 3.65a84.605 84.605 0 00-18.19 8l-.01-33.89-41.89 23.4c.09 55.76 0 111.55 0 167.28l41.9 23.39.01-33.82c5.69 3.33 11.77 6.03 18.19 7.97 7.82 2.39 16.14 3.67 24.74 3.67 8.58 0 16.9-1.28 24.73-3.67a83.44 83.44 0 0018.17-7.97l.01 33.83 41.91-23.4-.01-167.28zm-5.58 163.99l-30.71 17.15-.01-34.62-4.38 2.95a78.772 78.772 0 01-21.01 10.01 79.335 79.335 0 01-23.11 3.43c-8.04 0-15.8-1.2-23.11-3.43-7.54-2.3-14.62-5.71-21.05-10.01l-4.36-2.95-.01 34.62-30.71-17.15V241.12l30.7-17.13.01 34.65 4.36-2.93a78.61 78.61 0 0121.05-10.04c7.32-2.22 15.06-3.4 23.11-3.4 8.02 0 15.79 1.18 23.12 3.4a77.343 77.343 0 0121.01 10.04l4.39 2.94.01-34.66 30.7 17.13v160.69zm-79.22-130.75c-13.95 0-26.55 5.63-35.67 14.77-9.12 9.14-14.77 21.74-14.77 35.64 0 13.94 5.66 26.54 14.77 35.67 9.13 9.12 21.72 14.77 35.67 14.77 13.91 0 26.52-5.66 35.64-14.78 9.14-9.13 14.79-21.72 14.79-35.66 0-13.9-5.66-26.51-14.78-35.63-9.14-9.16-21.75-14.78-35.65-14.78zm-31.7 18.73c8.1-8.09 19.32-13.12 31.7-13.12 12.37 0 23.58 5.03 31.68 13.11a44.628 44.628 0 0113.12 31.7c0 12.37-5.01 23.59-13.12 31.7-8.09 8.12-19.3 13.11-31.68 13.11-12.37 0-23.59-5-31.7-13.11-8.12-8.1-13.12-19.32-13.12-31.7 0-12.38 5-23.58 13.12-31.69zm625.39 162.09c-13.93-7.82-27.91-15.61-41.87-23.38l-.01 33.86a84.346 84.346 0 00-18.2-7.98c-7.83-2.39-16.14-3.65-24.75-3.65-8.59 0-16.89 1.26-24.73 3.65a83.812 83.812 0 00-18.19 7.99l-.01-33.87-41.89 23.38c.08 55.75 0 111.54 0 167.27l41.9 23.4v-33.83c5.7 3.33 11.78 6.04 18.2 7.98a84.598 84.598 0 0024.72 3.68c8.62 0 16.93-1.3 24.76-3.68a84.11 84.11 0 0018.17-7.98l.02 33.83 41.89-23.4-.01-167.27zm-5.58 164l-30.71 17.14-.02-34.6-4.36 2.92c-6.39 4.32-13.48 7.71-21.01 10.03-7.33 2.24-15.09 3.42-23.14 3.42-8.02 0-15.77-1.18-23.09-3.42a79.725 79.725 0 01-21.06-10.03l-4.35-2.92v34.59l-30.73-17.13V455.17l30.71-17.12.01 34.65 4.35-2.94a80.217 80.217 0 0121.08-10.05c7.32-2.2 15.06-3.39 23.09-3.39 8.04 0 15.81 1.19 23.14 3.39a79.468 79.468 0 0121.01 10.05l4.38 2.95v-34.66l30.71 17.12v160.71zm-79.24-130.76c-13.9 0-26.5 5.64-35.63 14.77-9.16 9.14-14.79 21.74-14.79 35.66 0 13.91 5.64 26.51 14.79 35.65 9.14 9.14 21.73 14.77 35.63 14.77 13.92 0 26.52-5.64 35.66-14.78 9.14-9.14 14.78-21.73 14.78-35.64 0-13.92-5.65-26.52-14.78-35.65-9.15-9.15-21.75-14.78-35.66-14.78zm-31.7 18.74c8.12-8.1 19.32-13.12 31.7-13.12 12.4 0 23.59 5.01 31.71 13.11 8.12 8.1 13.12 19.32 13.12 31.71 0 12.35-5.01 23.58-13.12 31.67-8.11 8.12-19.3 13.14-31.71 13.14-12.37 0-23.57-5.02-31.7-13.14-8.07-8.08-13.12-19.31-13.12-31.67 0-12.38 5.03-23.6 13.12-31.7zm455.8-480.1c-13.94-7.82-27.91-15.58-41.9-23.38v33.87c-5.66-3.35-11.75-6.02-18.17-7.97-7.84-2.4-16.15-3.68-24.76-3.68-8.59 0-16.9 1.28-24.73 3.68a83.409 83.409 0 00-18.2 7.99l-.02-33.89-41.88 23.38c.1 55.78 0 111.54 0 167.32l41.9 23.35v-33.8c5.71 3.32 11.79 6.02 18.21 7.98a84.543 84.543 0 0024.72 3.67c8.62 0 16.93-1.28 24.76-3.67a84.56 84.56 0 0018.15-7.98l.02 33.81 41.91-23.36-.01-167.32zm-5.57 164.01l-30.72 17.14-.01-34.61-4.36 2.93c-6.4 4.3-13.5 7.72-21.03 10.02a79.319 79.319 0 01-23.13 3.43c-8.01 0-15.79-1.2-23.08-3.43a79.402 79.402 0 01-21.06-10.02l-4.37-2.93v34.61l-30.72-17.14V27.06l30.69-17.12.02 34.64 4.37-2.93c6.41-4.32 13.51-7.71 21.06-10.04 7.28-2.21 15.06-3.39 23.09-3.39 8.02 0 15.81 1.18 23.13 3.39a79.565 79.565 0 0121.03 10.04l4.37 2.95.01-34.66 30.71 17.12v160.71zm-79.25-130.76c-13.9 0-26.53 5.65-35.66 14.76-9.12 9.14-14.76 21.74-14.76 35.66 0 13.92 5.65 26.53 14.76 35.66 9.14 9.14 21.76 14.76 35.66 14.76 13.91 0 26.52-5.63 35.66-14.77 9.13-9.13 14.78-21.73 14.78-35.65 0-13.92-5.66-26.53-14.77-35.65-9.16-9.13-21.76-14.77-35.67-14.77zm-31.68 18.74c8.1-8.1 19.31-13.12 31.68-13.12 12.4 0 23.59 5.01 31.71 13.11 8.1 8.1 13.09 19.31 13.09 31.7 0 12.36-5.01 23.58-13.09 31.67-8.11 8.15-19.3 13.16-31.71 13.16-12.36 0-23.57-5.02-31.68-13.16a44.631 44.631 0 01-13.13-31.67c0-12.38 5.02-23.59 13.13-31.69zm286.1 590.2c-13.93-7.83-27.9-15.61-41.87-23.39l-.01 33.83c-5.67-3.31-11.78-6-18.19-7.94-7.84-2.4-16.15-3.67-24.75-3.66-8.62-.01-16.9 1.26-24.73 3.66a84.051 84.051 0 00-18.19 7.96l-.01-33.85-41.91 23.39c.1 55.75.01 111.52.01 167.28l41.91 23.37.01-33.82a83.918 83.918 0 0018.2 7.98c7.81 2.4 16.09 3.67 24.72 3.67 8.59 0 16.9-1.27 24.75-3.67a84.11 84.11 0 0018.17-7.98l.01 33.83 41.88-23.38V665.95zm-5.58 164l-30.7 17.13-.02-34.61-4.36 2.93a78.631 78.631 0 01-21.03 10.03 79.46 79.46 0 01-23.11 3.41c-8.03 0-15.81-1.19-23.12-3.41a78.984 78.984 0 01-21.04-10.03l-4.37-2.93v34.6l-30.71-17.12V669.22l30.69-17.13.01 34.67 4.37-2.94a79.542 79.542 0 0121.05-10.04c7.3-2.21 15.08-3.39 23.11-3.39s15.81 1.18 23.12 3.39c7.52 2.29 14.62 5.72 21.03 10.04l4.38 2.95v-34.68l30.7 17.13v160.73zm-79.22-130.77c-13.92 0-26.55 5.64-35.65 14.78-9.15 9.13-14.78 21.74-14.78 35.64 0 13.92 5.64 26.53 14.78 35.65 9.11 9.15 21.73 14.77 35.65 14.77 13.92 0 26.52-5.63 35.65-14.77 9.13-9.13 14.78-21.73 14.78-35.65 0-13.9-5.66-26.52-14.77-35.63-9.15-9.16-21.75-14.79-35.66-14.79zm-31.7 18.74c8.1-8.1 19.32-13.12 31.7-13.12 12.38 0 23.58 5.01 31.7 13.12 8.1 8.09 13.1 19.3 13.1 31.69 0 12.37-5.02 23.59-13.1 31.69-8.11 8.11-19.31 13.13-31.7 13.13-12.37 0-23.59-5.03-31.7-13.13a44.67 44.67 0 01-13.12-31.69c0-12.38 5.02-23.59 13.12-31.69zm964.66-480.1c-13.96-7.81-27.92-15.6-41.91-23.4v33.87c-5.65-3.33-11.77-6.01-18.17-7.98-7.84-2.38-16.14-3.65-24.75-3.65-8.6 0-16.91 1.27-24.73 3.65-6.42 1.97-12.53 4.65-18.19 8l-.01-33.89-41.89 23.4c.1 55.76.01 111.55.01 167.28l41.89 23.39v-33.82a84.1 84.1 0 0018.2 7.97 84.51 84.51 0 0024.73 3.67c8.6 0 16.9-1.28 24.75-3.67a83.708 83.708 0 0018.15-7.97l.01 33.83 41.91-23.4V237.82zm-5.57 163.99l-30.73 17.15-.01-34.62-4.35 2.95c-6.4 4.3-13.5 7.71-21.04 10.01a79.133 79.133 0 01-23.11 3.43c-8.04 0-15.79-1.2-23.09-3.43a79.207 79.207 0 01-21.08-10.01l-4.36-2.95-.01 34.62-30.71-17.15V241.12l30.7-17.13.01 34.65 4.36-2.93c6.41-4.34 13.5-7.74 21.08-10.04 7.29-2.22 15.04-3.4 23.09-3.4 8.03 0 15.81 1.18 23.12 3.4a77.807 77.807 0 0121.04 10.04l4.36 2.94v-34.66l30.73 17.13v160.69zm-79.24-130.75c-13.93 0-26.55 5.63-35.65 14.77-9.16 9.14-14.78 21.74-14.78 35.64 0 13.94 5.63 26.54 14.78 35.67 9.11 9.12 21.72 14.77 35.65 14.77 13.9 0 26.51-5.66 35.64-14.78 9.13-9.13 14.8-21.72 14.8-35.66 0-13.9-5.68-26.51-14.8-35.63-9.14-9.16-21.75-14.78-35.64-14.78zm-31.69 18.73c8.09-8.09 19.3-13.12 31.69-13.12 12.38 0 23.56 5.03 31.68 13.11a44.66 44.66 0 0113.11 31.7c0 12.37-5.01 23.59-13.11 31.7-8.11 8.12-19.29 13.11-31.68 13.11-12.38 0-23.59-5-31.69-13.11-8.09-8.1-13.13-19.32-13.13-31.7 0-12.38 5.03-23.58 13.13-31.69zm455.77 376.16c-13.95-7.83-27.93-15.61-41.89-23.39l-.01 33.83a84.56 84.56 0 00-18.2-7.94c-7.82-2.4-16.13-3.67-24.73-3.66-8.6-.01-16.91 1.26-24.72 3.66a84.502 84.502 0 00-18.22 7.96l-.02-33.85-41.89 23.39c.1 55.75 0 111.52 0 167.28l41.91 23.37v-33.82c5.69 3.34 11.8 6.03 18.24 7.98 7.79 2.4 16.1 3.67 24.71 3.67 8.6 0 16.9-1.27 24.72-3.67a83.627 83.627 0 0018.19-7.98l.01 33.83 41.91-23.38-.01-167.28zm-5.61 164l-30.71 17.13-.01-34.61-4.36 2.93a78.364 78.364 0 01-21.01 10.03 79.731 79.731 0 01-23.12 3.41c-8.03 0-15.8-1.19-23.11-3.41a79.046 79.046 0 01-21.05-10.03l-4.35-2.93-.01 34.6-30.72-17.12V669.22l30.71-17.13.01 34.67 4.34-2.94a79.729 79.729 0 0121.08-10.04c7.3-2.21 15.04-3.39 23.1-3.39 8.02 0 15.8 1.18 23.13 3.39 7.52 2.29 14.61 5.72 21.01 10.04l4.37 2.95.01-34.68 30.7 17.13v160.73zm-79.21-130.77c-13.94 0-26.55 5.64-35.66 14.78-9.13 9.13-14.77 21.74-14.77 35.64 0 13.92 5.65 26.53 14.77 35.65 9.12 9.15 21.72 14.77 35.66 14.77 13.91 0 26.51-5.63 35.65-14.77 9.14-9.13 14.75-21.73 14.75-35.65 0-13.9-5.62-26.52-14.74-35.63-9.16-9.16-21.76-14.79-35.66-14.79zm-31.68 18.74a44.611 44.611 0 0131.68-13.12c12.39 0 23.58 5.01 31.68 13.12 8.12 8.09 13.13 19.3 13.13 31.69 0 12.37-5.02 23.59-13.13 31.69-8.09 8.11-19.28 13.13-31.68 13.13-12.38 0-23.59-5.03-31.68-13.13a44.604 44.604 0 01-13.14-31.69 44.58 44.58 0 0113.14-31.69z" fill="gray" fill-rule="nonzero"/></svg>