<svg xmlns="http://www.w3.org/2000/svg" width="599.339" height="32" viewBox="0 0 15832.68 845.33" shape-rendering="geometricPrecision" text-rendering="geometricPrecision" image-rendering="optimizeQuality" fill-rule="evenodd" clip-rule="evenodd"><path d="M11420.89 211.34h5.53l-26.17 26.16 15.9 15.9c3.25-4.46 6.87-8.68 10.79-12.6 4.11-4.12 8.56-7.89 13.26-11.27a65.298 65.298 0 01-2.56-18.18h4.22c0 5.4.7 10.64 2.02 15.65 11.47-7.56 24.36-12.92 37.93-15.65h42.68c13.56 2.73 26.45 8.09 37.92 15.65 1.32-5 2.02-10.24 2.02-15.65h4.23c0 6.31-.9 12.41-2.56 18.18a106.8 106.8 0 0113.25 11.27c3.92 3.91 7.53 8.14 10.79 12.61l15.9-15.91-26.17-26.16h5.53l23.4 23.39v5.54l-16.37 16.38c7.94 11.75 13.58 25.07 16.37 39v42.68c-2.77 13.78-8.16 26.6-15.64 37.93l-.74 1.08 16.37 16.38v5.53l-23.4 23.4h-5.53l26.17-26.17-15.93-15.93c-3.27 4.45-6.68 8.56-10.76 12.64-4.11 4.11-8.56 7.89-13.26 11.27a65.674 65.674 0 012.57 18.18h-4.23c0-5.4-.7-10.65-2.02-15.65-11.47 7.56-24.36 12.92-37.92 15.65h-42.68c-13.57-2.73-26.46-8.09-37.93-15.65a61.592 61.592 0 00-2.02 15.65h-4.22c0-6.31.9-12.41 2.56-18.18-4.7-3.38-9.15-7.16-13.26-11.27a106.9 106.9 0 01-10.79-12.61l-15.9 15.9 26.17 26.17h-5.53l-23.4-23.4v-5.53l16.37-16.37c-7.95-11.74-13.56-25.02-16.37-39.02v-42.68c2.82-14 8.43-27.27 16.37-39.02l-16.37-16.36v-5.54l23.4-23.39zm37.86 104.49v2.36c.01-.79.01-1.57 0-2.36zm-.02 2.95a6.282 6.282 0 01-6.04 4.53c-1.74 0-3.31-.7-4.45-1.84a6.408 6.408 0 01-1.46-2.29h-29.21v-4.66h29.17l.18-.03c.32-.72.77-1.37 1.32-1.92a6.217 6.217 0 014.45-1.86c1.74 0 3.31.7 4.45 1.85.74.74 1.29 1.67 1.59 2.7-.43-15.11-6.4-30.07-17.91-41.58a61.512 61.512 0 00-23.46-14.66c-11.21 16.54-17.75 36.51-17.75 58 0 21.49 6.54 41.45 17.75 57.99a61.196 61.196 0 0023.46-14.66c11.51-11.51 17.48-26.47 17.91-41.56zm-4.57-3.23c-.38-.37-.9-.61-1.47-.61s-1.09.24-1.47.61c-.37.37-.6.89-.6 1.47a2.063 2.063 0 002.07 2.07c.57 0 1.09-.23 1.46-.61.38-.37.61-.89.61-1.46 0-.58-.23-1.1-.6-1.47zm50.81-42.95c15.08-.45 30.02-6.42 41.51-17.91a61.376 61.376 0 0014.67-23.47c-16.55-11.2-36.51-17.75-58-17.75-21.49 0-41.45 6.55-57.99 17.75a61.279 61.279 0 0014.66 23.47c11.48 11.49 26.42 17.45 41.48 17.91-1.01-.31-1.9-.86-2.63-1.58a6.282 6.282 0 01-1.84-4.45c0-1.74.7-3.31 1.85-4.45.55-.54 1.2-.99 1.92-1.31l.03-.19v-29.16h4.67v29.2c.86.33 1.64.83 2.28 1.46a6.273 6.273 0 010 8.9c-.72.72-1.61 1.27-2.62 1.58zm-3.29-4.56c.37.38.89.61 1.46.61s1.09-.24 1.47-.61a2.105 2.105 0 000-2.94c-.37-.36-.89-.6-1.47-.6-.57 0-1.09.23-1.46.61-.38.37-.61.89-.61 1.46s.23 1.1.61 1.47zm45.91 50.89c.47 15.05 6.43 29.95 17.9 41.43a61.234 61.234 0 0023.47 14.66c11.2-16.54 17.75-36.5 17.75-57.99 0-21.49-6.55-41.46-17.75-58a61.399 61.399 0 00-23.47 14.66c-11.47 11.48-17.44 26.39-17.9 41.44.3-.97.84-1.84 1.55-2.55a6.226 6.226 0 014.44-1.85c1.75 0 3.31.7 4.45 1.86.55.55 1 1.2 1.32 1.92l.18.03h29.17v4.66h-29.21c-.31.87-.82 1.64-1.46 2.29a6.264 6.264 0 01-4.45 1.84c-1.74 0-3.3-.7-4.44-1.84a6.314 6.314 0 01-1.55-2.55zm4.53-3.37c-.38.37-.61.89-.61 1.47 0 .57.24 1.09.61 1.46a2.066 2.066 0 002.93 0c.37-.37.61-.89.61-1.46 0-.58-.24-1.1-.61-1.47-.37-.37-.89-.61-1.47-.61-.56 0-1.08.24-1.46.61zm-47.15 45.89a6.304 6.304 0 014.47 6.02c0 1.74-.71 3.31-1.85 4.45-.64.64-1.42 1.14-2.28 1.46v29.21h-4.67v-29.17l-.03-.18c-.72-.32-1.37-.77-1.92-1.32a6.249 6.249 0 01-1.85-4.45c0-1.74.7-3.31 1.84-4.45.73-.72 1.62-1.26 2.63-1.57-15.07.45-30 6.42-41.48 17.91a61.316 61.316 0 00-14.66 23.46c16.54 11.21 36.5 17.75 57.99 17.75 21.49 0 41.45-6.54 58-17.75a61.263 61.263 0 00-14.67-23.46c-11.49-11.5-26.44-17.47-41.51-17.91zm-3.29 4.55c-.38.38-.61.9-.61 1.47s.23 1.09.61 1.47c.37.37.89.6 1.46.6.58 0 1.1-.23 1.47-.6.37-.38.6-.9.6-1.47a2.063 2.063 0 00-2.07-2.07c-.57 0-1.09.23-1.46.6zm12.02-35.81h-3.71l.02-.46c.06-2.15.11-4.29.14-6.42.03-1.91.04-3.9.05-5.98h-14.17c0 1.99.02 3.98.04 5.98.04 2.13.08 4.27.15 6.42l.01.46h-4.15l.01-.46c.12-4.18.18-8.43.18-12.7 0-4.28-.06-8.53-.18-12.71l-.01-.45h4.15l-.01.45c-.05 1.83-.1 3.63-.13 5.44l-.05 4.99h14.15l-.05-4.99c-.04-1.81-.08-3.61-.13-5.44l-.02-.45h4.16l-.01.45c-.12 4.19-.19 8.43-.19 12.71 0 4.27.07 8.51.19 12.7l.01.46h-.45zm27.56-13.16c-16.81-9.57-29.51-22.27-38.09-38.1-8.59 15.84-21.29 28.54-38.1 38.1 16.81 9.57 29.51 22.27 38.1 38.09 8.58-15.83 21.28-28.53 38.09-38.09zm-78.33-3.3c16.96-9.42 27.47-19.9 36.92-36.93-16.77-.84-31.89-7.98-43.02-19.11a65.691 65.691 0 01-15.25-23.91c-4.13 3.06-8.03 6.41-11.65 10.03-3.62 3.62-6.98 7.52-10.03 11.64 9.08 3.3 17.22 8.56 23.92 15.26 11.12 11.12 18.27 26.24 19.11 43.02zm43.54-36.93c9.41 16.95 19.9 27.48 36.92 36.92.84-16.77 7.98-31.89 19.11-43.01a65.584 65.584 0 0123.91-15.26 104.08 104.08 0 00-10.03-11.64c-3.62-3.62-7.52-6.98-11.64-10.03a65.371 65.371 0 01-15.26 23.91c-11.13 11.13-26.24 18.27-43.01 19.11zm36.92 43.55c-17.02 9.45-27.52 19.96-36.92 36.92 16.77.83 31.88 7.98 43.01 19.1 6.7 6.7 11.95 14.85 15.26 23.92 4.12-3.06 8.02-6.42 11.64-10.04 3.62-3.61 6.98-7.51 10.03-11.64a65.477 65.477 0 01-23.91-15.25c-11.13-11.13-18.27-26.25-19.11-43.01zm-43.54 36.92c-9.46-17.03-19.96-27.53-36.92-36.93-.84 16.77-7.99 31.89-19.11 43.02a65.814 65.814 0 01-23.92 15.25c3.06 4.13 6.41 8.03 10.03 11.64 3.62 3.62 7.52 6.99 11.64 10.04a65.754 65.754 0 0115.26-23.92c11.13-11.12 26.25-18.27 43.02-19.1zm555.03 276.74h5.53l-26.17 26.16 15.9 15.9c3.25-4.46 6.87-8.68 10.79-12.6 4.11-4.12 8.56-7.89 13.26-11.27a65.298 65.298 0 01-2.56-18.18h4.22c0 5.4.7 10.64 2.02 15.65 11.47-7.56 24.36-12.92 37.93-15.65h42.68c13.56 2.73 26.45 8.09 37.92 15.65 1.32-5 2.02-10.24 2.02-15.65h4.23c0 6.31-.9 12.41-2.56 18.18a106.8 106.8 0 0113.25 11.27c3.92 3.91 7.53 8.14 10.79 12.61l15.9-15.91-26.17-26.16h5.53l23.4 23.39v5.54l-16.37 16.38c7.94 11.75 13.58 25.07 16.37 39V761c-2.77 13.78-8.16 26.6-15.64 37.93l-.74 1.08 16.37 16.38v5.53l-23.4 23.4h-5.53l26.17-26.17-15.93-15.93c-3.27 4.45-6.68 8.56-10.76 12.64-4.11 4.11-8.56 7.89-13.26 11.27a65.674 65.674 0 012.57 18.18h-4.23c0-5.4-.7-10.65-2.02-15.65-11.47 7.56-24.36 12.92-37.92 15.65h-42.68c-13.57-2.73-26.46-8.09-37.93-15.65a61.592 61.592 0 00-2.02 15.65h-4.22c0-6.31.9-12.41 2.56-18.18-4.7-3.38-9.15-7.16-13.26-11.27a106.9 106.9 0 01-10.79-12.61l-15.9 15.9 26.17 26.17h-5.53l-23.4-23.4v-5.53l16.37-16.37c-7.95-11.74-13.56-25.02-16.37-39.02v-42.68c2.82-14 8.43-27.27 16.37-39.02l-16.37-16.36v-5.54l23.4-23.39zm37.86 104.49v2.36c.01-.79.01-1.57 0-2.36zm-.02 2.95a6.282 6.282 0 01-6.04 4.53c-1.74 0-3.31-.7-4.45-1.84a6.408 6.408 0 01-1.46-2.29h-29.21v-4.66h29.17l.18-.03c.32-.72.77-1.37 1.32-1.92a6.217 6.217 0 014.45-1.86c1.74 0 3.31.7 4.45 1.85.74.74 1.29 1.67 1.59 2.7-.43-15.11-6.4-30.07-17.91-41.58a61.512 61.512 0 00-23.46-14.66c-11.21 16.54-17.75 36.51-17.75 58 0 21.49 6.54 41.45 17.75 57.99a61.196 61.196 0 0023.46-14.66c11.51-11.51 17.48-26.47 17.91-41.56zm-4.57-3.23c-.38-.37-.9-.61-1.47-.61s-1.09.24-1.47.61c-.37.37-.6.89-.6 1.47a2.063 2.063 0 002.07 2.07c.57 0 1.09-.23 1.46-.61.38-.37.61-.89.61-1.46 0-.58-.23-1.1-.6-1.47zm50.81-42.95c15.08-.45 30.02-6.42 41.51-17.91a61.376 61.376 0 0014.67-23.47c-16.55-11.2-36.51-17.75-58-17.75-21.49 0-41.45 6.55-57.99 17.75a61.279 61.279 0 0014.66 23.47c11.48 11.49 26.42 17.45 41.48 17.91-1.01-.31-1.9-.86-2.63-1.58a6.282 6.282 0 01-1.84-4.45c0-1.74.7-3.31 1.85-4.45.55-.54 1.2-.99 1.92-1.31l.03-.19v-29.16h4.67v29.2c.86.33 1.64.83 2.28 1.46a6.273 6.273 0 010 8.9c-.72.72-1.61 1.27-2.62 1.58zm-3.29-4.56c.37.38.89.61 1.46.61s1.09-.24 1.47-.61a2.105 2.105 0 000-2.94c-.37-.36-.89-.6-1.47-.6-.57 0-1.09.23-1.46.61-.38.37-.61.89-.61 1.46s.23 1.1.61 1.47zm45.91 50.89c.47 15.05 6.43 29.95 17.9 41.43a61.234 61.234 0 0023.47 14.66c11.2-16.54 17.75-36.5 17.75-57.99 0-21.49-6.55-41.46-17.75-58a61.399 61.399 0 00-23.47 14.66c-11.47 11.48-17.44 26.39-17.9 41.44.3-.97.84-1.84 1.55-2.55a6.226 6.226 0 014.44-1.85c1.75 0 3.31.7 4.45 1.86.55.55 1 1.2 1.32 1.92l.18.03h29.17v4.66h-29.21c-.31.87-.82 1.64-1.46 2.29a6.264 6.264 0 01-4.45 1.84c-1.74 0-3.3-.7-4.44-1.84a6.314 6.314 0 01-1.55-2.55zm4.53-3.37c-.38.37-.61.89-.61 1.47 0 .57.24 1.09.61 1.46a2.066 2.066 0 002.93 0c.37-.37.61-.89.61-1.46 0-.58-.24-1.1-.61-1.47-.37-.37-.89-.61-1.47-.61-.56 0-1.08.24-1.46.61zm-47.15 45.89a6.304 6.304 0 014.47 6.02c0 1.74-.71 3.31-1.85 4.45-.64.64-1.42 1.14-2.28 1.46v29.21h-4.67v-29.17l-.03-.18c-.72-.32-1.37-.77-1.92-1.32a6.249 6.249 0 01-1.85-4.45c0-1.74.7-3.31 1.84-4.45.73-.72 1.62-1.26 2.63-1.57-15.07.45-30 6.42-41.48 17.91a61.316 61.316 0 00-14.66 23.46c16.54 11.21 36.5 17.75 57.99 17.75 21.49 0 41.45-6.54 58-17.75a61.263 61.263 0 00-14.67-23.46c-11.49-11.5-26.44-17.47-41.51-17.91zm-3.29 4.55c-.38.38-.61.9-.61 1.47s.23 1.09.61 1.47c.37.37.89.6 1.46.6.58 0 1.1-.23 1.47-.6.37-.38.6-.9.6-1.47a2.063 2.063 0 00-2.07-2.07c-.57 0-1.09.23-1.46.6zm12.02-35.81h-3.71l.02-.46c.06-2.15.11-4.29.14-6.42.03-1.91.04-3.9.05-5.98h-14.17c0 1.99.02 3.98.04 5.98.04 2.13.08 4.27.15 6.42l.01.46h-4.15l.01-.46c.12-4.18.18-8.43.18-12.7 0-4.28-.06-8.53-.18-12.71l-.01-.45h4.15l-.01.45c-.05 1.83-.1 3.63-.13 5.44l-.05 4.99h14.15l-.05-4.99c-.04-1.81-.08-3.61-.13-5.44l-.02-.45h4.16l-.01.45c-.12 4.19-.19 8.43-.19 12.71 0 4.27.07 8.51.19 12.7l.01.46h-.45zm27.56-13.16c-16.81-9.57-29.51-22.27-38.09-38.1-8.59 15.84-21.29 28.54-38.1 38.1 16.81 9.57 29.51 22.27 38.1 38.09 8.58-15.83 21.28-28.53 38.09-38.09zm-78.33-3.3c16.96-9.42 27.47-19.9 36.92-36.93-16.77-.84-31.89-7.98-43.02-19.11a65.691 65.691 0 01-15.25-23.91c-4.13 3.06-8.03 6.41-11.65 10.03-3.62 3.62-6.98 7.52-10.03 11.64 9.08 3.3 17.22 8.56 23.92 15.26 11.12 11.12 18.27 26.24 19.11 43.02zm43.54-36.93c9.41 16.95 19.9 27.48 36.92 36.92.84-16.77 7.98-31.89 19.11-43.01a65.584 65.584 0 0123.91-15.26 104.08 104.08 0 00-10.03-11.64c-3.62-3.62-7.52-6.98-11.64-10.03a65.371 65.371 0 01-15.26 23.91c-11.13 11.13-26.24 18.27-43.01 19.11zm36.92 43.55c-17.02 9.45-27.52 19.96-36.92 36.92 16.77.83 31.88 7.98 43.01 19.1 6.7 6.7 11.95 14.85 15.26 23.92 4.12-3.06 8.02-6.42 11.64-10.04 3.62-3.61 6.98-7.51 10.03-11.64a65.477 65.477 0 01-23.91-15.25c-11.13-11.13-18.27-26.25-19.11-43.01zm-43.54 36.92c-9.46-17.03-19.96-27.53-36.92-36.93-.84 16.77-7.99 31.89-19.11 43.02a65.814 65.814 0 01-23.92 15.25c3.06 4.13 6.41 8.03 10.03 11.64 3.62 3.62 7.52 6.99 11.64 10.04a65.754 65.754 0 0115.26-23.92c11.13-11.12 26.25-18.27 43.02-19.1zM12266.21 0h5.54l-26.17 26.17 15.89 15.9c3.26-4.46 6.87-8.69 10.79-12.61 4.12-4.11 8.56-7.88 13.26-11.26a65.795 65.795 0 01-2.56-18.19h4.22c0 5.41.71 10.65 2.02 15.65 11.48-7.56 24.37-12.92 37.93-15.65h42.68c13.56 2.73 26.46 8.09 37.93 15.65a61.09 61.09 0 002.02-15.65h4.22c0 6.31-.89 12.41-2.56 18.19 4.7 3.38 9.15 7.15 13.26 11.26 3.91 3.92 7.52 8.15 10.78 12.61l15.91-15.9L12425.2 0h5.53l23.4 23.4v5.53l-16.38 16.38c7.95 11.76 13.59 25.07 16.38 39.01V127c-2.77 13.77-8.17 26.6-15.64 37.93l-.75 1.07 16.38 16.38v5.53l-23.4 23.4h-5.53l26.17-26.17-15.93-15.93c-3.27 4.46-6.68 8.57-10.76 12.64-4.12 4.12-8.56 7.89-13.27 11.28a65.284 65.284 0 012.57 18.17h-4.22c-.01-5.4-.71-10.64-2.03-15.64-11.47 7.56-24.36 12.92-37.92 15.64h-42.68c-13.56-2.72-26.45-8.08-37.92-15.64a61.517 61.517 0 00-2.03 15.64h-4.22c0-6.3.9-12.4 2.57-18.17-4.7-3.39-9.15-7.16-13.27-11.28-3.92-3.92-7.53-8.14-10.79-12.6l-15.9 15.89 26.17 26.17h-5.53l-23.39-23.4v-5.53l16.36-16.37c-7.94-11.74-13.56-25.02-16.36-39.01V84.32c2.81-14 8.43-27.28 16.36-39.02l-16.36-16.37V23.4L12266.2 0zm37.86 104.5v2.35c.02-.79.02-1.57 0-2.35zm-.01 2.94c-.3 1.03-.86 1.95-1.6 2.69a6.273 6.273 0 01-8.9 0 6.344 6.344 0 01-1.45-2.28h-29.21v-4.67h29.17l.18-.03c.32-.72.77-1.37 1.31-1.92a6.249 6.249 0 014.45-1.85c1.74 0 3.31.7 4.45 1.84.74.75 1.3 1.67 1.6 2.7-.43-15.1-6.4-30.06-17.91-41.57-6.54-6.53-14.54-11.6-23.47-14.66-11.2 16.54-17.75 36.5-17.75 57.99 0 21.49 6.55 41.46 17.75 58a61.376 61.376 0 0023.47-14.67c11.51-11.5 17.47-26.47 17.91-41.56zm-4.58-3.22c-.37-.37-.9-.61-1.47-.61s-1.09.24-1.46.61c-.38.37-.61.89-.61 1.46 0 .58.24 1.1.6 1.47.38.37.9.61 1.47.61s1.1-.24 1.47-.61c.37-.38.61-.9.61-1.47 0-.58-.23-1.09-.61-1.46zm50.82-42.96c15.08-.44 30.01-6.41 41.51-17.9a61.505 61.505 0 0014.66-23.47c-16.54-11.21-36.5-17.75-57.99-17.75-21.49 0-41.46 6.54-58 17.75a61.474 61.474 0 0014.66 23.47c11.49 11.48 26.42 17.45 41.48 17.9-1-.31-1.9-.85-2.62-1.57a6.29 6.29 0 01-1.85-4.45c0-1.74.71-3.31 1.86-4.45.55-.55 1.2-1 1.92-1.32l.03-.18V20.12h4.66v29.21c.87.32 1.64.82 2.29 1.46a6.324 6.324 0 011.84 4.45c0 1.74-.71 3.31-1.84 4.45-.72.72-1.62 1.26-2.62 1.57zm-3.3-4.55c.37.37.89.6 1.47.6.57 0 1.09-.23 1.46-.61.38-.37.61-.89.61-1.46s-.23-1.09-.6-1.47c-.38-.37-.9-.6-1.47-.6-.58 0-1.1.23-1.47.61-.37.37-.61.89-.61 1.46s.24 1.09.61 1.47zm45.91 50.89c.47 15.05 6.43 29.95 17.9 41.42a61.452 61.452 0 0023.47 14.67c11.2-16.54 17.75-36.51 17.75-58 0-21.49-6.55-41.45-17.75-57.99-8.94 3.06-16.93 8.13-23.47 14.66-11.47 11.47-17.44 26.39-17.9 41.44.31-.98.85-1.85 1.55-2.56a6.282 6.282 0 014.45-1.84c1.74 0 3.31.7 4.45 1.85.55.55 1 1.2 1.31 1.92l.19.03h29.17v4.67h-29.21c-.32.86-.82 1.64-1.46 2.28a6.273 6.273 0 01-8.9 0 6.32 6.32 0 01-1.55-2.54zm4.53-3.37c-.37.37-.6.88-.6 1.46 0 .57.23 1.09.61 1.47.37.37.89.61 1.46.61s1.09-.24 1.47-.61c.37-.37.6-.89.6-1.47 0-.57-.23-1.09-.61-1.46-.37-.37-.89-.61-1.46-.61s-1.09.24-1.47.61zm-47.14 45.88a6.306 6.306 0 014.46 6.03c0 1.74-.71 3.3-1.84 4.45-.65.63-1.42 1.13-2.29 1.45v29.21h-4.66v-29.17l-.03-.18c-.72-.32-1.37-.76-1.92-1.31a6.275 6.275 0 01-1.86-4.45c0-1.75.71-3.31 1.85-4.45.72-.72 1.62-1.27 2.62-1.58-15.07.46-29.99 6.42-41.48 17.91a61.55 61.55 0 00-14.66 23.47c16.54 11.2 36.51 17.75 58 17.75 21.49 0 41.45-6.55 57.99-17.75-3.06-8.94-8.13-16.93-14.66-23.47-11.5-11.49-26.44-17.46-41.51-17.91zm-3.3 4.56c-.37.37-.61.9-.61 1.47s.24 1.09.61 1.46c.37.38.89.61 1.47.61.57 0 1.09-.24 1.47-.6.37-.38.6-.9.6-1.47s-.23-1.1-.61-1.47c-.37-.37-.89-.61-1.46-.61-.58 0-1.1.23-1.47.61zm12.02-35.82h-3.7l.01-.45c.07-2.16.12-4.29.15-6.43.02-1.9.04-3.89.04-5.98h-14.16c0 2 .01 3.99.04 5.98.03 2.14.08 4.27.14 6.43l.02.45h-4.16l.01-.45c.12-4.19.19-8.43.19-12.71 0-4.27-.07-8.52-.19-12.7l-.01-.46h4.16l-.01.46c-.06 1.82-.11 3.63-.13 5.43l-.06 4.99h14.16l-.06-4.99c-.03-1.8-.08-3.61-.13-5.43l-.01-.46h4.16l-.01.46c-.13 4.18-.19 8.43-.19 12.7 0 4.28.06 8.52.19 12.71l.01.45h-.46zm27.57-13.16c-16.81-9.57-29.51-22.27-38.1-38.09-8.58 15.83-21.28 28.53-38.1 38.09 16.82 9.57 29.52 22.27 38.1 38.1 8.59-15.84 21.29-28.54 38.1-38.1zm-78.34-3.3c16.96-9.41 27.48-19.9 36.92-36.92-16.77-.84-31.89-7.99-43.01-19.11a65.707 65.707 0 01-15.26-23.92c-4.12 3.06-8.02 6.42-11.64 10.03-3.62 3.62-6.98 7.52-10.03 11.65 9.08 3.3 17.22 8.56 23.91 15.26 11.13 11.12 18.27 26.24 19.11 43.01zm43.55-36.93c9.41 16.96 19.9 27.48 36.92 36.92.83-16.76 7.98-31.88 19.1-43 6.7-6.7 14.85-11.96 23.92-15.26-3.07-4.13-6.41-8.03-10.04-11.65a104.08 104.08 0 00-11.64-10.03c-3.3 9.08-8.56 17.22-15.26 23.92-11.12 11.12-26.24 18.27-43 19.1zm36.92 43.55c-17.02 9.45-27.52 19.97-36.92 36.92 16.76.84 31.88 7.98 43 19.1 6.7 6.7 11.95 14.85 15.27 23.92 4.12-3.06 8.01-6.41 11.63-10.03 3.63-3.62 6.98-7.52 10.04-11.64-9.09-3.3-17.22-8.56-23.92-15.26-11.12-11.12-18.27-26.24-19.1-43.01zm-43.55 36.92c-9.45-17.03-19.96-27.52-36.92-36.93-.84 16.77-7.98 31.89-19.11 43.02a65.584 65.584 0 01-23.91 15.26c3.06 4.12 6.41 8.02 10.03 11.64 3.62 3.62 7.51 6.98 11.64 10.03 3.3-9.08 8.56-17.22 15.26-23.92 11.12-11.12 26.24-18.26 43.01-19.1zm340.93 276.74h5.53l-26.17 26.17 15.9 15.9a106.9 106.9 0 0110.79-12.61c4.11-4.11 8.56-7.88 13.26-11.26a65.422 65.422 0 01-2.56-18.19h4.22c0 5.41.7 10.65 2.02 15.65 11.47-7.56 24.36-12.92 37.93-15.65h42.68c13.56 2.73 26.45 8.09 37.92 15.65a61.09 61.09 0 002.02-15.65h4.23c0 6.31-.9 12.41-2.56 18.19 4.7 3.38 9.14 7.15 13.25 11.26 3.92 3.92 7.53 8.15 10.79 12.61l15.9-15.9-26.17-26.17h5.53l23.4 23.4v5.53l-16.37 16.38c7.94 11.76 13.58 25.07 16.37 39.01v42.68c-2.77 13.77-8.16 26.6-15.64 37.93l-.74 1.07 16.37 16.38v5.53l-23.4 23.4h-5.53l26.17-26.17-15.93-15.93c-3.27 4.46-6.68 8.57-10.76 12.64-4.11 4.12-8.56 7.89-13.26 11.28a65.656 65.656 0 012.57 18.17h-4.23c0-5.4-.7-10.64-2.02-15.64-11.47 7.56-24.36 12.92-37.92 15.64h-42.68c-13.57-2.72-26.46-8.08-37.93-15.64a61.514 61.514 0 00-2.02 15.64h-4.22c0-6.3.9-12.4 2.56-18.17-4.7-3.39-9.15-7.16-13.26-11.28-3.92-3.92-7.54-8.14-10.79-12.6l-15.9 15.89 26.17 26.17h-5.53l-23.4-23.4v-5.53l16.37-16.37c-7.95-11.74-13.56-25.02-16.37-39.01v-42.68c2.82-14 8.43-27.28 16.37-39.02l-16.37-16.37v-5.53l23.4-23.4zm37.86 104.5v2.35c.01-.79.01-1.57 0-2.35zm-.02 2.94c-.3 1.03-.85 1.95-1.59 2.69a6.273 6.273 0 01-8.9 0 6.368 6.368 0 01-1.46-2.28h-29.21v-4.67h29.17l.18-.03c.32-.72.77-1.37 1.32-1.92a6.249 6.249 0 014.45-1.85c1.74 0 3.31.7 4.45 1.84.74.75 1.29 1.67 1.59 2.7-.43-15.1-6.4-30.06-17.91-41.57a61.391 61.391 0 00-23.46-14.66c-11.21 16.54-17.75 36.5-17.75 57.99 0 21.49 6.54 41.46 17.75 58a61.339 61.339 0 0023.46-14.67c11.51-11.5 17.48-26.47 17.91-41.56zm-4.57-3.22c-.38-.37-.9-.61-1.47-.61s-1.09.24-1.47.61c-.37.37-.6.89-.6 1.46 0 .58.23 1.1.6 1.47.38.37.9.61 1.47.61s1.09-.24 1.46-.61c.38-.38.61-.9.61-1.47 0-.58-.23-1.09-.6-1.46zm50.81-42.96c15.08-.44 30.02-6.41 41.51-17.9a61.527 61.527 0 0014.67-23.47c-16.55-11.21-36.51-17.75-58-17.75-21.49 0-41.45 6.54-57.99 17.75 3.06 8.94 8.13 16.93 14.66 23.47 11.48 11.48 26.42 17.45 41.48 17.9-1.01-.31-1.9-.85-2.63-1.57a6.282 6.282 0 01-1.84-4.45c0-1.74.7-3.31 1.85-4.45.55-.55 1.2-1 1.92-1.32l.03-.18v-29.17h4.67V472c.86.32 1.64.82 2.28 1.46a6.273 6.273 0 010 8.9c-.72.72-1.61 1.26-2.62 1.57zm-3.29-4.55c.37.37.89.6 1.46.6s1.09-.23 1.47-.61c.37-.37.6-.89.6-1.46s-.23-1.09-.6-1.47c-.37-.37-.89-.6-1.47-.6-.57 0-1.09.23-1.46.61-.38.37-.61.89-.61 1.46s.23 1.09.61 1.47zm45.91 50.89c.47 15.05 6.43 29.95 17.9 41.42a61.376 61.376 0 0023.47 14.67c11.2-16.54 17.75-36.51 17.75-58 0-21.49-6.55-41.45-17.75-57.99a61.279 61.279 0 00-23.47 14.66c-11.47 11.47-17.44 26.39-17.9 41.44.3-.98.84-1.85 1.55-2.56a6.258 6.258 0 014.44-1.84c1.75 0 3.31.7 4.45 1.85.55.55 1 1.2 1.32 1.92l.18.03h29.17v4.67h-29.21c-.31.86-.82 1.64-1.46 2.28a6.273 6.273 0 01-4.45 1.85c-1.74 0-3.3-.71-4.44-1.85-.71-.7-1.24-1.57-1.55-2.54zm4.53-3.37c-.38.37-.61.88-.61 1.46 0 .57.24 1.09.61 1.47.38.37.9.61 1.46.61.58 0 1.1-.24 1.47-.61.37-.37.61-.89.61-1.47 0-.57-.24-1.09-.61-1.46-.37-.37-.89-.61-1.47-.61-.56 0-1.08.24-1.46.61zm-47.15 45.88c1.01.31 1.9.86 2.62 1.58a6.273 6.273 0 010 8.9c-.64.63-1.42 1.13-2.28 1.45v29.21h-4.67v-29.17l-.03-.18c-.72-.32-1.37-.76-1.92-1.31a6.266 6.266 0 01-1.85-4.45c0-1.75.7-3.31 1.84-4.45.73-.72 1.62-1.27 2.63-1.58-15.07.46-30 6.42-41.48 17.91-6.53 6.54-11.6 14.54-14.66 23.47 16.54 11.2 36.5 17.75 57.99 17.75 21.49 0 41.45-6.55 58-17.75a61.376 61.376 0 00-14.67-23.47c-11.49-11.49-26.44-17.46-41.51-17.91zm-3.29 4.56c-.38.37-.61.9-.61 1.47s.23 1.09.61 1.46c.37.38.89.61 1.46.61.58 0 1.1-.24 1.47-.6a2.105 2.105 0 000-2.94c-.38-.37-.9-.61-1.47-.61s-1.09.23-1.46.61zm12.02-35.82h-3.71l.02-.45c.06-2.16.11-4.29.14-6.43.03-1.9.04-3.89.05-5.98h-14.17c0 2 .02 3.99.04 5.98.04 2.14.08 4.27.15 6.43l.01.45h-4.15l.01-.45c.12-4.19.18-8.43.18-12.71 0-4.27-.06-8.52-.18-12.7l-.01-.46h4.15l-.01.46c-.05 1.82-.1 3.63-.13 5.43l-.05 4.99h14.15l-.05-4.99c-.04-1.8-.08-3.61-.13-5.43l-.02-.46h4.16l-.01.46c-.12 4.18-.19 8.43-.19 12.7 0 4.28.07 8.52.19 12.71l.01.45h-.45zm27.56-13.16c-16.81-9.57-29.51-22.27-38.09-38.09-8.59 15.83-21.29 28.53-38.1 38.09 16.81 9.57 29.51 22.27 38.1 38.1 8.58-15.84 21.28-28.54 38.09-38.1zm-78.33-3.3c16.96-9.41 27.47-19.9 36.92-36.92-16.77-.84-31.89-7.99-43.02-19.11a65.814 65.814 0 01-15.25-23.92c-4.13 3.06-8.03 6.42-11.65 10.03-3.62 3.62-6.98 7.52-10.03 11.65 9.08 3.3 17.22 8.56 23.92 15.26 11.12 11.12 18.27 26.24 19.11 43.01zm43.54-36.93c9.41 16.96 19.9 27.48 36.92 36.92.84-16.76 7.98-31.88 19.11-43a65.454 65.454 0 0123.91-15.26c-3.06-4.13-6.41-8.03-10.03-11.65-3.62-3.61-7.52-6.98-11.64-10.03-3.3 9.08-8.56 17.22-15.26 23.92-11.13 11.12-26.24 18.27-43.01 19.1zm36.92 43.55c-17.02 9.45-27.52 19.97-36.92 36.92 16.77.84 31.88 7.98 43.01 19.1 6.7 6.7 11.95 14.85 15.26 23.92 4.12-3.06 8.02-6.41 11.64-10.03 3.62-3.62 6.98-7.52 10.03-11.64a65.371 65.371 0 01-23.91-15.26c-11.13-11.12-18.27-26.24-19.11-43.01zm-43.54 36.92c-9.46-17.03-19.96-27.52-36.92-36.93-.84 16.77-7.99 31.89-19.11 43.02a65.707 65.707 0 01-23.92 15.26c3.06 4.12 6.41 8.02 10.03 11.64 3.62 3.62 7.52 6.98 11.64 10.03a65.754 65.754 0 0115.26-23.92c11.13-11.12 26.25-18.26 43.02-19.1zm343.71-357.26h5.53l-26.17 26.16 15.9 15.9c3.25-4.46 6.87-8.68 10.79-12.6 4.11-4.12 8.56-7.89 13.26-11.27a65.298 65.298 0 01-2.56-18.18h4.22c0 5.4.7 10.64 2.02 15.65 11.47-7.56 24.36-12.92 37.93-15.65h42.68c13.56 2.73 26.45 8.09 37.92 15.65 1.32-5 2.02-10.24 2.02-15.65h4.23c0 6.31-.9 12.41-2.56 18.18a106.8 106.8 0 0113.25 11.27c3.92 3.91 7.53 8.14 10.79 12.61l15.9-15.91-26.17-26.16h5.53l23.4 23.39v5.54l-16.37 16.38c7.94 11.75 13.58 25.07 16.37 39v42.68c-2.77 13.78-8.16 26.6-15.64 37.93l-.74 1.08 16.37 16.38v5.53l-23.4 23.4h-5.53l26.17-26.17-15.93-15.93c-3.27 4.45-6.68 8.56-10.76 12.64-4.11 4.11-8.56 7.89-13.26 11.27a65.674 65.674 0 012.57 18.18h-4.23c0-5.4-.7-10.65-2.02-15.65-11.47 7.56-24.36 12.92-37.92 15.65h-42.68c-13.57-2.73-26.46-8.09-37.93-15.65a61.592 61.592 0 00-2.02 15.65h-4.22c0-6.31.9-12.41 2.56-18.18-4.7-3.38-9.15-7.16-13.26-11.27a106.9 106.9 0 01-10.79-12.61l-15.9 15.9 26.17 26.17h-5.53l-23.4-23.4v-5.53l16.37-16.37c-7.95-11.74-13.56-25.02-16.37-39.02v-42.68c2.82-14 8.43-27.27 16.37-39.02l-16.37-16.36v-5.54l23.4-23.39zm37.86 104.49v2.36c.01-.79.01-1.57 0-2.36zm-.02 2.95a6.282 6.282 0 01-6.04 4.53c-1.74 0-3.31-.7-4.45-1.84a6.408 6.408 0 01-1.46-2.29h-29.21v-4.66h29.17l.18-.03c.32-.72.77-1.37 1.32-1.92a6.217 6.217 0 014.45-1.86c1.74 0 3.31.7 4.45 1.85.74.74 1.29 1.67 1.59 2.7-.43-15.11-6.4-30.07-17.91-41.58a61.512 61.512 0 00-23.46-14.66c-11.21 16.54-17.75 36.51-17.75 58 0 21.49 6.54 41.45 17.75 57.99a61.196 61.196 0 0023.46-14.66c11.51-11.51 17.48-26.47 17.91-41.56zm-4.57-3.23c-.38-.37-.9-.61-1.47-.61s-1.09.24-1.47.61c-.37.37-.6.89-.6 1.47a2.063 2.063 0 002.07 2.07c.57 0 1.09-.23 1.46-.61.38-.37.61-.89.61-1.46 0-.58-.23-1.1-.6-1.47zm50.81-42.95c15.08-.45 30.02-6.42 41.51-17.91a61.376 61.376 0 0014.67-23.47c-16.55-11.2-36.51-17.75-58-17.75-21.49 0-41.45 6.55-57.99 17.75a61.279 61.279 0 0014.66 23.47c11.48 11.49 26.42 17.45 41.48 17.91-1.01-.31-1.9-.86-2.63-1.58a6.282 6.282 0 01-1.84-4.45c0-1.74.7-3.31 1.85-4.45.55-.54 1.2-.99 1.92-1.31l.03-.19v-29.16h4.67v29.2c.86.33 1.64.83 2.28 1.46a6.273 6.273 0 010 8.9c-.72.72-1.61 1.27-2.62 1.58zm-3.29-4.56c.37.38.89.61 1.46.61s1.09-.24 1.47-.61a2.105 2.105 0 000-2.94c-.37-.36-.89-.6-1.47-.6-.57 0-1.09.23-1.46.61-.38.37-.61.89-.61 1.46s.23 1.1.61 1.47zm45.91 50.89c.47 15.05 6.43 29.95 17.9 41.43a61.234 61.234 0 0023.47 14.66c11.2-16.54 17.75-36.5 17.75-57.99 0-21.49-6.55-41.46-17.75-58a61.399 61.399 0 00-23.47 14.66c-11.47 11.48-17.44 26.39-17.9 41.44.3-.97.84-1.84 1.55-2.55a6.226 6.226 0 014.44-1.85c1.75 0 3.31.7 4.45 1.86.55.55 1 1.2 1.32 1.92l.18.03h29.17v4.66h-29.21c-.31.87-.82 1.64-1.46 2.29a6.264 6.264 0 01-4.45 1.84c-1.74 0-3.3-.7-4.44-1.84a6.314 6.314 0 01-1.55-2.55zm4.53-3.37c-.38.37-.61.89-.61 1.47 0 .57.24 1.09.61 1.46a2.066 2.066 0 002.93 0c.37-.37.61-.89.61-1.46 0-.58-.24-1.1-.61-1.47-.37-.37-.89-.61-1.47-.61-.56 0-1.08.24-1.46.61zm-47.15 45.89a6.304 6.304 0 014.47 6.02c0 1.74-.71 3.31-1.85 4.45-.64.64-1.42 1.14-2.28 1.46v29.21h-4.67v-29.17l-.03-.18c-.72-.32-1.37-.77-1.92-1.32a6.249 6.249 0 01-1.85-4.45c0-1.74.7-3.31 1.84-4.45.73-.72 1.62-1.26 2.63-1.57-15.07.45-30 6.42-41.48 17.91a61.316 61.316 0 00-14.66 23.46c16.54 11.21 36.5 17.75 57.99 17.75 21.49 0 41.45-6.54 58-17.75a61.263 61.263 0 00-14.67-23.46c-11.49-11.5-26.44-17.47-41.51-17.91zm-3.29 4.55c-.38.38-.61.9-.61 1.47s.23 1.09.61 1.47c.37.37.89.6 1.46.6.58 0 1.1-.23 1.47-.6.37-.38.6-.9.6-1.47a2.063 2.063 0 00-2.07-2.07c-.57 0-1.09.23-1.46.6zm12.02-35.81h-3.71l.02-.46c.06-2.15.11-4.29.14-6.42.03-1.91.04-3.9.05-5.98h-14.17c0 1.99.02 3.98.04 5.98.04 2.13.08 4.27.15 6.42l.01.46h-4.15l.01-.46c.12-4.18.18-8.43.18-12.7 0-4.28-.06-8.53-.18-12.71l-.01-.45h4.15l-.01.45c-.05 1.83-.1 3.63-.13 5.44l-.05 4.99h14.15l-.05-4.99c-.04-1.81-.08-3.61-.13-5.44l-.02-.45h4.16l-.01.45c-.12 4.19-.19 8.43-.19 12.71 0 4.27.07 8.51.19 12.7l.01.46h-.45zm27.56-13.16c-16.81-9.57-29.51-22.27-38.09-38.1-8.59 15.84-21.29 28.54-38.1 38.1 16.81 9.57 29.51 22.27 38.1 38.09 8.58-15.83 21.28-28.53 38.09-38.09zm-78.33-3.3c16.96-9.42 27.47-19.9 36.92-36.93-16.77-.84-31.89-7.98-43.02-19.11a65.691 65.691 0 01-15.25-23.91c-4.13 3.06-8.03 6.41-11.65 10.03-3.62 3.62-6.98 7.52-10.03 11.64 9.08 3.3 17.22 8.56 23.92 15.26 11.12 11.12 18.27 26.24 19.11 43.02zm43.54-36.93c9.41 16.95 19.9 27.48 36.92 36.92.84-16.77 7.98-31.89 19.11-43.01a65.584 65.584 0 0123.91-15.26 104.08 104.08 0 00-10.03-11.64c-3.62-3.62-7.52-6.98-11.64-10.03a65.371 65.371 0 01-15.26 23.91c-11.13 11.13-26.24 18.27-43.01 19.11zm36.92 43.55c-17.02 9.45-27.52 19.96-36.92 36.92 16.77.83 31.88 7.98 43.01 19.1 6.7 6.7 11.95 14.85 15.26 23.92 4.12-3.06 8.02-6.42 11.64-10.04 3.62-3.61 6.98-7.51 10.03-11.64a65.477 65.477 0 01-23.91-15.25c-11.13-11.13-18.27-26.25-19.11-43.01zm-43.54 36.92c-9.46-17.03-19.96-27.53-36.92-36.93-.84 16.77-7.99 31.89-19.11 43.02a65.814 65.814 0 01-23.92 15.25c3.06 4.13 6.41 8.03 10.03 11.64 3.62 3.62 7.52 6.99 11.64 10.04a65.754 65.754 0 0115.26-23.92c11.13-11.12 26.25-18.27 43.02-19.1zm555.04 65.4h5.53l-26.17 26.17 15.9 15.9a106.9 106.9 0 0110.79-12.61c4.11-4.11 8.56-7.88 13.26-11.26a65.422 65.422 0 01-2.56-18.19h4.22c0 5.41.7 10.65 2.02 15.65 11.47-7.56 24.36-12.92 37.93-15.65h42.68c13.56 2.73 26.45 8.09 37.92 15.65a61.09 61.09 0 002.02-15.65h4.23c0 6.31-.9 12.41-2.56 18.19 4.7 3.38 9.14 7.15 13.25 11.26 3.92 3.92 7.53 8.15 10.79 12.61l15.9-15.9-26.17-26.17h5.53l23.4 23.4v5.53l-16.37 16.38c7.94 11.76 13.58 25.07 16.37 39.01v42.68c-2.77 13.77-8.16 26.6-15.64 37.93l-.74 1.07 16.37 16.38v5.53l-23.4 23.4h-5.53l26.17-26.17-15.93-15.93c-3.27 4.46-6.68 8.57-10.76 12.64-4.11 4.12-8.56 7.89-13.26 11.28a65.656 65.656 0 012.57 18.17h-4.23c0-5.4-.7-10.64-2.02-15.64-11.47 7.56-24.36 12.92-37.92 15.64h-42.68c-13.57-2.72-26.46-8.08-37.93-15.64a61.514 61.514 0 00-2.02 15.64h-4.22c0-6.3.9-12.4 2.56-18.17-4.7-3.39-9.15-7.16-13.26-11.28-3.92-3.92-7.54-8.14-10.79-12.6l-15.9 15.89 26.17 26.17h-5.53l-23.4-23.4v-5.53l16.37-16.37c-7.95-11.74-13.56-25.02-16.37-39.01v-42.68c2.82-14 8.43-27.28 16.37-39.02l-16.37-16.37v-5.53l23.4-23.4zm37.86 104.5v2.35c.01-.79.01-1.57 0-2.35zm-.02 2.94c-.3 1.03-.85 1.95-1.59 2.69a6.273 6.273 0 01-8.9 0 6.368 6.368 0 01-1.46-2.28h-29.21v-4.67h29.17l.18-.03c.32-.72.77-1.37 1.32-1.92a6.249 6.249 0 014.45-1.85c1.74 0 3.31.7 4.45 1.84.74.75 1.29 1.67 1.59 2.7-.43-15.1-6.4-30.06-17.91-41.57a61.391 61.391 0 00-23.46-14.66c-11.21 16.54-17.75 36.5-17.75 57.99 0 21.49 6.54 41.46 17.75 58a61.339 61.339 0 0023.46-14.67c11.51-11.5 17.48-26.47 17.91-41.56zm-4.57-3.22c-.38-.37-.9-.61-1.47-.61s-1.09.24-1.47.61c-.37.37-.6.89-.6 1.46 0 .58.23 1.1.6 1.47.38.37.9.61 1.47.61s1.09-.24 1.46-.61c.38-.38.61-.9.61-1.47 0-.58-.23-1.09-.6-1.46zm50.81-42.96c15.08-.44 30.02-6.41 41.51-17.9a61.527 61.527 0 0014.67-23.47c-16.55-11.21-36.51-17.75-58-17.75-21.49 0-41.45 6.54-57.99 17.75 3.06 8.94 8.13 16.93 14.66 23.47 11.48 11.48 26.42 17.45 41.48 17.9-1.01-.31-1.9-.85-2.63-1.57a6.282 6.282 0 01-1.84-4.45c0-1.74.7-3.31 1.85-4.45.55-.55 1.2-1 1.92-1.32l.03-.18v-29.17h4.67V472c.86.32 1.64.82 2.28 1.46a6.273 6.273 0 010 8.9c-.72.72-1.61 1.26-2.62 1.57zm-3.29-4.55c.37.37.89.6 1.46.6s1.09-.23 1.47-.61c.37-.37.6-.89.6-1.46s-.23-1.09-.6-1.47c-.37-.37-.89-.6-1.47-.6-.57 0-1.09.23-1.46.61-.38.37-.61.89-.61 1.46s.23 1.09.61 1.47zm45.91 50.89c.47 15.05 6.43 29.95 17.9 41.42a61.376 61.376 0 0023.47 14.67c11.2-16.54 17.75-36.51 17.75-58 0-21.49-6.55-41.45-17.75-57.99a61.279 61.279 0 00-23.47 14.66c-11.47 11.47-17.44 26.39-17.9 41.44.3-.98.84-1.85 1.55-2.56a6.258 6.258 0 014.44-1.84c1.75 0 3.31.7 4.45 1.85.55.55 1 1.2 1.32 1.92l.18.03h29.17v4.67h-29.21c-.31.86-.82 1.64-1.46 2.28a6.273 6.273 0 01-4.45 1.85c-1.74 0-3.3-.71-4.44-1.85-.71-.7-1.24-1.57-1.55-2.54zm4.53-3.37c-.38.37-.61.88-.61 1.46 0 .57.24 1.09.61 1.47.38.37.9.61 1.46.61.58 0 1.1-.24 1.47-.61.37-.37.61-.89.61-1.47 0-.57-.24-1.09-.61-1.46-.37-.37-.89-.61-1.47-.61-.56 0-1.08.24-1.46.61zm-47.15 45.88c1.01.31 1.9.86 2.62 1.58a6.273 6.273 0 010 8.9c-.64.63-1.42 1.13-2.28 1.45v29.21h-4.67v-29.17l-.03-.18c-.72-.32-1.37-.76-1.92-1.31a6.266 6.266 0 01-1.85-4.45c0-1.75.7-3.31 1.84-4.45.73-.72 1.62-1.27 2.63-1.58-15.07.46-30 6.42-41.48 17.91-6.53 6.54-11.6 14.54-14.66 23.47 16.54 11.2 36.5 17.75 57.99 17.75 21.49 0 41.45-6.55 58-17.75a61.376 61.376 0 00-14.67-23.47c-11.49-11.49-26.44-17.46-41.51-17.91zm-3.29 4.56c-.38.37-.61.9-.61 1.47s.23 1.09.61 1.46c.37.38.89.61 1.46.61.58 0 1.1-.24 1.47-.6a2.105 2.105 0 000-2.94c-.38-.37-.9-.61-1.47-.61s-1.09.23-1.46.61zm12.02-35.82h-3.71l.02-.45c.06-2.16.11-4.29.14-6.43.03-1.9.04-3.89.05-5.98h-14.17c0 2 .02 3.99.04 5.98.04 2.14.08 4.27.15 6.43l.01.45h-4.15l.01-.45c.12-4.19.18-8.43.18-12.71 0-4.27-.06-8.52-.18-12.7l-.01-.46h4.15l-.01.46c-.05 1.82-.1 3.63-.13 5.43l-.05 4.99h14.15l-.05-4.99c-.04-1.8-.08-3.61-.13-5.43l-.02-.46h4.16l-.01.46c-.12 4.18-.19 8.43-.19 12.7 0 4.28.07 8.52.19 12.71l.01.45h-.45zm27.56-13.16c-16.81-9.57-29.51-22.27-38.09-38.09-8.59 15.83-21.29 28.53-38.1 38.09 16.81 9.57 29.51 22.27 38.1 38.1 8.58-15.84 21.28-28.54 38.09-38.1zm-78.33-3.3c16.96-9.41 27.47-19.9 36.92-36.92-16.77-.84-31.89-7.99-43.02-19.11a65.814 65.814 0 01-15.25-23.92c-4.13 3.06-8.03 6.42-11.65 10.03-3.62 3.62-6.98 7.52-10.03 11.65 9.08 3.3 17.22 8.56 23.92 15.26 11.12 11.12 18.27 26.24 19.11 43.01zm43.54-36.93c9.41 16.96 19.9 27.48 36.92 36.92.84-16.76 7.98-31.88 19.11-43a65.454 65.454 0 0123.91-15.26c-3.06-4.13-6.41-8.03-10.03-11.65-3.62-3.61-7.52-6.98-11.64-10.03-3.3 9.08-8.56 17.22-15.26 23.92-11.13 11.12-26.24 18.27-43.01 19.1zm36.92 43.55c-17.02 9.45-27.52 19.97-36.92 36.92 16.77.84 31.88 7.98 43.01 19.1 6.7 6.7 11.95 14.85 15.26 23.92 4.12-3.06 8.02-6.41 11.64-10.03 3.62-3.62 6.98-7.52 10.03-11.64a65.371 65.371 0 01-23.91-15.26c-11.13-11.12-18.27-26.24-19.11-43.01zm-43.54 36.92c-9.46-17.03-19.96-27.52-36.92-36.93-.84 16.77-7.99 31.89-19.11 43.02a65.707 65.707 0 01-23.92 15.26c3.06 4.12 6.41 8.02 10.03 11.64 3.62 3.62 7.52 6.98 11.64 10.03a65.754 65.754 0 0115.26-23.92c11.13-11.12 26.25-18.26 43.02-19.1zM14376.76 0h5.53l-26.17 26.17 15.9 15.9a106.9 106.9 0 0110.79-12.61c4.11-4.11 8.56-7.88 13.26-11.26a65.422 65.422 0 01-2.56-18.19h4.22c0 5.41.7 10.65 2.02 15.65 11.47-7.56 24.36-12.92 37.93-15.65h42.68c13.56 2.73 26.45 8.09 37.92 15.65a61.09 61.09 0 002.02-15.65h4.23c0 6.31-.9 12.41-2.56 18.19 4.7 3.38 9.14 7.15 13.25 11.26 3.92 3.92 7.53 8.15 10.79 12.61l15.9-15.9L14535.74 0h5.53l23.4 23.4v5.53l-16.37 16.38c7.94 11.76 13.58 25.07 16.37 39.01V127c-2.77 13.77-8.16 26.6-15.64 37.93l-.74 1.07 16.37 16.38v5.53l-23.4 23.4h-5.53l26.17-26.17-15.93-15.93c-3.27 4.46-6.68 8.57-10.76 12.64-4.11 4.12-8.56 7.89-13.26 11.28a65.656 65.656 0 012.57 18.17h-4.23c0-5.4-.7-10.64-2.02-15.64-11.47 7.56-24.36 12.92-37.92 15.64h-42.68c-13.57-2.72-26.46-8.08-37.93-15.64a61.514 61.514 0 00-2.02 15.64h-4.22c0-6.3.9-12.4 2.56-18.17-4.7-3.39-9.15-7.16-13.26-11.28-3.92-3.92-7.54-8.14-10.79-12.6l-15.9 15.89 26.17 26.17h-5.53l-23.4-23.4v-5.53l16.37-16.37c-7.95-11.74-13.56-25.02-16.37-39.01V84.32c2.82-14 8.43-27.28 16.37-39.02l-16.37-16.37V23.4l23.4-23.4zm37.86 104.5v2.35c.01-.79.01-1.57 0-2.35zm-.02 2.94c-.3 1.03-.85 1.95-1.59 2.69a6.273 6.273 0 01-8.9 0 6.368 6.368 0 01-1.46-2.28h-29.21v-4.67h29.17l.18-.03c.32-.72.77-1.37 1.32-1.92a6.249 6.249 0 014.45-1.85c1.74 0 3.31.7 4.45 1.84.74.75 1.29 1.67 1.59 2.7-.43-15.1-6.4-30.06-17.91-41.57a61.391 61.391 0 00-23.46-14.66c-11.21 16.54-17.75 36.5-17.75 57.99 0 21.49 6.54 41.46 17.75 58a61.339 61.339 0 0023.46-14.67c11.51-11.5 17.48-26.47 17.91-41.56zm-4.57-3.22c-.38-.37-.9-.61-1.47-.61s-1.09.24-1.47.61c-.37.37-.6.89-.6 1.46 0 .58.23 1.1.6 1.47.38.37.9.61 1.47.61s1.09-.24 1.46-.61c.38-.38.61-.9.61-1.47 0-.58-.23-1.09-.6-1.46zm50.81-42.96c15.08-.44 30.02-6.41 41.51-17.9a61.527 61.527 0 0014.67-23.47c-16.55-11.21-36.51-17.75-58-17.75-21.49 0-41.45 6.54-57.99 17.75 3.06 8.94 8.13 16.93 14.66 23.47 11.48 11.48 26.42 17.45 41.48 17.9-1.01-.31-1.9-.85-2.63-1.57a6.282 6.282 0 01-1.84-4.45c0-1.74.7-3.31 1.85-4.45.55-.55 1.2-1 1.92-1.32l.03-.18V20.12h4.67v29.21c.86.32 1.64.82 2.28 1.46a6.273 6.273 0 010 8.9c-.72.72-1.61 1.26-2.62 1.57zm-3.29-4.55c.37.37.89.6 1.46.6s1.09-.23 1.47-.61c.37-.37.6-.89.6-1.46s-.23-1.09-.6-1.47c-.37-.37-.89-.6-1.47-.6-.57 0-1.09.23-1.46.61-.38.37-.61.89-.61 1.46s.23 1.09.61 1.47zm45.91 50.89c.47 15.05 6.43 29.95 17.9 41.42a61.376 61.376 0 0023.47 14.67c11.2-16.54 17.75-36.51 17.75-58 0-21.49-6.55-41.45-17.75-57.99a61.279 61.279 0 00-23.47 14.66c-11.47 11.47-17.44 26.39-17.9 41.44.3-.98.84-1.85 1.55-2.56a6.258 6.258 0 014.44-1.84c1.75 0 3.31.7 4.45 1.85.55.55 1 1.2 1.32 1.92l.18.03h29.17v4.67h-29.21c-.31.86-.82 1.64-1.46 2.28a6.273 6.273 0 01-4.45 1.85c-1.74 0-3.3-.71-4.44-1.85-.71-.7-1.24-1.57-1.55-2.54zm4.53-3.37c-.38.37-.61.88-.61 1.46 0 .57.24 1.09.61 1.47.38.37.9.61 1.46.61.58 0 1.1-.24 1.47-.61.37-.37.61-.89.61-1.47 0-.57-.24-1.09-.61-1.46-.37-.37-.89-.61-1.47-.61-.56 0-1.08.24-1.46.61zm-47.15 45.88c1.01.31 1.9.86 2.62 1.58a6.273 6.273 0 010 8.9c-.64.63-1.42 1.13-2.28 1.45v29.21h-4.67v-29.17l-.03-.18c-.72-.32-1.37-.76-1.92-1.31a6.266 6.266 0 01-1.85-4.45c0-1.75.7-3.31 1.84-4.45.73-.72 1.62-1.27 2.63-1.58-15.07.46-30 6.42-41.48 17.91-6.53 6.54-11.6 14.54-14.66 23.47 16.54 11.2 36.5 17.75 57.99 17.75 21.49 0 41.45-6.55 58-17.75a61.376 61.376 0 00-14.67-23.47c-11.49-11.49-26.44-17.46-41.51-17.91zm-3.29 4.56c-.38.37-.61.9-.61 1.47s.23 1.09.61 1.46c.37.38.89.61 1.46.61.58 0 1.1-.24 1.47-.6a2.105 2.105 0 000-2.94c-.38-.37-.9-.61-1.47-.61s-1.09.23-1.46.61zm12.02-35.82h-3.71l.02-.45c.06-2.16.11-4.29.14-6.43.03-1.9.04-3.89.05-5.98h-14.17c0 2 .02 3.99.04 5.98.04 2.14.08 4.27.15 6.43l.01.45h-4.15l.01-.45c.12-4.19.18-8.43.18-12.71 0-4.27-.06-8.52-.18-12.7l-.01-.46h4.15l-.01.46c-.05 1.82-.1 3.63-.13 5.43l-.05 4.99h14.15l-.05-4.99c-.04-1.8-.08-3.61-.13-5.43l-.02-.46h4.16l-.01.46c-.12 4.18-.19 8.43-.19 12.7 0 4.28.07 8.52.19 12.71l.01.45h-.45zm27.56-13.16c-16.81-9.57-29.51-22.27-38.09-38.09-8.59 15.83-21.29 28.53-38.1 38.09 16.81 9.57 29.51 22.27 38.1 38.1 8.58-15.84 21.28-28.54 38.09-38.1zm-78.33-3.3c16.96-9.41 27.47-19.9 36.92-36.92-16.77-.84-31.89-7.99-43.02-19.11a65.814 65.814 0 01-15.25-23.92c-4.13 3.06-8.03 6.42-11.65 10.03-3.62 3.62-6.98 7.52-10.03 11.65 9.08 3.3 17.22 8.56 23.92 15.26 11.12 11.12 18.27 26.24 19.11 43.01zm43.54-36.93c9.41 16.96 19.9 27.48 36.92 36.92.84-16.76 7.98-31.88 19.11-43a65.454 65.454 0 0123.91-15.26c-3.06-4.13-6.41-8.03-10.03-11.65-3.62-3.61-7.52-6.98-11.64-10.03-3.3 9.08-8.56 17.22-15.26 23.92-11.13 11.12-26.24 18.27-43.01 19.1zm36.92 43.55c-17.02 9.45-27.52 19.97-36.92 36.92 16.77.84 31.88 7.98 43.01 19.1 6.7 6.7 11.95 14.85 15.26 23.92 4.12-3.06 8.02-6.41 11.64-10.03 3.62-3.62 6.98-7.52 10.03-11.64a65.371 65.371 0 01-23.91-15.26c-11.13-11.12-18.27-26.24-19.11-43.01zm-43.54 36.92c-9.46-17.03-19.96-27.52-36.92-36.93-.84 16.77-7.99 31.89-19.11 43.02a65.707 65.707 0 01-23.92 15.26c3.06 4.12 6.41 8.02 10.03 11.64 3.62 3.62 7.52 6.98 11.64 10.03a65.754 65.754 0 0115.26-23.92c11.13-11.12 26.25-18.26 43.02-19.1zm766.37 276.74h5.53l-26.17 26.17 15.9 15.9a106.9 106.9 0 0110.79-12.61c4.11-4.11 8.56-7.88 13.26-11.26a65.422 65.422 0 01-2.56-18.19h4.22c0 5.41.7 10.65 2.02 15.65 11.47-7.56 24.36-12.92 37.93-15.65h42.68c13.56 2.73 26.45 8.09 37.92 15.65a61.09 61.09 0 002.02-15.65h4.23c0 6.31-.9 12.41-2.56 18.19 4.7 3.38 9.14 7.15 13.25 11.26 3.92 3.92 7.53 8.15 10.79 12.61l15.9-15.9-26.17-26.17h5.53l23.4 23.4v5.53l-16.37 16.38c7.94 11.76 13.58 25.07 16.37 39.01v42.68c-2.77 13.77-8.16 26.6-15.64 37.93l-.74 1.07 16.37 16.38v5.53l-23.4 23.4h-5.53l26.17-26.17-15.93-15.93c-3.27 4.46-6.68 8.57-10.76 12.64-4.11 4.12-8.56 7.89-13.26 11.28a65.656 65.656 0 012.57 18.17h-4.23c0-5.4-.7-10.64-2.02-15.64-11.47 7.56-24.36 12.92-37.92 15.64H15283c-13.57-2.72-26.46-8.08-37.93-15.64a61.514 61.514 0 00-2.02 15.64h-4.22c0-6.3.9-12.4 2.56-18.17-4.7-3.39-9.15-7.16-13.26-11.28-3.92-3.92-7.54-8.14-10.79-12.6l-15.9 15.89 26.17 26.17h-5.53l-23.4-23.4v-5.53l16.37-16.37c-7.95-11.74-13.56-25.02-16.37-39.01v-42.68c2.82-14 8.43-27.28 16.37-39.02l-16.37-16.37v-5.53l23.4-23.4zm37.86 104.5v2.35c.01-.79.01-1.57 0-2.35zm-.02 2.94c-.3 1.03-.85 1.95-1.59 2.69a6.273 6.273 0 01-8.9 0 6.368 6.368 0 01-1.46-2.28h-29.21v-4.67h29.17l.18-.03c.32-.72.77-1.37 1.32-1.92a6.249 6.249 0 014.45-1.85c1.74 0 3.31.7 4.45 1.84.74.75 1.29 1.67 1.59 2.7-.43-15.1-6.4-30.06-17.91-41.57a61.391 61.391 0 00-23.46-14.66c-11.21 16.54-17.75 36.5-17.75 57.99 0 21.49 6.54 41.46 17.75 58a61.339 61.339 0 0023.46-14.67c11.51-11.5 17.48-26.47 17.91-41.56zm-4.57-3.22c-.38-.37-.9-.61-1.47-.61s-1.09.24-1.47.61c-.37.37-.6.89-.6 1.46 0 .58.23 1.1.6 1.47.38.37.9.61 1.47.61s1.09-.24 1.46-.61c.38-.38.61-.9.61-1.47 0-.58-.23-1.09-.6-1.46zm50.81-42.96c15.08-.44 30.02-6.41 41.51-17.9a61.527 61.527 0 0014.67-23.47c-16.55-11.21-36.51-17.75-58-17.75-21.49 0-41.45 6.54-57.99 17.75 3.06 8.94 8.13 16.93 14.66 23.47 11.48 11.48 26.42 17.45 41.48 17.9-1.01-.31-1.9-.85-2.63-1.57a6.282 6.282 0 01-1.84-4.45c0-1.74.7-3.31 1.85-4.45.55-.55 1.2-1 1.92-1.32l.03-.18v-29.17h4.67V472c.86.32 1.64.82 2.28 1.46a6.273 6.273 0 010 8.9c-.72.72-1.61 1.26-2.62 1.57zm-3.29-4.55c.37.37.89.6 1.46.6s1.09-.23 1.47-.61c.37-.37.6-.89.6-1.46s-.23-1.09-.6-1.47c-.37-.37-.89-.6-1.47-.6-.57 0-1.09.23-1.46.61-.38.37-.61.89-.61 1.46s.23 1.09.61 1.47zm45.91 50.89c.47 15.05 6.43 29.95 17.9 41.42a61.376 61.376 0 0023.47 14.67c11.2-16.54 17.75-36.51 17.75-58 0-21.49-6.55-41.45-17.75-57.99a61.279 61.279 0 00-23.47 14.66c-11.47 11.47-17.44 26.39-17.9 41.44.3-.98.84-1.85 1.55-2.56a6.258 6.258 0 014.44-1.84c1.75 0 3.31.7 4.45 1.85.55.55 1 1.2 1.32 1.92l.18.03h29.17v4.67h-29.21c-.31.86-.82 1.64-1.46 2.28a6.273 6.273 0 01-4.45 1.85c-1.74 0-3.3-.71-4.44-1.85-.71-.7-1.24-1.57-1.55-2.54zm4.53-3.37c-.38.37-.61.88-.61 1.46 0 .57.24 1.09.61 1.47.38.37.9.61 1.46.61.58 0 1.1-.24 1.47-.61.37-.37.61-.89.61-1.47 0-.57-.24-1.09-.61-1.46-.37-.37-.89-.61-1.47-.61-.56 0-1.08.24-1.46.61zm-47.15 45.88c1.01.31 1.9.86 2.62 1.58a6.273 6.273 0 010 8.9c-.64.63-1.42 1.13-2.28 1.45v29.21h-4.67v-29.17l-.03-.18c-.72-.32-1.37-.76-1.92-1.31a6.266 6.266 0 01-1.85-4.45c0-1.75.7-3.31 1.84-4.45.73-.72 1.62-1.27 2.63-1.58-15.07.46-30 6.42-41.48 17.91-6.53 6.54-11.6 14.54-14.66 23.47 16.54 11.2 36.5 17.75 57.99 17.75 21.49 0 41.45-6.55 58-17.75a61.376 61.376 0 00-14.67-23.47c-11.49-11.49-26.44-17.46-41.51-17.91zm-3.29 4.56c-.38.37-.61.9-.61 1.47s.23 1.09.61 1.46c.37.38.89.61 1.46.61.58 0 1.1-.24 1.47-.6a2.105 2.105 0 000-2.94c-.38-.37-.9-.61-1.47-.61s-1.09.23-1.46.61zm12.02-35.82h-3.71l.02-.45c.06-2.16.11-4.29.14-6.43.03-1.9.04-3.89.05-5.98h-14.17c0 2 .02 3.99.04 5.98.04 2.14.08 4.27.15 6.43l.01.45h-4.15l.01-.45c.12-4.19.18-8.43.18-12.71 0-4.27-.06-8.52-.18-12.7l-.01-.46h4.15l-.01.46c-.05 1.82-.1 3.63-.13 5.43l-.05 4.99h14.15l-.05-4.99c-.04-1.8-.08-3.61-.13-5.43l-.02-.46h4.16l-.01.46c-.12 4.18-.19 8.43-.19 12.7 0 4.28.07 8.52.19 12.71l.01.45h-.45zm27.56-13.16c-16.81-9.57-29.51-22.27-38.09-38.09-8.59 15.83-21.29 28.53-38.1 38.09 16.81 9.57 29.51 22.27 38.1 38.1 8.58-15.84 21.28-28.54 38.09-38.1zm-78.33-3.3c16.96-9.41 27.47-19.9 36.92-36.92-16.77-.84-31.89-7.99-43.02-19.11a65.814 65.814 0 01-15.25-23.92c-4.13 3.06-8.03 6.42-11.65 10.03-3.62 3.62-6.98 7.52-10.03 11.65 9.08 3.3 17.22 8.56 23.92 15.26 11.12 11.12 18.27 26.24 19.11 43.01zm43.54-36.93c9.41 16.96 19.9 27.48 36.92 36.92.84-16.76 7.98-31.88 19.11-43a65.454 65.454 0 0123.91-15.26c-3.06-4.13-6.41-8.03-10.03-11.65-3.62-3.61-7.52-6.98-11.64-10.03-3.3 9.08-8.56 17.22-15.26 23.92-11.13 11.12-26.24 18.27-43.01 19.1zm36.92 43.55c-17.02 9.45-27.52 19.97-36.92 36.92 16.77.84 31.88 7.98 43.01 19.1 6.7 6.7 11.95 14.85 15.26 23.92 4.12-3.06 8.02-6.41 11.64-10.03 3.62-3.62 6.98-7.52 10.03-11.64a65.371 65.371 0 01-23.91-15.26c-11.13-11.12-18.27-26.24-19.11-43.01zm-43.54 36.92c-9.46-17.03-19.96-27.52-36.92-36.93-.84 16.77-7.99 31.89-19.11 43.02a65.707 65.707 0 01-23.92 15.26c3.06 4.12 6.41 8.02 10.03 11.64 3.62 3.62 7.52 6.98 11.64 10.03a65.754 65.754 0 0115.26-23.92c11.13-11.12 26.25-18.26 43.02-19.1zm343.7-357.26h5.53l-26.17 26.16 15.9 15.9c3.25-4.46 6.87-8.68 10.79-12.6 4.11-4.12 8.56-7.89 13.26-11.27a65.298 65.298 0 01-2.56-18.18h4.22c0 5.4.7 10.64 2.02 15.65 11.47-7.56 24.36-12.92 37.93-15.65h42.68c13.56 2.73 26.45 8.09 37.92 15.65 1.32-5 2.02-10.24 2.02-15.65h4.23c0 6.31-.9 12.41-2.56 18.18a106.8 106.8 0 0113.25 11.27c3.92 3.91 7.53 8.14 10.79 12.61l15.9-15.91-26.17-26.16h5.53l23.4 23.39v5.54l-16.37 16.38c7.94 11.75 13.58 25.07 16.37 39v42.68c-2.77 13.78-8.16 26.6-15.64 37.93l-.74 1.08 16.37 16.38v5.53l-23.4 23.4h-5.53l26.17-26.17-15.93-15.93c-3.27 4.45-6.68 8.56-10.76 12.64-4.11 4.11-8.56 7.89-13.26 11.27a65.674 65.674 0 012.57 18.18h-4.23c0-5.4-.7-10.65-2.02-15.65-11.47 7.56-24.36 12.92-37.92 15.65h-42.68c-13.57-2.73-26.46-8.09-37.93-15.65a61.592 61.592 0 00-2.02 15.65h-4.22c0-6.31.9-12.41 2.56-18.18-4.7-3.38-9.15-7.16-13.26-11.27a106.9 106.9 0 01-10.79-12.61l-15.9 15.9 26.17 26.17h-5.53l-23.4-23.4v-5.53l16.37-16.37c-7.95-11.74-13.56-25.02-16.37-39.02v-42.68c2.82-14 8.43-27.27 16.37-39.02l-16.37-16.36v-5.54l23.4-23.39zm37.86 104.49v2.36c.01-.79.01-1.57 0-2.36zm-.02 2.95a6.282 6.282 0 01-6.04 4.53c-1.74 0-3.31-.7-4.45-1.84a6.408 6.408 0 01-1.46-2.29h-29.21v-4.66h29.17l.18-.03c.32-.72.77-1.37 1.32-1.92a6.217 6.217 0 014.45-1.86c1.74 0 3.31.7 4.45 1.85.74.74 1.29 1.67 1.59 2.7-.43-15.11-6.4-30.07-17.91-41.58a61.512 61.512 0 00-23.46-14.66c-11.21 16.54-17.75 36.51-17.75 58 0 21.49 6.54 41.45 17.75 57.99a61.196 61.196 0 0023.46-14.66c11.51-11.51 17.48-26.47 17.91-41.56zm-4.57-3.23c-.38-.37-.9-.61-1.47-.61s-1.09.24-1.47.61c-.37.37-.6.89-.6 1.47a2.063 2.063 0 002.07 2.07c.57 0 1.09-.23 1.46-.61.38-.37.61-.89.61-1.46 0-.58-.23-1.1-.6-1.47zm50.81-42.95c15.08-.45 30.02-6.42 41.51-17.91a61.376 61.376 0 0014.67-23.47c-16.55-11.2-36.51-17.75-58-17.75-21.49 0-41.45 6.55-57.99 17.75a61.279 61.279 0 0014.66 23.47c11.48 11.49 26.42 17.45 41.48 17.91-1.01-.31-1.9-.86-2.63-1.58a6.282 6.282 0 01-1.84-4.45c0-1.74.7-3.31 1.85-4.45.55-.54 1.2-.99 1.92-1.31l.03-.19v-29.16h4.67v29.2c.86.33 1.64.83 2.28 1.46a6.273 6.273 0 010 8.9c-.72.72-1.61 1.27-2.62 1.58zm-3.29-4.56c.37.38.89.61 1.46.61s1.09-.24 1.47-.61a2.105 2.105 0 000-2.94c-.37-.36-.89-.6-1.47-.6-.57 0-1.09.23-1.46.61-.38.37-.61.89-.61 1.46s.23 1.1.61 1.47zm45.91 50.89c.47 15.05 6.43 29.95 17.9 41.43a61.234 61.234 0 0023.47 14.66c11.2-16.54 17.75-36.5 17.75-57.99 0-21.49-6.55-41.46-17.75-58a61.399 61.399 0 00-23.47 14.66c-11.47 11.48-17.44 26.39-17.9 41.44.3-.97.84-1.84 1.55-2.55a6.226 6.226 0 014.44-1.85c1.75 0 3.31.7 4.45 1.86.55.55 1 1.2 1.32 1.92l.18.03h29.17v4.66h-29.21c-.31.87-.82 1.64-1.46 2.29a6.264 6.264 0 01-4.45 1.84c-1.74 0-3.3-.7-4.44-1.84a6.314 6.314 0 01-1.55-2.55zm4.53-3.37c-.38.37-.61.89-.61 1.47 0 .57.24 1.09.61 1.46a2.066 2.066 0 002.93 0c.37-.37.61-.89.61-1.46 0-.58-.24-1.1-.61-1.47-.37-.37-.89-.61-1.47-.61-.56 0-1.08.24-1.46.61zm-47.15 45.89a6.304 6.304 0 014.47 6.02c0 1.74-.71 3.31-1.85 4.45-.64.64-1.42 1.14-2.28 1.46v29.21h-4.67v-29.17l-.03-.18c-.72-.32-1.37-.77-1.92-1.32a6.249 6.249 0 01-1.85-4.45c0-1.74.7-3.31 1.84-4.45.73-.72 1.62-1.26 2.63-1.57-15.07.45-30 6.42-41.48 17.91a61.316 61.316 0 00-14.66 23.46c16.54 11.21 36.5 17.75 57.99 17.75 21.49 0 41.45-6.54 58-17.75a61.263 61.263 0 00-14.67-23.46c-11.49-11.5-26.44-17.47-41.51-17.91zm-3.29 4.55c-.38.38-.61.9-.61 1.47s.23 1.09.61 1.47c.37.37.89.6 1.46.6.58 0 1.1-.23 1.47-.6.37-.38.6-.9.6-1.47a2.063 2.063 0 00-2.07-2.07c-.57 0-1.09.23-1.46.6zm12.02-35.81h-3.71l.02-.46c.06-2.15.11-4.29.14-6.42.03-1.91.04-3.9.05-5.98h-14.17c0 1.99.02 3.98.04 5.98.04 2.13.08 4.27.15 6.42l.01.46h-4.15l.01-.46c.12-4.18.18-8.43.18-12.7 0-4.28-.06-8.53-.18-12.71l-.01-.45h4.15l-.01.45c-.05 1.83-.1 3.63-.13 5.44l-.05 4.99h14.15l-.05-4.99c-.04-1.81-.08-3.61-.13-5.44l-.02-.45h4.16l-.01.45c-.12 4.19-.19 8.43-.19 12.71 0 4.27.07 8.51.19 12.7l.01.46h-.45zm27.56-13.16c-16.81-9.57-29.51-22.27-38.09-38.1-8.59 15.84-21.29 28.54-38.1 38.1 16.81 9.57 29.51 22.27 38.1 38.09 8.58-15.83 21.28-28.53 38.09-38.09zm-78.33-3.3c16.96-9.42 27.47-19.9 36.92-36.93-16.77-.84-31.89-7.98-43.02-19.11a65.691 65.691 0 01-15.25-23.91c-4.13 3.06-8.03 6.41-11.65 10.03-3.62 3.62-6.98 7.52-10.03 11.64 9.08 3.3 17.22 8.56 23.92 15.26 11.12 11.12 18.27 26.24 19.11 43.02zm43.54-36.93c9.41 16.95 19.9 27.48 36.92 36.92.84-16.77 7.98-31.89 19.11-43.01a65.584 65.584 0 0123.91-15.26 104.08 104.08 0 00-10.03-11.64c-3.62-3.62-7.52-6.98-11.64-10.03a65.371 65.371 0 01-15.26 23.91c-11.13 11.13-26.24 18.27-43.01 19.11zm36.92 43.55c-17.02 9.45-27.52 19.96-36.92 36.92 16.77.83 31.88 7.98 43.01 19.1 6.7 6.7 11.95 14.85 15.26 23.92 4.12-3.06 8.02-6.42 11.64-10.04 3.62-3.61 6.98-7.51 10.03-11.64a65.477 65.477 0 01-23.91-15.25c-11.13-11.13-18.27-26.25-19.11-43.01zm-43.54 36.92c-9.46-17.03-19.96-27.53-36.92-36.93-.84 16.77-7.99 31.89-19.11 43.02a65.814 65.814 0 01-23.92 15.25c3.06 4.13 6.41 8.03 10.03 11.64 3.62 3.62 7.52 6.99 11.64 10.04a65.754 65.754 0 0115.26-23.92c11.13-11.12 26.25-18.27 43.02-19.1z" fill="#11ab68" fill-rule="nonzero"/><path d="M1339.19 23.44c-13.79-7.72-27.58-15.38-41.37-23.07l-.01 33.43c-5.58-3.3-11.61-5.94-17.93-7.87-7.74-2.37-15.92-3.63-24.43-3.63-8.45 0-16.66 1.27-24.4 3.63a82.168 82.168 0 00-17.93 7.89L1213.1.37l-41.33 23.07c.1 55.04.01 110.07.01 165.11l41.34 23.04.01-33.36c5.61 3.27 11.6 5.94 17.95 7.88a83.432 83.432 0 0024.38 3.62c8.52 0 16.69-1.27 24.43-3.62 6.31-1.94 12.33-4.6 17.92-7.88v33.37l41.38-23.05V23.44zm-5.52 161.85l-30.29 16.91-.02-34.16-4.32 2.9c-6.3 4.24-13.29 7.62-20.75 9.88a78.11 78.11 0 01-22.82 3.38c-7.92 0-15.59-1.19-22.76-3.38a78.335 78.335 0 01-20.8-9.88l-4.29-2.9-.01 34.16-30.31-16.91V26.7l30.29-16.89.01 34.19 4.3-2.9a78.389 78.389 0 0120.8-9.9c7.19-2.18 14.84-3.34 22.76-3.34 7.95 0 15.63 1.17 22.83 3.34a78.225 78.225 0 0120.75 9.9l4.34 2.92V9.81l30.29 16.89v158.59zm-78.21-129.04c-13.74 0-26.17 5.57-35.18 14.57-9.01 9.02-14.59 21.46-14.59 35.19 0 13.74 5.58 26.18 14.59 35.19 9.02 9.02 21.45 14.57 35.18 14.57 13.75 0 26.2-5.55 35.18-14.58 9.03-9.01 14.59-21.45 14.59-35.18 0-13.74-5.56-26.18-14.59-35.18-8.99-9.01-21.44-14.58-35.18-14.58zm-31.28 18.49c8.03-8 19.08-12.95 31.28-12.95 12.22 0 23.29 4.94 31.27 12.94 8.03 8 12.96 19.06 12.96 31.28 0 12.2-4.95 23.27-12.96 31.25-7.98 8.05-19.05 12.99-31.27 12.99-12.2 0-23.25-4.95-31.28-12.99-7.99-7.98-12.92-19.05-12.92-31.25 0-12.22 4.92-23.28 12.92-31.27zM167.44 445.93c-13.79-7.72-27.58-15.41-41.36-23.07l-.01 33.42a82.756 82.756 0 00-17.96-7.88c-7.72-2.36-15.89-3.6-24.4-3.6-8.49 0-16.67 1.25-24.39 3.6a82.116 82.116 0 00-17.97 7.89l-.01-33.43L0 445.93C.1 500.94.01 556 .01 611l41.34 23.09.03-33.39c5.59 3.28 11.59 5.96 17.96 7.88 7.7 2.36 15.89 3.63 24.37 3.63 8.52 0 16.68-1.28 24.41-3.63a82.33 82.33 0 0017.94-7.88l.01 33.39L167.44 611V445.93zm-5.53 161.84l-30.31 16.91-.02-34.15-4.28 2.89a78.077 78.077 0 01-20.78 9.89c-7.21 2.21-14.87 3.37-22.8 3.37-7.91 0-15.6-1.17-22.78-3.37a79.017 79.017 0 01-20.81-9.89l-4.28-2.89v34.14l-30.3-16.9V449.18l30.28-16.89.01 34.2 4.29-2.91a78.797 78.797 0 0120.79-9.91 79.076 79.076 0 0122.8-3.34c7.93 0 15.6 1.18 22.8 3.34a79.034 79.034 0 0120.78 9.91l4.3 2.92.01-34.21 30.3 16.89v158.59zm-78.2-129.04c-13.74 0-26.18 5.56-35.18 14.58-9.03 9.02-14.58 21.46-14.58 35.19 0 13.73 5.55 26.16 14.58 35.18 9.01 9.02 21.45 14.58 35.18 14.58 13.75 0 26.18-5.56 35.17-14.59 9.01-9.02 14.6-21.45 14.6-35.17 0-13.74-5.59-26.17-14.59-35.18-9.01-9.03-21.45-14.59-35.18-14.59zm-31.27 18.49c8.01-8 19.05-12.95 31.27-12.95 12.22 0 23.28 4.94 31.26 12.94 8.03 8 12.95 19.07 12.95 31.29 0 12.19-4.93 23.27-12.95 31.25a43.95 43.95 0 01-31.26 12.97c-12.22 0-23.26-4.95-31.27-12.97a44.003 44.003 0 01-12.95-31.25c0-12.22 4.94-23.29 12.95-31.28zm617.17-262.53c-13.76-7.71-27.56-15.4-41.34-23.09l-.01 33.43a85.19 85.19 0 00-17.94-7.88 83.928 83.928 0 00-24.42-3.6c-8.5 0-16.69 1.26-24.41 3.6-6.34 1.95-12.36 4.59-17.96 7.9l-.01-33.45-41.35 23.09c.1 55.02 0 110.08 0 165.08l41.36 23.08.01-33.38c5.61 3.28 11.61 5.95 17.97 7.87 7.71 2.36 15.9 3.62 24.39 3.62 8.5 0 16.68-1.27 24.42-3.62a83.288 83.288 0 0017.93-7.87l.01 33.39 41.35-23.09V234.69zm-5.52 161.83l-30.3 16.92-.01-34.17-4.3 2.92a77.9 77.9 0 01-20.76 9.87 78.193 78.193 0 01-22.81 3.38c-7.92 0-15.59-1.19-22.8-3.38a78.775 78.775 0 01-20.78-9.87l-4.29-2.92v34.17l-30.32-16.92V237.95l30.3-16.9.01 34.2 4.29-2.9a77.1 77.1 0 0120.79-9.9c7.21-2.19 14.87-3.35 22.8-3.35 7.93 0 15.6 1.17 22.81 3.35a77.188 77.188 0 0120.76 9.9l4.31 2.91.01-34.21 30.29 16.9v158.57zM585.9 267.49c-13.74 0-26.18 5.55-35.18 14.58-9.02 9.02-14.59 21.46-14.59 35.17 0 13.76 5.57 26.19 14.59 35.2 9.01 9 21.45 14.58 35.18 14.58 13.74 0 26.17-5.58 35.18-14.59 9.01-9.01 14.59-21.44 14.59-35.19 0-13.72-5.58-26.16-14.58-35.16-9.03-9.04-21.46-14.59-35.19-14.59zm-31.26 18.48c7.98-7.99 19.05-12.95 31.26-12.95 12.22 0 23.27 4.96 31.27 12.94 8 8.01 12.95 19.06 12.95 31.28 0 12.21-4.96 23.28-12.95 31.28-8 8.02-19.05 12.94-31.27 12.94-12.21 0-23.28-4.93-31.26-12.94-8.03-8-12.95-19.07-12.95-31.28 0-12.22 4.92-23.27 12.95-31.27zm449.75 371.21c-13.78-7.73-27.58-15.41-41.35-23.08v33.39a83.913 83.913 0 00-17.97-7.84c-7.71-2.37-15.91-3.62-24.39-3.61-8.5-.01-16.69 1.25-24.42 3.61a83.692 83.692 0 00-17.95 7.86l-.01-33.41-41.34 23.08c.1 55.01.01 110.05.01 165.08l41.34 23.06.02-33.38a83.537 83.537 0 0017.95 7.88c7.71 2.37 15.91 3.62 24.41 3.62 8.49 0 16.67-1.26 24.39-3.62a82.832 82.832 0 0017.95-7.88l.01 33.39 41.35-23.07V657.18zm-5.53 161.84l-30.3 16.9-.01-34.16-4.3 2.9a77.634 77.634 0 01-20.76 9.89 78.537 78.537 0 01-22.79 3.36c-7.95 0-15.6-1.18-22.82-3.36a78.441 78.441 0 01-20.77-9.89l-4.29-2.9v34.15l-30.33-16.89V660.41l30.31-16.9.01 34.22 4.3-2.91c6.33-4.25 13.33-7.63 20.77-9.9 7.23-2.18 14.87-3.34 22.81-3.34 7.91 0 15.59 1.17 22.8 3.34 7.42 2.26 14.42 5.64 20.76 9.9l4.31 2.92.01-34.23 30.29 16.9v158.61zm-78.17-129.05c-13.78 0-26.21 5.56-35.21 14.59-9 9.01-14.57 21.46-14.57 35.17 0 13.74 5.57 26.18 14.57 35.18 9.01 9.03 21.44 14.58 35.21 14.58 13.72 0 26.17-5.55 35.16-14.58 9.01-9.01 14.6-21.45 14.6-35.18 0-13.72-5.59-26.17-14.59-35.16-9.01-9.04-21.47-14.6-35.17-14.6zm-31.29 18.49c8.01-8 19.06-12.95 31.29-12.95 12.21 0 23.25 4.94 31.24 12.95 8.02 7.99 12.96 19.05 12.96 31.27 0 12.21-4.96 23.28-12.96 31.27-7.99 8.01-19.03 12.96-31.24 12.96-12.23 0-23.28-4.96-31.29-12.96-8.01-7.99-12.93-19.06-12.93-31.27 0-12.22 4.92-23.28 12.93-31.27zm784.57-262.53c-13.77-7.72-27.56-15.41-41.36-23.07v33.42a83.241 83.241 0 00-17.94-7.88c-7.72-2.36-15.94-3.6-24.42-3.6-8.48 0-16.69 1.25-24.42 3.6a82.94 82.94 0 00-17.94 7.89l-.01-33.43-41.33 23.07c.09 55.01 0 110.07 0 165.07l41.34 23.09.01-33.39c5.61 3.28 11.61 5.96 17.95 7.88a83.421 83.421 0 0024.4 3.63c8.5 0 16.7-1.28 24.42-3.63a82.385 82.385 0 0017.92-7.88l.02 33.39 41.37-23.09-.01-165.07zm-5.52 161.84l-30.29 16.91-.02-34.15-4.32 2.89c-6.3 4.26-13.3 7.61-20.73 9.89-7.25 2.21-14.91 3.37-22.83 3.37-7.93 0-15.59-1.17-22.79-3.37a79.041 79.041 0 01-20.79-9.89l-4.28-2.89-.01 34.14-30.3-16.9V449.18l30.28-16.89.02 34.2 4.29-2.91a78.649 78.649 0 0120.79-9.91 78.905 78.905 0 0122.79-3.34c7.92 0 15.59 1.18 22.83 3.34a78.423 78.423 0 0120.73 9.91l4.34 2.92v-34.21l30.29 16.89v158.59zm-78.2-129.04c-13.73 0-26.16 5.56-35.18 14.58-9 9.02-14.59 21.46-14.59 35.19 0 13.73 5.59 26.16 14.59 35.18 9.03 9.02 21.46 14.58 35.18 14.58 13.74 0 26.16-5.56 35.18-14.59 9.03-9.02 14.59-21.45 14.59-35.17 0-13.74-5.56-26.17-14.59-35.18-9.03-9.03-21.46-14.59-35.18-14.59zm-31.27 18.49c8.01-8 19.06-12.95 31.27-12.95 12.24 0 23.29 4.94 31.28 12.94 8 8 12.95 19.07 12.95 31.29 0 12.19-4.97 23.27-12.95 31.25a43.979 43.979 0 01-31.28 12.97c-12.21 0-23.26-4.95-31.27-12.97a44.077 44.077 0 01-12.94-31.25c0-12.22 4.95-23.29 12.94-31.28zm617.17 159.96c-13.75-7.73-27.55-15.41-41.34-23.08l-.01 33.39a83.673 83.673 0 00-17.94-7.84c-7.73-2.37-15.95-3.62-24.41-3.61a83.147 83.147 0 00-24.41 3.61 83.475 83.475 0 00-17.95 7.86l-.01-33.41-41.34 23.08c.09 55.01 0 110.05 0 165.08l41.35 23.06.01-33.38a83.537 83.537 0 0017.95 7.88c7.72 2.37 15.93 3.62 24.41 3.62 8.47 0 16.67-1.26 24.4-3.62a82.463 82.463 0 0017.93-7.88l.01 33.39 41.36-23.07-.01-165.08zm-5.51 161.84l-30.3 16.9-.01-34.16-4.32 2.9a76.937 76.937 0 01-20.74 9.89 78.604 78.604 0 01-22.8 3.36c-7.94 0-15.6-1.18-22.8-3.36a78.356 78.356 0 01-20.78-9.89l-4.3-2.9-.01 34.15-30.3-16.89V660.41l30.29-16.9.01 34.22 4.3-2.91c6.34-4.25 13.34-7.63 20.78-9.9 7.22-2.18 14.86-3.34 22.8-3.34 7.92 0 15.59 1.17 22.81 3.34a77.394 77.394 0 0120.74 9.9l4.33 2.92.01-34.23 30.29 16.9v158.61zm-78.18-129.05c-13.77 0-26.2 5.56-35.2 14.59-9 9.01-14.58 21.46-14.58 35.17 0 13.74 5.58 26.18 14.58 35.18 9.01 9.03 21.44 14.58 35.2 14.58 13.73 0 26.17-5.55 35.17-14.58 9.02-9.01 14.6-21.45 14.6-35.18 0-13.72-5.58-26.17-14.59-35.16-9.02-9.04-21.47-14.6-35.18-14.6zm-31.28 18.49c8-8 19.07-12.95 31.28-12.95s23.27 4.94 31.26 12.95c8.02 7.99 12.95 19.05 12.95 31.27 0 12.21-4.94 23.28-12.95 31.27-7.99 8.01-19.05 12.96-31.26 12.96s-23.28-4.96-31.28-12.96c-8.02-7.99-12.95-19.06-12.95-31.27 0-12.22 4.93-23.28 12.95-31.27zm282.39-685.02c-13.75-7.72-27.55-15.38-41.34-23.07l-.01 33.43c-5.6-3.3-11.61-5.94-17.94-7.87-7.74-2.37-15.94-3.63-24.42-3.63-8.48 0-16.67 1.27-24.39 3.63a81.773 81.773 0 00-17.96 7.89L2217.5.37l-41.36 23.07c.11 55.04.01 110.07.01 165.11l41.36 23.04.01-33.36c5.6 3.27 11.61 5.94 17.97 7.88 7.7 2.36 15.91 3.62 24.37 3.62 8.49 0 16.68-1.27 24.43-3.62 6.31-1.94 12.32-4.6 17.92-7.88l.01 33.37 41.36-23.05-.01-165.11zm-5.52 161.85l-30.3 16.91v-34.16l-4.3 2.9c-6.32 4.24-13.33 7.62-20.77 9.88a78.142 78.142 0 01-22.81 3.38c-7.91 0-15.58-1.19-22.78-3.38a78.443 78.443 0 01-20.77-9.88l-4.31-2.9-.01 34.16-30.3-16.91V26.7l30.29-16.89L2212 44l4.31-2.9a78.35 78.35 0 0120.77-9.9c7.21-2.18 14.87-3.34 22.79-3.34 7.93 0 15.6 1.17 22.81 3.34a79.094 79.094 0 0120.77 9.9l4.3 2.92.01-34.21 30.29 16.89v158.59zm-78.19-129.04c-13.74 0-26.18 5.57-35.18 14.57-9.03 9.02-14.58 21.46-14.58 35.19 0 13.74 5.55 26.18 14.58 35.19 9.01 9.02 21.45 14.57 35.18 14.57 13.75 0 26.17-5.55 35.2-14.58 8.99-9.01 14.58-21.45 14.58-35.18 0-13.74-5.59-26.18-14.58-35.18-9.04-9.01-21.47-14.58-35.2-14.58zm-31.26 18.49c7.98-8 19.07-12.95 31.26-12.95 12.21 0 23.28 4.94 31.28 12.94 8.02 8 12.94 19.06 12.94 31.28 0 12.2-4.93 23.27-12.94 31.25-8 8.05-19.07 12.99-31.28 12.99-12.19 0-23.28-4.95-31.26-12.99-8.01-7.98-12.97-19.05-12.97-31.25a43.99 43.99 0 0112.97-31.27zm784.55 371.19c-13.76-7.72-27.55-15.41-41.35-23.07v33.42a82.733 82.733 0 00-17.93-7.88c-7.74-2.36-15.94-3.6-24.43-3.6-8.48 0-16.67 1.25-24.4 3.6a82.883 82.883 0 00-17.96 7.89l-.02-33.43-41.33 23.07c.1 55.01 0 110.07 0 165.07l41.35 23.09V600.7c5.63 3.28 11.63 5.96 17.97 7.88a83.404 83.404 0 0024.39 3.63c8.51 0 16.7-1.28 24.43-3.63a82.095 82.095 0 0017.91-7.88l.02 33.39 41.36-23.09-.01-165.07zm-5.5 161.84l-30.31 16.91-.01-34.15-4.3 2.89a78.1 78.1 0 01-20.76 9.89c-7.22 2.21-14.9 3.37-22.82 3.37-7.91 0-15.59-1.17-22.77-3.37-7.45-2.29-14.46-5.63-20.79-9.89l-4.31-2.89v34.14l-30.31-16.9V449.18l30.28-16.89.02 34.2 4.31-2.91a78.5 78.5 0 0120.79-9.91 78.837 78.837 0 0122.78-3.34c7.92 0 15.61 1.18 22.82 3.34a78.76 78.76 0 0120.76 9.91l4.31 2.92.01-34.21 30.3 16.89v158.59zm-78.21-129.04c-13.72 0-26.18 5.56-35.19 14.58-9 9.02-14.57 21.46-14.57 35.19 0 13.73 5.57 26.16 14.57 35.18 9.02 9.02 21.48 14.58 35.19 14.58 13.73 0 26.17-5.56 35.19-14.59 9.01-9.02 14.59-21.45 14.59-35.17 0-13.74-5.58-26.17-14.58-35.18-9.04-9.03-21.48-14.59-35.2-14.59zm-31.26 18.49c8-8 19.06-12.95 31.26-12.95 12.24 0 23.28 4.94 31.29 12.94 8 8 12.92 19.07 12.92 31.29 0 12.19-4.94 23.27-12.92 31.25-8.01 8.02-19.05 12.97-31.29 12.97-12.2 0-23.26-4.95-31.26-12.97-8-7.98-12.96-19.06-12.96-31.25 0-12.22 4.95-23.29 12.96-31.28zm282.33-262.53c-13.75-7.71-27.54-15.4-41.32-23.09l-.01 33.43a84.82 84.82 0 00-17.95-7.88c-7.74-2.35-15.94-3.6-24.42-3.6-8.51 0-16.67 1.26-24.4 3.6-6.34 1.95-12.36 4.59-17.95 7.9l-.01-33.45-41.36 23.09c.1 55.02.01 110.08.01 165.08l41.36 23.08.01-33.38c5.6 3.28 11.61 5.95 17.96 7.87 7.71 2.36 15.88 3.62 24.39 3.62 8.48 0 16.67-1.27 24.42-3.62a83.072 83.072 0 0017.93-7.87l.01 33.39 41.33-23.09V234.69zM3175 396.52l-30.29 16.92-.02-34.17-4.3 2.92c-6.32 4.24-13.31 7.61-20.76 9.87a78.125 78.125 0 01-22.8 3.38c-7.93 0-15.61-1.19-22.81-3.38a78.712 78.712 0 01-20.77-9.87l-4.31-2.92v34.17l-30.3-16.92V237.95l30.28-16.9.01 34.2 4.31-2.9a77.038 77.038 0 0120.78-9.9c7.21-2.19 14.88-3.35 22.8-3.35 7.93 0 15.61 1.17 22.81 3.35a77.046 77.046 0 0120.76 9.9l4.32 2.91v-34.21l30.29 16.9v158.57zm-78.18-129.03c-13.74 0-26.2 5.55-35.18 14.58-9.03 9.02-14.59 21.46-14.59 35.17 0 13.76 5.56 26.19 14.59 35.2 8.99 9 21.45 14.58 35.18 14.58 13.74 0 26.17-5.58 35.18-14.59 9.01-9.01 14.59-21.44 14.59-35.19 0-13.72-5.58-26.16-14.58-35.16-9.03-9.04-21.47-14.59-35.19-14.59zm-31.28 18.48c8-7.99 19.07-12.95 31.28-12.95 12.22 0 23.27 4.96 31.28 12.94 8 8.01 12.93 19.06 12.93 31.28 0 12.21-4.95 23.28-12.93 31.28-8.01 8.02-19.06 12.94-31.28 12.94-12.21 0-23.28-4.93-31.28-12.94-8-8-12.95-19.07-12.95-31.28 0-12.22 4.95-23.27 12.95-31.27zm784.57 159.96c-13.77-7.72-27.57-15.41-41.36-23.07v33.42a82.89 82.89 0 00-17.95-7.88c-7.73-2.36-15.91-3.6-24.41-3.6-8.49 0-16.67 1.25-24.4 3.6a82.303 82.303 0 00-17.94 7.89l-.02-33.43-41.35 23.07c.1 55.01 0 110.07 0 165.07l41.37 23.09.01-33.39c5.59 3.28 11.59 5.96 17.94 7.88a83.354 83.354 0 0024.39 3.63c8.52 0 16.68-1.28 24.41-3.63a82.04 82.04 0 0017.93-7.88l.02 33.39 41.37-23.09-.01-165.07zm-5.52 161.84l-30.31 16.91-.01-34.15-4.29 2.89a77.953 77.953 0 01-20.76 9.89c-7.22 2.21-14.89 3.37-22.82 3.37-7.91 0-15.6-1.17-22.77-3.37a78.93 78.93 0 01-20.82-9.89l-4.27-2.89-.01 34.14-30.3-16.9V449.18l30.28-16.89.02 34.2 4.28-2.91a78.625 78.625 0 0120.81-9.91 78.837 78.837 0 0122.78-3.34c7.93 0 15.61 1.18 22.82 3.34a78.76 78.76 0 0120.76 9.91l4.3 2.92v-34.21l30.31 16.89v158.59zm-78.2-129.04c-13.74 0-26.17 5.56-35.18 14.58-9.02 9.02-14.59 21.46-14.59 35.19 0 13.73 5.57 26.16 14.59 35.18s21.45 14.58 35.18 14.58 26.16-5.56 35.18-14.59c9.01-9.02 14.59-21.45 14.59-35.17 0-13.74-5.58-26.17-14.59-35.18-9.03-9.03-21.47-14.59-35.18-14.59zm-31.27 18.49c8.01-8 19.07-12.95 31.27-12.95a44.03 44.03 0 0131.27 12.94c8.04 8 12.94 19.07 12.94 31.29 0 12.19-4.92 23.27-12.94 31.25-7.99 8.02-19.04 12.97-31.27 12.97-12.2 0-23.26-4.95-31.27-12.97-7.99-7.98-12.96-19.06-12.96-31.25 0-12.22 4.97-23.29 12.96-31.28zm617.19-262.53c-13.77-7.71-27.57-15.4-41.34-23.09l-.01 33.43a84.455 84.455 0 00-17.96-7.88c-7.72-2.35-15.92-3.6-24.4-3.6a83.86 83.86 0 00-24.39 3.6c-6.35 1.95-12.37 4.59-17.98 7.9l-.02-33.45-41.34 23.09c.1 55.02 0 110.08 0 165.08l41.36 23.08v-33.38a83.47 83.47 0 0018 7.87c7.69 2.36 15.89 3.62 24.38 3.62 8.49 0 16.67-1.27 24.39-3.62a82.59 82.59 0 0017.95-7.87l.01 33.39 41.36-23.09-.01-165.08zm-5.53 161.83l-30.3 16.92-.01-34.17-4.3 2.92a77.63 77.63 0 01-20.74 9.87 78.344 78.344 0 01-22.81 3.38c-7.93 0-15.6-1.19-22.8-3.38-7.45-2.27-14.43-5.63-20.78-9.87l-4.29-2.92-.01 34.17-30.31-16.92V237.95l30.3-16.9.01 34.2 4.28-2.9a77.303 77.303 0 0120.8-9.9c7.21-2.19 14.85-3.35 22.79-3.35 7.92 0 15.6 1.17 22.82 3.35a76.782 76.782 0 0120.74 9.9l4.31 2.91.01-34.21 30.29 16.9v158.57zm-78.17-129.03c-13.76 0-26.2 5.55-35.19 14.58-9.01 9.02-14.58 21.46-14.58 35.17 0 13.76 5.57 26.19 14.58 35.2 9 9 21.44 14.58 35.19 14.58 13.73 0 26.16-5.58 35.18-14.59s14.56-21.44 14.56-35.19a49.53 49.53 0 00-14.55-35.16c-9.04-9.04-21.48-14.59-35.19-14.59zm-31.26 18.48c7.98-7.99 19.04-12.95 31.26-12.95 12.23 0 23.27 4.96 31.26 12.94 8.02 8.01 12.96 19.06 12.96 31.28 0 12.21-4.95 23.28-12.96 31.28-7.99 8.02-19.03 12.94-31.26 12.94-12.22 0-23.28-4.93-31.26-12.94-8.02-8-12.97-19.07-12.97-31.28 0-12.22 4.94-23.27 12.97-31.27z" fill="gray" fill-rule="nonzero"/></svg>