<?xml version="1.0" encoding="UTF-8"?>
<!DOCTYPE svg PUBLIC "-//W3C//DTD SVG 1.1//EN" "http://www.w3.org/Graphics/SVG/1.1/DTD/svg11.dtd">
<!-- Creator: CorelDRAW 2021.5 -->
<svg xmlns="http://www.w3.org/2000/svg" xml:space="preserve" width="11.3028mm" height="2.5341mm" version="1.1" style="shape-rendering:geometricPrecision; text-rendering:geometricPrecision; image-rendering:optimizeQuality; fill-rule:evenodd; clip-rule:evenodd"
viewBox="0 0 3406.94 763.84"
 xmlns:xlink="http://www.w3.org/1999/xlink"
 xmlns:xodm="http://www.corel.com/coreldraw/odm/2003">
 <defs>
  <style type="text/css">
   <![CDATA[
    .fil1 {fill:white}
    .fil2 {fill:#0E8250;fill-rule:nonzero}
    .fil3 {fill:white;fill-rule:nonzero}
    .fil0 {fill:white;fill-rule:nonzero}
   ]]>
  </style>
 </defs>
 <g id="Слой_x0020_1">
  <metadata id="CorelCorpID_0Corel-Layer"/>
  <g id="_2187601820800">
   <g>
    <path class="fil0" d="M2688.34 333.13c46.99,0.03 120.81,0.78 120.81,63.81 0,35.33 -22.06,52.27 -50.64,60.35 34.15,7.84 61.73,25.86 61.73,66.8 0,68.69 -81.41,68.69 -131.93,68.69 -11.03,0 -22.09,0 -33.16,0 2.59,-86.54 2.59,-173.08 0,-259.65 11.91,0 21.25,0 33.19,0l0 0zm-0.45 244.12c40.81,3.83 97.3,4.25 97.3,-53.17 0,-51.81 -53.86,-61.19 -98.81,-57.99 0.03,37.05 0.54,74.12 1.51,111.17zm-1.48 -126.33c41.39,2.62 90.19,-3.95 90.19,-53.99 0,-50.01 -50.91,-52.93 -88.68,-49.52 -0.9,34.51 -1.42,69 -1.51,103.51z"/>
    <path class="fil1" d="M3291.16 463.26c-9.77,-16.25 -18.12,-29.99 -24.84,-41.08 -6.72,-11.18 -13.05,-21.49 -19.11,-30.9l-35.06 -55.07 -1.78 -3.07 40.9 0c5.73,10.82 12.42,21.7 18.99,33.19l39.94 69.6c4.52,-7.51 12.06,-19.29 22.64,-35.24 10.52,-16.04 18.75,-28.91 24.78,-38.73 5.94,-9.77 11.39,-19.41 16.16,-28.82l27.79 0c-1.36,2.29 -3.41,4.94 -5.82,8.32l-57.72 80.72 -19.02 28.61 87.93 142 -42.08 0c-17.72,-35.24 -39.43,-73.58 -64.87,-114.75 -23.78,35.93 -46.72,74.15 -68.82,114.75l-28.03 0c19.8,-28.21 35.3,-50.04 45.85,-65.95l42.17 -63.57z"/>
    <path class="fil1" d="M1454.46 592.78c8.71,0 19.53,0 28.24,0 -2.68,-88.02 -2.53,-178.23 -0.03,-266.76l-9.01 0 -185.89 207.86 0 0.03 3.95 -200.78c-8.74,0 -19.53,0 -28.24,0 2.65,88.02 2.53,175.88 0.03,264.41l11.09 0 183.81 -207.89 0 0 -3.95 203.13z"/>
    <path class="fil0" d="M1154.54 592.78c11.94,0 21.28,0 33.19,0 -2.59,-86.54 -2.59,-173.08 0,-259.65 -11.91,0 -21.25,0 -33.19,0 1.12,37.05 1.75,74.09 1.9,111.1l-153.61 0c0.15,-37.01 0.81,-74.06 1.9,-111.1 -11.91,0 -21.25,0 -33.16,0 2.56,86.57 2.56,173.11 0,259.65 11.94,0 21.25,0 33.16,0 -1.3,-43.77 -1.96,-87.53 -1.93,-131.3l153.7 0c0,43.77 -0.63,87.53 -1.96,131.3z"/>
    <path class="fil0" d="M2251.43 592.18c11.94,0 21.28,0 33.19,0 -2.59,-86.54 -2.59,-173.08 0,-259.62 -11.91,0 -21.25,0 -33.19,0 1.12,37.01 1.75,74.06 1.9,111.1l-153.61 0c0.18,-37.05 0.81,-74.09 1.9,-111.1 -11.91,0 -21.25,0 -33.16,0 2.56,86.54 2.56,173.08 0,259.62 11.91,0 21.25,0 33.16,0 -1.3,-43.77 -1.96,-87.53 -1.93,-131.3l153.7 0c0,43.77 -0.63,87.53 -1.96,131.3z"/>
    <path class="fil0" d="M1591.61 592.78c-11.91,0 -21.25,0 -33.16,0 2.59,-86.54 2.59,-173.08 0,-259.65 11.91,0 21.25,0 33.16,0 -1.21,40.24 -1.84,80.48 -1.93,120.72 42.23,-40.21 82.53,-80.45 119.57,-120.72 10.07,0 20.2,0 30.29,0 -41.48,38.49 -86.57,81.11 -122.89,119.57 38.07,47.32 84.91,92.78 128.14,140.07 0,0.03 -37.2,0 -41.51,0 -36.14,-43.77 -72.76,-83.34 -113.61,-127.14 -0.03,43.8 0.63,83.4 1.93,127.14z"/>
    <path class="fil0" d="M1886.07 341.45c-62.73,0 -90.64,62.94 -90.64,121.5 0,58.6 27.91,121.56 90.64,121.56 62.73,0 90.64,-62.97 90.64,-121.56 0,-58.57 -27.91,-121.5 -90.64,-121.5zm0 257.27c-75.81,0 -128.26,-56.94 -128.26,-135.76 0,-78.79 52.45,-135.73 128.26,-135.73 75.84,0 128.26,56.94 128.26,135.73 0,78.82 -52.42,135.76 -128.26,135.76z"/>
    <path class="fil0" d="M3114.28 592.78c11.91,0 21.22,0 33.16,0 -2.59,-86.54 -2.59,-173.08 0,-259.65 -11.91,0 -21.25,0 -33.16,0 2.56,86.57 2.56,173.11 0,259.65z"/>
    <path class="fil0" d="M2467.01 341.45c-62.73,0 -90.64,62.94 -90.64,121.5 0,58.6 27.91,121.56 90.64,121.56 62.73,0 90.64,-62.97 90.64,-121.56 0,-58.57 -27.91,-121.5 -90.64,-121.5zm0 257.27c-75.84,0 -128.26,-56.94 -128.26,-135.76 0,-78.79 52.42,-135.73 128.26,-135.73 75.81,0 128.26,56.94 128.26,135.73 0,78.82 -52.45,135.76 -128.26,135.76z"/>
    <path class="fil0" d="M2892.62 592.78c11.06,0 22.09,0 33.16,0 50.49,0 131.93,0 131.93,-68.69 0,-68.72 -77.68,-72.85 -133.86,-72.7 0.09,-39.43 0.75,-78.82 1.93,-118.25 -11.91,0 -21.25,0 -33.16,0 2.59,86.57 2.59,173.11 0,259.65zm32.7 -15.52c-0.96,-37.05 -1.48,-74.12 -1.48,-111.17 44.91,-3.2 98.78,6.18 98.78,57.99 0,57.42 -56.49,57 -97.3,53.17z"/>
    <path class="fil0" d="M1034.88 235.35l0 -69.27 -16.31 0 0 33.64 -18.12 0c-7.51,0 -12.45,-4.49 -12.45,-11.21l0 -22.43 -16.28 0 0 22.43c0,14.05 11.24,23.42 28.12,23.42l18.72 0 0 23.42 16.31 0zm2317.14 -40.75c1.48,-11.94 7.69,-18.33 17.96,-18.33 11.27,0 17.33,6.42 17.33,18.33l-35.3 0zm-557.57 -28.51l-24.48 0 0 110.02 16.34 0 0 -54.23c5.27,8.8 13.53,14.5 22.79,14.5 18.72,0 31.17,-14.26 31.17,-35.66 0,-20.77 -12.45,-34.63 -31.17,-34.63l-14.65 0zm-142.54 28.51l-7.75 0c1.48,-11.94 7.66,-18.33 17.96,-18.33 11.27,0 17.33,6.42 17.33,18.33l-27.55 0zm-375.3 -28.51l-24.9 0c-18.72,0 -31.2,13.87 -31.2,34.63 0,21.4 12.48,35.66 31.2,35.66 10.01,0 18.87,-6.45 24.05,-16.25l0.78 14.83 14.89 0.81c0,0 -0.6,-11 -0.6,-19.14l0 -50.55 -14.23 0zm-426.39 28.51c1.48,-11.94 7.69,-18.33 17.96,-18.33 11.27,0 17.3,6.42 17.3,18.33l-35.27 0zm-683.36 -28.51l-24.9 0c-18.72,0 -31.2,13.87 -31.2,34.63 0,21.4 12.48,35.66 31.2,35.66 10.01,0 18.87,-6.45 24.08,-16.25l0.75 14.83 14.89 0.81c0,0 -0.6,-11 -0.6,-19.14l0 -50.55 -14.23 0zm-39.19 34.63c0,-13.44 7.02,-22.43 17.54,-22.43l19.56 0 0 21.43c0,13.41 -8.77,24.45 -19.56,24.45 -10.52,0 -17.54,-9.37 -17.54,-23.45zm187.37 33.07l0 -16.7c-4.91,3.5 -11.57,5.43 -19.38,5.43 -13.08,0 -21.79,-8.71 -21.79,-21.79 0,-13.08 8.71,-21.79 21.79,-21.79 7.81,0 14.47,1.93 19.38,5.43l0 -16.7c-5.85,-1.42 -12.33,-2.59 -19.38,-2.59 -23.21,0 -38.7,14.26 -38.7,35.66 0,21.4 15.49,35.66 38.7,35.66 7.05,0 13.53,-1.18 19.38,-2.59zm71.8 -33.07c0,21.4 14.26,35.66 35.66,35.66 21.4,0 35.66,-14.26 35.66,-35.66 0,-21.4 -14.26,-35.66 -35.66,-35.66 -21.4,0 -35.66,14.26 -35.66,35.66zm16.91 0c0,-14.05 7.51,-23.42 18.75,-23.42 11.24,0 18.75,9.37 18.75,23.42 0,14.08 -7.51,23.45 -18.75,23.45 -11.24,0 -18.75,-9.37 -18.75,-23.45zm130.28 34.63l32.61 0c18.96,0 31.59,-7.75 31.59,-19.35 0,-8.44 -9.56,-15.55 -22.49,-17.69 9.65,-2.5 16.37,-8.26 16.37,-14.92 0,-10.37 -11.39,-17.3 -28.51,-17.3l-29.57 0 0 69.27zm16.34 -30.56l16.28 0c8.56,0 14.26,4.49 14.26,11.21 0,4.88 -5.7,8.17 -14.26,8.17l-16.28 0 0 -19.38zm0 -27.49l13.23 0c7.93,0 13.23,2.83 13.23,7.14 0,4.88 -5.31,8.14 -13.23,8.14l-13.23 0 0 -15.28zm123.76 58.05l27.49 0c19.56,0 32.61,-9.1 32.61,-22.82 0,-13.81 -13.05,-23.03 -32.61,-23.03l-11.18 0 0 -23.42 -16.31 0 0 69.27zm16.31 -12.21l0 -21.4 11.79 0c9.07,0 15.1,4.31 15.1,10.79 0,6.36 -6.03,10.61 -15.1,10.61l-11.79 0zm52.93 12.21l14.29 0 0 -69.27 -14.29 0 0 69.27zm106.76 -29.54l43.53 0c3.86,0 6.09,-2.14 6.09,-6.09l0 -4.7c0,-18 -12.63,-29.96 -31.56,-29.96 -20.8,0 -34.66,14.26 -34.66,35.66 0,21.4 15.1,35.66 37.71,35.66 6.69,0 12.93,-0.72 19.35,-2.59l0 -15.07c-5.61,4.01 -12.42,5.46 -19.35,5.46 -12.27,0 -19.56,-6.39 -21.1,-18.36zm204.85 29.54l14.26 0 0 -47.66 30.38 45 0.39 0 30.35 -45 0 47.66 14.29 0 0 -69.27 -15.28 0 -29.54 44.61 -29.54 -44.61 -15.31 0 0 69.27zm182.48 -34.63c0,-13.44 6.99,-22.43 17.48,-22.43l19.59 0 0 21.43c0,13.41 -8.77,24.45 -19.59,24.45 -10.49,0 -17.48,-9.37 -17.48,-23.45zm187.34 33.07l0 -16.7c-4.94,3.5 -11.57,5.43 -19.38,5.43 -13.11,0 -21.79,-8.71 -21.79,-21.79 0,-13.08 8.68,-21.79 21.79,-21.79 7.81,0 14.44,1.93 19.38,5.43l0 -16.7c-5.85,-1.42 -12.33,-2.59 -19.38,-2.59 -23.21,0 -38.7,14.26 -38.7,35.66 0,21.4 15.49,35.66 38.7,35.66 7.05,0 13.53,-1.18 19.38,-2.59zm70.77 -67.7l0 12.21 23.42 0 0 57.06 16.34 0 0 -57.06 23.42 0 0 -12.21 -63.18 0zm148.54 39.73l43.47 0c3.86,0 6.12,-2.14 6.12,-6.09l0 -4.7c0,-18 -12.6,-29.96 -31.56,-29.96 -20.8,0 -34.66,14.26 -34.66,35.66 0,21.4 15.1,35.66 37.71,35.66 6.69,0 12.93,-0.72 19.35,-2.59l0 -15.07c-5.61,4.01 -12.42,5.46 -19.35,5.46 -12.27,0 -19.53,-6.39 -21.07,-18.36zm142.21 -27.52l19.53 0c10.52,0 17.51,8.98 17.51,22.43 0,14.08 -6.99,23.45 -17.51,23.45 -10.79,0 -19.53,-11.42 -19.53,-25.47l0 -20.41zm183.87 55.49l0 -16.7c-4.94,3.5 -11.54,5.43 -19.38,5.43 -13.08,0 -21.79,-8.71 -21.79,-21.79 0,-13.08 8.71,-21.79 21.79,-21.79 7.84,0 14.44,1.93 19.38,5.43l0 -16.7c-5.85,-1.42 -12.33,-2.59 -19.38,-2.59 -23.21,0 -38.73,14.26 -38.73,35.66 0,21.4 15.52,35.66 38.73,35.66 7.05,0 13.53,-1.18 19.38,-2.59zm150.26 1.57l-36.08 -35.69 32.58 -33.58 -20.5 0 -28.82 33.64 29.9 35.63 22.91 0zm-73.37 0l16.31 0 0 -69.27 -16.31 0 0 69.27zm147.22 0l10.16 0 39.73 -43.1 0 43.1 15.28 0 0 -69.27 -10.16 0 -39.76 44.16 0 -44.16 -15.25 0 0 69.27zm157.67 -29.54l43.5 0c3.86,0 6.12,-2.14 6.12,-6.09l0 -4.7c0,-18 -12.63,-29.96 -31.59,-29.96 -20.77,0 -34.63,14.26 -34.63,35.66 0,21.4 15.07,35.66 37.71,35.66 6.66,0 12.93,-0.72 19.35,-2.59l0 -15.07c-5.67,4.01 -12.42,5.46 -19.35,5.46 -12.24,0 -19.56,-6.39 -21.1,-18.36z"/>
   </g>
   <path class="fil2" d="M316.31 342.57c-5.64,4.67 -11.51,9.04 -17.63,13.11l-6.27 -10.43 -1.3 -2.14c10.28,-6.87 19.83,-14.71 28.54,-23.42 32.01,-32.01 52.48,-75.54 54.71,-123.79l7.6 -0.03 7.48 0.03c2.26,48.26 22.73,91.78 54.74,123.79 8.71,8.71 18.3,16.58 28.58,23.45l-0.33 0.57 -0.51 0.87 10.4 17.75 1.51 -2.5 4.43 -7.42c24.36,13.08 51.97,20.92 81.26,22.03 1.6,-39.67 15.64,-76.71 38.79,-106.73 20.44,-26.5 47.96,-47.5 80.24,-60.07 2.41,4.28 4.76,8.59 7.02,12.96 -30.5,11.51 -56.49,31.17 -75.69,56.03 -21.34,27.67 -34.27,61.85 -35.72,98.48 2.83,-8.53 10.85,-14.65 20.32,-14.65 9.4,0 17.42,6.06 20.29,14.5l-0.15 0 0 14.2c-2.98,8.2 -10.88,14.08 -20.14,14.08 -9.46,0 -17.51,-6.15 -20.32,-14.68 1.36,35.63 13.62,69 33.97,96.3 19.32,25.95 45.94,46.48 77.44,58.33 -2.26,4.4 -4.61,8.71 -7.02,12.99 -33.37,-12.96 -61.55,-34.97 -82.14,-62.61 -22.06,-29.6 -35.36,-65.71 -36.89,-104.17 -29.3,1.09 -56.91,8.95 -81.29,22.03l-0.69 -1.18 -6.84 -11.42c13.17,-7.11 27.25,-12.84 41.99,-16.91 -27.88,-7.75 -53.32,-21.28 -74.99,-39.25 -21.88,-37.83 -43.28,-75.96 -64.2,-114.36l-1.51 -2.8 -1.51 2.8c-10.46,19.14 -21.1,38.43 -31.98,57.81 -10.64,18.93 -21.37,37.74 -32.16,56.43zm-33.13 22.4c-13.17,7.14 -27.25,12.87 -42.02,16.97 27.94,7.75 53.44,21.34 75.11,39.37 21.88,37.8 43.28,75.9 64.17,114.27l1.51 2.77 1.51 -2.77c10.43,-19.17 21.1,-38.43 31.98,-57.81 10.67,-19.02 21.43,-37.89 32.28,-56.64 5.58,-4.61 11.39,-8.95 17.45,-12.96l6.33 10.49 1.24 2.08c-10.28,6.87 -19.86,14.74 -28.58,23.45 -32.01,32.01 -52.51,75.54 -54.74,123.83l-7.48 0 -7.57 0c-2.23,-48.29 -22.73,-91.81 -54.74,-123.83 -8.71,-8.71 -18.27,-16.55 -28.54,-23.42l0.36 -0.57 0.51 -0.9 -10.37 -17.72 -1.51 2.5 -4.43 7.42c-24.42,-13.11 -52.09,-20.98 -81.44,-22.09 -1.54,38.49 -14.83,74.6 -36.86,104.2 -20.59,27.64 -48.77,49.61 -82.08,62.58 -2.41,-4.25 -4.76,-8.59 -7.02,-12.96 31.47,-11.88 58.05,-32.4 77.38,-58.33 20.32,-27.31 32.58,-60.68 33.97,-96.3 -2.83,8.53 -10.88,14.68 -20.35,14.68 -9.34,0 -17.3,-6 -20.23,-14.38l0.18 0 0 -14.17 -0.12 0c2.95,-8.32 10.88,-14.23 20.17,-14.23 9.46,0 17.51,6.12 20.32,14.65 -1.42,-36.62 -14.38,-70.8 -35.72,-98.48 -19.17,-24.87 -45.12,-44.52 -75.6,-56 2.26,-4.37 4.61,-8.68 7.02,-12.96 32.25,12.57 59.74,33.58 80.15,60.04 23.15,30.02 37.23,67.07 38.79,106.73 29.36,-1.12 57.03,-8.95 81.41,-22.06l0.75 1.21 6.78 11.36zm77.25 239.6c0,-7.84 4.22,-14.71 10.52,-18.45l11 0 10.76 0c6.3,3.74 10.52,10.61 10.52,18.45 0,9.34 -6.03,17.3 -14.38,20.2l0 -0.15 -14.2 0 0 0.12c-8.29,-2.95 -14.23,-10.85 -14.23,-20.17zm-5.27 -18.39c-29.03,4.55 -55.94,16.37 -78.52,33.79 -24.87,19.17 -44.52,45.12 -56,75.6 -4.37,-2.26 -8.68,-4.61 -12.96,-7.02 12.54,-32.25 33.58,-59.74 60.04,-80.15 11.03,-8.53 23.03,-15.79 35.78,-21.7 17.21,-0.24 34.45,-0.42 51.66,-0.51zm-51.6 -409c-11.79,-5.46 -22.94,-12.09 -33.31,-19.8 -27.64,-20.56 -49.61,-48.74 -62.58,-82.08 4.28,-2.41 8.59,-4.76 12.96,-7.02 11.88,31.47 32.4,58.08 58.33,77.38 22.15,16.49 48.29,27.67 76.35,32.04 -17.27,-0.09 -34.51,-0.27 -51.75,-0.51zm67.58 0.57c-6.33,-3.74 -10.55,-10.61 -10.55,-18.45 0,-9.59 6.3,-17.72 14.98,-20.44l0 0.24 13.47 0.21 -0.03 -0.24c8.38,2.92 14.35,10.85 14.35,20.23 0,7.87 -4.22,14.71 -10.55,18.45l-10.85 0 -10.82 0zm37.35 -0.06c29.12,-4.52 56.06,-16.37 78.7,-33.79 24.87,-19.2 44.52,-45.15 56,-75.63 4.37,2.26 8.68,4.61 12.96,7.02 -12.54,32.25 -33.58,59.74 -60.04,80.15 -11.06,8.53 -23.09,15.82 -35.84,21.73 -17.24,0.24 -34.51,0.42 -51.78,0.51zm51.84 409c11.76,5.46 22.88,12.09 33.22,19.77 27.64,20.59 49.61,48.77 62.61,82.08 -4.28,2.44 -8.59,4.76 -12.99,7.02 -11.85,-31.47 -32.37,-58.05 -58.3,-77.38 -22.12,-16.46 -48.2,-27.64 -76.23,-32.01 17.24,0.09 34.45,0.27 51.69,0.51zm-83.28 13.08c-1.21,1.21 -1.96,2.89 -1.96,4.79 0,1.87 0.75,3.59 1.96,4.79 1.21,1.21 2.89,1.96 4.79,1.96 1.9,0 3.59,-0.75 4.79,-1.96 1.21,-1.21 1.96,-2.92 1.96,-4.79 0,-1.9 -0.75,-3.59 -1.96,-4.79 -1.21,-1.21 -2.89,-1.96 -4.79,-1.96 -1.9,0 -3.59,0.75 -4.79,1.96zm9.74 -435.68c1.21,-1.21 1.93,-2.92 1.93,-4.79 0,-1.9 -0.72,-3.59 -1.93,-4.79 -1.21,-1.21 -2.92,-1.96 -4.79,-1.96 -1.9,0 -3.59,0.75 -4.79,1.96 -1.21,1.21 -1.96,2.89 -1.96,4.79 0,1.87 0.75,3.59 1.96,4.79 1.21,1.21 2.89,1.93 4.79,1.93 1.87,0 3.59,-0.72 4.79,-1.93zm222.48 212.96c-1.21,-1.21 -2.89,-1.93 -4.79,-1.93 -1.87,0 -3.59,0.72 -4.79,1.93 -1.21,1.21 -1.96,2.92 -1.96,4.79 0,1.9 0.75,3.59 1.96,4.79 1.21,1.21 2.92,1.96 4.79,1.96 1.9,0 3.59,-0.75 4.82,-1.96 1.18,-1.21 1.93,-2.89 1.93,-4.79 0,-1.87 -0.75,-3.59 -1.96,-4.79zm-445.2 0c-1.21,-1.21 -2.89,-1.93 -4.79,-1.93 -1.87,0 -3.59,0.72 -4.79,1.93 -1.21,1.21 -1.93,2.92 -1.93,4.79 0,1.9 0.72,3.59 1.93,4.79 1.21,1.21 2.92,1.96 4.79,1.96 1.9,0 3.59,-0.75 4.79,-1.96 1.21,-1.21 1.96,-2.89 1.96,-4.79 0,-1.87 -0.75,-3.59 -1.96,-4.79z"/>
   <path class="fil3" d="M381.93 0c105.44,0 200.93,42.77 270.05,111.86 69.12,69.12 111.86,164.61 111.86,270.08 0,105.44 -42.74,200.93 -111.86,270.05 -69.12,69.09 -164.61,111.86 -270.05,111.86 -105.47,0 -200.96,-42.77 -270.08,-111.86 -69.12,-69.12 -111.86,-164.61 -111.86,-270.05 0,-105.47 42.74,-200.96 111.86,-270.08 69.12,-69.09 164.61,-111.86 270.08,-111.86zm-33.46 286.14c10.88,-19.38 21.52,-38.67 31.98,-57.81l1.51 -2.8 1.51 2.8c33.43,61.37 68.12,122.05 104.05,181.94 35.96,59.95 73.19,119.15 111.65,177.57l1.87 2.8 -3.38 -0.12c-71.8,-2.92 -143.69,-4.4 -215.7,-4.4 -72.01,0 -143.93,1.48 -215.73,4.4l-3.35 0.12 1.84 -2.8c19.86,-30.17 39.46,-60.62 58.72,-91.3 19.23,-30.65 38.13,-61.49 56.67,-92.48l1.51 -2.5 10.4 17.72 -0.54 0.9c-14.38,23.99 -28.42,48.14 -42.17,72.43 -13.2,23.39 -26.22,47.11 -39,71.14 57.15,2.83 114.39,4.25 171.66,4.25 57.27,0 114.51,-1.42 171.66,-4.25 -26.16,-49.16 -53.53,-97.54 -82.11,-145.11 -28.61,-47.72 -58.48,-94.71 -89.55,-141.01 -8.98,13.38 -17.84,26.8 -26.62,40.3 -9.19,14.14 -18.3,28.36 -27.31,42.68l-1.48 2.35 -11.33 -18.57 0.51 -0.9c11,-18.96 21.91,-38.1 32.73,-57.36zm31.98 249.43c-33.43,-61.4 -68.12,-122.08 -104.05,-181.97 -35.99,-59.95 -73.22,-119.15 -111.68,-177.57l-1.84 -2.8 3.35 0.15c71.8,2.92 143.72,4.37 215.73,4.37 72.01,0 143.9,-1.45 215.7,-4.37l3.38 -0.15 -1.87 2.8c-19.86,30.17 -39.46,60.62 -58.72,91.33 -19.23,30.62 -38.13,61.46 -56.64,92.48l-1.51 2.5 -10.4 -17.75 0.51 -0.87c14.38,-23.99 28.42,-48.11 42.14,-72.37 13.23,-23.42 26.25,-47.14 39.06,-71.23 -57.15,-2.83 -114.39,-4.25 -171.66,-4.25 -57.27,0 -114.51,1.42 -171.66,4.25 26.16,49.16 53.53,97.54 82.11,145.14 28.61,47.69 58.48,94.68 89.55,140.98 8.92,-13.29 17.75,-26.65 26.5,-40.06 9.25,-14.23 18.39,-28.51 27.43,-42.92l1.48 -2.35 11.33 18.6 -0.51 0.87c-11,18.96 -21.91,38.1 -32.73,57.39 -10.88,19.38 -21.55,38.64 -31.98,57.81l-1.51 2.77 -1.51 -2.77zm29.99 -117.68l-10.55 0 0.06 -1.78c0.33,-10.97 0.51,-21.91 0.51,-32.86l-37.11 0c0,10.94 0.18,21.88 0.51,32.86l0.06 1.78 -12.3 0 0.03 -1.78c0.33,-11.24 0.51,-22.67 0.51,-34.21 0,-11.51 -0.18,-22.94 -0.51,-34.18l-0.03 -1.78 12.3 0 -0.06 1.78c-0.27,9.19 -0.45,18.39 -0.51,27.52l37.11 0c-0.06,-9.13 -0.24,-18.33 -0.51,-27.52l-0.06 -1.78 12.33 0 -0.06 1.78c-0.36,11.39 -0.51,22.82 -0.51,34.18 0,11.54 0.18,22.97 0.51,34.21l0.03 1.78 -1.75 0zm-22.91 -323.91c0,4.55 0,10.91 0.36,19.11l1.15 26.22 -13.47 -0.21 0.54 -25.05 0 -17.51 -0.09 -5.31c-0.03,-1.66 -0.12,-3.07 -0.18,-4.16 -0.48,-8.83 -0.81,-17.72 -1.18,-26.56l14.2 0c-0.51,11.06 -1.27,22.37 -1.33,33.46zm-281.62 293.59c-4.52,0 -10.97,-0.03 -19.26,0.33l-26.22 1.15 0.24 -13.47 25.05 0.57 17.51 0 5.27 -0.12c1.6,-0.03 2.98,-0.09 4.04,-0.18 8.89,-0.45 17.81,-0.78 26.68,-1.18l0 14.2c-11,-0.48 -22.25,-1.3 -33.31,-1.3zm552 -11.27c4.52,0 10.97,0 19.23,-0.36l26.25 -1.12 -0.24 13.44 -25.02 -0.54 -17.54 0 -5.27 0.09c-1.6,0.03 -2.98,0.12 -4.04,0.18 -8.86,0.48 -17.81,0.78 -26.68,1.18l0 -14.2c11,0.48 22.28,1.33 33.31,1.33zm-270.38 281.77c0,4.55 0,10.91 0.36,19.11l1.15 26.22 -13.47 -0.21 0.54 -25.05 0 -17.54 -0.09 -5.27c-0.03,-1.66 -0.12,-3.07 -0.18,-4.16 -0.48,-8.83 -0.81,-17.72 -1.18,-26.56l14.2 0c-0.51,11.06 -1.27,22.37 -1.33,33.46zm243.73 -525.47c-63.81,-63.81 -151.98,-103.27 -249.34,-103.27 -97.39,0 -185.56,39.46 -249.34,103.27 -63.81,63.81 -103.3,151.95 -103.3,249.34 0,97.36 39.49,185.53 103.3,249.31 63.78,63.81 151.95,103.3 249.34,103.3 97.36,0 185.53,-39.49 249.34,-103.3 63.78,-63.78 103.27,-151.95 103.27,-249.31 0,-97.39 -39.49,-185.53 -103.27,-249.34z"/>
  </g>
 </g>
</svg>
