<?xml version="1.0" encoding="UTF-8"?>
<!DOCTYPE svg PUBLIC "-//W3C//DTD SVG 1.1//EN" "http://www.w3.org/Graphics/SVG/1.1/DTD/svg11.dtd">
<!-- Creator: CorelDRAW 2021.5 -->
<svg xmlns="http://www.w3.org/2000/svg" xml:space="preserve" width="158.575mm" height="8.4666mm" version="1.1" style="shape-rendering:geometricPrecision; text-rendering:geometricPrecision; image-rendering:optimizeQuality; fill-rule:evenodd; clip-rule:evenodd"
viewBox="0 0 15832.68 845.33"
 xmlns:xlink="http://www.w3.org/1999/xlink"
 xmlns:xodm="http://www.corel.com/coreldraw/odm/2003">
 <defs>
  <style type="text/css">
   <![CDATA[
    .fil0 {fill:#11AB68;fill-rule:nonzero}
    .fil1 {fill:gray;fill-rule:nonzero}
   ]]>
  </style>
 </defs>
 <g id="Слой_x0020_1">
  <metadata id="CorelCorpID_0Corel-Layer"/>
  <g id="_2187244670080">
   <path class="fil0" d="M11420.89 211.34l5.53 0 -26.17 26.16 15.9 15.9c3.25,-4.46 6.87,-8.68 10.79,-12.6 4.11,-4.12 8.56,-7.89 13.26,-11.27 -1.67,-5.77 -2.56,-11.87 -2.56,-18.18l0 0 4.22 0 0 0c0,5.4 0.7,10.64 2.02,15.65 11.47,-7.56 24.36,-12.92 37.93,-15.65l42.68 0c13.56,2.73 26.45,8.09 37.92,15.65 1.32,-5 2.02,-10.24 2.02,-15.65l0 0 4.23 0 0 0c0,6.31 -0.9,12.41 -2.56,18.18 4.7,3.38 9.14,7.15 13.25,11.27 3.92,3.91 7.53,8.14 10.79,12.61l15.9 -15.91 -26.17 -26.16 5.53 0 23.4 23.39 0 5.54 -16.37 16.38c7.94,11.75 13.58,25.07 16.37,39l0 42.68c-2.77,13.78 -8.16,26.6 -15.64,37.93l-0.74 1.08 16.37 16.38 0 5.53 -23.4 23.4 -5.53 0 26.17 -26.17 -15.93 -15.93c-3.27,4.45 -6.68,8.56 -10.76,12.64 -4.11,4.11 -8.56,7.89 -13.26,11.27 1.67,5.77 2.56,11.87 2.57,18.18l-4.23 0c0,-5.4 -0.7,-10.65 -2.02,-15.65 -11.47,7.56 -24.36,12.92 -37.92,15.65l-42.68 0 0 0c-13.57,-2.73 -26.46,-8.09 -37.93,-15.65 -1.31,4.99 -2.02,10.24 -2.02,15.65l-4.22 0c0,-6.31 0.9,-12.41 2.56,-18.18 -4.7,-3.38 -9.15,-7.16 -13.26,-11.27 -3.92,-3.92 -7.54,-8.15 -10.79,-12.61l-15.9 15.9 26.17 26.17 -5.53 0 -23.4 -23.4 0 -5.53 16.37 -16.37c-7.95,-11.74 -13.56,-25.02 -16.37,-39.02l0 -42.68c2.82,-14 8.43,-27.27 16.37,-39.02l-16.37 -16.36 0 -5.54 23.4 -23.39zm37.86 104.49l0 2.36c0.01,-0.79 0.01,-1.57 0,-2.36zm-0.02 2.95c-0.3,1.03 -0.85,1.95 -1.59,2.69 -1.14,1.14 -2.72,1.84 -4.45,1.84 -1.74,0 -3.31,-0.7 -4.45,-1.84 -0.64,-0.65 -1.14,-1.42 -1.46,-2.29l-29.21 0c0,-1.56 0,-3.11 0,-4.66l29.17 0 0.18 -0.03c0.32,-0.72 0.77,-1.37 1.32,-1.92 1.14,-1.16 2.72,-1.86 4.45,-1.86 1.74,0 3.31,0.7 4.45,1.85 0.74,0.74 1.29,1.67 1.59,2.7 -0.43,-15.11 -6.4,-30.07 -17.91,-41.58 -6.53,-6.53 -14.54,-11.59 -23.46,-14.66 -11.21,16.54 -17.75,36.51 -17.75,58 0,21.49 6.54,41.45 17.75,57.99 8.93,-3.06 16.93,-8.12 23.46,-14.66 11.51,-11.51 17.48,-26.47 17.91,-41.56zm-4.57 -3.23c-0.38,-0.37 -0.9,-0.61 -1.47,-0.61 -0.57,0 -1.09,0.24 -1.47,0.61 -0.37,0.37 -0.6,0.89 -0.6,1.47 0,0.57 0.23,1.09 0.6,1.46 0.38,0.38 0.9,0.61 1.47,0.61 0.57,0 1.09,-0.23 1.46,-0.61 0.38,-0.37 0.61,-0.89 0.61,-1.46 0,-0.58 -0.23,-1.1 -0.6,-1.47zm50.81 -42.95c15.08,-0.45 30.02,-6.42 41.51,-17.91 6.54,-6.53 11.6,-14.54 14.67,-23.47 -16.55,-11.2 -36.51,-17.75 -58,-17.75 -21.49,0 -41.45,6.55 -57.99,17.75 3.06,8.94 8.13,16.94 14.66,23.47 11.48,11.49 26.42,17.45 41.48,17.91 -1.01,-0.31 -1.9,-0.86 -2.63,-1.58 -1.14,-1.14 -1.84,-2.72 -1.84,-4.45 0,-1.74 0.7,-3.31 1.85,-4.45 0.55,-0.54 1.2,-0.99 1.92,-1.31l0.03 -0.19 0 -29.16c1.56,0 3.12,0 4.67,0l0 29.2c0.86,0.33 1.64,0.83 2.28,1.46 1.14,1.14 1.85,2.72 1.85,4.45 0,1.74 -0.71,3.31 -1.85,4.45 -0.72,0.72 -1.61,1.27 -2.62,1.58zm-3.29 -4.56c0.37,0.38 0.89,0.61 1.46,0.61 0.57,0 1.09,-0.24 1.47,-0.61 0.37,-0.37 0.6,-0.9 0.6,-1.47 0,-0.57 -0.23,-1.09 -0.6,-1.47 -0.37,-0.36 -0.89,-0.6 -1.47,-0.6 -0.57,0 -1.09,0.23 -1.46,0.61 -0.38,0.37 -0.61,0.89 -0.61,1.46 0,0.57 0.23,1.1 0.61,1.47zm45.91 50.89c0.47,15.05 6.43,29.95 17.9,41.43 6.53,6.54 14.54,11.6 23.47,14.66 11.2,-16.54 17.75,-36.5 17.75,-57.99 0,-21.49 -6.55,-41.46 -17.75,-58 -8.94,3.07 -16.94,8.13 -23.47,14.66 -11.47,11.48 -17.44,26.39 -17.9,41.44 0.3,-0.97 0.84,-1.84 1.55,-2.55 1.14,-1.15 2.71,-1.85 4.44,-1.85 1.75,0 3.31,0.7 4.45,1.86 0.55,0.55 1,1.2 1.32,1.92l0.18 0.03 29.17 0c0,1.56 0,3.11 0,4.66l-29.21 0c-0.31,0.87 -0.82,1.64 -1.46,2.29 -1.14,1.14 -2.71,1.84 -4.45,1.84 -1.74,0 -3.3,-0.7 -4.44,-1.84 -0.71,-0.71 -1.24,-1.58 -1.55,-2.55zm4.53 -3.37c-0.38,0.37 -0.61,0.89 -0.61,1.47 0,0.57 0.24,1.09 0.61,1.46 0.38,0.38 0.9,0.61 1.46,0.61 0.58,0 1.1,-0.23 1.47,-0.61 0.37,-0.37 0.61,-0.89 0.61,-1.46 0,-0.58 -0.24,-1.1 -0.61,-1.47 -0.37,-0.37 -0.89,-0.61 -1.47,-0.61 -0.56,0 -1.08,0.24 -1.46,0.61zm-47.15 45.89c1.01,0.31 1.9,0.85 2.62,1.57 1.14,1.14 1.85,2.72 1.85,4.45 0,1.74 -0.71,3.31 -1.85,4.45 -0.64,0.64 -1.42,1.14 -2.28,1.46l0 29.21c-1.56,0 -3.12,0 -4.67,0l0 -29.17 -0.03 -0.18c-0.72,-0.32 -1.37,-0.77 -1.92,-1.32 -1.15,-1.14 -1.85,-2.72 -1.85,-4.45 0,-1.74 0.7,-3.31 1.84,-4.45 0.73,-0.72 1.62,-1.26 2.63,-1.57 -15.07,0.45 -30,6.42 -41.48,17.91 -6.53,6.53 -11.6,14.53 -14.66,23.46 16.54,11.21 36.5,17.75 57.99,17.75 21.49,0 41.45,-6.54 58,-17.75 -3.07,-8.94 -8.13,-16.93 -14.67,-23.46 -11.49,-11.5 -26.44,-17.47 -41.51,-17.91zm-3.29 4.55c-0.38,0.38 -0.61,0.9 -0.61,1.47 0,0.57 0.23,1.09 0.61,1.47 0.37,0.37 0.89,0.6 1.46,0.6 0.58,0 1.1,-0.23 1.47,-0.6 0.37,-0.38 0.6,-0.9 0.6,-1.47 0,-0.57 -0.23,-1.09 -0.6,-1.46 -0.38,-0.38 -0.9,-0.61 -1.47,-0.61 -0.57,0 -1.09,0.23 -1.46,0.6zm12.02 -35.81l-3.71 0 0.02 -0.46c0.06,-2.15 0.11,-4.29 0.14,-6.42 0.03,-1.91 0.04,-3.9 0.05,-5.98l-14.17 0c0,1.99 0.02,3.98 0.04,5.98 0.04,2.13 0.08,4.27 0.15,6.42l0.01 0.46 -4.15 0 0.01 -0.46c0.12,-4.18 0.18,-8.43 0.18,-12.7 0,-4.28 -0.06,-8.53 -0.18,-12.71l-0.01 -0.45 4.15 0 -0.01 0.45c-0.05,1.83 -0.1,3.63 -0.13,5.44l-0.05 4.99 14.15 0 -0.05 -4.99c-0.04,-1.81 -0.08,-3.61 -0.13,-5.44l-0.02 -0.45 4.16 0 -0.01 0.45c-0.12,4.19 -0.19,8.43 -0.19,12.71 0,4.27 0.07,8.51 0.19,12.7l0.01 0.46 -0.45 0zm27.56 -13.16c-16.81,-9.57 -29.51,-22.27 -38.09,-38.1 -8.59,15.84 -21.29,28.54 -38.1,38.1 16.81,9.57 29.51,22.27 38.1,38.09 8.58,-15.83 21.28,-28.53 38.09,-38.09zm-78.33 -3.3c16.96,-9.42 27.47,-19.9 36.92,-36.93 -16.77,-0.84 -31.89,-7.98 -43.02,-19.11 -6.69,-6.69 -11.94,-14.84 -15.25,-23.91 -4.13,3.06 -8.03,6.41 -11.65,10.03 -3.62,3.62 -6.98,7.52 -10.03,11.64 9.08,3.3 17.22,8.56 23.92,15.26 11.12,11.12 18.27,26.24 19.11,43.02zm43.54 -36.93c9.41,16.95 19.9,27.48 36.92,36.92 0.84,-16.77 7.98,-31.89 19.11,-43.01 6.69,-6.7 14.84,-11.95 23.91,-15.26 -3.06,-4.13 -6.41,-8.02 -10.03,-11.64 -3.62,-3.62 -7.52,-6.98 -11.64,-10.03 -3.3,9.08 -8.56,17.22 -15.26,23.91 -11.13,11.13 -26.24,18.27 -43.01,19.11zm36.92 43.55c-17.02,9.45 -27.52,19.96 -36.92,36.92 16.77,0.83 31.88,7.98 43.01,19.1 6.7,6.7 11.95,14.85 15.26,23.92 4.12,-3.06 8.02,-6.42 11.64,-10.04 3.62,-3.61 6.98,-7.51 10.03,-11.64 -9.08,-3.3 -17.22,-8.56 -23.91,-15.25 -11.13,-11.13 -18.27,-26.25 -19.11,-43.01zm-43.54 36.92c-9.46,-17.03 -19.96,-27.53 -36.92,-36.93 -0.84,16.77 -7.99,31.89 -19.11,43.02 -6.7,6.69 -14.85,11.94 -23.92,15.25 3.06,4.13 6.41,8.03 10.03,11.64 3.62,3.62 7.52,6.99 11.64,10.04 3.31,-9.08 8.57,-17.22 15.26,-23.92 11.13,-11.12 26.25,-18.27 43.02,-19.1z"/>
   <path class="fil0" d="M12054.88 634.01l5.53 0 -26.17 26.16 15.9 15.9c3.25,-4.46 6.87,-8.68 10.79,-12.6 4.11,-4.12 8.56,-7.89 13.26,-11.27 -1.67,-5.77 -2.56,-11.87 -2.56,-18.18l0 0 4.22 0 0 0c0,5.4 0.7,10.64 2.02,15.65 11.47,-7.56 24.36,-12.92 37.93,-15.65l42.68 0c13.56,2.73 26.45,8.09 37.92,15.65 1.32,-5 2.02,-10.24 2.02,-15.65l0 0 4.23 0 0 0c0,6.31 -0.9,12.41 -2.56,18.18 4.7,3.38 9.14,7.15 13.25,11.27 3.92,3.91 7.53,8.14 10.79,12.61l15.9 -15.91 -26.17 -26.16 5.53 0 23.4 23.39 0 5.54 -16.37 16.38c7.94,11.75 13.58,25.07 16.37,39l0 42.68c-2.77,13.78 -8.16,26.6 -15.64,37.93l-0.74 1.08 16.37 16.38 0 5.53 -23.4 23.4 -5.53 0 26.17 -26.17 -15.93 -15.93c-3.27,4.45 -6.68,8.56 -10.76,12.64 -4.11,4.11 -8.56,7.89 -13.26,11.27 1.67,5.77 2.56,11.87 2.57,18.18l-4.23 0c0,-5.4 -0.7,-10.65 -2.02,-15.65 -11.47,7.56 -24.36,12.92 -37.92,15.65l-42.68 0 0 0c-13.57,-2.73 -26.46,-8.09 -37.93,-15.65 -1.31,4.99 -2.02,10.24 -2.02,15.65l-4.22 0c0,-6.31 0.9,-12.41 2.56,-18.18 -4.7,-3.38 -9.15,-7.16 -13.26,-11.27 -3.92,-3.92 -7.54,-8.15 -10.79,-12.61l-15.9 15.9 26.17 26.17 -5.53 0 -23.4 -23.4 0 -5.53 16.37 -16.37c-7.95,-11.74 -13.56,-25.02 -16.37,-39.02l0 -42.68c2.82,-14 8.43,-27.27 16.37,-39.02l-16.37 -16.36 0 -5.54 23.4 -23.39zm37.86 104.49l0 2.36c0.01,-0.79 0.01,-1.57 0,-2.36zm-0.02 2.95c-0.3,1.03 -0.85,1.95 -1.59,2.69 -1.14,1.14 -2.72,1.84 -4.45,1.84 -1.74,0 -3.31,-0.7 -4.45,-1.84 -0.64,-0.65 -1.14,-1.42 -1.46,-2.29l-29.21 0c0,-1.56 0,-3.11 0,-4.66l29.17 0 0.18 -0.03c0.32,-0.72 0.77,-1.37 1.32,-1.92 1.14,-1.16 2.72,-1.86 4.45,-1.86 1.74,0 3.31,0.7 4.45,1.85 0.74,0.74 1.29,1.67 1.59,2.7 -0.43,-15.11 -6.4,-30.07 -17.91,-41.58 -6.53,-6.53 -14.54,-11.59 -23.46,-14.66 -11.21,16.54 -17.75,36.51 -17.75,58 0,21.49 6.54,41.45 17.75,57.99 8.93,-3.06 16.93,-8.12 23.46,-14.66 11.51,-11.51 17.48,-26.47 17.91,-41.56zm-4.57 -3.23c-0.38,-0.37 -0.9,-0.61 -1.47,-0.61 -0.57,0 -1.09,0.24 -1.47,0.61 -0.37,0.37 -0.6,0.89 -0.6,1.47 0,0.57 0.23,1.09 0.6,1.46 0.38,0.38 0.9,0.61 1.47,0.61 0.57,0 1.09,-0.23 1.46,-0.61 0.38,-0.37 0.61,-0.89 0.61,-1.46 0,-0.58 -0.23,-1.1 -0.6,-1.47zm50.81 -42.95c15.08,-0.45 30.02,-6.42 41.51,-17.91 6.54,-6.53 11.6,-14.54 14.67,-23.47 -16.55,-11.2 -36.51,-17.75 -58,-17.75 -21.49,0 -41.45,6.55 -57.99,17.75 3.06,8.94 8.13,16.94 14.66,23.47 11.48,11.49 26.42,17.45 41.48,17.91 -1.01,-0.31 -1.9,-0.86 -2.63,-1.58 -1.14,-1.14 -1.84,-2.72 -1.84,-4.45 0,-1.74 0.7,-3.31 1.85,-4.45 0.55,-0.54 1.2,-0.99 1.92,-1.31l0.03 -0.19 0 -29.16c1.56,0 3.12,0 4.67,0l0 29.2c0.86,0.33 1.64,0.83 2.28,1.46 1.14,1.14 1.85,2.72 1.85,4.45 0,1.74 -0.71,3.31 -1.85,4.45 -0.72,0.72 -1.61,1.27 -2.62,1.58zm-3.29 -4.56c0.37,0.38 0.89,0.61 1.46,0.61 0.57,0 1.09,-0.24 1.47,-0.61 0.37,-0.37 0.6,-0.9 0.6,-1.47 0,-0.57 -0.23,-1.09 -0.6,-1.47 -0.37,-0.36 -0.89,-0.6 -1.47,-0.6 -0.57,0 -1.09,0.23 -1.46,0.61 -0.38,0.37 -0.61,0.89 -0.61,1.46 0,0.57 0.23,1.1 0.61,1.47zm45.91 50.89c0.47,15.05 6.43,29.95 17.9,41.43 6.53,6.54 14.54,11.6 23.47,14.66 11.2,-16.54 17.75,-36.5 17.75,-57.99 0,-21.49 -6.55,-41.46 -17.75,-58 -8.94,3.07 -16.94,8.13 -23.47,14.66 -11.47,11.48 -17.44,26.39 -17.9,41.44 0.3,-0.97 0.84,-1.84 1.55,-2.55 1.14,-1.15 2.71,-1.85 4.44,-1.85 1.75,0 3.31,0.7 4.45,1.86 0.55,0.55 1,1.2 1.32,1.92l0.18 0.03 29.17 0c0,1.56 0,3.11 0,4.66l-29.21 0c-0.31,0.87 -0.82,1.64 -1.46,2.29 -1.14,1.14 -2.71,1.84 -4.45,1.84 -1.74,0 -3.3,-0.7 -4.44,-1.84 -0.71,-0.71 -1.24,-1.58 -1.55,-2.55zm4.53 -3.37c-0.38,0.37 -0.61,0.89 -0.61,1.47 0,0.57 0.24,1.09 0.61,1.46 0.38,0.38 0.9,0.61 1.46,0.61 0.58,0 1.1,-0.23 1.47,-0.61 0.37,-0.37 0.61,-0.89 0.61,-1.46 0,-0.58 -0.24,-1.1 -0.61,-1.47 -0.37,-0.37 -0.89,-0.61 -1.47,-0.61 -0.56,0 -1.08,0.24 -1.46,0.61zm-47.15 45.89c1.01,0.31 1.9,0.85 2.62,1.57 1.14,1.14 1.85,2.72 1.85,4.45 0,1.74 -0.71,3.31 -1.85,4.45 -0.64,0.64 -1.42,1.14 -2.28,1.46l0 29.21c-1.56,0 -3.12,0 -4.67,0l0 -29.17 -0.03 -0.18c-0.72,-0.32 -1.37,-0.77 -1.92,-1.32 -1.15,-1.14 -1.85,-2.72 -1.85,-4.45 0,-1.74 0.7,-3.31 1.84,-4.45 0.73,-0.72 1.62,-1.26 2.63,-1.57 -15.07,0.45 -30,6.42 -41.48,17.91 -6.53,6.53 -11.6,14.53 -14.66,23.46 16.54,11.21 36.5,17.75 57.99,17.75 21.49,0 41.45,-6.54 58,-17.75 -3.07,-8.94 -8.13,-16.93 -14.67,-23.46 -11.49,-11.5 -26.44,-17.47 -41.51,-17.91zm-3.29 4.55c-0.38,0.38 -0.61,0.9 -0.61,1.47 0,0.57 0.23,1.09 0.61,1.47 0.37,0.37 0.89,0.6 1.46,0.6 0.58,0 1.1,-0.23 1.47,-0.6 0.37,-0.38 0.6,-0.9 0.6,-1.47 0,-0.57 -0.23,-1.09 -0.6,-1.46 -0.38,-0.38 -0.9,-0.61 -1.47,-0.61 -0.57,0 -1.09,0.23 -1.46,0.6zm12.02 -35.81l-3.71 0 0.02 -0.46c0.06,-2.15 0.11,-4.29 0.14,-6.42 0.03,-1.91 0.04,-3.9 0.05,-5.98l-14.17 0c0,1.99 0.02,3.98 0.04,5.98 0.04,2.13 0.08,4.27 0.15,6.42l0.01 0.46 -4.15 0 0.01 -0.46c0.12,-4.18 0.18,-8.43 0.18,-12.7 0,-4.28 -0.06,-8.53 -0.18,-12.71l-0.01 -0.45 4.15 0 -0.01 0.45c-0.05,1.83 -0.1,3.63 -0.13,5.44l-0.05 4.99 14.15 0 -0.05 -4.99c-0.04,-1.81 -0.08,-3.61 -0.13,-5.44l-0.02 -0.45 4.16 0 -0.01 0.45c-0.12,4.19 -0.19,8.43 -0.19,12.71 0,4.27 0.07,8.51 0.19,12.7l0.01 0.46 -0.45 0zm27.56 -13.16c-16.81,-9.57 -29.51,-22.27 -38.09,-38.1 -8.59,15.84 -21.29,28.54 -38.1,38.1 16.81,9.57 29.51,22.27 38.1,38.09 8.58,-15.83 21.28,-28.53 38.09,-38.09zm-78.33 -3.3c16.96,-9.42 27.47,-19.9 36.92,-36.93 -16.77,-0.84 -31.89,-7.98 -43.02,-19.11 -6.69,-6.69 -11.94,-14.84 -15.25,-23.91 -4.13,3.06 -8.03,6.41 -11.65,10.03 -3.62,3.62 -6.98,7.52 -10.03,11.64 9.08,3.3 17.22,8.56 23.92,15.26 11.12,11.12 18.27,26.24 19.11,43.02zm43.54 -36.93c9.41,16.95 19.9,27.48 36.92,36.92 0.84,-16.77 7.98,-31.89 19.11,-43.01 6.69,-6.7 14.84,-11.95 23.91,-15.26 -3.06,-4.13 -6.41,-8.02 -10.03,-11.64 -3.62,-3.62 -7.52,-6.98 -11.64,-10.03 -3.3,9.08 -8.56,17.22 -15.26,23.91 -11.13,11.13 -26.24,18.27 -43.01,19.11zm36.92 43.55c-17.02,9.45 -27.52,19.96 -36.92,36.92 16.77,0.83 31.88,7.98 43.01,19.1 6.7,6.7 11.95,14.85 15.26,23.92 4.12,-3.06 8.02,-6.42 11.64,-10.04 3.62,-3.61 6.98,-7.51 10.03,-11.64 -9.08,-3.3 -17.22,-8.56 -23.91,-15.25 -11.13,-11.13 -18.27,-26.25 -19.11,-43.01zm-43.54 36.92c-9.46,-17.03 -19.96,-27.53 -36.92,-36.93 -0.84,16.77 -7.99,31.89 -19.11,43.02 -6.7,6.69 -14.85,11.94 -23.92,15.25 3.06,4.13 6.41,8.03 10.03,11.64 3.62,3.62 7.52,6.99 11.64,10.04 3.31,-9.08 8.57,-17.22 15.26,-23.92 11.13,-11.12 26.25,-18.27 43.02,-19.1z"/>
   <path class="fil0" d="M12266.21 0l5.54 0 -26.17 26.17 15.89 15.9c3.26,-4.46 6.87,-8.69 10.79,-12.61 4.12,-4.11 8.56,-7.88 13.26,-11.26 -1.66,-5.78 -2.56,-11.88 -2.56,-18.19l0 0 4.22 0 0 0c0,5.41 0.71,10.65 2.02,15.65 11.48,-7.56 24.37,-12.92 37.93,-15.65l42.68 0c13.56,2.73 26.46,8.09 37.93,15.65 1.32,-4.99 2.02,-10.23 2.02,-15.65l0 0 4.22 0 0 0c0,6.31 -0.89,12.41 -2.56,18.19 4.7,3.38 9.15,7.15 13.26,11.26 3.91,3.92 7.52,8.15 10.78,12.61l15.91 -15.9 -26.17 -26.17 5.53 0 23.4 23.4 0 5.53 -16.38 16.38c7.95,11.76 13.59,25.07 16.38,39.01l0 42.68c-2.77,13.77 -8.17,26.6 -15.64,37.93l-0.75 1.07 16.38 16.38 0 5.53 -23.4 23.4 -5.53 0 26.17 -26.17 -15.93 -15.93c-3.27,4.46 -6.68,8.57 -10.76,12.64 -4.12,4.12 -8.56,7.89 -13.27,11.28 1.67,5.77 2.57,11.87 2.57,18.17l-4.22 0c-0.01,-5.4 -0.71,-10.64 -2.03,-15.64 -11.47,7.56 -24.36,12.92 -37.92,15.64l-42.68 0 0 0c-13.56,-2.72 -26.45,-8.08 -37.92,-15.64 -1.32,4.99 -2.02,10.23 -2.03,15.64l-4.22 0c0,-6.3 0.9,-12.4 2.57,-18.17 -4.7,-3.39 -9.15,-7.16 -13.27,-11.28 -3.92,-3.92 -7.53,-8.14 -10.79,-12.6l-15.9 15.89 26.17 26.17 -5.53 0 -23.39 -23.4 0 -5.53 16.36 -16.37c-7.94,-11.74 -13.56,-25.02 -16.36,-39.01l0 -42.68c2.81,-14 8.43,-27.28 16.36,-39.02l-16.36 -16.37 0 -5.53 23.39 -23.4zm37.86 104.5l0 2.35c0.02,-0.79 0.02,-1.57 0,-2.35zm-0.01 2.94c-0.3,1.03 -0.86,1.95 -1.6,2.69 -1.14,1.14 -2.72,1.85 -4.45,1.85 -1.74,0 -3.31,-0.71 -4.45,-1.85 -0.63,-0.64 -1.14,-1.42 -1.45,-2.28l-29.21 0c0,-1.56 0,-3.12 0,-4.67l29.17 0 0.18 -0.03c0.32,-0.72 0.77,-1.37 1.31,-1.92 1.14,-1.15 2.72,-1.85 4.45,-1.85 1.74,0 3.31,0.7 4.45,1.84 0.74,0.75 1.3,1.67 1.6,2.7 -0.43,-15.1 -6.4,-30.06 -17.91,-41.57 -6.54,-6.53 -14.54,-11.6 -23.47,-14.66 -11.2,16.54 -17.75,36.5 -17.75,57.99 0,21.49 6.55,41.46 17.75,58 8.94,-3.07 16.93,-8.13 23.47,-14.67 11.51,-11.5 17.47,-26.47 17.91,-41.56zm-4.58 -3.22c-0.37,-0.37 -0.9,-0.61 -1.47,-0.61 -0.57,0 -1.09,0.24 -1.46,0.61 -0.38,0.37 -0.61,0.89 -0.61,1.46 0,0.58 0.24,1.1 0.6,1.47 0.38,0.37 0.9,0.61 1.47,0.61 0.57,0 1.1,-0.24 1.47,-0.61 0.37,-0.38 0.61,-0.9 0.61,-1.47 0,-0.58 -0.23,-1.09 -0.61,-1.46zm50.82 -42.96c15.08,-0.44 30.01,-6.41 41.51,-17.9 6.53,-6.54 11.6,-14.55 14.66,-23.47 -16.54,-11.21 -36.5,-17.75 -57.99,-17.75 -21.49,0 -41.46,6.54 -58,17.75 3.07,8.94 8.13,16.93 14.66,23.47 11.49,11.48 26.42,17.45 41.48,17.9 -1,-0.31 -1.9,-0.85 -2.62,-1.57 -1.14,-1.14 -1.85,-2.72 -1.85,-4.45 0,-1.74 0.71,-3.31 1.86,-4.45 0.55,-0.55 1.2,-1 1.92,-1.32l0.03 -0.18 0 -29.17c1.56,0 3.11,0 4.66,0l0 29.21c0.87,0.32 1.64,0.82 2.29,1.46 1.13,1.14 1.84,2.72 1.84,4.45 0,1.74 -0.71,3.31 -1.84,4.45 -0.72,0.72 -1.62,1.26 -2.62,1.57zm-3.3 -4.55c0.37,0.37 0.89,0.6 1.47,0.6 0.57,0 1.09,-0.23 1.46,-0.61 0.38,-0.37 0.61,-0.89 0.61,-1.46 0,-0.57 -0.23,-1.09 -0.6,-1.47 -0.38,-0.37 -0.9,-0.6 -1.47,-0.6 -0.58,0 -1.1,0.23 -1.47,0.61 -0.37,0.37 -0.61,0.89 -0.61,1.46 0,0.57 0.24,1.09 0.61,1.47zm45.91 50.89c0.47,15.05 6.43,29.95 17.9,41.42 6.54,6.54 14.54,11.6 23.47,14.67 11.2,-16.54 17.75,-36.51 17.75,-58 0,-21.49 -6.55,-41.45 -17.75,-57.99 -8.94,3.06 -16.93,8.13 -23.47,14.66 -11.47,11.47 -17.44,26.39 -17.9,41.44 0.31,-0.98 0.85,-1.85 1.55,-2.56 1.14,-1.14 2.72,-1.84 4.45,-1.84 1.74,0 3.31,0.7 4.45,1.85 0.55,0.55 1,1.2 1.31,1.92l0.19 0.03 29.17 0c0,1.56 0,3.12 0,4.67l-29.21 0c-0.32,0.86 -0.82,1.64 -1.46,2.28 -1.14,1.14 -2.72,1.85 -4.45,1.85 -1.74,0 -3.31,-0.71 -4.45,-1.85 -0.7,-0.7 -1.24,-1.57 -1.55,-2.54zm4.53 -3.37c-0.37,0.37 -0.6,0.88 -0.6,1.46 0,0.57 0.23,1.09 0.61,1.47 0.37,0.37 0.89,0.61 1.46,0.61 0.57,0 1.09,-0.24 1.47,-0.61 0.37,-0.37 0.6,-0.89 0.6,-1.47 0,-0.57 -0.23,-1.09 -0.61,-1.46 -0.37,-0.37 -0.89,-0.61 -1.46,-0.61 -0.57,0 -1.09,0.24 -1.47,0.61zm-47.14 45.88c1,0.31 1.9,0.86 2.62,1.58 1.13,1.14 1.84,2.71 1.84,4.45 0,1.74 -0.71,3.3 -1.84,4.45 -0.65,0.63 -1.42,1.13 -2.29,1.45l0 29.21c-1.56,0 -3.11,0 -4.66,0l0 -29.17 -0.03 -0.18c-0.72,-0.32 -1.37,-0.76 -1.92,-1.31 -1.15,-1.15 -1.86,-2.72 -1.86,-4.45 0,-1.75 0.71,-3.31 1.85,-4.45 0.72,-0.72 1.62,-1.27 2.62,-1.58 -15.07,0.46 -29.99,6.42 -41.48,17.91 -6.53,6.54 -11.59,14.54 -14.66,23.47 16.54,11.2 36.51,17.75 58,17.75 21.49,0 41.45,-6.55 57.99,-17.75 -3.06,-8.94 -8.13,-16.93 -14.66,-23.47 -11.5,-11.49 -26.44,-17.46 -41.51,-17.91zm-3.3 4.56c-0.37,0.37 -0.61,0.9 -0.61,1.47 0,0.57 0.24,1.09 0.61,1.46 0.37,0.38 0.89,0.61 1.47,0.61 0.57,0 1.09,-0.24 1.47,-0.6 0.37,-0.38 0.6,-0.9 0.6,-1.47 0,-0.57 -0.23,-1.1 -0.61,-1.47 -0.37,-0.37 -0.89,-0.61 -1.46,-0.61 -0.58,0 -1.1,0.23 -1.47,0.61zm12.02 -35.82l-3.7 0 0.01 -0.45c0.07,-2.16 0.12,-4.29 0.15,-6.43 0.02,-1.9 0.04,-3.89 0.04,-5.98l-14.16 0c0,2 0.01,3.99 0.04,5.98 0.03,2.14 0.08,4.27 0.14,6.43l0.02 0.45 -4.16 0 0.01 -0.45c0.12,-4.19 0.19,-8.43 0.19,-12.71 0,-4.27 -0.07,-8.52 -0.19,-12.7l-0.01 -0.46 4.16 0 -0.01 0.46c-0.06,1.82 -0.11,3.63 -0.13,5.43l-0.06 4.99 14.16 0 -0.06 -4.99c-0.03,-1.8 -0.08,-3.61 -0.13,-5.43l-0.01 -0.46 4.16 0 -0.01 0.46c-0.13,4.18 -0.19,8.43 -0.19,12.7 0,4.28 0.06,8.52 0.19,12.71l0.01 0.45 -0.46 0zm27.57 -13.16c-16.81,-9.57 -29.51,-22.27 -38.1,-38.09 -8.58,15.83 -21.28,28.53 -38.1,38.09 16.82,9.57 29.52,22.27 38.1,38.1 8.59,-15.84 21.29,-28.54 38.1,-38.1zm-78.34 -3.3c16.96,-9.41 27.48,-19.9 36.92,-36.92 -16.77,-0.84 -31.89,-7.99 -43.01,-19.11 -6.7,-6.7 -11.95,-14.85 -15.26,-23.92 -4.12,3.06 -8.02,6.42 -11.64,10.03 -3.62,3.62 -6.98,7.52 -10.03,11.65 9.08,3.3 17.22,8.56 23.91,15.26 11.13,11.12 18.27,26.24 19.11,43.01zm43.55 -36.93c9.41,16.96 19.9,27.48 36.92,36.92 0.83,-16.76 7.98,-31.88 19.1,-43 6.7,-6.7 14.85,-11.96 23.92,-15.26 -3.07,-4.13 -6.41,-8.03 -10.04,-11.65 -3.62,-3.61 -7.51,-6.98 -11.64,-10.03 -3.3,9.08 -8.56,17.22 -15.26,23.92 -11.12,11.12 -26.24,18.27 -43,19.1zm36.92 43.55c-17.02,9.45 -27.52,19.97 -36.92,36.92 16.76,0.84 31.88,7.98 43,19.1 6.7,6.7 11.95,14.85 15.27,23.92 4.12,-3.06 8.01,-6.41 11.63,-10.03 3.63,-3.62 6.98,-7.52 10.04,-11.64 -9.09,-3.3 -17.22,-8.56 -23.92,-15.26 -11.12,-11.12 -18.27,-26.24 -19.1,-43.01zm-43.55 36.92c-9.45,-17.03 -19.96,-27.52 -36.92,-36.93 -0.84,16.77 -7.98,31.89 -19.11,43.02 -6.69,6.7 -14.84,11.95 -23.91,15.26 3.06,4.12 6.41,8.02 10.03,11.64 3.62,3.62 7.51,6.98 11.64,10.03 3.3,-9.08 8.56,-17.22 15.26,-23.92 11.12,-11.12 26.24,-18.26 43.01,-19.1z"/>
   <path class="fil0" d="M12686.1 422.67l5.53 0 -26.17 26.17 15.9 15.9c3.25,-4.46 6.87,-8.69 10.79,-12.61 4.11,-4.11 8.56,-7.88 13.26,-11.26 -1.67,-5.78 -2.56,-11.88 -2.56,-18.19l0 0 4.22 0 0 0c0,5.41 0.7,10.65 2.02,15.65 11.47,-7.56 24.36,-12.92 37.93,-15.65l42.68 0c13.56,2.73 26.45,8.09 37.92,15.65 1.32,-4.99 2.02,-10.23 2.02,-15.65l0 0 4.23 0 0 0c0,6.31 -0.9,12.41 -2.56,18.19 4.7,3.38 9.14,7.15 13.25,11.26 3.92,3.92 7.53,8.15 10.79,12.61l15.9 -15.9 -26.17 -26.17 5.53 0 23.4 23.4 0 5.53 -16.37 16.38c7.94,11.76 13.58,25.07 16.37,39.01l0 42.68c-2.77,13.77 -8.16,26.6 -15.64,37.93l-0.74 1.07 16.37 16.38 0 5.53 -23.4 23.4 -5.53 0 26.17 -26.17 -15.93 -15.93c-3.27,4.46 -6.68,8.57 -10.76,12.64 -4.11,4.12 -8.56,7.89 -13.26,11.28 1.67,5.77 2.56,11.87 2.57,18.17l-4.23 0c0,-5.4 -0.7,-10.64 -2.02,-15.64 -11.47,7.56 -24.36,12.92 -37.92,15.64l-42.68 0 0 0c-13.57,-2.72 -26.46,-8.08 -37.93,-15.64 -1.31,4.99 -2.02,10.23 -2.02,15.64l-4.22 0c0,-6.3 0.9,-12.4 2.56,-18.17 -4.7,-3.39 -9.15,-7.16 -13.26,-11.28 -3.92,-3.92 -7.54,-8.14 -10.79,-12.6l-15.9 15.89 26.17 26.17 -5.53 0 -23.4 -23.4 0 -5.53 16.37 -16.37c-7.95,-11.74 -13.56,-25.02 -16.37,-39.01l0 -42.68c2.82,-14 8.43,-27.28 16.37,-39.02l-16.37 -16.37 0 -5.53 23.4 -23.4zm37.86 104.5l0 2.35c0.01,-0.79 0.01,-1.57 0,-2.35zm-0.02 2.94c-0.3,1.03 -0.85,1.95 -1.59,2.69 -1.14,1.14 -2.72,1.85 -4.45,1.85 -1.74,0 -3.31,-0.71 -4.45,-1.85 -0.64,-0.64 -1.14,-1.42 -1.46,-2.28l-29.21 0c0,-1.56 0,-3.12 0,-4.67l29.17 0 0.18 -0.03c0.32,-0.72 0.77,-1.37 1.32,-1.92 1.14,-1.15 2.72,-1.85 4.45,-1.85 1.74,0 3.31,0.7 4.45,1.84 0.74,0.75 1.29,1.67 1.59,2.7 -0.43,-15.1 -6.4,-30.06 -17.91,-41.57 -6.53,-6.53 -14.54,-11.6 -23.46,-14.66 -11.21,16.54 -17.75,36.5 -17.75,57.99 0,21.49 6.54,41.46 17.75,58 8.93,-3.07 16.93,-8.13 23.46,-14.67 11.51,-11.5 17.48,-26.47 17.91,-41.56zm-4.57 -3.22c-0.38,-0.37 -0.9,-0.61 -1.47,-0.61 -0.57,0 -1.09,0.24 -1.47,0.61 -0.37,0.37 -0.6,0.89 -0.6,1.46 0,0.58 0.23,1.1 0.6,1.47 0.38,0.37 0.9,0.61 1.47,0.61 0.57,0 1.09,-0.24 1.46,-0.61 0.38,-0.38 0.61,-0.9 0.61,-1.47 0,-0.58 -0.23,-1.09 -0.6,-1.46zm50.81 -42.96c15.08,-0.44 30.02,-6.41 41.51,-17.9 6.54,-6.54 11.6,-14.55 14.67,-23.47 -16.55,-11.21 -36.51,-17.75 -58,-17.75 -21.49,0 -41.45,6.54 -57.99,17.75 3.06,8.94 8.13,16.93 14.66,23.47 11.48,11.48 26.42,17.45 41.48,17.9 -1.01,-0.31 -1.9,-0.85 -2.63,-1.57 -1.14,-1.14 -1.84,-2.72 -1.84,-4.45 0,-1.74 0.7,-3.31 1.85,-4.45 0.55,-0.55 1.2,-1 1.92,-1.32l0.03 -0.18 0 -29.17c1.56,0 3.12,0 4.67,0l0 29.21c0.86,0.32 1.64,0.82 2.28,1.46 1.14,1.14 1.85,2.72 1.85,4.45 0,1.74 -0.71,3.31 -1.85,4.45 -0.72,0.72 -1.61,1.26 -2.62,1.57zm-3.29 -4.55c0.37,0.37 0.89,0.6 1.46,0.6 0.57,0 1.09,-0.23 1.47,-0.61 0.37,-0.37 0.6,-0.89 0.6,-1.46 0,-0.57 -0.23,-1.09 -0.6,-1.47 -0.37,-0.37 -0.89,-0.6 -1.47,-0.6 -0.57,0 -1.09,0.23 -1.46,0.61 -0.38,0.37 -0.61,0.89 -0.61,1.46 0,0.57 0.23,1.09 0.61,1.47zm45.91 50.89c0.47,15.05 6.43,29.95 17.9,41.42 6.53,6.54 14.54,11.6 23.47,14.67 11.2,-16.54 17.75,-36.51 17.75,-58 0,-21.49 -6.55,-41.45 -17.75,-57.99 -8.94,3.06 -16.94,8.13 -23.47,14.66 -11.47,11.47 -17.44,26.39 -17.9,41.44 0.3,-0.98 0.84,-1.85 1.55,-2.56 1.14,-1.14 2.71,-1.84 4.44,-1.84 1.75,0 3.31,0.7 4.45,1.85 0.55,0.55 1,1.2 1.32,1.92l0.18 0.03 29.17 0c0,1.56 0,3.12 0,4.67l-29.21 0c-0.31,0.86 -0.82,1.64 -1.46,2.28 -1.14,1.14 -2.71,1.85 -4.45,1.85 -1.74,0 -3.3,-0.71 -4.44,-1.85 -0.71,-0.7 -1.24,-1.57 -1.55,-2.54zm4.53 -3.37c-0.38,0.37 -0.61,0.88 -0.61,1.46 0,0.57 0.24,1.09 0.61,1.47 0.38,0.37 0.9,0.61 1.46,0.61 0.58,0 1.1,-0.24 1.47,-0.61 0.37,-0.37 0.61,-0.89 0.61,-1.47 0,-0.57 -0.24,-1.09 -0.61,-1.46 -0.37,-0.37 -0.89,-0.61 -1.47,-0.61 -0.56,0 -1.08,0.24 -1.46,0.61zm-47.15 45.88c1.01,0.31 1.9,0.86 2.62,1.58 1.14,1.14 1.85,2.71 1.85,4.45 0,1.74 -0.71,3.3 -1.85,4.45 -0.64,0.63 -1.42,1.13 -2.28,1.45l0 29.21c-1.56,0 -3.12,0 -4.67,0l0 -29.17 -0.03 -0.18c-0.72,-0.32 -1.37,-0.76 -1.92,-1.31 -1.15,-1.15 -1.85,-2.72 -1.85,-4.45 0,-1.75 0.7,-3.31 1.84,-4.45 0.73,-0.72 1.62,-1.27 2.63,-1.58 -15.07,0.46 -30,6.42 -41.48,17.91 -6.53,6.54 -11.6,14.54 -14.66,23.47 16.54,11.2 36.5,17.75 57.99,17.75 21.49,0 41.45,-6.55 58,-17.75 -3.07,-8.94 -8.13,-16.93 -14.67,-23.47 -11.49,-11.49 -26.44,-17.46 -41.51,-17.91zm-3.29 4.56c-0.38,0.37 -0.61,0.9 -0.61,1.47 0,0.57 0.23,1.09 0.61,1.46 0.37,0.38 0.89,0.61 1.46,0.61 0.58,0 1.1,-0.24 1.47,-0.6 0.37,-0.38 0.6,-0.9 0.6,-1.47 0,-0.57 -0.23,-1.1 -0.6,-1.47 -0.38,-0.37 -0.9,-0.61 -1.47,-0.61 -0.57,0 -1.09,0.23 -1.46,0.61zm12.02 -35.82l-3.71 0 0.02 -0.45c0.06,-2.16 0.11,-4.29 0.14,-6.43 0.03,-1.9 0.04,-3.89 0.05,-5.98l-14.17 0c0,2 0.02,3.99 0.04,5.98 0.04,2.14 0.08,4.27 0.15,6.43l0.01 0.45 -4.15 0 0.01 -0.45c0.12,-4.19 0.18,-8.43 0.18,-12.71 0,-4.27 -0.06,-8.52 -0.18,-12.7l-0.01 -0.46 4.15 0 -0.01 0.46c-0.05,1.82 -0.1,3.63 -0.13,5.43l-0.05 4.99 14.15 0 -0.05 -4.99c-0.04,-1.8 -0.08,-3.61 -0.13,-5.43l-0.02 -0.46 4.16 0 -0.01 0.46c-0.12,4.18 -0.19,8.43 -0.19,12.7 0,4.28 0.07,8.52 0.19,12.71l0.01 0.45 -0.45 0zm27.56 -13.16c-16.81,-9.57 -29.51,-22.27 -38.09,-38.09 -8.59,15.83 -21.29,28.53 -38.1,38.09 16.81,9.57 29.51,22.27 38.1,38.1 8.58,-15.84 21.28,-28.54 38.09,-38.1zm-78.33 -3.3c16.96,-9.41 27.47,-19.9 36.92,-36.92 -16.77,-0.84 -31.89,-7.99 -43.02,-19.11 -6.69,-6.7 -11.94,-14.85 -15.25,-23.92 -4.13,3.06 -8.03,6.42 -11.65,10.03 -3.62,3.62 -6.98,7.52 -10.03,11.65 9.08,3.3 17.22,8.56 23.92,15.26 11.12,11.12 18.27,26.24 19.11,43.01zm43.54 -36.93c9.41,16.96 19.9,27.48 36.92,36.92 0.84,-16.76 7.98,-31.88 19.11,-43 6.69,-6.7 14.84,-11.96 23.91,-15.26 -3.06,-4.13 -6.41,-8.03 -10.03,-11.65 -3.62,-3.61 -7.52,-6.98 -11.64,-10.03 -3.3,9.08 -8.56,17.22 -15.26,23.92 -11.13,11.12 -26.24,18.27 -43.01,19.1zm36.92 43.55c-17.02,9.45 -27.52,19.97 -36.92,36.92 16.77,0.84 31.88,7.98 43.01,19.1 6.7,6.7 11.95,14.85 15.26,23.92 4.12,-3.06 8.02,-6.41 11.64,-10.03 3.62,-3.62 6.98,-7.52 10.03,-11.64 -9.08,-3.3 -17.22,-8.56 -23.91,-15.26 -11.13,-11.12 -18.27,-26.24 -19.11,-43.01zm-43.54 36.92c-9.46,-17.03 -19.96,-27.52 -36.92,-36.93 -0.84,16.77 -7.99,31.89 -19.11,43.02 -6.7,6.7 -14.85,11.95 -23.92,15.26 3.06,4.12 6.41,8.02 10.03,11.64 3.62,3.62 7.52,6.98 11.64,10.03 3.31,-9.08 8.57,-17.22 15.26,-23.92 11.13,-11.12 26.25,-18.26 43.02,-19.1z"/>
   <path class="fil0" d="M13108.77 211.34l5.53 0 -26.17 26.16 15.9 15.9c3.25,-4.46 6.87,-8.68 10.79,-12.6 4.11,-4.12 8.56,-7.89 13.26,-11.27 -1.67,-5.77 -2.56,-11.87 -2.56,-18.18l0 0 4.22 0 0 0c0,5.4 0.7,10.64 2.02,15.65 11.47,-7.56 24.36,-12.92 37.93,-15.65l42.68 0c13.56,2.73 26.45,8.09 37.92,15.65 1.32,-5 2.02,-10.24 2.02,-15.65l0 0 4.23 0 0 0c0,6.31 -0.9,12.41 -2.56,18.18 4.7,3.38 9.14,7.15 13.25,11.27 3.92,3.91 7.53,8.14 10.79,12.61l15.9 -15.91 -26.17 -26.16 5.53 0 23.4 23.39 0 5.54 -16.37 16.38c7.94,11.75 13.58,25.07 16.37,39l0 42.68c-2.77,13.78 -8.16,26.6 -15.64,37.93l-0.74 1.08 16.37 16.38 0 5.53 -23.4 23.4 -5.53 0 26.17 -26.17 -15.93 -15.93c-3.27,4.45 -6.68,8.56 -10.76,12.64 -4.11,4.11 -8.56,7.89 -13.26,11.27 1.67,5.77 2.56,11.87 2.57,18.18l-4.23 0c0,-5.4 -0.7,-10.65 -2.02,-15.65 -11.47,7.56 -24.36,12.92 -37.92,15.65l-42.68 0 0 0c-13.57,-2.73 -26.46,-8.09 -37.93,-15.65 -1.31,4.99 -2.02,10.24 -2.02,15.65l-4.22 0c0,-6.31 0.9,-12.41 2.56,-18.18 -4.7,-3.38 -9.15,-7.16 -13.26,-11.27 -3.92,-3.92 -7.54,-8.15 -10.79,-12.61l-15.9 15.9 26.17 26.17 -5.53 0 -23.4 -23.4 0 -5.53 16.37 -16.37c-7.95,-11.74 -13.56,-25.02 -16.37,-39.02l0 -42.68c2.82,-14 8.43,-27.27 16.37,-39.02l-16.37 -16.36 0 -5.54 23.4 -23.39zm37.86 104.49l0 2.36c0.01,-0.79 0.01,-1.57 0,-2.36zm-0.02 2.95c-0.3,1.03 -0.85,1.95 -1.59,2.69 -1.14,1.14 -2.72,1.84 -4.45,1.84 -1.74,0 -3.31,-0.7 -4.45,-1.84 -0.64,-0.65 -1.14,-1.42 -1.46,-2.29l-29.21 0c0,-1.56 0,-3.11 0,-4.66l29.17 0 0.18 -0.03c0.32,-0.72 0.77,-1.37 1.32,-1.92 1.14,-1.16 2.72,-1.86 4.45,-1.86 1.74,0 3.31,0.7 4.45,1.85 0.74,0.74 1.29,1.67 1.59,2.7 -0.43,-15.11 -6.4,-30.07 -17.91,-41.58 -6.53,-6.53 -14.54,-11.59 -23.46,-14.66 -11.21,16.54 -17.75,36.51 -17.75,58 0,21.49 6.54,41.45 17.75,57.99 8.93,-3.06 16.93,-8.12 23.46,-14.66 11.51,-11.51 17.48,-26.47 17.91,-41.56zm-4.57 -3.23c-0.38,-0.37 -0.9,-0.61 -1.47,-0.61 -0.57,0 -1.09,0.24 -1.47,0.61 -0.37,0.37 -0.6,0.89 -0.6,1.47 0,0.57 0.23,1.09 0.6,1.46 0.38,0.38 0.9,0.61 1.47,0.61 0.57,0 1.09,-0.23 1.46,-0.61 0.38,-0.37 0.61,-0.89 0.61,-1.46 0,-0.58 -0.23,-1.1 -0.6,-1.47zm50.81 -42.95c15.08,-0.45 30.02,-6.42 41.51,-17.91 6.54,-6.53 11.6,-14.54 14.67,-23.47 -16.55,-11.2 -36.51,-17.75 -58,-17.75 -21.49,0 -41.45,6.55 -57.99,17.75 3.06,8.94 8.13,16.94 14.66,23.47 11.48,11.49 26.42,17.45 41.48,17.91 -1.01,-0.31 -1.9,-0.86 -2.63,-1.58 -1.14,-1.14 -1.84,-2.72 -1.84,-4.45 0,-1.74 0.7,-3.31 1.85,-4.45 0.55,-0.54 1.2,-0.99 1.92,-1.31l0.03 -0.19 0 -29.16c1.56,0 3.12,0 4.67,0l0 29.2c0.86,0.33 1.64,0.83 2.28,1.46 1.14,1.14 1.85,2.72 1.85,4.45 0,1.74 -0.71,3.31 -1.85,4.45 -0.72,0.72 -1.61,1.27 -2.62,1.58zm-3.29 -4.56c0.37,0.38 0.89,0.61 1.46,0.61 0.57,0 1.09,-0.24 1.47,-0.61 0.37,-0.37 0.6,-0.9 0.6,-1.47 0,-0.57 -0.23,-1.09 -0.6,-1.47 -0.37,-0.36 -0.89,-0.6 -1.47,-0.6 -0.57,0 -1.09,0.23 -1.46,0.61 -0.38,0.37 -0.61,0.89 -0.61,1.46 0,0.57 0.23,1.1 0.61,1.47zm45.91 50.89c0.47,15.05 6.43,29.95 17.9,41.43 6.53,6.54 14.54,11.6 23.47,14.66 11.2,-16.54 17.75,-36.5 17.75,-57.99 0,-21.49 -6.55,-41.46 -17.75,-58 -8.94,3.07 -16.94,8.13 -23.47,14.66 -11.47,11.48 -17.44,26.39 -17.9,41.44 0.3,-0.97 0.84,-1.84 1.55,-2.55 1.14,-1.15 2.71,-1.85 4.44,-1.85 1.75,0 3.31,0.7 4.45,1.86 0.55,0.55 1,1.2 1.32,1.92l0.18 0.03 29.17 0c0,1.56 0,3.11 0,4.66l-29.21 0c-0.31,0.87 -0.82,1.64 -1.46,2.29 -1.14,1.14 -2.71,1.84 -4.45,1.84 -1.74,0 -3.3,-0.7 -4.44,-1.84 -0.71,-0.71 -1.24,-1.58 -1.55,-2.55zm4.53 -3.37c-0.38,0.37 -0.61,0.89 -0.61,1.47 0,0.57 0.24,1.09 0.61,1.46 0.38,0.38 0.9,0.61 1.46,0.61 0.58,0 1.1,-0.23 1.47,-0.61 0.37,-0.37 0.61,-0.89 0.61,-1.46 0,-0.58 -0.24,-1.1 -0.61,-1.47 -0.37,-0.37 -0.89,-0.61 -1.47,-0.61 -0.56,0 -1.08,0.24 -1.46,0.61zm-47.15 45.89c1.01,0.31 1.9,0.85 2.62,1.57 1.14,1.14 1.85,2.72 1.85,4.45 0,1.74 -0.71,3.31 -1.85,4.45 -0.64,0.64 -1.42,1.14 -2.28,1.46l0 29.21c-1.56,0 -3.12,0 -4.67,0l0 -29.17 -0.03 -0.18c-0.72,-0.32 -1.37,-0.77 -1.92,-1.32 -1.15,-1.14 -1.85,-2.72 -1.85,-4.45 0,-1.74 0.7,-3.31 1.84,-4.45 0.73,-0.72 1.62,-1.26 2.63,-1.57 -15.07,0.45 -30,6.42 -41.48,17.91 -6.53,6.53 -11.6,14.53 -14.66,23.46 16.54,11.21 36.5,17.75 57.99,17.75 21.49,0 41.45,-6.54 58,-17.75 -3.07,-8.94 -8.13,-16.93 -14.67,-23.46 -11.49,-11.5 -26.44,-17.47 -41.51,-17.91zm-3.29 4.55c-0.38,0.38 -0.61,0.9 -0.61,1.47 0,0.57 0.23,1.09 0.61,1.47 0.37,0.37 0.89,0.6 1.46,0.6 0.58,0 1.1,-0.23 1.47,-0.6 0.37,-0.38 0.6,-0.9 0.6,-1.47 0,-0.57 -0.23,-1.09 -0.6,-1.46 -0.38,-0.38 -0.9,-0.61 -1.47,-0.61 -0.57,0 -1.09,0.23 -1.46,0.6zm12.02 -35.81l-3.71 0 0.02 -0.46c0.06,-2.15 0.11,-4.29 0.14,-6.42 0.03,-1.91 0.04,-3.9 0.05,-5.98l-14.17 0c0,1.99 0.02,3.98 0.04,5.98 0.04,2.13 0.08,4.27 0.15,6.42l0.01 0.46 -4.15 0 0.01 -0.46c0.12,-4.18 0.18,-8.43 0.18,-12.7 0,-4.28 -0.06,-8.53 -0.18,-12.71l-0.01 -0.45 4.15 0 -0.01 0.45c-0.05,1.83 -0.1,3.63 -0.13,5.44l-0.05 4.99 14.15 0 -0.05 -4.99c-0.04,-1.81 -0.08,-3.61 -0.13,-5.44l-0.02 -0.45 4.16 0 -0.01 0.45c-0.12,4.19 -0.19,8.43 -0.19,12.71 0,4.27 0.07,8.51 0.19,12.7l0.01 0.46 -0.45 0zm27.56 -13.16c-16.81,-9.57 -29.51,-22.27 -38.09,-38.1 -8.59,15.84 -21.29,28.54 -38.1,38.1 16.81,9.57 29.51,22.27 38.1,38.09 8.58,-15.83 21.28,-28.53 38.09,-38.09zm-78.33 -3.3c16.96,-9.42 27.47,-19.9 36.92,-36.93 -16.77,-0.84 -31.89,-7.98 -43.02,-19.11 -6.69,-6.69 -11.94,-14.84 -15.25,-23.91 -4.13,3.06 -8.03,6.41 -11.65,10.03 -3.62,3.62 -6.98,7.52 -10.03,11.64 9.08,3.3 17.22,8.56 23.92,15.26 11.12,11.12 18.27,26.24 19.11,43.02zm43.54 -36.93c9.41,16.95 19.9,27.48 36.92,36.92 0.84,-16.77 7.98,-31.89 19.11,-43.01 6.69,-6.7 14.84,-11.95 23.91,-15.26 -3.06,-4.13 -6.41,-8.02 -10.03,-11.64 -3.62,-3.62 -7.52,-6.98 -11.64,-10.03 -3.3,9.08 -8.56,17.22 -15.26,23.91 -11.13,11.13 -26.24,18.27 -43.01,19.11zm36.92 43.55c-17.02,9.45 -27.52,19.96 -36.92,36.92 16.77,0.83 31.88,7.98 43.01,19.1 6.7,6.7 11.95,14.85 15.26,23.92 4.12,-3.06 8.02,-6.42 11.64,-10.04 3.62,-3.61 6.98,-7.51 10.03,-11.64 -9.08,-3.3 -17.22,-8.56 -23.91,-15.25 -11.13,-11.13 -18.27,-26.25 -19.11,-43.01zm-43.54 36.92c-9.46,-17.03 -19.96,-27.53 -36.92,-36.93 -0.84,16.77 -7.99,31.89 -19.11,43.02 -6.7,6.69 -14.85,11.94 -23.92,15.25 3.06,4.13 6.41,8.03 10.03,11.64 3.62,3.62 7.52,6.99 11.64,10.04 3.31,-9.08 8.57,-17.22 15.26,-23.92 11.13,-11.12 26.25,-18.27 43.02,-19.1z"/>
   <path class="fil0" d="M13742.77 422.67l5.53 0 -26.17 26.17 15.9 15.9c3.25,-4.46 6.87,-8.69 10.79,-12.61 4.11,-4.11 8.56,-7.88 13.26,-11.26 -1.67,-5.78 -2.56,-11.88 -2.56,-18.19l0 0 4.22 0 0 0c0,5.41 0.7,10.65 2.02,15.65 11.47,-7.56 24.36,-12.92 37.93,-15.65l42.68 0c13.56,2.73 26.45,8.09 37.92,15.65 1.32,-4.99 2.02,-10.23 2.02,-15.65l0 0 4.23 0 0 0c0,6.31 -0.9,12.41 -2.56,18.19 4.7,3.38 9.14,7.15 13.25,11.26 3.92,3.92 7.53,8.15 10.79,12.61l15.9 -15.9 -26.17 -26.17 5.53 0 23.4 23.4 0 5.53 -16.37 16.38c7.94,11.76 13.58,25.07 16.37,39.01l0 42.68c-2.77,13.77 -8.16,26.6 -15.64,37.93l-0.74 1.07 16.37 16.38 0 5.53 -23.4 23.4 -5.53 0 26.17 -26.17 -15.93 -15.93c-3.27,4.46 -6.68,8.57 -10.76,12.64 -4.11,4.12 -8.56,7.89 -13.26,11.28 1.67,5.77 2.56,11.87 2.57,18.17l-4.23 0c0,-5.4 -0.7,-10.64 -2.02,-15.64 -11.47,7.56 -24.36,12.92 -37.92,15.64l-42.68 0 0 0c-13.57,-2.72 -26.46,-8.08 -37.93,-15.64 -1.31,4.99 -2.02,10.23 -2.02,15.64l-4.22 0c0,-6.3 0.9,-12.4 2.56,-18.17 -4.7,-3.39 -9.15,-7.16 -13.26,-11.28 -3.92,-3.92 -7.54,-8.14 -10.79,-12.6l-15.9 15.89 26.17 26.17 -5.53 0 -23.4 -23.4 0 -5.53 16.37 -16.37c-7.95,-11.74 -13.56,-25.02 -16.37,-39.01l0 -42.68c2.82,-14 8.43,-27.28 16.37,-39.02l-16.37 -16.37 0 -5.53 23.4 -23.4zm37.86 104.5l0 2.35c0.01,-0.79 0.01,-1.57 0,-2.35zm-0.02 2.94c-0.3,1.03 -0.85,1.95 -1.59,2.69 -1.14,1.14 -2.72,1.85 -4.45,1.85 -1.74,0 -3.31,-0.71 -4.45,-1.85 -0.64,-0.64 -1.14,-1.42 -1.46,-2.28l-29.21 0c0,-1.56 0,-3.12 0,-4.67l29.17 0 0.18 -0.03c0.32,-0.72 0.77,-1.37 1.32,-1.92 1.14,-1.15 2.72,-1.85 4.45,-1.85 1.74,0 3.31,0.7 4.45,1.84 0.74,0.75 1.29,1.67 1.59,2.7 -0.43,-15.1 -6.4,-30.06 -17.91,-41.57 -6.53,-6.53 -14.54,-11.6 -23.46,-14.66 -11.21,16.54 -17.75,36.5 -17.75,57.99 0,21.49 6.54,41.46 17.75,58 8.93,-3.07 16.93,-8.13 23.46,-14.67 11.51,-11.5 17.48,-26.47 17.91,-41.56zm-4.57 -3.22c-0.38,-0.37 -0.9,-0.61 -1.47,-0.61 -0.57,0 -1.09,0.24 -1.47,0.61 -0.37,0.37 -0.6,0.89 -0.6,1.46 0,0.58 0.23,1.1 0.6,1.47 0.38,0.37 0.9,0.61 1.47,0.61 0.57,0 1.09,-0.24 1.46,-0.61 0.38,-0.38 0.61,-0.9 0.61,-1.47 0,-0.58 -0.23,-1.09 -0.6,-1.46zm50.81 -42.96c15.08,-0.44 30.02,-6.41 41.51,-17.9 6.54,-6.54 11.6,-14.55 14.67,-23.47 -16.55,-11.21 -36.51,-17.75 -58,-17.75 -21.49,0 -41.45,6.54 -57.99,17.75 3.06,8.94 8.13,16.93 14.66,23.47 11.48,11.48 26.42,17.45 41.48,17.9 -1.01,-0.31 -1.9,-0.85 -2.63,-1.57 -1.14,-1.14 -1.84,-2.72 -1.84,-4.45 0,-1.74 0.7,-3.31 1.85,-4.45 0.55,-0.55 1.2,-1 1.92,-1.32l0.03 -0.18 0 -29.17c1.56,0 3.12,0 4.67,0l0 29.21c0.86,0.32 1.64,0.82 2.28,1.46 1.14,1.14 1.85,2.72 1.85,4.45 0,1.74 -0.71,3.31 -1.85,4.45 -0.72,0.72 -1.61,1.26 -2.62,1.57zm-3.29 -4.55c0.37,0.37 0.89,0.6 1.46,0.6 0.57,0 1.09,-0.23 1.47,-0.61 0.37,-0.37 0.6,-0.89 0.6,-1.46 0,-0.57 -0.23,-1.09 -0.6,-1.47 -0.37,-0.37 -0.89,-0.6 -1.47,-0.6 -0.57,0 -1.09,0.23 -1.46,0.61 -0.38,0.37 -0.61,0.89 -0.61,1.46 0,0.57 0.23,1.09 0.61,1.47zm45.91 50.89c0.47,15.05 6.43,29.95 17.9,41.42 6.53,6.54 14.54,11.6 23.47,14.67 11.2,-16.54 17.75,-36.51 17.75,-58 0,-21.49 -6.55,-41.45 -17.75,-57.99 -8.94,3.06 -16.94,8.13 -23.47,14.66 -11.47,11.47 -17.44,26.39 -17.9,41.44 0.3,-0.98 0.84,-1.85 1.55,-2.56 1.14,-1.14 2.71,-1.84 4.44,-1.84 1.75,0 3.31,0.7 4.45,1.85 0.55,0.55 1,1.2 1.32,1.92l0.18 0.03 29.17 0c0,1.56 0,3.12 0,4.67l-29.21 0c-0.31,0.86 -0.82,1.64 -1.46,2.28 -1.14,1.14 -2.71,1.85 -4.45,1.85 -1.74,0 -3.3,-0.71 -4.44,-1.85 -0.71,-0.7 -1.24,-1.57 -1.55,-2.54zm4.53 -3.37c-0.38,0.37 -0.61,0.88 -0.61,1.46 0,0.57 0.24,1.09 0.61,1.47 0.38,0.37 0.9,0.61 1.46,0.61 0.58,0 1.1,-0.24 1.47,-0.61 0.37,-0.37 0.61,-0.89 0.61,-1.47 0,-0.57 -0.24,-1.09 -0.61,-1.46 -0.37,-0.37 -0.89,-0.61 -1.47,-0.61 -0.56,0 -1.08,0.24 -1.46,0.61zm-47.15 45.88c1.01,0.31 1.9,0.86 2.62,1.58 1.14,1.14 1.85,2.71 1.85,4.45 0,1.74 -0.71,3.3 -1.85,4.45 -0.64,0.63 -1.42,1.13 -2.28,1.45l0 29.21c-1.56,0 -3.12,0 -4.67,0l0 -29.17 -0.03 -0.18c-0.72,-0.32 -1.37,-0.76 -1.92,-1.31 -1.15,-1.15 -1.85,-2.72 -1.85,-4.45 0,-1.75 0.7,-3.31 1.84,-4.45 0.73,-0.72 1.62,-1.27 2.63,-1.58 -15.07,0.46 -30,6.42 -41.48,17.91 -6.53,6.54 -11.6,14.54 -14.66,23.47 16.54,11.2 36.5,17.75 57.99,17.75 21.49,0 41.45,-6.55 58,-17.75 -3.07,-8.94 -8.13,-16.93 -14.67,-23.47 -11.49,-11.49 -26.44,-17.46 -41.51,-17.91zm-3.29 4.56c-0.38,0.37 -0.61,0.9 -0.61,1.47 0,0.57 0.23,1.09 0.61,1.46 0.37,0.38 0.89,0.61 1.46,0.61 0.58,0 1.1,-0.24 1.47,-0.6 0.37,-0.38 0.6,-0.9 0.6,-1.47 0,-0.57 -0.23,-1.1 -0.6,-1.47 -0.38,-0.37 -0.9,-0.61 -1.47,-0.61 -0.57,0 -1.09,0.23 -1.46,0.61zm12.02 -35.82l-3.71 0 0.02 -0.45c0.06,-2.16 0.11,-4.29 0.14,-6.43 0.03,-1.9 0.04,-3.89 0.05,-5.98l-14.17 0c0,2 0.02,3.99 0.04,5.98 0.04,2.14 0.08,4.27 0.15,6.43l0.01 0.45 -4.15 0 0.01 -0.45c0.12,-4.19 0.18,-8.43 0.18,-12.71 0,-4.27 -0.06,-8.52 -0.18,-12.7l-0.01 -0.46 4.15 0 -0.01 0.46c-0.05,1.82 -0.1,3.63 -0.13,5.43l-0.05 4.99 14.15 0 -0.05 -4.99c-0.04,-1.8 -0.08,-3.61 -0.13,-5.43l-0.02 -0.46 4.16 0 -0.01 0.46c-0.12,4.18 -0.19,8.43 -0.19,12.7 0,4.28 0.07,8.52 0.19,12.71l0.01 0.45 -0.45 0zm27.56 -13.16c-16.81,-9.57 -29.51,-22.27 -38.09,-38.09 -8.59,15.83 -21.29,28.53 -38.1,38.09 16.81,9.57 29.51,22.27 38.1,38.1 8.58,-15.84 21.28,-28.54 38.09,-38.1zm-78.33 -3.3c16.96,-9.41 27.47,-19.9 36.92,-36.92 -16.77,-0.84 -31.89,-7.99 -43.02,-19.11 -6.69,-6.7 -11.94,-14.85 -15.25,-23.92 -4.13,3.06 -8.03,6.42 -11.65,10.03 -3.62,3.62 -6.98,7.52 -10.03,11.65 9.08,3.3 17.22,8.56 23.92,15.26 11.12,11.12 18.27,26.24 19.11,43.01zm43.54 -36.93c9.41,16.96 19.9,27.48 36.92,36.92 0.84,-16.76 7.98,-31.88 19.11,-43 6.69,-6.7 14.84,-11.96 23.91,-15.26 -3.06,-4.13 -6.41,-8.03 -10.03,-11.65 -3.62,-3.61 -7.52,-6.98 -11.64,-10.03 -3.3,9.08 -8.56,17.22 -15.26,23.92 -11.13,11.12 -26.24,18.27 -43.01,19.1zm36.92 43.55c-17.02,9.45 -27.52,19.97 -36.92,36.92 16.77,0.84 31.88,7.98 43.01,19.1 6.7,6.7 11.95,14.85 15.26,23.92 4.12,-3.06 8.02,-6.41 11.64,-10.03 3.62,-3.62 6.98,-7.52 10.03,-11.64 -9.08,-3.3 -17.22,-8.56 -23.91,-15.26 -11.13,-11.12 -18.27,-26.24 -19.11,-43.01zm-43.54 36.92c-9.46,-17.03 -19.96,-27.52 -36.92,-36.93 -0.84,16.77 -7.99,31.89 -19.11,43.02 -6.7,6.7 -14.85,11.95 -23.92,15.26 3.06,4.12 6.41,8.02 10.03,11.64 3.62,3.62 7.52,6.98 11.64,10.03 3.31,-9.08 8.57,-17.22 15.26,-23.92 11.13,-11.12 26.25,-18.26 43.02,-19.1z"/>
   <path class="fil0" d="M14376.76 0l5.53 0 -26.17 26.17 15.9 15.9c3.25,-4.46 6.87,-8.69 10.79,-12.61 4.11,-4.11 8.56,-7.88 13.26,-11.26 -1.67,-5.78 -2.56,-11.88 -2.56,-18.19l0 0 4.22 0 0 0c0,5.41 0.7,10.65 2.02,15.65 11.47,-7.56 24.36,-12.92 37.93,-15.65l42.68 0c13.56,2.73 26.45,8.09 37.92,15.65 1.32,-4.99 2.02,-10.23 2.02,-15.65l0 0 4.23 0 0 0c0,6.31 -0.9,12.41 -2.56,18.19 4.7,3.38 9.14,7.15 13.25,11.26 3.92,3.92 7.53,8.15 10.79,12.61l15.9 -15.9 -26.17 -26.17 5.53 0 23.4 23.4 0 5.53 -16.37 16.38c7.94,11.76 13.58,25.07 16.37,39.01l0 42.68c-2.77,13.77 -8.16,26.6 -15.64,37.93l-0.74 1.07 16.37 16.38 0 5.53 -23.4 23.4 -5.53 0 26.17 -26.17 -15.93 -15.93c-3.27,4.46 -6.68,8.57 -10.76,12.64 -4.11,4.12 -8.56,7.89 -13.26,11.28 1.67,5.77 2.56,11.87 2.57,18.17l-4.23 0c0,-5.4 -0.7,-10.64 -2.02,-15.64 -11.47,7.56 -24.36,12.92 -37.92,15.64l-42.68 0 0 0c-13.57,-2.72 -26.46,-8.08 -37.93,-15.64 -1.31,4.99 -2.02,10.23 -2.02,15.64l-4.22 0c0,-6.3 0.9,-12.4 2.56,-18.17 -4.7,-3.39 -9.15,-7.16 -13.26,-11.28 -3.92,-3.92 -7.54,-8.14 -10.79,-12.6l-15.9 15.89 26.17 26.17 -5.53 0 -23.4 -23.4 0 -5.53 16.37 -16.37c-7.95,-11.74 -13.56,-25.02 -16.37,-39.01l0 -42.68c2.82,-14 8.43,-27.28 16.37,-39.02l-16.37 -16.37 0 -5.53 23.4 -23.4zm37.86 104.5l0 2.35c0.01,-0.79 0.01,-1.57 0,-2.35zm-0.02 2.94c-0.3,1.03 -0.85,1.95 -1.59,2.69 -1.14,1.14 -2.72,1.85 -4.45,1.85 -1.74,0 -3.31,-0.71 -4.45,-1.85 -0.64,-0.64 -1.14,-1.42 -1.46,-2.28l-29.21 0c0,-1.56 0,-3.12 0,-4.67l29.17 0 0.18 -0.03c0.32,-0.72 0.77,-1.37 1.32,-1.92 1.14,-1.15 2.72,-1.85 4.45,-1.85 1.74,0 3.31,0.7 4.45,1.84 0.74,0.75 1.29,1.67 1.59,2.7 -0.43,-15.1 -6.4,-30.06 -17.91,-41.57 -6.53,-6.53 -14.54,-11.6 -23.46,-14.66 -11.21,16.54 -17.75,36.5 -17.75,57.99 0,21.49 6.54,41.46 17.75,58 8.93,-3.07 16.93,-8.13 23.46,-14.67 11.51,-11.5 17.48,-26.47 17.91,-41.56zm-4.57 -3.22c-0.38,-0.37 -0.9,-0.61 -1.47,-0.61 -0.57,0 -1.09,0.24 -1.47,0.61 -0.37,0.37 -0.6,0.89 -0.6,1.46 0,0.58 0.23,1.1 0.6,1.47 0.38,0.37 0.9,0.61 1.47,0.61 0.57,0 1.09,-0.24 1.46,-0.61 0.38,-0.38 0.61,-0.9 0.61,-1.47 0,-0.58 -0.23,-1.09 -0.6,-1.46zm50.81 -42.96c15.08,-0.44 30.02,-6.41 41.51,-17.9 6.54,-6.54 11.6,-14.55 14.67,-23.47 -16.55,-11.21 -36.51,-17.75 -58,-17.75 -21.49,0 -41.45,6.54 -57.99,17.75 3.06,8.94 8.13,16.93 14.66,23.47 11.48,11.48 26.42,17.45 41.48,17.9 -1.01,-0.31 -1.9,-0.85 -2.63,-1.57 -1.14,-1.14 -1.84,-2.72 -1.84,-4.45 0,-1.74 0.7,-3.31 1.85,-4.45 0.55,-0.55 1.2,-1 1.92,-1.32l0.03 -0.18 0 -29.17c1.56,0 3.12,0 4.67,0l0 29.21c0.86,0.32 1.64,0.82 2.28,1.46 1.14,1.14 1.85,2.72 1.85,4.45 0,1.74 -0.71,3.31 -1.85,4.45 -0.72,0.72 -1.61,1.26 -2.62,1.57zm-3.29 -4.55c0.37,0.37 0.89,0.6 1.46,0.6 0.57,0 1.09,-0.23 1.47,-0.61 0.37,-0.37 0.6,-0.89 0.6,-1.46 0,-0.57 -0.23,-1.09 -0.6,-1.47 -0.37,-0.37 -0.89,-0.6 -1.47,-0.6 -0.57,0 -1.09,0.23 -1.46,0.61 -0.38,0.37 -0.61,0.89 -0.61,1.46 0,0.57 0.23,1.09 0.61,1.47zm45.91 50.89c0.47,15.05 6.43,29.95 17.9,41.42 6.53,6.54 14.54,11.6 23.47,14.67 11.2,-16.54 17.75,-36.51 17.75,-58 0,-21.49 -6.55,-41.45 -17.75,-57.99 -8.94,3.06 -16.94,8.13 -23.47,14.66 -11.47,11.47 -17.44,26.39 -17.9,41.44 0.3,-0.98 0.84,-1.85 1.55,-2.56 1.14,-1.14 2.71,-1.84 4.44,-1.84 1.75,0 3.31,0.7 4.45,1.85 0.55,0.55 1,1.2 1.32,1.92l0.18 0.03 29.17 0c0,1.56 0,3.12 0,4.67l-29.21 0c-0.31,0.86 -0.82,1.64 -1.46,2.28 -1.14,1.14 -2.71,1.85 -4.45,1.85 -1.74,0 -3.3,-0.71 -4.44,-1.85 -0.71,-0.7 -1.24,-1.57 -1.55,-2.54zm4.53 -3.37c-0.38,0.37 -0.61,0.88 -0.61,1.46 0,0.57 0.24,1.09 0.61,1.47 0.38,0.37 0.9,0.61 1.46,0.61 0.58,0 1.1,-0.24 1.47,-0.61 0.37,-0.37 0.61,-0.89 0.61,-1.47 0,-0.57 -0.24,-1.09 -0.61,-1.46 -0.37,-0.37 -0.89,-0.61 -1.47,-0.61 -0.56,0 -1.08,0.24 -1.46,0.61zm-47.15 45.88c1.01,0.31 1.9,0.86 2.62,1.58 1.14,1.14 1.85,2.71 1.85,4.45 0,1.74 -0.71,3.3 -1.85,4.45 -0.64,0.63 -1.42,1.13 -2.28,1.45l0 29.21c-1.56,0 -3.12,0 -4.67,0l0 -29.17 -0.03 -0.18c-0.72,-0.32 -1.37,-0.76 -1.92,-1.31 -1.15,-1.15 -1.85,-2.72 -1.85,-4.45 0,-1.75 0.7,-3.31 1.84,-4.45 0.73,-0.72 1.62,-1.27 2.63,-1.58 -15.07,0.46 -30,6.42 -41.48,17.91 -6.53,6.54 -11.6,14.54 -14.66,23.47 16.54,11.2 36.5,17.75 57.99,17.75 21.49,0 41.45,-6.55 58,-17.75 -3.07,-8.94 -8.13,-16.93 -14.67,-23.47 -11.49,-11.49 -26.44,-17.46 -41.51,-17.91zm-3.29 4.56c-0.38,0.37 -0.61,0.9 -0.61,1.47 0,0.57 0.23,1.09 0.61,1.46 0.37,0.38 0.89,0.61 1.46,0.61 0.58,0 1.1,-0.24 1.47,-0.6 0.37,-0.38 0.6,-0.9 0.6,-1.47 0,-0.57 -0.23,-1.1 -0.6,-1.47 -0.38,-0.37 -0.9,-0.61 -1.47,-0.61 -0.57,0 -1.09,0.23 -1.46,0.61zm12.02 -35.82l-3.71 0 0.02 -0.45c0.06,-2.16 0.11,-4.29 0.14,-6.43 0.03,-1.9 0.04,-3.89 0.05,-5.98l-14.17 0c0,2 0.02,3.99 0.04,5.98 0.04,2.14 0.08,4.27 0.15,6.43l0.01 0.45 -4.15 0 0.01 -0.45c0.12,-4.19 0.18,-8.43 0.18,-12.71 0,-4.27 -0.06,-8.52 -0.18,-12.7l-0.01 -0.46 4.15 0 -0.01 0.46c-0.05,1.82 -0.1,3.63 -0.13,5.43l-0.05 4.99 14.15 0 -0.05 -4.99c-0.04,-1.8 -0.08,-3.61 -0.13,-5.43l-0.02 -0.46 4.16 0 -0.01 0.46c-0.12,4.18 -0.19,8.43 -0.19,12.7 0,4.28 0.07,8.52 0.19,12.71l0.01 0.45 -0.45 0zm27.56 -13.16c-16.81,-9.57 -29.51,-22.27 -38.09,-38.09 -8.59,15.83 -21.29,28.53 -38.1,38.09 16.81,9.57 29.51,22.27 38.1,38.1 8.58,-15.84 21.28,-28.54 38.09,-38.1zm-78.33 -3.3c16.96,-9.41 27.47,-19.9 36.92,-36.92 -16.77,-0.84 -31.89,-7.99 -43.02,-19.11 -6.69,-6.7 -11.94,-14.85 -15.25,-23.92 -4.13,3.06 -8.03,6.42 -11.65,10.03 -3.62,3.62 -6.98,7.52 -10.03,11.65 9.08,3.3 17.22,8.56 23.92,15.26 11.12,11.12 18.27,26.24 19.11,43.01zm43.54 -36.93c9.41,16.96 19.9,27.48 36.92,36.92 0.84,-16.76 7.98,-31.88 19.11,-43 6.69,-6.7 14.84,-11.96 23.91,-15.26 -3.06,-4.13 -6.41,-8.03 -10.03,-11.65 -3.62,-3.61 -7.52,-6.98 -11.64,-10.03 -3.3,9.08 -8.56,17.22 -15.26,23.92 -11.13,11.12 -26.24,18.27 -43.01,19.1zm36.92 43.55c-17.02,9.45 -27.52,19.97 -36.92,36.92 16.77,0.84 31.88,7.98 43.01,19.1 6.7,6.7 11.95,14.85 15.26,23.92 4.12,-3.06 8.02,-6.41 11.64,-10.03 3.62,-3.62 6.98,-7.52 10.03,-11.64 -9.08,-3.3 -17.22,-8.56 -23.91,-15.26 -11.13,-11.12 -18.27,-26.24 -19.11,-43.01zm-43.54 36.92c-9.46,-17.03 -19.96,-27.52 -36.92,-36.93 -0.84,16.77 -7.99,31.89 -19.11,43.02 -6.7,6.7 -14.85,11.95 -23.92,15.26 3.06,4.12 6.41,8.02 10.03,11.64 3.62,3.62 7.52,6.98 11.64,10.03 3.31,-9.08 8.57,-17.22 15.26,-23.92 11.13,-11.12 26.25,-18.26 43.02,-19.1z"/>
   <path class="fil0" d="M15222.09 422.67l5.53 0 -26.17 26.17 15.9 15.9c3.25,-4.46 6.87,-8.69 10.79,-12.61 4.11,-4.11 8.56,-7.88 13.26,-11.26 -1.67,-5.78 -2.56,-11.88 -2.56,-18.19l0 0 4.22 0 0 0c0,5.41 0.7,10.65 2.02,15.65 11.47,-7.56 24.36,-12.92 37.93,-15.65l42.68 0c13.56,2.73 26.45,8.09 37.92,15.65 1.32,-4.99 2.02,-10.23 2.02,-15.65l0 0 4.23 0 0 0c0,6.31 -0.9,12.41 -2.56,18.19 4.7,3.38 9.14,7.15 13.25,11.26 3.92,3.92 7.53,8.15 10.79,12.61l15.9 -15.9 -26.17 -26.17 5.53 0 23.4 23.4 0 5.53 -16.37 16.38c7.94,11.76 13.58,25.07 16.37,39.01l0 42.68c-2.77,13.77 -8.16,26.6 -15.64,37.93l-0.74 1.07 16.37 16.38 0 5.53 -23.4 23.4 -5.53 0 26.17 -26.17 -15.93 -15.93c-3.27,4.46 -6.68,8.57 -10.76,12.64 -4.11,4.12 -8.56,7.89 -13.26,11.28 1.67,5.77 2.56,11.87 2.57,18.17l-4.23 0c0,-5.4 -0.7,-10.64 -2.02,-15.64 -11.47,7.56 -24.36,12.92 -37.92,15.64l-42.68 0 0 0c-13.57,-2.72 -26.46,-8.08 -37.93,-15.64 -1.31,4.99 -2.02,10.23 -2.02,15.64l-4.22 0c0,-6.3 0.9,-12.4 2.56,-18.17 -4.7,-3.39 -9.15,-7.16 -13.26,-11.28 -3.92,-3.92 -7.54,-8.14 -10.79,-12.6l-15.9 15.89 26.17 26.17 -5.53 0 -23.4 -23.4 0 -5.53 16.37 -16.37c-7.95,-11.74 -13.56,-25.02 -16.37,-39.01l0 -42.68c2.82,-14 8.43,-27.28 16.37,-39.02l-16.37 -16.37 0 -5.53 23.4 -23.4zm37.86 104.5l0 2.35c0.01,-0.79 0.01,-1.57 0,-2.35zm-0.02 2.94c-0.3,1.03 -0.85,1.95 -1.59,2.69 -1.14,1.14 -2.72,1.85 -4.45,1.85 -1.74,0 -3.31,-0.71 -4.45,-1.85 -0.64,-0.64 -1.14,-1.42 -1.46,-2.28l-29.21 0c0,-1.56 0,-3.12 0,-4.67l29.17 0 0.18 -0.03c0.32,-0.72 0.77,-1.37 1.32,-1.92 1.14,-1.15 2.72,-1.85 4.45,-1.85 1.74,0 3.31,0.7 4.45,1.84 0.74,0.75 1.29,1.67 1.59,2.7 -0.43,-15.1 -6.4,-30.06 -17.91,-41.57 -6.53,-6.53 -14.54,-11.6 -23.46,-14.66 -11.21,16.54 -17.75,36.5 -17.75,57.99 0,21.49 6.54,41.46 17.75,58 8.93,-3.07 16.93,-8.13 23.46,-14.67 11.51,-11.5 17.48,-26.47 17.91,-41.56zm-4.57 -3.22c-0.38,-0.37 -0.9,-0.61 -1.47,-0.61 -0.57,0 -1.09,0.24 -1.47,0.61 -0.37,0.37 -0.6,0.89 -0.6,1.46 0,0.58 0.23,1.1 0.6,1.47 0.38,0.37 0.9,0.61 1.47,0.61 0.57,0 1.09,-0.24 1.46,-0.61 0.38,-0.38 0.61,-0.9 0.61,-1.47 0,-0.58 -0.23,-1.09 -0.6,-1.46zm50.81 -42.96c15.08,-0.44 30.02,-6.41 41.51,-17.9 6.54,-6.54 11.6,-14.55 14.67,-23.47 -16.55,-11.21 -36.51,-17.75 -58,-17.75 -21.49,0 -41.45,6.54 -57.99,17.75 3.06,8.94 8.13,16.93 14.66,23.47 11.48,11.48 26.42,17.45 41.48,17.9 -1.01,-0.31 -1.9,-0.85 -2.63,-1.57 -1.14,-1.14 -1.84,-2.72 -1.84,-4.45 0,-1.74 0.7,-3.31 1.85,-4.45 0.55,-0.55 1.2,-1 1.92,-1.32l0.03 -0.18 0 -29.17c1.56,0 3.12,0 4.67,0l0 29.21c0.86,0.32 1.64,0.82 2.28,1.46 1.14,1.14 1.85,2.72 1.85,4.45 0,1.74 -0.71,3.31 -1.85,4.45 -0.72,0.72 -1.61,1.26 -2.62,1.57zm-3.29 -4.55c0.37,0.37 0.89,0.6 1.46,0.6 0.57,0 1.09,-0.23 1.47,-0.61 0.37,-0.37 0.6,-0.89 0.6,-1.46 0,-0.57 -0.23,-1.09 -0.6,-1.47 -0.37,-0.37 -0.89,-0.6 -1.47,-0.6 -0.57,0 -1.09,0.23 -1.46,0.61 -0.38,0.37 -0.61,0.89 -0.61,1.46 0,0.57 0.23,1.09 0.61,1.47zm45.91 50.89c0.47,15.05 6.43,29.95 17.9,41.42 6.53,6.54 14.54,11.6 23.47,14.67 11.2,-16.54 17.75,-36.51 17.75,-58 0,-21.49 -6.55,-41.45 -17.75,-57.99 -8.94,3.06 -16.94,8.13 -23.47,14.66 -11.47,11.47 -17.44,26.39 -17.9,41.44 0.3,-0.98 0.84,-1.85 1.55,-2.56 1.14,-1.14 2.71,-1.84 4.44,-1.84 1.75,0 3.31,0.7 4.45,1.85 0.55,0.55 1,1.2 1.32,1.92l0.18 0.03 29.17 0c0,1.56 0,3.12 0,4.67l-29.21 0c-0.31,0.86 -0.82,1.64 -1.46,2.28 -1.14,1.14 -2.71,1.85 -4.45,1.85 -1.74,0 -3.3,-0.71 -4.44,-1.85 -0.71,-0.7 -1.24,-1.57 -1.55,-2.54zm4.53 -3.37c-0.38,0.37 -0.61,0.88 -0.61,1.46 0,0.57 0.24,1.09 0.61,1.47 0.38,0.37 0.9,0.61 1.46,0.61 0.58,0 1.1,-0.24 1.47,-0.61 0.37,-0.37 0.61,-0.89 0.61,-1.47 0,-0.57 -0.24,-1.09 -0.61,-1.46 -0.37,-0.37 -0.89,-0.61 -1.47,-0.61 -0.56,0 -1.08,0.24 -1.46,0.61zm-47.15 45.88c1.01,0.31 1.9,0.86 2.62,1.58 1.14,1.14 1.85,2.71 1.85,4.45 0,1.74 -0.71,3.3 -1.85,4.45 -0.64,0.63 -1.42,1.13 -2.28,1.45l0 29.21c-1.56,0 -3.12,0 -4.67,0l0 -29.17 -0.03 -0.18c-0.72,-0.32 -1.37,-0.76 -1.92,-1.31 -1.15,-1.15 -1.85,-2.72 -1.85,-4.45 0,-1.75 0.7,-3.31 1.84,-4.45 0.73,-0.72 1.62,-1.27 2.63,-1.58 -15.07,0.46 -30,6.42 -41.48,17.91 -6.53,6.54 -11.6,14.54 -14.66,23.47 16.54,11.2 36.5,17.75 57.99,17.75 21.49,0 41.45,-6.55 58,-17.75 -3.07,-8.94 -8.13,-16.93 -14.67,-23.47 -11.49,-11.49 -26.44,-17.46 -41.51,-17.91zm-3.29 4.56c-0.38,0.37 -0.61,0.9 -0.61,1.47 0,0.57 0.23,1.09 0.61,1.46 0.37,0.38 0.89,0.61 1.46,0.61 0.58,0 1.1,-0.24 1.47,-0.6 0.37,-0.38 0.6,-0.9 0.6,-1.47 0,-0.57 -0.23,-1.1 -0.6,-1.47 -0.38,-0.37 -0.9,-0.61 -1.47,-0.61 -0.57,0 -1.09,0.23 -1.46,0.61zm12.02 -35.82l-3.71 0 0.02 -0.45c0.06,-2.16 0.11,-4.29 0.14,-6.43 0.03,-1.9 0.04,-3.89 0.05,-5.98l-14.17 0c0,2 0.02,3.99 0.04,5.98 0.04,2.14 0.08,4.27 0.15,6.43l0.01 0.45 -4.15 0 0.01 -0.45c0.12,-4.19 0.18,-8.43 0.18,-12.71 0,-4.27 -0.06,-8.52 -0.18,-12.7l-0.01 -0.46 4.15 0 -0.01 0.46c-0.05,1.82 -0.1,3.63 -0.13,5.43l-0.05 4.99 14.15 0 -0.05 -4.99c-0.04,-1.8 -0.08,-3.61 -0.13,-5.43l-0.02 -0.46 4.16 0 -0.01 0.46c-0.12,4.18 -0.19,8.43 -0.19,12.7 0,4.28 0.07,8.52 0.19,12.71l0.01 0.45 -0.45 0zm27.56 -13.16c-16.81,-9.57 -29.51,-22.27 -38.09,-38.09 -8.59,15.83 -21.29,28.53 -38.1,38.09 16.81,9.57 29.51,22.27 38.1,38.1 8.58,-15.84 21.28,-28.54 38.09,-38.1zm-78.33 -3.3c16.96,-9.41 27.47,-19.9 36.92,-36.92 -16.77,-0.84 -31.89,-7.99 -43.02,-19.11 -6.69,-6.7 -11.94,-14.85 -15.25,-23.92 -4.13,3.06 -8.03,6.42 -11.65,10.03 -3.62,3.62 -6.98,7.52 -10.03,11.65 9.08,3.3 17.22,8.56 23.92,15.26 11.12,11.12 18.27,26.24 19.11,43.01zm43.54 -36.93c9.41,16.96 19.9,27.48 36.92,36.92 0.84,-16.76 7.98,-31.88 19.11,-43 6.69,-6.7 14.84,-11.96 23.91,-15.26 -3.06,-4.13 -6.41,-8.03 -10.03,-11.65 -3.62,-3.61 -7.52,-6.98 -11.64,-10.03 -3.3,9.08 -8.56,17.22 -15.26,23.92 -11.13,11.12 -26.24,18.27 -43.01,19.1zm36.92 43.55c-17.02,9.45 -27.52,19.97 -36.92,36.92 16.77,0.84 31.88,7.98 43.01,19.1 6.7,6.7 11.95,14.85 15.26,23.92 4.12,-3.06 8.02,-6.41 11.64,-10.03 3.62,-3.62 6.98,-7.52 10.03,-11.64 -9.08,-3.3 -17.22,-8.56 -23.91,-15.26 -11.13,-11.12 -18.27,-26.24 -19.11,-43.01zm-43.54 36.92c-9.46,-17.03 -19.96,-27.52 -36.92,-36.93 -0.84,16.77 -7.99,31.89 -19.11,43.02 -6.7,6.7 -14.85,11.95 -23.92,15.26 3.06,4.12 6.41,8.02 10.03,11.64 3.62,3.62 7.52,6.98 11.64,10.03 3.31,-9.08 8.57,-17.22 15.26,-23.92 11.13,-11.12 26.25,-18.26 43.02,-19.1z"/>
   <path class="fil0" d="M15644.75 211.34l5.53 0 -26.17 26.16 15.9 15.9c3.25,-4.46 6.87,-8.68 10.79,-12.6 4.11,-4.12 8.56,-7.89 13.26,-11.27 -1.67,-5.77 -2.56,-11.87 -2.56,-18.18l0 0 4.22 0 0 0c0,5.4 0.7,10.64 2.02,15.65 11.47,-7.56 24.36,-12.92 37.93,-15.65l42.68 0c13.56,2.73 26.45,8.09 37.92,15.65 1.32,-5 2.02,-10.24 2.02,-15.65l0 0 4.23 0 0 0c0,6.31 -0.9,12.41 -2.56,18.18 4.7,3.38 9.14,7.15 13.25,11.27 3.92,3.91 7.53,8.14 10.79,12.61l15.9 -15.91 -26.17 -26.16 5.53 0 23.4 23.39 0 5.54 -16.37 16.38c7.94,11.75 13.58,25.07 16.37,39l0 42.68c-2.77,13.78 -8.16,26.6 -15.64,37.93l-0.74 1.08 16.37 16.38 0 5.53 -23.4 23.4 -5.53 0 26.17 -26.17 -15.93 -15.93c-3.27,4.45 -6.68,8.56 -10.76,12.64 -4.11,4.11 -8.56,7.89 -13.26,11.27 1.67,5.77 2.56,11.87 2.57,18.18l-4.23 0c0,-5.4 -0.7,-10.65 -2.02,-15.65 -11.47,7.56 -24.36,12.92 -37.92,15.65l-42.68 0 0 0c-13.57,-2.73 -26.46,-8.09 -37.93,-15.65 -1.31,4.99 -2.02,10.24 -2.02,15.65l-4.22 0c0,-6.31 0.9,-12.41 2.56,-18.18 -4.7,-3.38 -9.15,-7.16 -13.26,-11.27 -3.92,-3.92 -7.54,-8.15 -10.79,-12.61l-15.9 15.9 26.17 26.17 -5.53 0 -23.4 -23.4 0 -5.53 16.37 -16.37c-7.95,-11.74 -13.56,-25.02 -16.37,-39.02l0 -42.68c2.82,-14 8.43,-27.27 16.37,-39.02l-16.37 -16.36 0 -5.54 23.4 -23.39zm37.86 104.49l0 2.36c0.01,-0.79 0.01,-1.57 0,-2.36zm-0.02 2.95c-0.3,1.03 -0.85,1.95 -1.59,2.69 -1.14,1.14 -2.72,1.84 -4.45,1.84 -1.74,0 -3.31,-0.7 -4.45,-1.84 -0.64,-0.65 -1.14,-1.42 -1.46,-2.29l-29.21 0c0,-1.56 0,-3.11 0,-4.66l29.17 0 0.18 -0.03c0.32,-0.72 0.77,-1.37 1.32,-1.92 1.14,-1.16 2.72,-1.86 4.45,-1.86 1.74,0 3.31,0.7 4.45,1.85 0.74,0.74 1.29,1.67 1.59,2.7 -0.43,-15.11 -6.4,-30.07 -17.91,-41.58 -6.53,-6.53 -14.54,-11.59 -23.46,-14.66 -11.21,16.54 -17.75,36.51 -17.75,58 0,21.49 6.54,41.45 17.75,57.99 8.93,-3.06 16.93,-8.12 23.46,-14.66 11.51,-11.51 17.48,-26.47 17.91,-41.56zm-4.57 -3.23c-0.38,-0.37 -0.9,-0.61 -1.47,-0.61 -0.57,0 -1.09,0.24 -1.47,0.61 -0.37,0.37 -0.6,0.89 -0.6,1.47 0,0.57 0.23,1.09 0.6,1.46 0.38,0.38 0.9,0.61 1.47,0.61 0.57,0 1.09,-0.23 1.46,-0.61 0.38,-0.37 0.61,-0.89 0.61,-1.46 0,-0.58 -0.23,-1.1 -0.6,-1.47zm50.81 -42.95c15.08,-0.45 30.02,-6.42 41.51,-17.91 6.54,-6.53 11.6,-14.54 14.67,-23.47 -16.55,-11.2 -36.51,-17.75 -58,-17.75 -21.49,0 -41.45,6.55 -57.99,17.75 3.06,8.94 8.13,16.94 14.66,23.47 11.48,11.49 26.42,17.45 41.48,17.91 -1.01,-0.31 -1.9,-0.86 -2.63,-1.58 -1.14,-1.14 -1.84,-2.72 -1.84,-4.45 0,-1.74 0.7,-3.31 1.85,-4.45 0.55,-0.54 1.2,-0.99 1.92,-1.31l0.03 -0.19 0 -29.16c1.56,0 3.12,0 4.67,0l0 29.2c0.86,0.33 1.64,0.83 2.28,1.46 1.14,1.14 1.85,2.72 1.85,4.45 0,1.74 -0.71,3.31 -1.85,4.45 -0.72,0.72 -1.61,1.27 -2.62,1.58zm-3.29 -4.56c0.37,0.38 0.89,0.61 1.46,0.61 0.57,0 1.09,-0.24 1.47,-0.61 0.37,-0.37 0.6,-0.9 0.6,-1.47 0,-0.57 -0.23,-1.09 -0.6,-1.47 -0.37,-0.36 -0.89,-0.6 -1.47,-0.6 -0.57,0 -1.09,0.23 -1.46,0.61 -0.38,0.37 -0.61,0.89 -0.61,1.46 0,0.57 0.23,1.1 0.61,1.47zm45.91 50.89c0.47,15.05 6.43,29.95 17.9,41.43 6.53,6.54 14.54,11.6 23.47,14.66 11.2,-16.54 17.75,-36.5 17.75,-57.99 0,-21.49 -6.55,-41.46 -17.75,-58 -8.94,3.07 -16.94,8.13 -23.47,14.66 -11.47,11.48 -17.44,26.39 -17.9,41.44 0.3,-0.97 0.84,-1.84 1.55,-2.55 1.14,-1.15 2.71,-1.85 4.44,-1.85 1.75,0 3.31,0.7 4.45,1.86 0.55,0.55 1,1.2 1.32,1.92l0.18 0.03 29.17 0c0,1.56 0,3.11 0,4.66l-29.21 0c-0.31,0.87 -0.82,1.64 -1.46,2.29 -1.14,1.14 -2.71,1.84 -4.45,1.84 -1.74,0 -3.3,-0.7 -4.44,-1.84 -0.71,-0.71 -1.24,-1.58 -1.55,-2.55zm4.53 -3.37c-0.38,0.37 -0.61,0.89 -0.61,1.47 0,0.57 0.24,1.09 0.61,1.46 0.38,0.38 0.9,0.61 1.46,0.61 0.58,0 1.1,-0.23 1.47,-0.61 0.37,-0.37 0.61,-0.89 0.61,-1.46 0,-0.58 -0.24,-1.1 -0.61,-1.47 -0.37,-0.37 -0.89,-0.61 -1.47,-0.61 -0.56,0 -1.08,0.24 -1.46,0.61zm-47.15 45.89c1.01,0.31 1.9,0.85 2.62,1.57 1.14,1.14 1.85,2.72 1.85,4.45 0,1.74 -0.71,3.31 -1.85,4.45 -0.64,0.64 -1.42,1.14 -2.28,1.46l0 29.21c-1.56,0 -3.12,0 -4.67,0l0 -29.17 -0.03 -0.18c-0.72,-0.32 -1.37,-0.77 -1.92,-1.32 -1.15,-1.14 -1.85,-2.72 -1.85,-4.45 0,-1.74 0.7,-3.31 1.84,-4.45 0.73,-0.72 1.62,-1.26 2.63,-1.57 -15.07,0.45 -30,6.42 -41.48,17.91 -6.53,6.53 -11.6,14.53 -14.66,23.46 16.54,11.21 36.5,17.75 57.99,17.75 21.49,0 41.45,-6.54 58,-17.75 -3.07,-8.94 -8.13,-16.93 -14.67,-23.46 -11.49,-11.5 -26.44,-17.47 -41.51,-17.91zm-3.29 4.55c-0.38,0.38 -0.61,0.9 -0.61,1.47 0,0.57 0.23,1.09 0.61,1.47 0.37,0.37 0.89,0.6 1.46,0.6 0.58,0 1.1,-0.23 1.47,-0.6 0.37,-0.38 0.6,-0.9 0.6,-1.47 0,-0.57 -0.23,-1.09 -0.6,-1.46 -0.38,-0.38 -0.9,-0.61 -1.47,-0.61 -0.57,0 -1.09,0.23 -1.46,0.6zm12.02 -35.81l-3.71 0 0.02 -0.46c0.06,-2.15 0.11,-4.29 0.14,-6.42 0.03,-1.91 0.04,-3.9 0.05,-5.98l-14.17 0c0,1.99 0.02,3.98 0.04,5.98 0.04,2.13 0.08,4.27 0.15,6.42l0.01 0.46 -4.15 0 0.01 -0.46c0.12,-4.18 0.18,-8.43 0.18,-12.7 0,-4.28 -0.06,-8.53 -0.18,-12.71l-0.01 -0.45 4.15 0 -0.01 0.45c-0.05,1.83 -0.1,3.63 -0.13,5.44l-0.05 4.99 14.15 0 -0.05 -4.99c-0.04,-1.81 -0.08,-3.61 -0.13,-5.44l-0.02 -0.45 4.16 0 -0.01 0.45c-0.12,4.19 -0.19,8.43 -0.19,12.71 0,4.27 0.07,8.51 0.19,12.7l0.01 0.46 -0.45 0zm27.56 -13.16c-16.81,-9.57 -29.51,-22.27 -38.09,-38.1 -8.59,15.84 -21.29,28.54 -38.1,38.1 16.81,9.57 29.51,22.27 38.1,38.09 8.58,-15.83 21.28,-28.53 38.09,-38.09zm-78.33 -3.3c16.96,-9.42 27.47,-19.9 36.92,-36.93 -16.77,-0.84 -31.89,-7.98 -43.02,-19.11 -6.69,-6.69 -11.94,-14.84 -15.25,-23.91 -4.13,3.06 -8.03,6.41 -11.65,10.03 -3.62,3.62 -6.98,7.52 -10.03,11.64 9.08,3.3 17.22,8.56 23.92,15.26 11.12,11.12 18.27,26.24 19.11,43.02zm43.54 -36.93c9.41,16.95 19.9,27.48 36.92,36.92 0.84,-16.77 7.98,-31.89 19.11,-43.01 6.69,-6.7 14.84,-11.95 23.91,-15.26 -3.06,-4.13 -6.41,-8.02 -10.03,-11.64 -3.62,-3.62 -7.52,-6.98 -11.64,-10.03 -3.3,9.08 -8.56,17.22 -15.26,23.91 -11.13,11.13 -26.24,18.27 -43.01,19.11zm36.92 43.55c-17.02,9.45 -27.52,19.96 -36.92,36.92 16.77,0.83 31.88,7.98 43.01,19.1 6.7,6.7 11.95,14.85 15.26,23.92 4.12,-3.06 8.02,-6.42 11.64,-10.04 3.62,-3.61 6.98,-7.51 10.03,-11.64 -9.08,-3.3 -17.22,-8.56 -23.91,-15.25 -11.13,-11.13 -18.27,-26.25 -19.11,-43.01zm-43.54 36.92c-9.46,-17.03 -19.96,-27.53 -36.92,-36.93 -0.84,16.77 -7.99,31.89 -19.11,43.02 -6.7,6.69 -14.85,11.94 -23.92,15.25 3.06,4.13 6.41,8.03 10.03,11.64 3.62,3.62 7.52,6.99 11.64,10.04 3.31,-9.08 8.57,-17.22 15.26,-23.92 11.13,-11.12 26.25,-18.27 43.02,-19.1z"/>
  </g>
  <g id="_2187244662016">
   <path class="fil1" d="M1339.19 23.44c-13.79,-7.72 -27.58,-15.38 -41.37,-23.07l-0.01 33.43c-5.58,-3.3 -11.61,-5.94 -17.93,-7.87 -7.74,-2.37 -15.92,-3.63 -24.43,-3.63 -8.45,0 -16.66,1.27 -24.4,3.63 -6.32,1.93 -12.33,4.57 -17.93,7.89l-0.02 -33.45 -41.33 23.07c0.1,55.04 0.01,110.07 0.01,165.11l41.34 23.04 0.01 -33.36c5.61,3.27 11.6,5.94 17.95,7.88 7.72,2.36 15.94,3.62 24.38,3.62 8.52,0 16.69,-1.27 24.43,-3.62 6.31,-1.94 12.33,-4.6 17.92,-7.88l0 33.37 41.38 -23.05 0 -165.11zm-5.52 161.85l-30.29 16.91 -0.02 -34.16 -4.32 2.9c-6.3,4.24 -13.29,7.62 -20.75,9.88 -7.21,2.2 -14.88,3.38 -22.82,3.38 -7.92,0 -15.59,-1.19 -22.76,-3.38 -7.47,-2.27 -14.47,-5.64 -20.8,-9.88l-4.29 -2.9 -0.01 34.16 -30.31 -16.91 0 -158.59 30.29 -16.89 0.01 34.19 4.3 -2.9c6.33,-4.26 13.33,-7.61 20.8,-9.9 7.19,-2.18 14.84,-3.34 22.76,-3.34 7.95,0 15.63,1.17 22.83,3.34 7.45,2.29 14.43,5.64 20.75,9.9l4.34 2.92 0 -34.21 30.29 16.89 0 158.59zm-78.21 -129.04c-13.74,0 -26.17,5.57 -35.18,14.57 -9.01,9.02 -14.59,21.46 -14.59,35.19 0,13.74 5.58,26.18 14.59,35.19 9.02,9.02 21.45,14.57 35.18,14.57 13.75,0 26.2,-5.55 35.18,-14.58 9.03,-9.01 14.59,-21.45 14.59,-35.18 0,-13.74 -5.56,-26.18 -14.59,-35.18 -8.99,-9.01 -21.44,-14.58 -35.18,-14.58zm-31.28 18.49c8.03,-8 19.08,-12.95 31.28,-12.95 12.22,0 23.29,4.94 31.27,12.94 8.03,8 12.96,19.06 12.96,31.28 0,12.2 -4.95,23.27 -12.96,31.25 -7.98,8.05 -19.05,12.99 -31.27,12.99 -12.2,0 -23.25,-4.95 -31.28,-12.99 -7.99,-7.98 -12.92,-19.05 -12.92,-31.25 0,-12.22 4.92,-23.28 12.92,-31.27z"/>
   <path class="fil1" d="M167.44 445.93c-13.79,-7.72 -27.58,-15.41 -41.36,-23.07l-0.01 33.42c-5.57,-3.29 -11.62,-5.95 -17.96,-7.88 -7.72,-2.36 -15.89,-3.6 -24.4,-3.6 -8.49,0 -16.67,1.25 -24.39,3.6 -6.36,1.93 -12.37,4.58 -17.97,7.89l-0.01 -33.43 -41.34 23.07c0.1,55.01 0.01,110.07 0.01,165.07l41.34 23.09 0.03 -33.39c5.59,3.28 11.59,5.96 17.96,7.88 7.7,2.36 15.89,3.63 24.37,3.63 8.52,0 16.68,-1.28 24.41,-3.63 6.33,-1.92 12.37,-4.59 17.94,-7.88l0.01 33.39 41.37 -23.09 0 -165.07zm-5.53 161.84l-30.31 16.91 -0.02 -34.15 -4.28 2.89c-6.33,4.26 -13.32,7.61 -20.78,9.89 -7.21,2.21 -14.87,3.37 -22.8,3.37 -7.91,0 -15.6,-1.17 -22.78,-3.37 -7.45,-2.29 -14.46,-5.63 -20.81,-9.89l-4.28 -2.89 0 34.14 -30.3 -16.9 0 -158.59 30.28 -16.89 0.01 34.2 4.29 -2.91c6.34,-4.26 13.34,-7.62 20.79,-9.91 7.21,-2.17 14.88,-3.34 22.8,-3.34 7.93,0 15.6,1.18 22.8,3.34 7.44,2.29 14.43,5.65 20.78,9.91l4.3 2.92 0.01 -34.21 30.3 16.89 0 158.59zm-78.2 -129.04c-13.74,0 -26.18,5.56 -35.18,14.58 -9.03,9.02 -14.58,21.46 -14.58,35.19 0,13.73 5.55,26.16 14.58,35.18 9.01,9.02 21.45,14.58 35.18,14.58 13.75,0 26.18,-5.56 35.17,-14.59 9.01,-9.02 14.6,-21.45 14.6,-35.17 0,-13.74 -5.59,-26.17 -14.59,-35.18 -9.01,-9.03 -21.45,-14.59 -35.18,-14.59zm-31.27 18.49c8.01,-8 19.05,-12.95 31.27,-12.95 12.22,0 23.28,4.94 31.26,12.94 8.03,8 12.95,19.07 12.95,31.29 0,12.19 -4.93,23.27 -12.95,31.25 -7.98,8.02 -19.04,12.97 -31.26,12.97 -12.22,0 -23.26,-4.95 -31.27,-12.97 -8.01,-7.98 -12.95,-19.06 -12.95,-31.25 0,-12.22 4.94,-23.29 12.95,-31.28z"/>
   <path class="fil1" d="M669.61 234.69c-13.76,-7.71 -27.56,-15.4 -41.34,-23.09l-0.01 33.43c-5.6,-3.28 -11.62,-5.93 -17.94,-7.88 -7.75,-2.35 -15.93,-3.6 -24.42,-3.6 -8.5,0 -16.69,1.26 -24.41,3.6 -6.34,1.95 -12.36,4.59 -17.96,7.9l-0.01 -33.45 -41.35 23.09c0.1,55.02 0,110.08 0,165.08l41.36 23.08 0.01 -33.38c5.61,3.28 11.61,5.95 17.97,7.87 7.71,2.36 15.9,3.62 24.39,3.62 8.5,0 16.68,-1.27 24.42,-3.62 6.31,-1.92 12.33,-4.58 17.93,-7.87l0.01 33.39 41.35 -23.09 0 -165.08zm-5.52 161.83l-30.3 16.92 -0.01 -34.17 -4.3 2.92c-6.31,4.24 -13.32,7.61 -20.76,9.87 -7.22,2.2 -14.89,3.38 -22.81,3.38 -7.92,0 -15.59,-1.19 -22.8,-3.38 -7.44,-2.27 -14.44,-5.63 -20.78,-9.87l-4.29 -2.92 0 34.17 -30.32 -16.92 0 -158.57 30.3 -16.9 0.01 34.2 4.29 -2.9c6.34,-4.28 13.33,-7.64 20.79,-9.9 7.21,-2.19 14.87,-3.35 22.8,-3.35 7.93,0 15.6,1.17 22.81,3.35 7.42,2.26 14.42,5.61 20.76,9.9l4.31 2.91 0.01 -34.21 30.29 16.9 0 158.57zm-78.19 -129.03c-13.74,0 -26.18,5.55 -35.18,14.58 -9.02,9.02 -14.59,21.46 -14.59,35.17 0,13.76 5.57,26.19 14.59,35.2 9.01,9 21.45,14.58 35.18,14.58 13.74,0 26.17,-5.58 35.18,-14.59 9.01,-9.01 14.59,-21.44 14.59,-35.19 0,-13.72 -5.58,-26.16 -14.58,-35.16 -9.03,-9.04 -21.46,-14.59 -35.19,-14.59zm-31.26 18.48c7.98,-7.99 19.05,-12.95 31.26,-12.95 12.22,0 23.27,4.96 31.27,12.94 8,8.01 12.95,19.06 12.95,31.28 0,12.21 -4.96,23.28 -12.95,31.28 -8,8.02 -19.05,12.94 -31.27,12.94 -12.21,0 -23.28,-4.93 -31.26,-12.94 -8.03,-8 -12.95,-19.07 -12.95,-31.28 0,-12.22 4.92,-23.27 12.95,-31.27z"/>
   <path class="fil1" d="M1004.39 657.18c-13.78,-7.73 -27.58,-15.41 -41.35,-23.08l0 33.39c-5.59,-3.26 -11.62,-5.92 -17.97,-7.84 -7.71,-2.37 -15.91,-3.62 -24.39,-3.61 -8.5,-0.01 -16.69,1.25 -24.42,3.61 -6.33,1.92 -12.34,4.58 -17.95,7.86l-0.01 -33.41 -41.34 23.08c0.1,55.01 0.01,110.05 0.01,165.08l41.34 23.06 0.02 -33.38c5.61,3.29 11.61,5.95 17.95,7.88 7.71,2.37 15.91,3.62 24.41,3.62 8.49,0 16.67,-1.26 24.39,-3.62 6.34,-1.93 12.35,-4.58 17.95,-7.88l0.01 33.39 41.35 -23.07 0 -165.08zm-5.53 161.84l-30.3 16.9 -0.01 -34.16 -4.3 2.9c-6.33,4.26 -13.32,7.63 -20.76,9.89 -7.22,2.19 -14.9,3.36 -22.79,3.36 -7.95,0 -15.6,-1.18 -22.82,-3.36 -7.42,-2.27 -14.43,-5.63 -20.77,-9.89l-4.29 -2.9 0 34.15 -30.33 -16.89 0 -158.61 30.31 -16.9 0.01 34.22 4.3 -2.91c6.33,-4.25 13.33,-7.63 20.77,-9.9 7.23,-2.18 14.87,-3.34 22.81,-3.34 7.91,0 15.59,1.17 22.8,3.34 7.42,2.26 14.42,5.64 20.76,9.9l4.31 2.92 0.01 -34.23 30.29 16.9 0 158.61zm-78.17 -129.05c-13.78,0 -26.21,5.56 -35.21,14.59 -9,9.01 -14.57,21.46 -14.57,35.17 0,13.74 5.57,26.18 14.57,35.18 9.01,9.03 21.44,14.58 35.21,14.58 13.72,0 26.17,-5.55 35.16,-14.58 9.01,-9.01 14.6,-21.45 14.6,-35.18 0,-13.72 -5.59,-26.17 -14.59,-35.16 -9.01,-9.04 -21.47,-14.6 -35.17,-14.6zm-31.29 18.49c8.01,-8 19.06,-12.95 31.29,-12.95 12.21,0 23.25,4.94 31.24,12.95 8.02,7.99 12.96,19.05 12.96,31.27 0,12.21 -4.96,23.28 -12.96,31.27 -7.99,8.01 -19.03,12.96 -31.24,12.96 -12.23,0 -23.28,-4.96 -31.29,-12.96 -8.01,-7.99 -12.93,-19.06 -12.93,-31.27 0,-12.22 4.92,-23.28 12.93,-31.27z"/>
   <path class="fil1" d="M1673.97 445.93c-13.77,-7.72 -27.56,-15.41 -41.36,-23.07l0 33.42c-5.59,-3.29 -11.61,-5.95 -17.94,-7.88 -7.72,-2.36 -15.94,-3.6 -24.42,-3.6 -8.48,0 -16.69,1.25 -24.42,3.6 -6.32,1.93 -12.33,4.58 -17.94,7.89l-0.01 -33.43 -41.33 23.07c0.09,55.01 0,110.07 0,165.07l41.34 23.09 0.01 -33.39c5.61,3.28 11.61,5.96 17.95,7.88 7.72,2.36 15.93,3.63 24.4,3.63 8.5,0 16.7,-1.28 24.42,-3.63 6.33,-1.92 12.34,-4.59 17.92,-7.88l0.02 33.39 41.37 -23.09 -0.01 -165.07zm-5.52 161.84l-30.29 16.91 -0.02 -34.15 -4.32 2.89c-6.3,4.26 -13.3,7.61 -20.73,9.89 -7.25,2.21 -14.91,3.37 -22.83,3.37 -7.93,0 -15.59,-1.17 -22.79,-3.37 -7.44,-2.29 -14.44,-5.63 -20.79,-9.89l-4.28 -2.89 -0.01 34.14 -30.3 -16.9 0 -158.59 30.28 -16.89 0.02 34.2 4.29 -2.91c6.34,-4.26 13.33,-7.62 20.79,-9.91 7.21,-2.17 14.85,-3.34 22.79,-3.34 7.92,0 15.59,1.18 22.83,3.34 7.43,2.29 14.41,5.65 20.73,9.91l4.34 2.92 0 -34.21 30.29 16.89 0 158.59zm-78.2 -129.04c-13.73,0 -26.16,5.56 -35.18,14.58 -9,9.02 -14.59,21.46 -14.59,35.19 0,13.73 5.59,26.16 14.59,35.18 9.03,9.02 21.46,14.58 35.18,14.58 13.74,0 26.16,-5.56 35.18,-14.59 9.03,-9.02 14.59,-21.45 14.59,-35.17 0,-13.74 -5.56,-26.17 -14.59,-35.18 -9.03,-9.03 -21.46,-14.59 -35.18,-14.59zm-31.27 18.49c8.01,-8 19.06,-12.95 31.27,-12.95 12.24,0 23.29,4.94 31.28,12.94 8,8 12.95,19.07 12.95,31.29 0,12.19 -4.97,23.27 -12.95,31.25 -7.99,8.02 -19.04,12.97 -31.28,12.97 -12.21,0 -23.26,-4.95 -31.27,-12.97 -7.99,-7.98 -12.94,-19.06 -12.94,-31.25 0,-12.22 4.95,-23.29 12.94,-31.28z"/>
   <path class="fil1" d="M2176.15 657.18c-13.75,-7.73 -27.55,-15.41 -41.34,-23.08l-0.01 33.39c-5.59,-3.26 -11.59,-5.92 -17.94,-7.84 -7.73,-2.37 -15.95,-3.62 -24.41,-3.61 -8.48,-0.01 -16.68,1.25 -24.41,3.61 -6.34,1.92 -12.34,4.58 -17.95,7.86l-0.01 -33.41 -41.34 23.08c0.09,55.01 0,110.05 0,165.08l41.35 23.06 0.01 -33.38c5.61,3.29 11.61,5.95 17.95,7.88 7.72,2.37 15.93,3.62 24.41,3.62 8.47,0 16.67,-1.26 24.4,-3.62 6.34,-1.93 12.34,-4.58 17.93,-7.88l0.01 33.39 41.36 -23.07 -0.01 -165.08zm-5.51 161.84l-30.3 16.9 -0.01 -34.16 -4.32 2.9c-6.3,4.26 -13.29,7.63 -20.74,9.89 -7.23,2.19 -14.9,3.36 -22.8,3.36 -7.94,0 -15.6,-1.18 -22.8,-3.36 -7.44,-2.27 -14.43,-5.63 -20.78,-9.89l-4.3 -2.9 -0.01 34.15 -30.3 -16.89 0 -158.61 30.29 -16.9 0.01 34.22 4.3 -2.91c6.34,-4.25 13.34,-7.63 20.78,-9.9 7.22,-2.18 14.86,-3.34 22.8,-3.34 7.92,0 15.59,1.17 22.81,3.34 7.43,2.26 14.43,5.64 20.74,9.9l4.33 2.92 0.01 -34.23 30.29 16.9 0 158.61zm-78.18 -129.05c-13.77,0 -26.2,5.56 -35.2,14.59 -9,9.01 -14.58,21.46 -14.58,35.17 0,13.74 5.58,26.18 14.58,35.18 9.01,9.03 21.44,14.58 35.2,14.58 13.73,0 26.17,-5.55 35.17,-14.58 9.02,-9.01 14.6,-21.45 14.6,-35.18 0,-13.72 -5.58,-26.17 -14.59,-35.16 -9.02,-9.04 -21.47,-14.6 -35.18,-14.6zm-31.28 18.49c8,-8 19.07,-12.95 31.28,-12.95 12.21,0 23.27,4.94 31.26,12.95 8.02,7.99 12.95,19.05 12.95,31.27 0,12.21 -4.94,23.28 -12.95,31.27 -7.99,8.01 -19.05,12.96 -31.26,12.96 -12.21,0 -23.28,-4.96 -31.28,-12.96 -8.02,-7.99 -12.95,-19.06 -12.95,-31.27 0,-12.22 4.93,-23.28 12.95,-31.27z"/>
   <path class="fil1" d="M2343.57 23.44c-13.75,-7.72 -27.55,-15.38 -41.34,-23.07l-0.01 33.43c-5.6,-3.3 -11.61,-5.94 -17.94,-7.87 -7.74,-2.37 -15.94,-3.63 -24.42,-3.63 -8.48,0 -16.67,1.27 -24.39,3.63 -6.35,1.93 -12.36,4.57 -17.96,7.89l-0.01 -33.45 -41.36 23.07c0.11,55.04 0.01,110.07 0.01,165.11l41.36 23.04 0.01 -33.36c5.6,3.27 11.61,5.94 17.97,7.88 7.7,2.36 15.91,3.62 24.37,3.62 8.49,0 16.68,-1.27 24.43,-3.62 6.31,-1.94 12.32,-4.6 17.92,-7.88l0.01 33.37 41.36 -23.05 -0.01 -165.11zm-5.52 161.85l-30.3 16.91 0 -34.16 -4.3 2.9c-6.32,4.24 -13.33,7.62 -20.77,9.88 -7.22,2.2 -14.88,3.38 -22.81,3.38 -7.91,0 -15.58,-1.19 -22.78,-3.38 -7.45,-2.27 -14.44,-5.64 -20.77,-9.88l-4.31 -2.9 -0.01 34.16 -30.3 -16.91 0 -158.59 30.29 -16.89 0.01 34.19 4.31 -2.9c6.33,-4.26 13.31,-7.61 20.77,-9.9 7.21,-2.18 14.87,-3.34 22.79,-3.34 7.93,0 15.6,1.17 22.81,3.34 7.42,2.29 14.43,5.64 20.77,9.9l4.3 2.92 0.01 -34.21 30.29 16.89 0 158.59zm-78.19 -129.04c-13.74,0 -26.18,5.57 -35.18,14.57 -9.03,9.02 -14.58,21.46 -14.58,35.19 0,13.74 5.55,26.18 14.58,35.19 9.01,9.02 21.45,14.57 35.18,14.57 13.75,0 26.17,-5.55 35.2,-14.58 8.99,-9.01 14.58,-21.45 14.58,-35.18 0,-13.74 -5.59,-26.18 -14.58,-35.18 -9.04,-9.01 -21.47,-14.58 -35.2,-14.58zm-31.26 18.49c7.98,-8 19.07,-12.95 31.26,-12.95 12.21,0 23.28,4.94 31.28,12.94 8.02,8 12.94,19.06 12.94,31.28 0,12.2 -4.93,23.27 -12.94,31.25 -8,8.05 -19.07,12.99 -31.28,12.99 -12.19,0 -23.28,-4.95 -31.26,-12.99 -8.01,-7.98 -12.97,-19.05 -12.97,-31.25 0,-12.22 4.95,-23.28 12.97,-31.27z"/>
   <path class="fil1" d="M3013.15 445.93c-13.76,-7.72 -27.55,-15.41 -41.35,-23.07l0 33.42c-5.58,-3.29 -11.59,-5.95 -17.93,-7.88 -7.74,-2.36 -15.94,-3.6 -24.43,-3.6 -8.48,0 -16.67,1.25 -24.4,3.6 -6.34,1.93 -12.34,4.58 -17.96,7.89l-0.02 -33.43 -41.33 23.07c0.1,55.01 0,110.07 0,165.07l41.35 23.09 0 -33.39c5.63,3.28 11.63,5.96 17.97,7.88 7.72,2.36 15.93,3.63 24.39,3.63 8.51,0 16.7,-1.28 24.43,-3.63 6.33,-1.92 12.34,-4.59 17.91,-7.88l0.02 33.39 41.36 -23.09 -0.01 -165.07zm-5.5 161.84l-30.31 16.91 -0.01 -34.15 -4.3 2.89c-6.32,4.26 -13.32,7.61 -20.76,9.89 -7.22,2.21 -14.9,3.37 -22.82,3.37 -7.91,0 -15.59,-1.17 -22.77,-3.37 -7.45,-2.29 -14.46,-5.63 -20.79,-9.89l-4.31 -2.89 0 34.14 -30.31 -16.9 0 -158.59 30.28 -16.89 0.02 34.2 4.31 -2.91c6.33,-4.26 13.33,-7.62 20.79,-9.91 7.19,-2.17 14.86,-3.34 22.78,-3.34 7.92,0 15.61,1.18 22.82,3.34 7.43,2.29 14.43,5.65 20.76,9.91l4.31 2.92 0.01 -34.21 30.3 16.89 0 158.59zm-78.21 -129.04c-13.72,0 -26.18,5.56 -35.19,14.58 -9,9.02 -14.57,21.46 -14.57,35.19 0,13.73 5.57,26.16 14.57,35.18 9.02,9.02 21.48,14.58 35.19,14.58 13.73,0 26.17,-5.56 35.19,-14.59 9.01,-9.02 14.59,-21.45 14.59,-35.17 0,-13.74 -5.58,-26.17 -14.58,-35.18 -9.04,-9.03 -21.48,-14.59 -35.2,-14.59zm-31.26 18.49c8,-8 19.06,-12.95 31.26,-12.95 12.24,0 23.28,4.94 31.29,12.94 8,8 12.92,19.07 12.92,31.29 0,12.19 -4.94,23.27 -12.92,31.25 -8.01,8.02 -19.05,12.97 -31.29,12.97 -12.2,0 -23.26,-4.95 -31.26,-12.97 -8,-7.98 -12.96,-19.06 -12.96,-31.25 0,-12.22 4.95,-23.29 12.96,-31.28z"/>
   <path class="fil1" d="M3180.51 234.69c-13.75,-7.71 -27.54,-15.4 -41.32,-23.09l-0.01 33.43c-5.59,-3.28 -11.62,-5.93 -17.95,-7.88 -7.74,-2.35 -15.94,-3.6 -24.42,-3.6 -8.51,0 -16.67,1.26 -24.4,3.6 -6.34,1.95 -12.36,4.59 -17.95,7.9l-0.01 -33.45 -41.36 23.09c0.1,55.02 0.01,110.08 0.01,165.08l41.36 23.08 0.01 -33.38c5.6,3.28 11.61,5.95 17.96,7.87 7.71,2.36 15.88,3.62 24.39,3.62 8.48,0 16.67,-1.27 24.42,-3.62 6.31,-1.92 12.34,-4.58 17.93,-7.87l0.01 33.39 41.33 -23.09 0 -165.08zm-5.51 161.83l-30.29 16.92 -0.02 -34.17 -4.3 2.92c-6.32,4.24 -13.31,7.61 -20.76,9.87 -7.21,2.2 -14.89,3.38 -22.8,3.38 -7.93,0 -15.61,-1.19 -22.81,-3.38 -7.43,-2.27 -14.44,-5.63 -20.77,-9.87l-4.31 -2.92 0 34.17 -30.3 -16.92 0 -158.57 30.28 -16.9 0.01 34.2 4.31 -2.9c6.33,-4.28 13.33,-7.64 20.78,-9.9 7.21,-2.19 14.88,-3.35 22.8,-3.35 7.93,0 15.61,1.17 22.81,3.35 7.42,2.26 14.43,5.61 20.76,9.9l4.32 2.91 0 -34.21 30.29 16.9 0 158.57zm-78.18 -129.03c-13.74,0 -26.2,5.55 -35.18,14.58 -9.03,9.02 -14.59,21.46 -14.59,35.17 0,13.76 5.56,26.19 14.59,35.2 8.99,9 21.45,14.58 35.18,14.58 13.74,0 26.17,-5.58 35.18,-14.59 9.01,-9.01 14.59,-21.44 14.59,-35.19 0,-13.72 -5.58,-26.16 -14.58,-35.16 -9.03,-9.04 -21.47,-14.59 -35.19,-14.59zm-31.28 18.48c8,-7.99 19.07,-12.95 31.28,-12.95 12.22,0 23.27,4.96 31.28,12.94 8,8.01 12.93,19.06 12.93,31.28 0,12.21 -4.95,23.28 -12.93,31.28 -8.01,8.02 -19.06,12.94 -31.28,12.94 -12.21,0 -23.28,-4.93 -31.28,-12.94 -8,-8 -12.95,-19.07 -12.95,-31.28 0,-12.22 4.95,-23.27 12.95,-31.27z"/>
   <path class="fil1" d="M3850.11 445.93c-13.77,-7.72 -27.57,-15.41 -41.36,-23.07l0 33.42c-5.58,-3.29 -11.61,-5.95 -17.95,-7.88 -7.73,-2.36 -15.91,-3.6 -24.41,-3.6 -8.49,0 -16.67,1.25 -24.4,3.6 -6.34,1.93 -12.34,4.58 -17.94,7.89l-0.02 -33.43 -41.35 23.07c0.1,55.01 0,110.07 0,165.07l41.37 23.09 0.01 -33.39c5.59,3.28 11.59,5.96 17.94,7.88 7.73,2.36 15.91,3.63 24.39,3.63 8.52,0 16.68,-1.28 24.41,-3.63 6.34,-1.92 12.36,-4.59 17.93,-7.88l0.02 33.39 41.37 -23.09 -0.01 -165.07zm-5.52 161.84l-30.31 16.91 -0.01 -34.15 -4.29 2.89c-6.31,4.26 -13.32,7.61 -20.76,9.89 -7.22,2.21 -14.89,3.37 -22.82,3.37 -7.91,0 -15.6,-1.17 -22.77,-3.37 -7.46,-2.29 -14.47,-5.63 -20.82,-9.89l-4.27 -2.89 -0.01 34.14 -30.3 -16.9 0 -158.59 30.28 -16.89 0.02 34.2 4.28 -2.91c6.34,-4.26 13.34,-7.62 20.81,-9.91 7.19,-2.17 14.86,-3.34 22.78,-3.34 7.93,0 15.61,1.18 22.82,3.34 7.43,2.29 14.43,5.65 20.76,9.91l4.3 2.92 0 -34.21 30.31 16.89 0 158.59zm-78.2 -129.04c-13.74,0 -26.17,5.56 -35.18,14.58 -9.02,9.02 -14.59,21.46 -14.59,35.19 0,13.73 5.57,26.16 14.59,35.18 9.02,9.02 21.45,14.58 35.18,14.58 13.73,0 26.16,-5.56 35.18,-14.59 9.01,-9.02 14.59,-21.45 14.59,-35.17 0,-13.74 -5.58,-26.17 -14.59,-35.18 -9.03,-9.03 -21.47,-14.59 -35.18,-14.59zm-31.27 18.49c8.01,-8 19.07,-12.95 31.27,-12.95 12.23,0 23.28,4.94 31.27,12.94 8.04,8 12.94,19.07 12.94,31.29 0,12.19 -4.92,23.27 -12.94,31.25 -7.99,8.02 -19.04,12.97 -31.27,12.97 -12.2,0 -23.26,-4.95 -31.27,-12.97 -7.99,-7.98 -12.96,-19.06 -12.96,-31.25 0,-12.22 4.97,-23.29 12.96,-31.28z"/>
   <path class="fil1" d="M4352.31 234.69c-13.77,-7.71 -27.57,-15.4 -41.34,-23.09l-0.01 33.43c-5.59,-3.28 -11.61,-5.93 -17.96,-7.88 -7.72,-2.35 -15.92,-3.6 -24.4,-3.6 -8.49,0 -16.68,1.26 -24.39,3.6 -6.35,1.95 -12.37,4.59 -17.98,7.9l-0.02 -33.45 -41.34 23.09c0.1,55.02 0,110.08 0,165.08l41.36 23.08 0 -33.38c5.61,3.28 11.64,5.95 18,7.87 7.69,2.36 15.89,3.62 24.38,3.62 8.49,0 16.67,-1.27 24.39,-3.62 6.34,-1.92 12.36,-4.58 17.95,-7.87l0.01 33.39 41.36 -23.09 -0.01 -165.08zm-5.53 161.83l-30.3 16.92 -0.01 -34.17 -4.3 2.92c-6.31,4.24 -13.29,7.61 -20.74,9.87 -7.23,2.2 -14.91,3.38 -22.81,3.38 -7.93,0 -15.6,-1.19 -22.8,-3.38 -7.45,-2.27 -14.43,-5.63 -20.78,-9.87l-4.29 -2.92 -0.01 34.17 -30.31 -16.92 0 -158.57 30.3 -16.9 0.01 34.2 4.28 -2.9c6.35,-4.28 13.34,-7.64 20.8,-9.9 7.21,-2.19 14.85,-3.35 22.79,-3.35 7.92,0 15.6,1.17 22.82,3.35 7.42,2.26 14.42,5.61 20.74,9.9l4.31 2.91 0.01 -34.21 30.29 16.9 0 158.57zm-78.17 -129.03c-13.76,0 -26.2,5.55 -35.19,14.58 -9.01,9.02 -14.58,21.46 -14.58,35.17 0,13.76 5.57,26.19 14.58,35.2 9,9 21.44,14.58 35.19,14.58 13.73,0 26.16,-5.58 35.18,-14.59 9.02,-9.01 14.56,-21.44 14.56,-35.19 0,-13.72 -5.54,-26.16 -14.55,-35.16 -9.04,-9.04 -21.48,-14.59 -35.19,-14.59zm-31.26 18.48c7.98,-7.99 19.04,-12.95 31.26,-12.95 12.23,0 23.27,4.96 31.26,12.94 8.02,8.01 12.96,19.06 12.96,31.28 0,12.21 -4.95,23.28 -12.96,31.28 -7.99,8.02 -19.03,12.94 -31.26,12.94 -12.22,0 -23.28,-4.93 -31.26,-12.94 -8.02,-8 -12.97,-19.07 -12.97,-31.28 0,-12.22 4.94,-23.27 12.97,-31.27z"/>
  </g>
 </g>
</svg>
