<?xml version="1.0" encoding="UTF-8"?>
<!DOCTYPE svg PUBLIC "-//W3C//DTD SVG 1.1//EN" "http://www.w3.org/Graphics/SVG/1.1/DTD/svg11.dtd">
<!-- Creator: CorelDRAW 2021.5 -->
<svg xmlns="http://www.w3.org/2000/svg" xml:space="preserve" width="160.692mm" height="8.4666mm" version="1.1" style="shape-rendering:geometricPrecision; text-rendering:geometricPrecision; image-rendering:optimizeQuality; fill-rule:evenodd; clip-rule:evenodd"
viewBox="0 0 16258.18 856.62"
 xmlns:xlink="http://www.w3.org/1999/xlink"
 xmlns:xodm="http://www.corel.com/coreldraw/odm/2003">
 <defs>
  <style type="text/css">
   <![CDATA[
    .fil0 {fill:#11AB68;fill-rule:nonzero}
    .fil1 {fill:gray;fill-rule:nonzero}
   ]]>
  </style>
 </defs>
 <g id="Слой_x0020_1">
  <metadata id="CorelCorpID_0Corel-Layer"/>
  <g id="_2187234059792">
   <path class="fil0" d="M11573.33 642.47l5.61 0 -26.52 26.51 16.11 16.11c3.3,-4.52 6.96,-8.79 10.94,-12.77 4.17,-4.18 8.67,-7.99 13.44,-11.42 -1.69,-5.85 -2.59,-12.03 -2.59,-18.42l0 0 4.28 0 0 0c0,5.47 0.71,10.79 2.04,15.85 11.63,-7.66 24.69,-13.09 38.44,-15.85l43.25 0c13.74,2.76 26.8,8.2 38.43,15.85 1.34,-5.07 2.04,-10.38 2.04,-15.85l0 0 4.29 0 0 0c0,6.39 -0.91,12.58 -2.59,18.42 4.77,3.43 9.26,7.24 13.43,11.42 3.98,3.97 7.63,8.25 10.94,12.78l16.11 -16.12 -26.52 -26.51 5.61 0 23.72 23.71 0 5.62 -16.59 16.6c8.04,11.91 13.76,25.41 16.59,39.52l0 43.25c-2.8,13.96 -8.27,26.95 -15.84,38.44l-0.75 1.09 16.59 16.6 0 5.61 -23.72 23.72 -5.61 0 26.52 -26.52 -16.14 -16.14c-3.32,4.51 -6.77,8.67 -10.91,12.81 -4.17,4.17 -8.67,7.99 -13.44,11.42 1.69,5.85 2.59,12.03 2.6,18.42l-4.29 0c0,-5.47 -0.71,-10.8 -2.04,-15.85 -11.63,7.66 -24.69,13.09 -38.43,15.85l-43.25 0 0 0c-13.75,-2.76 -26.81,-8.2 -38.44,-15.85 -1.33,5.06 -2.04,10.38 -2.04,15.85l-4.28 0c0,-6.39 0.91,-12.58 2.59,-18.42 -4.77,-3.43 -9.27,-7.25 -13.44,-11.42 -3.98,-3.98 -7.64,-8.26 -10.94,-12.78l-16.11 16.11 26.52 26.52 -5.61 0 -23.72 -23.72 0 -5.61 16.59 -16.59c-8.05,-11.9 -13.74,-25.35 -16.59,-39.54l0 -43.25c2.85,-14.18 8.54,-27.63 16.59,-39.54l-16.59 -16.58 0 -5.62 23.72 -23.71zm38.37 105.88l0 2.39c0.01,-0.8 0.01,-1.59 0,-2.39zm-0.02 2.98c-0.3,1.04 -0.86,1.97 -1.61,2.72 -1.15,1.15 -2.75,1.86 -4.51,1.86 -1.76,0 -3.36,-0.71 -4.51,-1.86 -0.65,-0.66 -1.15,-1.44 -1.48,-2.32l-29.6 0c0,-1.58 0,-3.15 0,-4.72l29.56 0 0.18 -0.03c0.32,-0.73 0.78,-1.39 1.34,-1.94 1.15,-1.17 2.75,-1.88 4.51,-1.88 1.76,0 3.36,0.71 4.51,1.87 0.75,0.75 1.31,1.69 1.61,2.73 -0.44,-15.31 -6.49,-30.47 -18.15,-42.14 -6.62,-6.62 -14.73,-11.75 -23.78,-14.85 -11.36,16.76 -17.99,37 -17.99,58.77 0,21.77 6.63,42 17.99,58.76 9.05,-3.1 17.16,-8.23 23.78,-14.85 11.67,-11.67 17.72,-26.82 18.15,-42.12zm-4.63 -3.28c-0.38,-0.37 -0.91,-0.62 -1.49,-0.62 -0.58,0 -1.1,0.24 -1.49,0.62 -0.37,0.37 -0.61,0.9 -0.61,1.49 0,0.58 0.23,1.1 0.61,1.48 0.38,0.38 0.91,0.62 1.49,0.62 0.58,0 1.1,-0.23 1.48,-0.62 0.38,-0.37 0.62,-0.9 0.62,-1.48 0,-0.59 -0.23,-1.11 -0.61,-1.49zm51.49 -43.53c15.28,-0.46 30.42,-6.51 42.07,-18.15 6.63,-6.62 11.76,-14.73 14.86,-23.79 -16.78,-11.35 -37,-17.99 -58.77,-17.99 -21.77,0 -42,6.64 -58.76,17.99 3.1,9.06 8.24,17.17 14.85,23.79 11.64,11.65 26.77,17.69 42.04,18.15 -1.02,-0.31 -1.92,-0.87 -2.66,-1.6 -1.15,-1.15 -1.86,-2.75 -1.86,-4.51 0,-1.76 0.71,-3.36 1.87,-4.51 0.56,-0.55 1.21,-1 1.94,-1.33l0.03 -0.19 0 -29.55c1.58,0 3.16,0 4.74,0l0 29.59c0.87,0.33 1.66,0.84 2.31,1.48 1.15,1.15 1.87,2.75 1.87,4.51 0,1.76 -0.72,3.36 -1.87,4.51 -0.73,0.73 -1.63,1.28 -2.65,1.6zm-3.34 -4.62c0.37,0.38 0.9,0.62 1.48,0.62 0.58,0 1.1,-0.24 1.49,-0.62 0.37,-0.37 0.61,-0.91 0.61,-1.49 0,-0.58 -0.23,-1.1 -0.61,-1.49 -0.37,-0.36 -0.9,-0.61 -1.49,-0.61 -0.58,0 -1.1,0.23 -1.48,0.62 -0.38,0.37 -0.62,0.9 -0.62,1.48 0,0.58 0.23,1.11 0.62,1.49zm46.52 51.57c0.48,15.25 6.52,30.35 18.14,41.98 6.62,6.63 14.73,11.76 23.79,14.85 11.35,-16.76 17.99,-36.99 17.99,-58.76 0,-21.77 -6.64,-42.01 -17.99,-58.77 -9.06,3.11 -17.17,8.24 -23.79,14.85 -11.63,11.64 -17.68,26.74 -18.14,41.99 0.3,-0.98 0.85,-1.86 1.57,-2.58 1.15,-1.16 2.74,-1.87 4.5,-1.87 1.77,0 3.36,0.71 4.51,1.88 0.56,0.56 1.01,1.21 1.34,1.94l0.18 0.03 29.56 0c0,1.58 0,3.15 0,4.72l-29.6 0c-0.31,0.88 -0.83,1.66 -1.48,2.32 -1.15,1.15 -2.74,1.86 -4.51,1.86 -1.76,0 -3.35,-0.71 -4.5,-1.86 -0.72,-0.72 -1.25,-1.6 -1.57,-2.58zm4.59 -3.42c-0.38,0.37 -0.62,0.9 -0.62,1.49 0,0.58 0.24,1.1 0.62,1.48 0.38,0.38 0.91,0.62 1.48,0.62 0.59,0 1.11,-0.23 1.49,-0.62 0.37,-0.37 0.62,-0.9 0.62,-1.48 0,-0.59 -0.24,-1.11 -0.62,-1.49 -0.37,-0.37 -0.9,-0.62 -1.49,-0.62 -0.57,0 -1.09,0.24 -1.48,0.62zm-47.78 46.5c1.02,0.31 1.92,0.86 2.65,1.59 1.15,1.15 1.87,2.75 1.87,4.51 0,1.76 -0.72,3.36 -1.87,4.51 -0.65,0.65 -1.44,1.15 -2.31,1.48l0 29.6c-1.58,0 -3.16,0 -4.74,0l0 -29.56 -0.03 -0.18c-0.73,-0.32 -1.39,-0.78 -1.94,-1.34 -1.16,-1.15 -1.87,-2.75 -1.87,-4.51 0,-1.76 0.71,-3.36 1.86,-4.51 0.74,-0.73 1.64,-1.27 2.66,-1.59 -15.27,0.46 -30.4,6.51 -42.04,18.15 -6.62,6.62 -11.76,14.72 -14.85,23.78 16.76,11.36 36.99,17.99 58.76,17.99 21.77,0 42,-6.63 58.77,-17.99 -3.11,-9.06 -8.24,-17.16 -14.86,-23.78 -11.65,-11.66 -26.79,-17.71 -42.07,-18.15zm-3.34 4.61c-0.38,0.38 -0.62,0.91 -0.62,1.49 0,0.58 0.23,1.1 0.62,1.49 0.37,0.37 0.9,0.61 1.48,0.61 0.59,0 1.11,-0.23 1.49,-0.61 0.37,-0.38 0.61,-0.91 0.61,-1.49 0,-0.58 -0.23,-1.1 -0.61,-1.48 -0.38,-0.38 -0.91,-0.62 -1.49,-0.62 -0.58,0 -1.1,0.23 -1.48,0.61zm12.18 -36.29l-3.76 0 0.02 -0.47c0.06,-2.18 0.11,-4.35 0.14,-6.51 0.03,-1.93 0.04,-3.96 0.05,-6.06l-14.36 0c0,2.01 0.02,4.04 0.04,6.06 0.04,2.16 0.08,4.33 0.15,6.51l0.01 0.47 -4.21 0 0.01 -0.47c0.12,-4.24 0.18,-8.54 0.18,-12.87 0,-4.34 -0.06,-8.64 -0.18,-12.88l-0.01 -0.46 4.21 0 -0.01 0.46c-0.05,1.85 -0.1,3.68 -0.13,5.51l-0.05 5.06 14.34 0 -0.05 -5.06c-0.04,-1.83 -0.08,-3.66 -0.13,-5.51l-0.02 -0.46 4.22 0 -0.01 0.46c-0.12,4.25 -0.19,8.54 -0.19,12.88 0,4.33 0.07,8.62 0.19,12.87l0.01 0.47 -0.46 0zm27.92 -13.34c-17.04,-9.69 -29.91,-22.56 -38.6,-38.61 -8.7,16.05 -21.57,28.92 -38.61,38.61 17.04,9.69 29.91,22.56 38.61,38.6 8.69,-16.04 21.56,-28.91 38.6,-38.6zm-79.37 -3.35c17.19,-9.54 27.83,-20.16 37.41,-37.43 -17,-0.85 -32.32,-8.08 -43.6,-19.37 -6.78,-6.78 -12.1,-15.03 -15.45,-24.23 -4.19,3.1 -8.13,6.5 -11.81,10.17 -3.67,3.67 -7.07,7.62 -10.17,11.8 9.2,3.35 17.45,8.67 24.24,15.46 11.27,11.27 18.52,26.59 19.37,43.6zm44.12 -37.43c9.53,17.18 20.16,27.84 37.41,37.41 0.85,-17 8.08,-32.32 19.37,-43.59 6.78,-6.79 15.03,-12.11 24.23,-15.46 -3.1,-4.19 -6.5,-8.12 -10.17,-11.8 -3.67,-3.67 -7.62,-7.07 -11.8,-10.17 -3.35,9.2 -8.67,17.45 -15.46,24.23 -11.28,11.28 -26.59,18.52 -43.59,19.37zm37.41 44.13c-17.25,9.57 -27.88,20.23 -37.41,37.41 17,0.84 32.31,8.08 43.59,19.36 6.79,6.79 12.11,15.04 15.46,24.24 4.18,-3.1 8.12,-6.51 11.8,-10.18 3.67,-3.66 7.07,-7.61 10.17,-11.8 -9.2,-3.35 -17.45,-8.67 -24.23,-15.45 -11.28,-11.28 -18.52,-26.6 -19.37,-43.59zm-44.12 37.41c-9.58,-17.26 -20.23,-27.89 -37.41,-37.43 -0.85,17 -8.09,32.32 -19.37,43.6 -6.79,6.78 -15.04,12.1 -24.24,15.45 3.1,4.19 6.5,8.13 10.17,11.8 3.67,3.67 7.62,7.08 11.8,10.18 3.36,-9.2 8.68,-17.45 15.46,-24.24 11.28,-11.27 26.6,-18.52 43.6,-19.36z"/>
   <path class="fil0" d="M12215.79 214.16l5.61 0 -26.52 26.51 16.11 16.11c3.3,-4.52 6.96,-8.79 10.94,-12.77 4.17,-4.18 8.67,-7.99 13.44,-11.42 -1.69,-5.85 -2.59,-12.03 -2.59,-18.42l0 0 4.28 0 0 0c0,5.47 0.71,10.79 2.04,15.85 11.63,-7.66 24.69,-13.09 38.44,-15.85l43.25 0c13.74,2.76 26.8,8.2 38.43,15.85 1.34,-5.07 2.04,-10.38 2.04,-15.85l0 0 4.29 0 0 0c0,6.39 -0.91,12.58 -2.59,18.42 4.77,3.43 9.26,7.24 13.43,11.42 3.98,3.97 7.63,8.25 10.94,12.78l16.11 -16.12 -26.52 -26.51 5.61 0 23.72 23.71 0 5.62 -16.59 16.6c8.04,11.91 13.76,25.41 16.59,39.52l0 43.25c-2.8,13.96 -8.27,26.95 -15.84,38.44l-0.75 1.09 16.59 16.6 0 5.61 -23.72 23.72 -5.61 0 26.52 -26.52 -16.14 -16.14c-3.32,4.51 -6.77,8.67 -10.91,12.81 -4.17,4.17 -8.67,7.99 -13.44,11.42 1.69,5.85 2.59,12.03 2.6,18.42l-4.29 0c0,-5.47 -0.71,-10.8 -2.04,-15.85 -11.63,7.66 -24.69,13.09 -38.43,15.85l-43.25 0 0 0c-13.75,-2.76 -26.81,-8.2 -38.44,-15.85 -1.33,5.06 -2.04,10.38 -2.04,15.85l-4.28 0c0,-6.39 0.91,-12.58 2.59,-18.42 -4.77,-3.43 -9.27,-7.25 -13.44,-11.42 -3.98,-3.98 -7.64,-8.26 -10.94,-12.78l-16.11 16.11 26.52 26.52 -5.61 0 -23.72 -23.72 0 -5.61 16.59 -16.59c-8.05,-11.9 -13.74,-25.35 -16.59,-39.54l0 -43.25c2.85,-14.18 8.54,-27.63 16.59,-39.54l-16.59 -16.58 0 -5.62 23.72 -23.71zm38.37 105.88l0 2.39c0.01,-0.8 0.01,-1.59 0,-2.39zm-0.02 2.98c-0.3,1.04 -0.86,1.97 -1.61,2.72 -1.15,1.15 -2.75,1.86 -4.51,1.86 -1.76,0 -3.36,-0.71 -4.51,-1.86 -0.65,-0.66 -1.15,-1.44 -1.48,-2.32l-29.6 0c0,-1.58 0,-3.15 0,-4.72l29.56 0 0.18 -0.03c0.32,-0.73 0.78,-1.39 1.34,-1.94 1.15,-1.17 2.75,-1.88 4.51,-1.88 1.76,0 3.36,0.71 4.51,1.87 0.75,0.75 1.31,1.69 1.61,2.73 -0.44,-15.31 -6.49,-30.47 -18.15,-42.14 -6.62,-6.62 -14.73,-11.75 -23.78,-14.85 -11.36,16.76 -17.99,37 -17.99,58.77 0,21.77 6.63,42 17.99,58.76 9.05,-3.1 17.16,-8.23 23.78,-14.85 11.67,-11.67 17.72,-26.82 18.15,-42.12zm-4.63 -3.28c-0.38,-0.37 -0.91,-0.62 -1.49,-0.62 -0.58,0 -1.1,0.24 -1.49,0.62 -0.37,0.37 -0.61,0.9 -0.61,1.49 0,0.58 0.23,1.1 0.61,1.48 0.38,0.38 0.91,0.62 1.49,0.62 0.58,0 1.1,-0.23 1.48,-0.62 0.38,-0.37 0.62,-0.9 0.62,-1.48 0,-0.59 -0.23,-1.11 -0.61,-1.49zm51.49 -43.53c15.28,-0.46 30.42,-6.51 42.07,-18.15 6.63,-6.62 11.76,-14.73 14.86,-23.79 -16.78,-11.35 -37,-17.99 -58.77,-17.99 -21.77,0 -42,6.64 -58.76,17.99 3.1,9.06 8.24,17.17 14.85,23.79 11.64,11.65 26.77,17.69 42.04,18.15 -1.02,-0.31 -1.92,-0.87 -2.66,-1.6 -1.15,-1.15 -1.86,-2.75 -1.86,-4.51 0,-1.76 0.71,-3.36 1.87,-4.51 0.56,-0.55 1.21,-1 1.94,-1.33l0.03 -0.19 0 -29.55c1.58,0 3.16,0 4.74,0l0 29.59c0.87,0.33 1.66,0.84 2.31,1.48 1.15,1.15 1.87,2.75 1.87,4.51 0,1.76 -0.72,3.36 -1.87,4.51 -0.73,0.73 -1.63,1.28 -2.65,1.6zm-3.34 -4.62c0.37,0.38 0.9,0.62 1.48,0.62 0.58,0 1.1,-0.24 1.49,-0.62 0.37,-0.37 0.61,-0.91 0.61,-1.49 0,-0.58 -0.23,-1.1 -0.61,-1.49 -0.37,-0.36 -0.9,-0.61 -1.49,-0.61 -0.58,0 -1.1,0.23 -1.48,0.62 -0.38,0.37 -0.62,0.9 -0.62,1.48 0,0.58 0.23,1.11 0.62,1.49zm46.52 51.57c0.48,15.25 6.52,30.35 18.14,41.98 6.62,6.63 14.73,11.76 23.79,14.85 11.35,-16.76 17.99,-36.99 17.99,-58.76 0,-21.77 -6.64,-42.01 -17.99,-58.77 -9.06,3.11 -17.17,8.24 -23.79,14.85 -11.63,11.64 -17.68,26.74 -18.14,41.99 0.3,-0.98 0.85,-1.86 1.57,-2.58 1.15,-1.16 2.74,-1.87 4.5,-1.87 1.77,0 3.36,0.71 4.51,1.88 0.56,0.56 1.01,1.21 1.34,1.94l0.18 0.03 29.56 0c0,1.58 0,3.15 0,4.72l-29.6 0c-0.31,0.88 -0.83,1.66 -1.48,2.32 -1.15,1.15 -2.74,1.86 -4.51,1.86 -1.76,0 -3.35,-0.71 -4.5,-1.86 -0.72,-0.72 -1.25,-1.6 -1.57,-2.58zm4.59 -3.42c-0.38,0.37 -0.62,0.9 -0.62,1.49 0,0.58 0.24,1.1 0.62,1.48 0.38,0.38 0.91,0.62 1.48,0.62 0.59,0 1.11,-0.23 1.49,-0.62 0.37,-0.37 0.62,-0.9 0.62,-1.48 0,-0.59 -0.24,-1.11 -0.62,-1.49 -0.37,-0.37 -0.9,-0.62 -1.49,-0.62 -0.57,0 -1.09,0.24 -1.48,0.62zm-47.78 46.5c1.02,0.31 1.92,0.86 2.65,1.59 1.15,1.15 1.87,2.75 1.87,4.51 0,1.76 -0.72,3.36 -1.87,4.51 -0.65,0.65 -1.44,1.15 -2.31,1.48l0 29.6c-1.58,0 -3.16,0 -4.74,0l0 -29.56 -0.03 -0.18c-0.73,-0.32 -1.39,-0.78 -1.94,-1.34 -1.16,-1.15 -1.87,-2.75 -1.87,-4.51 0,-1.76 0.71,-3.36 1.86,-4.51 0.74,-0.73 1.64,-1.27 2.66,-1.59 -15.27,0.46 -30.4,6.51 -42.04,18.15 -6.62,6.62 -11.76,14.72 -14.85,23.78 16.76,11.36 36.99,17.99 58.76,17.99 21.77,0 42,-6.63 58.77,-17.99 -3.11,-9.06 -8.24,-17.16 -14.86,-23.78 -11.65,-11.66 -26.79,-17.71 -42.07,-18.15zm-3.34 4.61c-0.38,0.38 -0.62,0.91 -0.62,1.49 0,0.58 0.23,1.1 0.62,1.49 0.37,0.37 0.9,0.61 1.48,0.61 0.59,0 1.11,-0.23 1.49,-0.61 0.37,-0.38 0.61,-0.91 0.61,-1.49 0,-0.58 -0.23,-1.1 -0.61,-1.48 -0.38,-0.38 -0.91,-0.62 -1.49,-0.62 -0.58,0 -1.1,0.23 -1.48,0.61zm12.18 -36.29l-3.76 0 0.02 -0.47c0.06,-2.18 0.11,-4.35 0.14,-6.51 0.03,-1.93 0.04,-3.96 0.05,-6.06l-14.36 0c0,2.01 0.02,4.04 0.04,6.06 0.04,2.16 0.08,4.33 0.15,6.51l0.01 0.47 -4.21 0 0.01 -0.47c0.12,-4.24 0.18,-8.54 0.18,-12.87 0,-4.34 -0.06,-8.64 -0.18,-12.88l-0.01 -0.46 4.21 0 -0.01 0.46c-0.05,1.85 -0.1,3.68 -0.13,5.51l-0.05 5.06 14.34 0 -0.05 -5.06c-0.04,-1.83 -0.08,-3.66 -0.13,-5.51l-0.02 -0.46 4.22 0 -0.01 0.46c-0.12,4.25 -0.19,8.54 -0.19,12.88 0,4.33 0.07,8.62 0.19,12.87l0.01 0.47 -0.46 0zm27.92 -13.34c-17.04,-9.69 -29.91,-22.56 -38.6,-38.61 -8.7,16.05 -21.57,28.92 -38.61,38.61 17.04,9.69 29.91,22.56 38.61,38.6 8.69,-16.04 21.56,-28.91 38.6,-38.6zm-79.37 -3.35c17.19,-9.54 27.83,-20.16 37.41,-37.43 -17,-0.85 -32.32,-8.08 -43.6,-19.37 -6.78,-6.78 -12.1,-15.03 -15.45,-24.23 -4.19,3.1 -8.13,6.5 -11.81,10.17 -3.67,3.67 -7.07,7.62 -10.17,11.8 9.2,3.35 17.45,8.67 24.24,15.46 11.27,11.27 18.52,26.59 19.37,43.6zm44.12 -37.43c9.53,17.18 20.16,27.84 37.41,37.41 0.85,-17 8.08,-32.32 19.37,-43.59 6.78,-6.79 15.03,-12.11 24.23,-15.46 -3.1,-4.19 -6.5,-8.12 -10.17,-11.8 -3.67,-3.67 -7.62,-7.07 -11.8,-10.17 -3.35,9.2 -8.67,17.45 -15.46,24.23 -11.28,11.28 -26.59,18.52 -43.59,19.37zm37.41 44.13c-17.25,9.57 -27.88,20.23 -37.41,37.41 17,0.84 32.31,8.08 43.59,19.36 6.79,6.79 12.11,15.04 15.46,24.24 4.18,-3.1 8.12,-6.51 11.8,-10.18 3.67,-3.66 7.07,-7.61 10.17,-11.8 -9.2,-3.35 -17.45,-8.67 -24.23,-15.45 -11.28,-11.28 -18.52,-26.6 -19.37,-43.59zm-44.12 37.41c-9.58,-17.26 -20.23,-27.89 -37.41,-37.43 -0.85,17 -8.09,32.32 -19.37,43.6 -6.79,6.78 -15.04,12.1 -24.24,15.45 3.1,4.19 6.5,8.13 10.17,11.8 3.67,3.67 7.62,7.08 11.8,10.18 3.36,-9.2 8.68,-17.45 15.46,-24.24 11.28,-11.27 26.6,-18.52 43.6,-19.36z"/>
   <path class="fil0" d="M12644.1 214.16l5.61 0 -26.52 26.51 16.11 16.11c3.3,-4.52 6.96,-8.79 10.94,-12.77 4.17,-4.18 8.67,-7.99 13.44,-11.42 -1.69,-5.85 -2.59,-12.03 -2.59,-18.42l0 0 4.28 0 0 0c0,5.47 0.71,10.79 2.04,15.85 11.63,-7.66 24.69,-13.09 38.44,-15.85l43.25 0c13.74,2.76 26.8,8.2 38.43,15.85 1.34,-5.07 2.04,-10.38 2.04,-15.85l0 0 4.29 0 0 0c0,6.39 -0.91,12.58 -2.59,18.42 4.77,3.43 9.26,7.24 13.43,11.42 3.98,3.97 7.63,8.25 10.94,12.78l16.11 -16.12 -26.52 -26.51 5.61 0 23.72 23.71 0 5.62 -16.59 16.6c8.04,11.91 13.76,25.41 16.59,39.52l0 43.25c-2.8,13.96 -8.27,26.95 -15.84,38.44l-0.75 1.09 16.59 16.6 0 5.61 -23.72 23.72 -5.61 0 26.52 -26.52 -16.14 -16.14c-3.32,4.51 -6.77,8.67 -10.91,12.81 -4.17,4.17 -8.67,7.99 -13.44,11.42 1.69,5.85 2.59,12.03 2.6,18.42l-4.29 0c0,-5.47 -0.71,-10.8 -2.04,-15.85 -11.63,7.66 -24.69,13.09 -38.43,15.85l-43.25 0 0 0c-13.75,-2.76 -26.81,-8.2 -38.44,-15.85 -1.33,5.06 -2.04,10.38 -2.04,15.85l-4.28 0c0,-6.39 0.91,-12.58 2.59,-18.42 -4.77,-3.43 -9.27,-7.25 -13.44,-11.42 -3.98,-3.98 -7.64,-8.26 -10.94,-12.78l-16.11 16.11 26.52 26.52 -5.61 0 -23.72 -23.72 0 -5.61 16.59 -16.59c-8.05,-11.9 -13.74,-25.35 -16.59,-39.54l0 -43.25c2.85,-14.18 8.54,-27.63 16.59,-39.54l-16.59 -16.58 0 -5.62 23.72 -23.71zm38.37 105.88l0 2.39c0.01,-0.8 0.01,-1.59 0,-2.39zm-0.02 2.98c-0.3,1.04 -0.86,1.97 -1.61,2.72 -1.15,1.15 -2.75,1.86 -4.51,1.86 -1.76,0 -3.36,-0.71 -4.51,-1.86 -0.65,-0.66 -1.15,-1.44 -1.48,-2.32l-29.6 0c0,-1.58 0,-3.15 0,-4.72l29.56 0 0.18 -0.03c0.32,-0.73 0.78,-1.39 1.34,-1.94 1.15,-1.17 2.75,-1.88 4.51,-1.88 1.76,0 3.36,0.71 4.51,1.87 0.75,0.75 1.31,1.69 1.61,2.73 -0.44,-15.31 -6.49,-30.47 -18.15,-42.14 -6.62,-6.62 -14.73,-11.75 -23.78,-14.85 -11.36,16.76 -17.99,37 -17.99,58.77 0,21.77 6.63,42 17.99,58.76 9.05,-3.1 17.16,-8.23 23.78,-14.85 11.67,-11.67 17.72,-26.82 18.15,-42.12zm-4.63 -3.28c-0.38,-0.37 -0.91,-0.62 -1.49,-0.62 -0.58,0 -1.1,0.24 -1.49,0.62 -0.37,0.37 -0.61,0.9 -0.61,1.49 0,0.58 0.23,1.1 0.61,1.48 0.38,0.38 0.91,0.62 1.49,0.62 0.58,0 1.1,-0.23 1.48,-0.62 0.38,-0.37 0.62,-0.9 0.62,-1.48 0,-0.59 -0.23,-1.11 -0.61,-1.49zm51.49 -43.53c15.28,-0.46 30.42,-6.51 42.07,-18.15 6.63,-6.62 11.76,-14.73 14.86,-23.79 -16.78,-11.35 -37,-17.99 -58.77,-17.99 -21.77,0 -42,6.64 -58.76,17.99 3.1,9.06 8.24,17.17 14.85,23.79 11.64,11.65 26.77,17.69 42.04,18.15 -1.02,-0.31 -1.92,-0.87 -2.66,-1.6 -1.15,-1.15 -1.86,-2.75 -1.86,-4.51 0,-1.76 0.71,-3.36 1.87,-4.51 0.56,-0.55 1.21,-1 1.94,-1.33l0.03 -0.19 0 -29.55c1.58,0 3.16,0 4.74,0l0 29.59c0.87,0.33 1.66,0.84 2.31,1.48 1.15,1.15 1.87,2.75 1.87,4.51 0,1.76 -0.72,3.36 -1.87,4.51 -0.73,0.73 -1.63,1.28 -2.65,1.6zm-3.34 -4.62c0.37,0.38 0.9,0.62 1.48,0.62 0.58,0 1.1,-0.24 1.49,-0.62 0.37,-0.37 0.61,-0.91 0.61,-1.49 0,-0.58 -0.23,-1.1 -0.61,-1.49 -0.37,-0.36 -0.9,-0.61 -1.49,-0.61 -0.58,0 -1.1,0.23 -1.48,0.62 -0.38,0.37 -0.62,0.9 -0.62,1.48 0,0.58 0.23,1.11 0.62,1.49zm46.52 51.57c0.48,15.25 6.52,30.35 18.14,41.98 6.62,6.63 14.73,11.76 23.79,14.85 11.35,-16.76 17.99,-36.99 17.99,-58.76 0,-21.77 -6.64,-42.01 -17.99,-58.77 -9.06,3.11 -17.17,8.24 -23.79,14.85 -11.63,11.64 -17.68,26.74 -18.14,41.99 0.3,-0.98 0.85,-1.86 1.57,-2.58 1.15,-1.16 2.74,-1.87 4.5,-1.87 1.77,0 3.36,0.71 4.51,1.88 0.56,0.56 1.01,1.21 1.34,1.94l0.18 0.03 29.56 0c0,1.58 0,3.15 0,4.72l-29.6 0c-0.31,0.88 -0.83,1.66 -1.48,2.32 -1.15,1.15 -2.74,1.86 -4.51,1.86 -1.76,0 -3.35,-0.71 -4.5,-1.86 -0.72,-0.72 -1.25,-1.6 -1.57,-2.58zm4.59 -3.42c-0.38,0.37 -0.62,0.9 -0.62,1.49 0,0.58 0.24,1.1 0.62,1.48 0.38,0.38 0.91,0.62 1.48,0.62 0.59,0 1.11,-0.23 1.49,-0.62 0.37,-0.37 0.62,-0.9 0.62,-1.48 0,-0.59 -0.24,-1.11 -0.62,-1.49 -0.37,-0.37 -0.9,-0.62 -1.49,-0.62 -0.57,0 -1.09,0.24 -1.48,0.62zm-47.78 46.5c1.02,0.31 1.92,0.86 2.65,1.59 1.15,1.15 1.87,2.75 1.87,4.51 0,1.76 -0.72,3.36 -1.87,4.51 -0.65,0.65 -1.44,1.15 -2.31,1.48l0 29.6c-1.58,0 -3.16,0 -4.74,0l0 -29.56 -0.03 -0.18c-0.73,-0.32 -1.39,-0.78 -1.94,-1.34 -1.16,-1.15 -1.87,-2.75 -1.87,-4.51 0,-1.76 0.71,-3.36 1.86,-4.51 0.74,-0.73 1.64,-1.27 2.66,-1.59 -15.27,0.46 -30.4,6.51 -42.04,18.15 -6.62,6.62 -11.76,14.72 -14.85,23.78 16.76,11.36 36.99,17.99 58.76,17.99 21.77,0 42,-6.63 58.77,-17.99 -3.11,-9.06 -8.24,-17.16 -14.86,-23.78 -11.65,-11.66 -26.79,-17.71 -42.07,-18.15zm-3.34 4.61c-0.38,0.38 -0.62,0.91 -0.62,1.49 0,0.58 0.23,1.1 0.62,1.49 0.37,0.37 0.9,0.61 1.48,0.61 0.59,0 1.11,-0.23 1.49,-0.61 0.37,-0.38 0.61,-0.91 0.61,-1.49 0,-0.58 -0.23,-1.1 -0.61,-1.48 -0.38,-0.38 -0.91,-0.62 -1.49,-0.62 -0.58,0 -1.1,0.23 -1.48,0.61zm12.18 -36.29l-3.76 0 0.02 -0.47c0.06,-2.18 0.11,-4.35 0.14,-6.51 0.03,-1.93 0.04,-3.96 0.05,-6.06l-14.36 0c0,2.01 0.02,4.04 0.04,6.06 0.04,2.16 0.08,4.33 0.15,6.51l0.01 0.47 -4.21 0 0.01 -0.47c0.12,-4.24 0.18,-8.54 0.18,-12.87 0,-4.34 -0.06,-8.64 -0.18,-12.88l-0.01 -0.46 4.21 0 -0.01 0.46c-0.05,1.85 -0.1,3.68 -0.13,5.51l-0.05 5.06 14.34 0 -0.05 -5.06c-0.04,-1.83 -0.08,-3.66 -0.13,-5.51l-0.02 -0.46 4.22 0 -0.01 0.46c-0.12,4.25 -0.19,8.54 -0.19,12.88 0,4.33 0.07,8.62 0.19,12.87l0.01 0.47 -0.46 0zm27.92 -13.34c-17.04,-9.69 -29.91,-22.56 -38.6,-38.61 -8.7,16.05 -21.57,28.92 -38.61,38.61 17.04,9.69 29.91,22.56 38.61,38.6 8.69,-16.04 21.56,-28.91 38.6,-38.6zm-79.37 -3.35c17.19,-9.54 27.83,-20.16 37.41,-37.43 -17,-0.85 -32.32,-8.08 -43.6,-19.37 -6.78,-6.78 -12.1,-15.03 -15.45,-24.23 -4.19,3.1 -8.13,6.5 -11.81,10.17 -3.67,3.67 -7.07,7.62 -10.17,11.8 9.2,3.35 17.45,8.67 24.24,15.46 11.27,11.27 18.52,26.59 19.37,43.6zm44.12 -37.43c9.53,17.18 20.16,27.84 37.41,37.41 0.85,-17 8.08,-32.32 19.37,-43.59 6.78,-6.79 15.03,-12.11 24.23,-15.46 -3.1,-4.19 -6.5,-8.12 -10.17,-11.8 -3.67,-3.67 -7.62,-7.07 -11.8,-10.17 -3.35,9.2 -8.67,17.45 -15.46,24.23 -11.28,11.28 -26.59,18.52 -43.59,19.37zm37.41 44.13c-17.25,9.57 -27.88,20.23 -37.41,37.41 17,0.84 32.31,8.08 43.59,19.36 6.79,6.79 12.11,15.04 15.46,24.24 4.18,-3.1 8.12,-6.51 11.8,-10.18 3.67,-3.66 7.07,-7.61 10.17,-11.8 -9.2,-3.35 -17.45,-8.67 -24.23,-15.45 -11.28,-11.28 -18.52,-26.6 -19.37,-43.59zm-44.12 37.41c-9.58,-17.26 -20.23,-27.89 -37.41,-37.43 -0.85,17 -8.09,32.32 -19.37,43.6 -6.79,6.78 -15.04,12.1 -24.24,15.45 3.1,4.19 6.5,8.13 10.17,11.8 3.67,3.67 7.62,7.08 11.8,10.18 3.36,-9.2 8.68,-17.45 15.46,-24.24 11.28,-11.27 26.6,-18.52 43.6,-19.36z"/>
   <path class="fil0" d="M13069.59 642.47l5.62 0 -26.52 26.51 16.1 16.11c3.31,-4.52 6.96,-8.79 10.94,-12.77 4.18,-4.18 8.67,-7.99 13.44,-11.42 -1.68,-5.85 -2.59,-12.03 -2.59,-18.42l0 0 4.28 0 0 0c0,5.47 0.72,10.79 2.04,15.85 11.64,-7.66 24.7,-13.09 38.44,-15.85l43.25 0c13.74,2.76 26.81,8.2 38.44,15.85 1.34,-5.07 2.04,-10.38 2.04,-15.85l0 0 4.28 0 0 0c0,6.39 -0.9,12.58 -2.59,18.42 4.77,3.43 9.27,7.24 13.44,11.42 3.97,3.97 7.62,8.25 10.93,12.78l16.12 -16.12 -26.52 -26.51 5.61 0 23.72 23.71 0 5.62 -16.6 16.6c8.05,11.91 13.77,25.41 16.6,39.52l0 43.25c-2.8,13.96 -8.28,26.95 -15.84,38.44l-0.76 1.09 16.6 16.6 0 5.61 -23.72 23.72 -5.61 0 26.52 -26.52 -16.14 -16.14c-3.32,4.51 -6.77,8.67 -10.91,12.81 -4.18,4.17 -8.67,7.99 -13.45,11.42 1.69,5.85 2.6,12.03 2.6,18.42l-4.28 0c-0.01,-5.47 -0.72,-10.8 -2.05,-15.85 -11.63,7.66 -24.69,13.09 -38.43,15.85l-43.25 0 0 0c-13.74,-2.76 -26.8,-8.2 -38.43,-15.85 -1.34,5.06 -2.04,10.38 -2.05,15.85l-4.28 0c0,-6.39 0.91,-12.58 2.6,-18.42 -4.77,-3.43 -9.27,-7.25 -13.45,-11.42 -3.98,-3.98 -7.63,-8.26 -10.94,-12.78l-16.11 16.11 26.52 26.52 -5.61 0 -23.71 -23.72 0 -5.61 16.58 -16.59c-8.04,-11.9 -13.74,-25.35 -16.58,-39.54l0 -43.25c2.84,-14.18 8.54,-27.63 16.58,-39.54l-16.58 -16.58 0 -5.62 23.71 -23.71zm38.37 105.88l0 2.39c0.02,-0.8 0.02,-1.59 0,-2.39zm-0.01 2.98c-0.3,1.04 -0.87,1.97 -1.62,2.72 -1.15,1.15 -2.75,1.86 -4.51,1.86 -1.76,0 -3.36,-0.71 -4.51,-1.86 -0.64,-0.66 -1.15,-1.44 -1.47,-2.32l-29.6 0c0,-1.58 0,-3.15 0,-4.72l29.56 0 0.18 -0.03c0.32,-0.73 0.78,-1.39 1.33,-1.94 1.15,-1.17 2.75,-1.88 4.51,-1.88 1.76,0 3.36,0.71 4.51,1.87 0.75,0.75 1.32,1.69 1.62,2.73 -0.44,-15.31 -6.49,-30.47 -18.15,-42.14 -6.63,-6.62 -14.73,-11.75 -23.79,-14.85 -11.35,16.76 -17.99,37 -17.99,58.77 0,21.77 6.64,42 17.99,58.76 9.06,-3.1 17.16,-8.23 23.79,-14.85 11.67,-11.67 17.71,-26.82 18.15,-42.12zm-4.64 -3.28c-0.37,-0.37 -0.91,-0.62 -1.49,-0.62 -0.58,0 -1.1,0.24 -1.48,0.62 -0.38,0.37 -0.62,0.9 -0.62,1.49 0,0.58 0.24,1.1 0.61,1.48 0.38,0.38 0.91,0.62 1.49,0.62 0.58,0 1.11,-0.23 1.49,-0.62 0.37,-0.37 0.62,-0.9 0.62,-1.48 0,-0.59 -0.23,-1.11 -0.62,-1.49zm51.5 -43.53c15.28,-0.46 30.41,-6.51 42.07,-18.15 6.62,-6.62 11.76,-14.73 14.85,-23.79 -16.76,-11.35 -36.99,-17.99 -58.76,-17.99 -21.77,0 -42.01,6.64 -58.77,17.99 3.11,9.06 8.24,17.17 14.85,23.79 11.65,11.65 26.77,17.69 42.04,18.15 -1.01,-0.31 -1.92,-0.87 -2.65,-1.6 -1.15,-1.15 -1.87,-2.75 -1.87,-4.51 0,-1.76 0.72,-3.36 1.88,-4.51 0.56,-0.55 1.21,-1 1.94,-1.33l0.03 -0.19 0 -29.55c1.58,0 3.15,0 4.72,0l0 29.59c0.88,0.33 1.66,0.84 2.32,1.48 1.14,1.15 1.86,2.75 1.86,4.51 0,1.76 -0.72,3.36 -1.86,4.51 -0.73,0.73 -1.64,1.28 -2.65,1.6zm-3.35 -4.62c0.37,0.38 0.9,0.62 1.49,0.62 0.58,0 1.1,-0.24 1.48,-0.62 0.38,-0.37 0.62,-0.91 0.62,-1.49 0,-0.58 -0.23,-1.1 -0.61,-1.49 -0.38,-0.36 -0.91,-0.61 -1.49,-0.61 -0.59,0 -1.11,0.23 -1.49,0.62 -0.37,0.37 -0.62,0.9 -0.62,1.48 0,0.58 0.24,1.11 0.62,1.49zm46.52 51.57c0.48,15.25 6.52,30.35 18.14,41.98 6.63,6.63 14.73,11.76 23.79,14.85 11.35,-16.76 17.99,-36.99 17.99,-58.76 0,-21.77 -6.64,-42.01 -17.99,-58.77 -9.06,3.11 -17.16,8.24 -23.79,14.85 -11.63,11.64 -17.68,26.74 -18.14,41.99 0.31,-0.98 0.86,-1.86 1.57,-2.58 1.15,-1.16 2.75,-1.87 4.51,-1.87 1.76,0 3.36,0.71 4.51,1.88 0.56,0.56 1.01,1.21 1.33,1.94l0.19 0.03 29.56 0c0,1.58 0,3.15 0,4.72l-29.6 0c-0.32,0.88 -0.83,1.66 -1.48,2.32 -1.15,1.15 -2.75,1.86 -4.51,1.86 -1.76,0 -3.36,-0.71 -4.51,-1.86 -0.71,-0.72 -1.25,-1.6 -1.57,-2.58zm4.59 -3.42c-0.37,0.37 -0.61,0.9 -0.61,1.49 0,0.58 0.23,1.1 0.62,1.48 0.37,0.38 0.9,0.62 1.48,0.62 0.58,0 1.1,-0.23 1.49,-0.62 0.37,-0.37 0.61,-0.9 0.61,-1.48 0,-0.59 -0.23,-1.11 -0.62,-1.49 -0.37,-0.37 -0.9,-0.62 -1.48,-0.62 -0.58,0 -1.1,0.24 -1.49,0.62zm-47.77 46.5c1.01,0.31 1.92,0.86 2.65,1.59 1.14,1.15 1.86,2.75 1.86,4.51 0,1.76 -0.72,3.36 -1.86,4.51 -0.66,0.65 -1.44,1.15 -2.32,1.48l0 29.6c-1.58,0 -3.15,0 -4.72,0l0 -29.56 -0.03 -0.18c-0.73,-0.32 -1.39,-0.78 -1.94,-1.34 -1.16,-1.15 -1.88,-2.75 -1.88,-4.51 0,-1.76 0.72,-3.36 1.87,-4.51 0.73,-0.73 1.64,-1.27 2.65,-1.59 -15.27,0.46 -30.39,6.51 -42.04,18.15 -6.62,6.62 -11.75,14.72 -14.85,23.78 16.76,11.36 37,17.99 58.77,17.99 21.77,0 42,-6.63 58.76,-17.99 -3.1,-9.06 -8.24,-17.16 -14.85,-23.78 -11.66,-11.66 -26.79,-17.71 -42.07,-18.15zm-3.35 4.61c-0.37,0.38 -0.62,0.91 -0.62,1.49 0,0.58 0.24,1.1 0.62,1.49 0.37,0.37 0.9,0.61 1.49,0.61 0.58,0 1.1,-0.23 1.49,-0.61 0.37,-0.38 0.61,-0.91 0.61,-1.49 0,-0.58 -0.23,-1.1 -0.62,-1.48 -0.37,-0.38 -0.9,-0.62 -1.48,-0.62 -0.59,0 -1.11,0.23 -1.49,0.61zm12.18 -36.29l-3.75 0 0.01 -0.47c0.07,-2.18 0.12,-4.35 0.15,-6.51 0.02,-1.93 0.04,-3.96 0.04,-6.06l-14.35 0c0,2.01 0.01,4.04 0.04,6.06 0.03,2.16 0.08,4.33 0.14,6.51l0.02 0.47 -4.22 0 0.01 -0.47c0.12,-4.24 0.19,-8.54 0.19,-12.87 0,-4.34 -0.07,-8.64 -0.19,-12.88l-0.01 -0.46 4.22 0 -0.01 0.46c-0.06,1.85 -0.11,3.68 -0.13,5.51l-0.06 5.06 14.35 0 -0.06 -5.06c-0.03,-1.83 -0.08,-3.66 -0.13,-5.51l-0.01 -0.46 4.22 0 -0.01 0.46c-0.13,4.25 -0.19,8.54 -0.19,12.88 0,4.33 0.06,8.62 0.19,12.87l0.01 0.47 -0.47 0zm27.93 -13.34c-17.04,-9.69 -29.91,-22.56 -38.61,-38.61 -8.69,16.05 -21.56,28.92 -38.61,38.61 17.05,9.69 29.92,22.56 38.61,38.6 8.7,-16.04 21.57,-28.91 38.61,-38.6zm-79.38 -3.35c17.19,-9.54 27.84,-20.16 37.41,-37.43 -17,-0.85 -32.32,-8.08 -43.59,-19.37 -6.79,-6.78 -12.11,-15.03 -15.46,-24.23 -4.18,3.1 -8.12,6.5 -11.8,10.17 -3.67,3.67 -7.07,7.62 -10.17,11.8 9.2,3.35 17.45,8.67 24.23,15.46 11.28,11.27 18.52,26.59 19.37,43.6zm44.13 -37.43c9.53,17.18 20.16,27.84 37.41,37.41 0.84,-17 8.08,-32.32 19.36,-43.59 6.79,-6.79 15.04,-12.11 24.24,-15.46 -3.11,-4.19 -6.5,-8.12 -10.18,-11.8 -3.67,-3.67 -7.61,-7.07 -11.8,-10.17 -3.35,9.2 -8.67,17.45 -15.46,24.23 -11.27,11.28 -26.59,18.52 -43.58,19.37zm37.41 44.13c-17.25,9.57 -27.88,20.23 -37.41,37.41 16.99,0.84 32.31,8.08 43.58,19.36 6.79,6.79 12.11,15.04 15.47,24.24 4.18,-3.1 8.11,-6.51 11.79,-10.18 3.68,-3.66 7.07,-7.61 10.18,-11.8 -9.21,-3.35 -17.45,-8.67 -24.24,-15.45 -11.27,-11.28 -18.52,-26.6 -19.36,-43.59zm-44.13 37.41c-9.57,-17.26 -20.23,-27.89 -37.41,-37.43 -0.85,17 -8.08,32.32 -19.37,43.6 -6.78,6.78 -15.03,12.1 -24.23,15.45 3.1,4.19 6.5,8.13 10.17,11.8 3.67,3.67 7.61,7.08 11.8,10.18 3.35,-9.2 8.67,-17.45 15.46,-24.24 11.27,-11.27 26.59,-18.52 43.59,-19.36z"/>
   <path class="fil0" d="M13712.05 214.16l5.62 0 -26.52 26.51 16.1 16.11c3.31,-4.52 6.96,-8.79 10.94,-12.77 4.18,-4.18 8.67,-7.99 13.44,-11.42 -1.68,-5.85 -2.59,-12.03 -2.59,-18.42l0 0 4.28 0 0 0c0,5.47 0.72,10.79 2.04,15.85 11.64,-7.66 24.7,-13.09 38.44,-15.85l43.25 0c13.74,2.76 26.81,8.2 38.44,15.85 1.34,-5.07 2.04,-10.38 2.04,-15.85l0 0 4.28 0 0 0c0,6.39 -0.9,12.58 -2.59,18.42 4.77,3.43 9.27,7.24 13.44,11.42 3.97,3.97 7.62,8.25 10.93,12.78l16.12 -16.12 -26.52 -26.51 5.61 0 23.72 23.71 0 5.62 -16.6 16.6c8.05,11.91 13.77,25.41 16.6,39.52l0 43.25c-2.8,13.96 -8.28,26.95 -15.84,38.44l-0.76 1.09 16.6 16.6 0 5.61 -23.72 23.72 -5.61 0 26.52 -26.52 -16.14 -16.14c-3.32,4.51 -6.77,8.67 -10.91,12.81 -4.18,4.17 -8.67,7.99 -13.45,11.42 1.69,5.85 2.6,12.03 2.6,18.42l-4.28 0c-0.01,-5.47 -0.72,-10.8 -2.05,-15.85 -11.63,7.66 -24.69,13.09 -38.43,15.85l-43.25 0 0 0c-13.74,-2.76 -26.8,-8.2 -38.43,-15.85 -1.34,5.06 -2.04,10.38 -2.05,15.85l-4.28 0c0,-6.39 0.91,-12.58 2.6,-18.42 -4.77,-3.43 -9.27,-7.25 -13.45,-11.42 -3.98,-3.98 -7.63,-8.26 -10.94,-12.78l-16.11 16.11 26.52 26.52 -5.61 0 -23.71 -23.72 0 -5.61 16.58 -16.59c-8.04,-11.9 -13.74,-25.35 -16.58,-39.54l0 -43.25c2.84,-14.18 8.54,-27.63 16.58,-39.54l-16.58 -16.58 0 -5.62 23.71 -23.71zm38.37 105.88l0 2.39c0.02,-0.8 0.02,-1.59 0,-2.39zm-0.01 2.98c-0.3,1.04 -0.87,1.97 -1.62,2.72 -1.15,1.15 -2.75,1.86 -4.51,1.86 -1.76,0 -3.36,-0.71 -4.51,-1.86 -0.64,-0.66 -1.15,-1.44 -1.47,-2.32l-29.6 0c0,-1.58 0,-3.15 0,-4.72l29.56 0 0.18 -0.03c0.32,-0.73 0.78,-1.39 1.33,-1.94 1.15,-1.17 2.75,-1.88 4.51,-1.88 1.76,0 3.36,0.71 4.51,1.87 0.75,0.75 1.32,1.69 1.62,2.73 -0.44,-15.31 -6.49,-30.47 -18.15,-42.14 -6.63,-6.62 -14.73,-11.75 -23.79,-14.85 -11.35,16.76 -17.99,37 -17.99,58.77 0,21.77 6.64,42 17.99,58.76 9.06,-3.1 17.16,-8.23 23.79,-14.85 11.67,-11.67 17.71,-26.82 18.15,-42.12zm-4.64 -3.28c-0.37,-0.37 -0.91,-0.62 -1.49,-0.62 -0.58,0 -1.1,0.24 -1.48,0.62 -0.38,0.37 -0.62,0.9 -0.62,1.49 0,0.58 0.24,1.1 0.61,1.48 0.38,0.38 0.91,0.62 1.49,0.62 0.58,0 1.11,-0.23 1.49,-0.62 0.37,-0.37 0.62,-0.9 0.62,-1.48 0,-0.59 -0.23,-1.11 -0.62,-1.49zm51.5 -43.53c15.28,-0.46 30.41,-6.51 42.07,-18.15 6.62,-6.62 11.76,-14.73 14.85,-23.79 -16.76,-11.35 -36.99,-17.99 -58.76,-17.99 -21.77,0 -42.01,6.64 -58.77,17.99 3.11,9.06 8.24,17.17 14.85,23.79 11.65,11.65 26.77,17.69 42.04,18.15 -1.01,-0.31 -1.92,-0.87 -2.65,-1.6 -1.15,-1.15 -1.87,-2.75 -1.87,-4.51 0,-1.76 0.72,-3.36 1.88,-4.51 0.56,-0.55 1.21,-1 1.94,-1.33l0.03 -0.19 0 -29.55c1.58,0 3.15,0 4.72,0l0 29.59c0.88,0.33 1.66,0.84 2.32,1.48 1.14,1.15 1.86,2.75 1.86,4.51 0,1.76 -0.72,3.36 -1.86,4.51 -0.73,0.73 -1.64,1.28 -2.65,1.6zm-3.35 -4.62c0.37,0.38 0.9,0.62 1.49,0.62 0.58,0 1.1,-0.24 1.48,-0.62 0.38,-0.37 0.62,-0.91 0.62,-1.49 0,-0.58 -0.23,-1.1 -0.61,-1.49 -0.38,-0.36 -0.91,-0.61 -1.49,-0.61 -0.59,0 -1.11,0.23 -1.49,0.62 -0.37,0.37 -0.62,0.9 -0.62,1.48 0,0.58 0.24,1.11 0.62,1.49zm46.52 51.57c0.48,15.25 6.52,30.35 18.14,41.98 6.63,6.63 14.73,11.76 23.79,14.85 11.35,-16.76 17.99,-36.99 17.99,-58.76 0,-21.77 -6.64,-42.01 -17.99,-58.77 -9.06,3.11 -17.16,8.24 -23.79,14.85 -11.63,11.64 -17.68,26.74 -18.14,41.99 0.31,-0.98 0.86,-1.86 1.57,-2.58 1.15,-1.16 2.75,-1.87 4.51,-1.87 1.76,0 3.36,0.71 4.51,1.88 0.56,0.56 1.01,1.21 1.33,1.94l0.19 0.03 29.56 0c0,1.58 0,3.15 0,4.72l-29.6 0c-0.32,0.88 -0.83,1.66 -1.48,2.32 -1.15,1.15 -2.75,1.86 -4.51,1.86 -1.76,0 -3.36,-0.71 -4.51,-1.86 -0.71,-0.72 -1.25,-1.6 -1.57,-2.58zm4.59 -3.42c-0.37,0.37 -0.61,0.9 -0.61,1.49 0,0.58 0.23,1.1 0.62,1.48 0.37,0.38 0.9,0.62 1.48,0.62 0.58,0 1.1,-0.23 1.49,-0.62 0.37,-0.37 0.61,-0.9 0.61,-1.48 0,-0.59 -0.23,-1.11 -0.62,-1.49 -0.37,-0.37 -0.9,-0.62 -1.48,-0.62 -0.58,0 -1.1,0.24 -1.49,0.62zm-47.77 46.5c1.01,0.31 1.92,0.86 2.65,1.59 1.14,1.15 1.86,2.75 1.86,4.51 0,1.76 -0.72,3.36 -1.86,4.51 -0.66,0.65 -1.44,1.15 -2.32,1.48l0 29.6c-1.58,0 -3.15,0 -4.72,0l0 -29.56 -0.03 -0.18c-0.73,-0.32 -1.39,-0.78 -1.94,-1.34 -1.16,-1.15 -1.88,-2.75 -1.88,-4.51 0,-1.76 0.72,-3.36 1.87,-4.51 0.73,-0.73 1.64,-1.27 2.65,-1.59 -15.27,0.46 -30.39,6.51 -42.04,18.15 -6.62,6.62 -11.75,14.72 -14.85,23.78 16.76,11.36 37,17.99 58.77,17.99 21.77,0 42,-6.63 58.76,-17.99 -3.1,-9.06 -8.24,-17.16 -14.85,-23.78 -11.66,-11.66 -26.79,-17.71 -42.07,-18.15zm-3.35 4.61c-0.37,0.38 -0.62,0.91 -0.62,1.49 0,0.58 0.24,1.1 0.62,1.49 0.37,0.37 0.9,0.61 1.49,0.61 0.58,0 1.1,-0.23 1.49,-0.61 0.37,-0.38 0.61,-0.91 0.61,-1.49 0,-0.58 -0.23,-1.1 -0.62,-1.48 -0.37,-0.38 -0.9,-0.62 -1.48,-0.62 -0.59,0 -1.11,0.23 -1.49,0.61zm12.18 -36.29l-3.75 0 0.01 -0.47c0.07,-2.18 0.12,-4.35 0.15,-6.51 0.02,-1.93 0.04,-3.96 0.04,-6.06l-14.35 0c0,2.01 0.01,4.04 0.04,6.06 0.03,2.16 0.08,4.33 0.14,6.51l0.02 0.47 -4.22 0 0.01 -0.47c0.12,-4.24 0.19,-8.54 0.19,-12.87 0,-4.34 -0.07,-8.64 -0.19,-12.88l-0.01 -0.46 4.22 0 -0.01 0.46c-0.06,1.85 -0.11,3.68 -0.13,5.51l-0.06 5.06 14.35 0 -0.06 -5.06c-0.03,-1.83 -0.08,-3.66 -0.13,-5.51l-0.01 -0.46 4.22 0 -0.01 0.46c-0.13,4.25 -0.19,8.54 -0.19,12.88 0,4.33 0.06,8.62 0.19,12.87l0.01 0.47 -0.47 0zm27.93 -13.34c-17.04,-9.69 -29.91,-22.56 -38.61,-38.61 -8.69,16.05 -21.56,28.92 -38.61,38.61 17.05,9.69 29.92,22.56 38.61,38.6 8.7,-16.04 21.57,-28.91 38.61,-38.6zm-79.38 -3.35c17.19,-9.54 27.84,-20.16 37.41,-37.43 -17,-0.85 -32.32,-8.08 -43.59,-19.37 -6.79,-6.78 -12.11,-15.03 -15.46,-24.23 -4.18,3.1 -8.12,6.5 -11.8,10.17 -3.67,3.67 -7.07,7.62 -10.17,11.8 9.2,3.35 17.45,8.67 24.23,15.46 11.28,11.27 18.52,26.59 19.37,43.6zm44.13 -37.43c9.53,17.18 20.16,27.84 37.41,37.41 0.84,-17 8.08,-32.32 19.36,-43.59 6.79,-6.79 15.04,-12.11 24.24,-15.46 -3.11,-4.19 -6.5,-8.12 -10.18,-11.8 -3.67,-3.67 -7.61,-7.07 -11.8,-10.17 -3.35,9.2 -8.67,17.45 -15.46,24.23 -11.27,11.28 -26.59,18.52 -43.58,19.37zm37.41 44.13c-17.25,9.57 -27.88,20.23 -37.41,37.41 16.99,0.84 32.31,8.08 43.58,19.36 6.79,6.79 12.11,15.04 15.47,24.24 4.18,-3.1 8.11,-6.51 11.79,-10.18 3.68,-3.66 7.07,-7.61 10.18,-11.8 -9.21,-3.35 -17.45,-8.67 -24.24,-15.45 -11.27,-11.28 -18.52,-26.6 -19.36,-43.59zm-44.13 37.41c-9.57,-17.26 -20.23,-27.89 -37.41,-37.43 -0.85,17 -8.08,32.32 -19.37,43.6 -6.78,6.78 -15.03,12.1 -24.23,15.45 3.1,4.19 6.5,8.13 10.17,11.8 3.67,3.67 7.61,7.08 11.8,10.18 3.35,-9.2 8.67,-17.45 15.46,-24.24 11.27,-11.27 26.59,-18.52 43.59,-19.36z"/>
   <path class="fil0" d="M14354.51 428.31l5.62 0 -26.52 26.52 16.1 16.11c3.31,-4.52 6.96,-8.8 10.94,-12.78 4.18,-4.17 8.67,-7.98 13.44,-11.41 -1.68,-5.86 -2.59,-12.04 -2.59,-18.43l0 0 4.28 0 0 0c0,5.48 0.72,10.8 2.04,15.85 11.64,-7.66 24.7,-13.09 38.44,-15.85l43.25 0c13.74,2.76 26.81,8.2 38.44,15.85 1.34,-5.06 2.04,-10.37 2.04,-15.85l0 0 4.28 0 0 0c0,6.39 -0.9,12.58 -2.59,18.43 4.77,3.43 9.27,7.24 13.44,11.41 3.97,3.98 7.62,8.26 10.93,12.78l16.12 -16.11 -26.52 -26.52 5.61 0 23.72 23.72 0 5.61 -16.6 16.6c8.05,11.92 13.77,25.41 16.6,39.53l0 43.25c-2.8,13.95 -8.28,26.95 -15.84,38.44l-0.76 1.08 16.6 16.6 0 5.61 -23.72 23.72 -5.61 0 26.52 -26.52 -16.14 -16.14c-3.32,4.52 -6.77,8.68 -10.91,12.81 -4.18,4.18 -8.67,7.99 -13.45,11.43 1.69,5.85 2.6,12.03 2.6,18.41l-4.28 0c-0.01,-5.47 -0.72,-10.79 -2.05,-15.84 -11.63,7.66 -24.69,13.09 -38.43,15.84l-43.25 0 0 0c-13.74,-2.75 -26.8,-8.19 -38.43,-15.84 -1.34,5.06 -2.04,10.37 -2.05,15.84l-4.28 0c0,-6.38 0.91,-12.57 2.6,-18.41 -4.77,-3.44 -9.27,-7.25 -13.45,-11.43 -3.98,-3.98 -7.63,-8.25 -10.94,-12.77l-16.11 16.1 26.52 26.52 -5.61 0 -23.71 -23.72 0 -5.61 16.58 -16.59c-8.04,-11.9 -13.74,-25.35 -16.58,-39.53l0 -43.25c2.84,-14.18 8.54,-27.64 16.58,-39.54l-16.58 -16.59 0 -5.61 23.71 -23.72zm38.37 105.89l0 2.38c0.02,-0.8 0.02,-1.59 0,-2.38zm-0.01 2.97c-0.3,1.04 -0.87,1.97 -1.62,2.72 -1.15,1.15 -2.75,1.87 -4.51,1.87 -1.76,0 -3.36,-0.72 -4.51,-1.87 -0.64,-0.65 -1.15,-1.44 -1.47,-2.31l-29.6 0c0,-1.58 0,-3.16 0,-4.74l29.56 0 0.18 -0.03c0.32,-0.73 0.78,-1.39 1.33,-1.94 1.15,-1.16 2.75,-1.87 4.51,-1.87 1.76,0 3.36,0.71 4.51,1.86 0.75,0.76 1.32,1.69 1.62,2.73 -0.44,-15.3 -6.49,-30.46 -18.15,-42.13 -6.63,-6.62 -14.73,-11.76 -23.79,-14.85 -11.35,16.76 -17.99,36.99 -17.99,58.76 0,21.77 6.64,42.01 17.99,58.77 9.06,-3.11 17.16,-8.24 23.79,-14.86 11.67,-11.66 17.71,-26.82 18.15,-42.12zm-4.64 -3.27c-0.37,-0.37 -0.91,-0.62 -1.49,-0.62 -0.58,0 -1.1,0.24 -1.48,0.62 -0.38,0.37 -0.62,0.9 -0.62,1.48 0,0.59 0.24,1.11 0.61,1.49 0.38,0.37 0.91,0.62 1.49,0.62 0.58,0 1.11,-0.24 1.49,-0.62 0.37,-0.38 0.62,-0.91 0.62,-1.49 0,-0.59 -0.23,-1.1 -0.62,-1.48zm51.5 -43.54c15.28,-0.45 30.41,-6.5 42.07,-18.14 6.62,-6.63 11.76,-14.74 14.85,-23.79 -16.76,-11.36 -36.99,-17.99 -58.76,-17.99 -21.77,0 -42.01,6.63 -58.77,17.99 3.11,9.06 8.24,17.16 14.85,23.79 11.65,11.64 26.77,17.69 42.04,18.14 -1.01,-0.31 -1.92,-0.86 -2.65,-1.59 -1.15,-1.15 -1.87,-2.75 -1.87,-4.51 0,-1.76 0.72,-3.36 1.88,-4.51 0.56,-0.56 1.21,-1.01 1.94,-1.34l0.03 -0.18 0 -29.56c1.58,0 3.15,0 4.72,0l0 29.6c0.88,0.32 1.66,0.83 2.32,1.48 1.14,1.15 1.86,2.75 1.86,4.51 0,1.76 -0.72,3.36 -1.86,4.51 -0.73,0.73 -1.64,1.27 -2.65,1.59zm-3.35 -4.61c0.37,0.37 0.9,0.61 1.49,0.61 0.58,0 1.1,-0.23 1.48,-0.62 0.38,-0.37 0.62,-0.9 0.62,-1.48 0,-0.58 -0.23,-1.1 -0.61,-1.49 -0.38,-0.37 -0.91,-0.61 -1.49,-0.61 -0.59,0 -1.11,0.23 -1.49,0.62 -0.37,0.37 -0.62,0.9 -0.62,1.48 0,0.58 0.24,1.1 0.62,1.49zm46.52 51.57c0.48,15.25 6.52,30.35 18.14,41.97 6.63,6.63 14.73,11.76 23.79,14.86 11.35,-16.76 17.99,-37 17.99,-58.77 0,-21.77 -6.64,-42 -17.99,-58.76 -9.06,3.1 -17.16,8.24 -23.79,14.85 -11.63,11.63 -17.68,26.74 -18.14,41.99 0.31,-0.99 0.86,-1.87 1.57,-2.59 1.15,-1.15 2.75,-1.86 4.51,-1.86 1.76,0 3.36,0.71 4.51,1.87 0.56,0.56 1.01,1.21 1.33,1.94l0.19 0.03 29.56 0c0,1.58 0,3.16 0,4.74l-29.6 0c-0.32,0.87 -0.83,1.66 -1.48,2.31 -1.15,1.15 -2.75,1.87 -4.51,1.87 -1.76,0 -3.36,-0.72 -4.51,-1.87 -0.71,-0.71 -1.25,-1.59 -1.57,-2.57zm4.59 -3.42c-0.37,0.37 -0.61,0.89 -0.61,1.48 0,0.58 0.23,1.1 0.62,1.49 0.37,0.37 0.9,0.62 1.48,0.62 0.58,0 1.1,-0.24 1.49,-0.62 0.37,-0.37 0.61,-0.9 0.61,-1.49 0,-0.58 -0.23,-1.1 -0.62,-1.48 -0.37,-0.37 -0.9,-0.62 -1.48,-0.62 -0.58,0 -1.1,0.24 -1.49,0.62zm-47.77 46.49c1.01,0.31 1.92,0.87 2.65,1.6 1.14,1.15 1.86,2.74 1.86,4.51 0,1.76 -0.72,3.35 -1.86,4.51 -0.66,0.64 -1.44,1.14 -2.32,1.47l0 29.6c-1.58,0 -3.15,0 -4.72,0l0 -29.56 -0.03 -0.18c-0.73,-0.32 -1.39,-0.77 -1.94,-1.33 -1.16,-1.16 -1.88,-2.75 -1.88,-4.51 0,-1.77 0.72,-3.36 1.87,-4.51 0.73,-0.73 1.64,-1.28 2.65,-1.6 -15.27,0.47 -30.39,6.51 -42.04,18.15 -6.62,6.63 -11.75,14.73 -14.85,23.79 16.76,11.35 37,17.99 58.77,17.99 21.77,0 42,-6.64 58.76,-17.99 -3.1,-9.06 -8.24,-17.16 -14.85,-23.79 -11.66,-11.65 -26.79,-17.7 -42.07,-18.15zm-3.35 4.62c-0.37,0.37 -0.62,0.91 -0.62,1.49 0,0.58 0.24,1.1 0.62,1.48 0.37,0.38 0.9,0.62 1.49,0.62 0.58,0 1.1,-0.24 1.49,-0.61 0.37,-0.38 0.61,-0.91 0.61,-1.49 0,-0.58 -0.23,-1.11 -0.62,-1.49 -0.37,-0.37 -0.9,-0.62 -1.48,-0.62 -0.59,0 -1.11,0.23 -1.49,0.62zm12.18 -36.3l-3.75 0 0.01 -0.46c0.07,-2.19 0.12,-4.35 0.15,-6.52 0.02,-1.92 0.04,-3.95 0.04,-6.06l-14.35 0c0,2.02 0.01,4.05 0.04,6.06 0.03,2.17 0.08,4.33 0.14,6.52l0.02 0.46 -4.22 0 0.01 -0.46c0.12,-4.25 0.19,-8.54 0.19,-12.88 0,-4.33 -0.07,-8.63 -0.19,-12.87l-0.01 -0.47 4.22 0 -0.01 0.47c-0.06,1.84 -0.11,3.68 -0.13,5.5l-0.06 5.06 14.35 0 -0.06 -5.06c-0.03,-1.82 -0.08,-3.66 -0.13,-5.5l-0.01 -0.47 4.22 0 -0.01 0.47c-0.13,4.24 -0.19,8.54 -0.19,12.87 0,4.34 0.06,8.63 0.19,12.88l0.01 0.46 -0.47 0zm27.93 -13.34c-17.04,-9.69 -29.91,-22.56 -38.61,-38.6 -8.69,16.04 -21.56,28.91 -38.61,38.6 17.05,9.69 29.92,22.56 38.61,38.61 8.7,-16.05 21.57,-28.92 38.61,-38.61zm-79.38 -3.35c17.19,-9.53 27.84,-20.16 37.41,-37.41 -17,-0.85 -32.32,-8.09 -43.59,-19.37 -6.79,-6.79 -12.11,-15.04 -15.46,-24.24 -4.18,3.1 -8.12,6.51 -11.8,10.17 -3.67,3.67 -7.07,7.62 -10.17,11.81 9.2,3.35 17.45,8.67 24.23,15.46 11.28,11.27 18.52,26.59 19.37,43.59zm44.13 -37.43c9.53,17.19 20.16,27.84 37.41,37.41 0.84,-16.99 8.08,-32.31 19.36,-43.58 6.79,-6.79 15.04,-12.12 24.24,-15.46 -3.11,-4.19 -6.5,-8.13 -10.18,-11.81 -3.67,-3.66 -7.61,-7.07 -11.8,-10.17 -3.35,9.2 -8.67,17.45 -15.46,24.24 -11.27,11.27 -26.59,18.52 -43.58,19.36zm37.41 44.13c-17.25,9.57 -27.88,20.24 -37.41,37.41 16.99,0.85 32.31,8.08 43.58,19.36 6.79,6.79 12.11,15.04 15.47,24.24 4.18,-3.1 8.11,-6.5 11.79,-10.17 3.68,-3.67 7.07,-7.62 10.18,-11.8 -9.21,-3.35 -17.45,-8.67 -24.24,-15.46 -11.27,-11.27 -18.52,-26.59 -19.36,-43.59zm-44.13 37.41c-9.57,-17.26 -20.23,-27.88 -37.41,-37.43 -0.85,17 -8.08,32.32 -19.37,43.6 -6.78,6.79 -15.03,12.11 -24.23,15.46 3.1,4.18 6.5,8.12 10.17,11.8 3.67,3.67 7.61,7.07 11.8,10.17 3.35,-9.2 8.67,-17.45 15.46,-24.24 11.27,-11.27 26.59,-18.51 43.59,-19.36z"/>
   <path class="fil0" d="M14996.97 642.47l5.62 0 -26.52 26.51 16.1 16.11c3.31,-4.52 6.96,-8.79 10.94,-12.77 4.18,-4.18 8.67,-7.99 13.44,-11.42 -1.68,-5.85 -2.59,-12.03 -2.59,-18.42l0 0 4.28 0 0 0c0,5.47 0.72,10.79 2.04,15.85 11.64,-7.66 24.7,-13.09 38.44,-15.85l43.25 0c13.74,2.76 26.81,8.2 38.44,15.85 1.34,-5.07 2.04,-10.38 2.04,-15.85l0 0 4.28 0 0 0c0,6.39 -0.9,12.58 -2.59,18.42 4.77,3.43 9.27,7.24 13.44,11.42 3.97,3.97 7.62,8.25 10.93,12.78l16.12 -16.12 -26.52 -26.51 5.61 0 23.72 23.71 0 5.62 -16.6 16.6c8.05,11.91 13.77,25.41 16.6,39.52l0 43.25c-2.8,13.96 -8.28,26.95 -15.84,38.44l-0.76 1.09 16.6 16.6 0 5.61 -23.72 23.72 -5.61 0 26.52 -26.52 -16.14 -16.14c-3.32,4.51 -6.77,8.67 -10.91,12.81 -4.18,4.17 -8.67,7.99 -13.45,11.42 1.69,5.85 2.6,12.03 2.6,18.42l-4.28 0c-0.01,-5.47 -0.72,-10.8 -2.05,-15.85 -11.63,7.66 -24.69,13.09 -38.43,15.85l-43.25 0 0 0c-13.74,-2.76 -26.8,-8.2 -38.43,-15.85 -1.34,5.06 -2.04,10.38 -2.05,15.85l-4.28 0c0,-6.39 0.91,-12.58 2.6,-18.42 -4.77,-3.43 -9.27,-7.25 -13.45,-11.42 -3.98,-3.98 -7.63,-8.26 -10.94,-12.78l-16.11 16.11 26.52 26.52 -5.61 0 -23.71 -23.72 0 -5.61 16.58 -16.59c-8.04,-11.9 -13.74,-25.35 -16.58,-39.54l0 -43.25c2.84,-14.18 8.54,-27.63 16.58,-39.54l-16.58 -16.58 0 -5.62 23.71 -23.71zm38.37 105.88l0 2.39c0.02,-0.8 0.02,-1.59 0,-2.39zm-0.01 2.98c-0.3,1.04 -0.87,1.97 -1.62,2.72 -1.15,1.15 -2.75,1.86 -4.51,1.86 -1.76,0 -3.36,-0.71 -4.51,-1.86 -0.64,-0.66 -1.15,-1.44 -1.47,-2.32l-29.6 0c0,-1.58 0,-3.15 0,-4.72l29.56 0 0.18 -0.03c0.32,-0.73 0.78,-1.39 1.33,-1.94 1.15,-1.17 2.75,-1.88 4.51,-1.88 1.76,0 3.36,0.71 4.51,1.87 0.75,0.75 1.32,1.69 1.62,2.73 -0.44,-15.31 -6.49,-30.47 -18.15,-42.14 -6.63,-6.62 -14.73,-11.75 -23.79,-14.85 -11.35,16.76 -17.99,37 -17.99,58.77 0,21.77 6.64,42 17.99,58.76 9.06,-3.1 17.16,-8.23 23.79,-14.85 11.67,-11.67 17.71,-26.82 18.15,-42.12zm-4.64 -3.28c-0.37,-0.37 -0.91,-0.62 -1.49,-0.62 -0.58,0 -1.1,0.24 -1.48,0.62 -0.38,0.37 -0.62,0.9 -0.62,1.49 0,0.58 0.24,1.1 0.61,1.48 0.38,0.38 0.91,0.62 1.49,0.62 0.58,0 1.11,-0.23 1.49,-0.62 0.37,-0.37 0.62,-0.9 0.62,-1.48 0,-0.59 -0.23,-1.11 -0.62,-1.49zm51.5 -43.53c15.28,-0.46 30.41,-6.51 42.07,-18.15 6.62,-6.62 11.76,-14.73 14.85,-23.79 -16.76,-11.35 -36.99,-17.99 -58.76,-17.99 -21.77,0 -42.01,6.64 -58.77,17.99 3.11,9.06 8.24,17.17 14.85,23.79 11.65,11.65 26.77,17.69 42.04,18.15 -1.01,-0.31 -1.92,-0.87 -2.65,-1.6 -1.15,-1.15 -1.87,-2.75 -1.87,-4.51 0,-1.76 0.72,-3.36 1.88,-4.51 0.56,-0.55 1.21,-1 1.94,-1.33l0.03 -0.19 0 -29.55c1.58,0 3.15,0 4.72,0l0 29.59c0.88,0.33 1.66,0.84 2.32,1.48 1.14,1.15 1.86,2.75 1.86,4.51 0,1.76 -0.72,3.36 -1.86,4.51 -0.73,0.73 -1.64,1.28 -2.65,1.6zm-3.35 -4.62c0.37,0.38 0.9,0.62 1.49,0.62 0.58,0 1.1,-0.24 1.48,-0.62 0.38,-0.37 0.62,-0.91 0.62,-1.49 0,-0.58 -0.23,-1.1 -0.61,-1.49 -0.38,-0.36 -0.91,-0.61 -1.49,-0.61 -0.59,0 -1.11,0.23 -1.49,0.62 -0.37,0.37 -0.62,0.9 -0.62,1.48 0,0.58 0.24,1.11 0.62,1.49zm46.52 51.57c0.48,15.25 6.52,30.35 18.14,41.98 6.63,6.63 14.73,11.76 23.79,14.85 11.35,-16.76 17.99,-36.99 17.99,-58.76 0,-21.77 -6.64,-42.01 -17.99,-58.77 -9.06,3.11 -17.16,8.24 -23.79,14.85 -11.63,11.64 -17.68,26.74 -18.14,41.99 0.31,-0.98 0.86,-1.86 1.57,-2.58 1.15,-1.16 2.75,-1.87 4.51,-1.87 1.76,0 3.36,0.71 4.51,1.88 0.56,0.56 1.01,1.21 1.33,1.94l0.19 0.03 29.56 0c0,1.58 0,3.15 0,4.72l-29.6 0c-0.32,0.88 -0.83,1.66 -1.48,2.32 -1.15,1.15 -2.75,1.86 -4.51,1.86 -1.76,0 -3.36,-0.71 -4.51,-1.86 -0.71,-0.72 -1.25,-1.6 -1.57,-2.58zm4.59 -3.42c-0.37,0.37 -0.61,0.9 -0.61,1.49 0,0.58 0.23,1.1 0.62,1.48 0.37,0.38 0.9,0.62 1.48,0.62 0.58,0 1.1,-0.23 1.49,-0.62 0.37,-0.37 0.61,-0.9 0.61,-1.48 0,-0.59 -0.23,-1.11 -0.62,-1.49 -0.37,-0.37 -0.9,-0.62 -1.48,-0.62 -0.58,0 -1.1,0.24 -1.49,0.62zm-47.77 46.5c1.01,0.31 1.92,0.86 2.65,1.59 1.14,1.15 1.86,2.75 1.86,4.51 0,1.76 -0.72,3.36 -1.86,4.51 -0.66,0.65 -1.44,1.15 -2.32,1.48l0 29.6c-1.58,0 -3.15,0 -4.72,0l0 -29.56 -0.03 -0.18c-0.73,-0.32 -1.39,-0.78 -1.94,-1.34 -1.16,-1.15 -1.88,-2.75 -1.88,-4.51 0,-1.76 0.72,-3.36 1.87,-4.51 0.73,-0.73 1.64,-1.27 2.65,-1.59 -15.27,0.46 -30.39,6.51 -42.04,18.15 -6.62,6.62 -11.75,14.72 -14.85,23.78 16.76,11.36 37,17.99 58.77,17.99 21.77,0 42,-6.63 58.76,-17.99 -3.1,-9.06 -8.24,-17.16 -14.85,-23.78 -11.66,-11.66 -26.79,-17.71 -42.07,-18.15zm-3.35 4.61c-0.37,0.38 -0.62,0.91 -0.62,1.49 0,0.58 0.24,1.1 0.62,1.49 0.37,0.37 0.9,0.61 1.49,0.61 0.58,0 1.1,-0.23 1.49,-0.61 0.37,-0.38 0.61,-0.91 0.61,-1.49 0,-0.58 -0.23,-1.1 -0.62,-1.48 -0.37,-0.38 -0.9,-0.62 -1.48,-0.62 -0.59,0 -1.11,0.23 -1.49,0.61zm12.18 -36.29l-3.75 0 0.01 -0.47c0.07,-2.18 0.12,-4.35 0.15,-6.51 0.02,-1.93 0.04,-3.96 0.04,-6.06l-14.35 0c0,2.01 0.01,4.04 0.04,6.06 0.03,2.16 0.08,4.33 0.14,6.51l0.02 0.47 -4.22 0 0.01 -0.47c0.12,-4.24 0.19,-8.54 0.19,-12.87 0,-4.34 -0.07,-8.64 -0.19,-12.88l-0.01 -0.46 4.22 0 -0.01 0.46c-0.06,1.85 -0.11,3.68 -0.13,5.51l-0.06 5.06 14.35 0 -0.06 -5.06c-0.03,-1.83 -0.08,-3.66 -0.13,-5.51l-0.01 -0.46 4.22 0 -0.01 0.46c-0.13,4.25 -0.19,8.54 -0.19,12.88 0,4.33 0.06,8.62 0.19,12.87l0.01 0.47 -0.47 0zm27.93 -13.34c-17.04,-9.69 -29.91,-22.56 -38.61,-38.61 -8.69,16.05 -21.56,28.92 -38.61,38.61 17.05,9.69 29.92,22.56 38.61,38.6 8.7,-16.04 21.57,-28.91 38.61,-38.6zm-79.38 -3.35c17.19,-9.54 27.84,-20.16 37.41,-37.43 -17,-0.85 -32.32,-8.08 -43.59,-19.37 -6.79,-6.78 -12.11,-15.03 -15.46,-24.23 -4.18,3.1 -8.12,6.5 -11.8,10.17 -3.67,3.67 -7.07,7.62 -10.17,11.8 9.2,3.35 17.45,8.67 24.23,15.46 11.28,11.27 18.52,26.59 19.37,43.6zm44.13 -37.43c9.53,17.18 20.16,27.84 37.41,37.41 0.84,-17 8.08,-32.32 19.36,-43.59 6.79,-6.79 15.04,-12.11 24.24,-15.46 -3.11,-4.19 -6.5,-8.12 -10.18,-11.8 -3.67,-3.67 -7.61,-7.07 -11.8,-10.17 -3.35,9.2 -8.67,17.45 -15.46,24.23 -11.27,11.28 -26.59,18.52 -43.58,19.37zm37.41 44.13c-17.25,9.57 -27.88,20.23 -37.41,37.41 16.99,0.84 32.31,8.08 43.58,19.36 6.79,6.79 12.11,15.04 15.47,24.24 4.18,-3.1 8.11,-6.51 11.79,-10.18 3.68,-3.66 7.07,-7.61 10.18,-11.8 -9.21,-3.35 -17.45,-8.67 -24.24,-15.45 -11.27,-11.28 -18.52,-26.6 -19.36,-43.59zm-44.13 37.41c-9.57,-17.26 -20.23,-27.89 -37.41,-37.43 -0.85,17 -8.08,32.32 -19.37,43.6 -6.78,6.78 -15.03,12.1 -24.23,15.45 3.1,4.19 6.5,8.13 10.17,11.8 3.67,3.67 7.61,7.08 11.8,10.18 3.35,-9.2 8.67,-17.45 15.46,-24.24 11.27,-11.27 26.59,-18.52 43.59,-19.36z"/>
   <path class="fil0" d="M15211.12 0l5.61 0 -26.52 26.52 16.11 16.11c3.3,-4.52 6.96,-8.8 10.94,-12.78 4.17,-4.17 8.67,-7.98 13.44,-11.41 -1.69,-5.86 -2.59,-12.04 -2.59,-18.43l0 0 4.28 0 0 0c0,5.48 0.71,10.8 2.04,15.85 11.63,-7.66 24.69,-13.09 38.44,-15.85l43.25 0c13.74,2.76 26.8,8.2 38.43,15.85 1.34,-5.06 2.04,-10.37 2.04,-15.85l0 0 4.29 0 0 0c0,6.39 -0.91,12.58 -2.59,18.43 4.77,3.43 9.26,7.24 13.43,11.41 3.98,3.98 7.63,8.26 10.94,12.78l16.11 -16.11 -26.52 -26.52 5.61 0 23.72 23.72 0 5.61 -16.59 16.6c8.04,11.92 13.76,25.41 16.59,39.53l0 43.25c-2.8,13.95 -8.27,26.95 -15.84,38.44l-0.75 1.08 16.59 16.6 0 5.61 -23.72 23.72 -5.61 0 26.52 -26.52 -16.14 -16.14c-3.32,4.52 -6.77,8.68 -10.91,12.81 -4.17,4.18 -8.67,7.99 -13.44,11.43 1.69,5.85 2.59,12.03 2.6,18.41l-4.29 0c0,-5.47 -0.71,-10.79 -2.04,-15.84 -11.63,7.66 -24.69,13.09 -38.43,15.84l-43.25 0 0 0c-13.75,-2.75 -26.81,-8.19 -38.44,-15.84 -1.33,5.06 -2.04,10.37 -2.04,15.84l-4.28 0c0,-6.38 0.91,-12.57 2.59,-18.41 -4.77,-3.44 -9.27,-7.25 -13.44,-11.43 -3.98,-3.98 -7.64,-8.25 -10.94,-12.77l-16.11 16.1 26.52 26.52 -5.61 0 -23.72 -23.72 0 -5.61 16.59 -16.59c-8.05,-11.9 -13.74,-25.35 -16.59,-39.53l0 -43.25c2.85,-14.18 8.54,-27.64 16.59,-39.54l-16.59 -16.59 0 -5.61 23.72 -23.72zm38.37 105.89l0 2.38c0.01,-0.8 0.01,-1.59 0,-2.38zm-0.02 2.97c-0.3,1.04 -0.86,1.97 -1.61,2.72 -1.15,1.15 -2.75,1.87 -4.51,1.87 -1.76,0 -3.36,-0.72 -4.51,-1.87 -0.65,-0.65 -1.15,-1.44 -1.48,-2.31l-29.6 0c0,-1.58 0,-3.16 0,-4.74l29.56 0 0.18 -0.03c0.32,-0.73 0.78,-1.39 1.34,-1.94 1.15,-1.16 2.75,-1.87 4.51,-1.87 1.76,0 3.36,0.71 4.51,1.86 0.75,0.76 1.31,1.69 1.61,2.73 -0.44,-15.3 -6.49,-30.46 -18.15,-42.13 -6.62,-6.62 -14.73,-11.76 -23.78,-14.85 -11.36,16.76 -17.99,36.99 -17.99,58.76 0,21.77 6.63,42.01 17.99,58.77 9.05,-3.11 17.16,-8.24 23.78,-14.86 11.67,-11.66 17.72,-26.82 18.15,-42.12zm-4.63 -3.27c-0.38,-0.37 -0.91,-0.62 -1.49,-0.62 -0.58,0 -1.1,0.24 -1.49,0.62 -0.37,0.37 -0.61,0.9 -0.61,1.48 0,0.59 0.23,1.11 0.61,1.49 0.38,0.37 0.91,0.62 1.49,0.62 0.58,0 1.1,-0.24 1.48,-0.62 0.38,-0.38 0.62,-0.91 0.62,-1.49 0,-0.59 -0.23,-1.1 -0.61,-1.48zm51.49 -43.54c15.28,-0.45 30.42,-6.5 42.07,-18.14 6.63,-6.63 11.76,-14.74 14.86,-23.79 -16.78,-11.36 -37,-17.99 -58.77,-17.99 -21.77,0 -42,6.63 -58.76,17.99 3.1,9.06 8.24,17.16 14.85,23.79 11.64,11.64 26.77,17.69 42.04,18.14 -1.02,-0.31 -1.92,-0.86 -2.66,-1.59 -1.15,-1.15 -1.86,-2.75 -1.86,-4.51 0,-1.76 0.71,-3.36 1.87,-4.51 0.56,-0.56 1.21,-1.01 1.94,-1.34l0.03 -0.18 0 -29.56c1.58,0 3.16,0 4.74,0l0 29.6c0.87,0.32 1.66,0.83 2.31,1.48 1.15,1.15 1.87,2.75 1.87,4.51 0,1.76 -0.72,3.36 -1.87,4.51 -0.73,0.73 -1.63,1.27 -2.65,1.59zm-3.34 -4.61c0.37,0.37 0.9,0.61 1.48,0.61 0.58,0 1.1,-0.23 1.49,-0.62 0.37,-0.37 0.61,-0.9 0.61,-1.48 0,-0.58 -0.23,-1.1 -0.61,-1.49 -0.37,-0.37 -0.9,-0.61 -1.49,-0.61 -0.58,0 -1.1,0.23 -1.48,0.62 -0.38,0.37 -0.62,0.9 -0.62,1.48 0,0.58 0.23,1.1 0.62,1.49zm46.52 51.57c0.48,15.25 6.52,30.35 18.14,41.97 6.62,6.63 14.73,11.76 23.79,14.86 11.35,-16.76 17.99,-37 17.99,-58.77 0,-21.77 -6.64,-42 -17.99,-58.76 -9.06,3.1 -17.17,8.24 -23.79,14.85 -11.63,11.63 -17.68,26.74 -18.14,41.99 0.3,-0.99 0.85,-1.87 1.57,-2.59 1.15,-1.15 2.74,-1.86 4.5,-1.86 1.77,0 3.36,0.71 4.51,1.87 0.56,0.56 1.01,1.21 1.34,1.94l0.18 0.03 29.56 0c0,1.58 0,3.16 0,4.74l-29.6 0c-0.31,0.87 -0.83,1.66 -1.48,2.31 -1.15,1.15 -2.74,1.87 -4.51,1.87 -1.76,0 -3.35,-0.72 -4.5,-1.87 -0.72,-0.71 -1.25,-1.59 -1.57,-2.57zm4.59 -3.42c-0.38,0.37 -0.62,0.89 -0.62,1.48 0,0.58 0.24,1.1 0.62,1.49 0.38,0.37 0.91,0.62 1.48,0.62 0.59,0 1.11,-0.24 1.49,-0.62 0.37,-0.37 0.62,-0.9 0.62,-1.49 0,-0.58 -0.24,-1.1 -0.62,-1.48 -0.37,-0.37 -0.9,-0.62 -1.49,-0.62 -0.57,0 -1.09,0.24 -1.48,0.62zm-47.78 46.49c1.02,0.31 1.92,0.87 2.65,1.6 1.15,1.15 1.87,2.74 1.87,4.51 0,1.76 -0.72,3.35 -1.87,4.51 -0.65,0.64 -1.44,1.14 -2.31,1.47l0 29.6c-1.58,0 -3.16,0 -4.74,0l0 -29.56 -0.03 -0.18c-0.73,-0.32 -1.39,-0.77 -1.94,-1.33 -1.16,-1.16 -1.87,-2.75 -1.87,-4.51 0,-1.77 0.71,-3.36 1.86,-4.51 0.74,-0.73 1.64,-1.28 2.66,-1.6 -15.27,0.47 -30.4,6.51 -42.04,18.15 -6.62,6.63 -11.76,14.73 -14.85,23.79 16.76,11.35 36.99,17.99 58.76,17.99 21.77,0 42,-6.64 58.77,-17.99 -3.11,-9.06 -8.24,-17.16 -14.86,-23.79 -11.65,-11.65 -26.79,-17.7 -42.07,-18.15zm-3.34 4.62c-0.38,0.37 -0.62,0.91 -0.62,1.49 0,0.58 0.23,1.1 0.62,1.48 0.37,0.38 0.9,0.62 1.48,0.62 0.59,0 1.11,-0.24 1.49,-0.61 0.37,-0.38 0.61,-0.91 0.61,-1.49 0,-0.58 -0.23,-1.11 -0.61,-1.49 -0.38,-0.37 -0.91,-0.62 -1.49,-0.62 -0.58,0 -1.1,0.23 -1.48,0.62zm12.18 -36.3l-3.76 0 0.02 -0.46c0.06,-2.19 0.11,-4.35 0.14,-6.52 0.03,-1.92 0.04,-3.95 0.05,-6.06l-14.36 0c0,2.02 0.02,4.05 0.04,6.06 0.04,2.17 0.08,4.33 0.15,6.52l0.01 0.46 -4.21 0 0.01 -0.46c0.12,-4.25 0.18,-8.54 0.18,-12.88 0,-4.33 -0.06,-8.63 -0.18,-12.87l-0.01 -0.47 4.21 0 -0.01 0.47c-0.05,1.84 -0.1,3.68 -0.13,5.5l-0.05 5.06 14.34 0 -0.05 -5.06c-0.04,-1.82 -0.08,-3.66 -0.13,-5.5l-0.02 -0.47 4.22 0 -0.01 0.47c-0.12,4.24 -0.19,8.54 -0.19,12.87 0,4.34 0.07,8.63 0.19,12.88l0.01 0.46 -0.46 0zm27.92 -13.34c-17.04,-9.69 -29.91,-22.56 -38.6,-38.6 -8.7,16.04 -21.57,28.91 -38.61,38.6 17.04,9.69 29.91,22.56 38.61,38.61 8.69,-16.05 21.56,-28.92 38.6,-38.61zm-79.37 -3.35c17.19,-9.53 27.83,-20.16 37.41,-37.41 -17,-0.85 -32.32,-8.09 -43.6,-19.37 -6.78,-6.79 -12.1,-15.04 -15.45,-24.24 -4.19,3.1 -8.13,6.51 -11.81,10.17 -3.67,3.67 -7.07,7.62 -10.17,11.81 9.2,3.35 17.45,8.67 24.24,15.46 11.27,11.27 18.52,26.59 19.37,43.59zm44.12 -37.43c9.53,17.19 20.16,27.84 37.41,37.41 0.85,-16.99 8.08,-32.31 19.37,-43.58 6.78,-6.79 15.03,-12.12 24.23,-15.46 -3.1,-4.19 -6.5,-8.13 -10.17,-11.81 -3.67,-3.66 -7.62,-7.07 -11.8,-10.17 -3.35,9.2 -8.67,17.45 -15.46,24.24 -11.28,11.27 -26.59,18.52 -43.59,19.36zm37.41 44.13c-17.25,9.57 -27.88,20.24 -37.41,37.41 17,0.85 32.31,8.08 43.59,19.36 6.79,6.79 12.11,15.04 15.46,24.24 4.18,-3.1 8.12,-6.5 11.8,-10.17 3.67,-3.67 7.07,-7.62 10.17,-11.8 -9.2,-3.35 -17.45,-8.67 -24.23,-15.46 -11.28,-11.27 -18.52,-26.59 -19.37,-43.59zm-44.12 37.41c-9.58,-17.26 -20.23,-27.88 -37.41,-37.43 -0.85,17 -8.09,32.32 -19.37,43.6 -6.79,6.79 -15.04,12.11 -24.24,15.46 3.1,4.18 6.5,8.12 10.17,11.8 3.67,3.67 7.62,7.07 11.8,10.17 3.36,-9.2 8.68,-17.45 15.46,-24.24 11.28,-11.27 26.6,-18.51 43.6,-19.36z"/>
   <path class="fil0" d="M16067.73 428.31l5.61 0 -26.52 26.52 16.11 16.11c3.3,-4.52 6.96,-8.8 10.94,-12.78 4.17,-4.17 8.67,-7.98 13.44,-11.41 -1.69,-5.86 -2.59,-12.04 -2.59,-18.43l0 0 4.28 0 0 0c0,5.48 0.71,10.8 2.04,15.85 11.63,-7.66 24.69,-13.09 38.44,-15.85l43.25 0c13.74,2.76 26.8,8.2 38.43,15.85 1.34,-5.06 2.04,-10.37 2.04,-15.85l0 0 4.29 0 0 0c0,6.39 -0.91,12.58 -2.59,18.43 4.77,3.43 9.26,7.24 13.43,11.41 3.98,3.98 7.63,8.26 10.94,12.78l16.11 -16.11 -26.52 -26.52 5.61 0 23.72 23.72 0 5.61 -16.59 16.6c8.04,11.92 13.76,25.41 16.59,39.53l0 43.25c-2.8,13.95 -8.27,26.95 -15.84,38.44l-0.75 1.08 16.59 16.6 0 5.61 -23.72 23.72 -5.61 0 26.52 -26.52 -16.14 -16.14c-3.32,4.52 -6.77,8.68 -10.91,12.81 -4.17,4.18 -8.67,7.99 -13.44,11.43 1.69,5.85 2.59,12.03 2.6,18.41l-4.29 0c0,-5.47 -0.71,-10.79 -2.04,-15.84 -11.63,7.66 -24.69,13.09 -38.43,15.84l-43.25 0 0 0c-13.75,-2.75 -26.81,-8.19 -38.44,-15.84 -1.33,5.06 -2.04,10.37 -2.04,15.84l-4.28 0c0,-6.38 0.91,-12.57 2.59,-18.41 -4.77,-3.44 -9.27,-7.25 -13.44,-11.43 -3.98,-3.98 -7.64,-8.25 -10.94,-12.77l-16.11 16.1 26.52 26.52 -5.61 0 -23.72 -23.72 0 -5.61 16.59 -16.59c-8.05,-11.9 -13.74,-25.35 -16.59,-39.53l0 -43.25c2.85,-14.18 8.54,-27.64 16.59,-39.54l-16.59 -16.59 0 -5.61 23.72 -23.72zm38.37 105.89l0 2.38c0.01,-0.8 0.01,-1.59 0,-2.38zm-0.02 2.97c-0.3,1.04 -0.86,1.97 -1.61,2.72 -1.15,1.15 -2.75,1.87 -4.51,1.87 -1.76,0 -3.36,-0.72 -4.51,-1.87 -0.65,-0.65 -1.15,-1.44 -1.48,-2.31l-29.6 0c0,-1.58 0,-3.16 0,-4.74l29.56 0 0.18 -0.03c0.32,-0.73 0.78,-1.39 1.34,-1.94 1.15,-1.16 2.75,-1.87 4.51,-1.87 1.76,0 3.36,0.71 4.51,1.86 0.75,0.76 1.31,1.69 1.61,2.73 -0.44,-15.3 -6.49,-30.46 -18.15,-42.13 -6.62,-6.62 -14.73,-11.76 -23.78,-14.85 -11.36,16.76 -17.99,36.99 -17.99,58.76 0,21.77 6.63,42.01 17.99,58.77 9.05,-3.11 17.16,-8.24 23.78,-14.86 11.67,-11.66 17.72,-26.82 18.15,-42.12zm-4.63 -3.27c-0.38,-0.37 -0.91,-0.62 -1.49,-0.62 -0.58,0 -1.1,0.24 -1.49,0.62 -0.37,0.37 -0.61,0.9 -0.61,1.48 0,0.59 0.23,1.11 0.61,1.49 0.38,0.37 0.91,0.62 1.49,0.62 0.58,0 1.1,-0.24 1.48,-0.62 0.38,-0.38 0.62,-0.91 0.62,-1.49 0,-0.59 -0.23,-1.1 -0.61,-1.48zm51.49 -43.54c15.28,-0.45 30.42,-6.5 42.07,-18.14 6.63,-6.63 11.76,-14.74 14.86,-23.79 -16.78,-11.36 -37,-17.99 -58.77,-17.99 -21.77,0 -42,6.63 -58.76,17.99 3.1,9.06 8.24,17.16 14.85,23.79 11.64,11.64 26.77,17.69 42.04,18.14 -1.02,-0.31 -1.92,-0.86 -2.66,-1.59 -1.15,-1.15 -1.86,-2.75 -1.86,-4.51 0,-1.76 0.71,-3.36 1.87,-4.51 0.56,-0.56 1.21,-1.01 1.94,-1.34l0.03 -0.18 0 -29.56c1.58,0 3.16,0 4.74,0l0 29.6c0.87,0.32 1.66,0.83 2.31,1.48 1.15,1.15 1.87,2.75 1.87,4.51 0,1.76 -0.72,3.36 -1.87,4.51 -0.73,0.73 -1.63,1.27 -2.65,1.59zm-3.34 -4.61c0.37,0.37 0.9,0.61 1.48,0.61 0.58,0 1.1,-0.23 1.49,-0.62 0.37,-0.37 0.61,-0.9 0.61,-1.48 0,-0.58 -0.23,-1.1 -0.61,-1.49 -0.37,-0.37 -0.9,-0.61 -1.49,-0.61 -0.58,0 -1.1,0.23 -1.48,0.62 -0.38,0.37 -0.62,0.9 -0.62,1.48 0,0.58 0.23,1.1 0.62,1.49zm46.52 51.57c0.48,15.25 6.52,30.35 18.14,41.97 6.62,6.63 14.73,11.76 23.79,14.86 11.35,-16.76 17.99,-37 17.99,-58.77 0,-21.77 -6.64,-42 -17.99,-58.76 -9.06,3.1 -17.17,8.24 -23.79,14.85 -11.63,11.63 -17.68,26.74 -18.14,41.99 0.3,-0.99 0.85,-1.87 1.57,-2.59 1.15,-1.15 2.74,-1.86 4.5,-1.86 1.77,0 3.36,0.71 4.51,1.87 0.56,0.56 1.01,1.21 1.34,1.94l0.18 0.03 29.56 0c0,1.58 0,3.16 0,4.74l-29.6 0c-0.31,0.87 -0.83,1.66 -1.48,2.31 -1.15,1.15 -2.74,1.87 -4.51,1.87 -1.76,0 -3.35,-0.72 -4.5,-1.87 -0.72,-0.71 -1.25,-1.59 -1.57,-2.57zm4.59 -3.42c-0.38,0.37 -0.62,0.89 -0.62,1.48 0,0.58 0.24,1.1 0.62,1.49 0.38,0.37 0.91,0.62 1.48,0.62 0.59,0 1.11,-0.24 1.49,-0.62 0.37,-0.37 0.62,-0.9 0.62,-1.49 0,-0.58 -0.24,-1.1 -0.62,-1.48 -0.37,-0.37 -0.9,-0.62 -1.49,-0.62 -0.57,0 -1.09,0.24 -1.48,0.62zm-47.78 46.49c1.02,0.31 1.92,0.87 2.65,1.6 1.15,1.15 1.87,2.74 1.87,4.51 0,1.76 -0.72,3.35 -1.87,4.51 -0.65,0.64 -1.44,1.14 -2.31,1.47l0 29.6c-1.58,0 -3.16,0 -4.74,0l0 -29.56 -0.03 -0.18c-0.73,-0.32 -1.39,-0.77 -1.94,-1.33 -1.16,-1.16 -1.87,-2.75 -1.87,-4.51 0,-1.77 0.71,-3.36 1.86,-4.51 0.74,-0.73 1.64,-1.28 2.66,-1.6 -15.27,0.47 -30.4,6.51 -42.04,18.15 -6.62,6.63 -11.76,14.73 -14.85,23.79 16.76,11.35 36.99,17.99 58.76,17.99 21.77,0 42,-6.64 58.77,-17.99 -3.11,-9.06 -8.24,-17.16 -14.86,-23.79 -11.65,-11.65 -26.79,-17.7 -42.07,-18.15zm-3.34 4.62c-0.38,0.37 -0.62,0.91 -0.62,1.49 0,0.58 0.23,1.1 0.62,1.48 0.37,0.38 0.9,0.62 1.48,0.62 0.59,0 1.11,-0.24 1.49,-0.61 0.37,-0.38 0.61,-0.91 0.61,-1.49 0,-0.58 -0.23,-1.11 -0.61,-1.49 -0.38,-0.37 -0.91,-0.62 -1.49,-0.62 -0.58,0 -1.1,0.23 -1.48,0.62zm12.18 -36.3l-3.76 0 0.02 -0.46c0.06,-2.19 0.11,-4.35 0.14,-6.52 0.03,-1.92 0.04,-3.95 0.05,-6.06l-14.36 0c0,2.02 0.02,4.05 0.04,6.06 0.04,2.17 0.08,4.33 0.15,6.52l0.01 0.46 -4.21 0 0.01 -0.46c0.12,-4.25 0.18,-8.54 0.18,-12.88 0,-4.33 -0.06,-8.63 -0.18,-12.87l-0.01 -0.47 4.21 0 -0.01 0.47c-0.05,1.84 -0.1,3.68 -0.13,5.5l-0.05 5.06 14.34 0 -0.05 -5.06c-0.04,-1.82 -0.08,-3.66 -0.13,-5.5l-0.02 -0.47 4.22 0 -0.01 0.47c-0.12,4.24 -0.19,8.54 -0.19,12.87 0,4.34 0.07,8.63 0.19,12.88l0.01 0.46 -0.46 0zm27.92 -13.34c-17.04,-9.69 -29.91,-22.56 -38.6,-38.6 -8.7,16.04 -21.57,28.91 -38.61,38.6 17.04,9.69 29.91,22.56 38.61,38.61 8.69,-16.05 21.56,-28.92 38.6,-38.61zm-79.37 -3.35c17.19,-9.53 27.83,-20.16 37.41,-37.41 -17,-0.85 -32.32,-8.09 -43.6,-19.37 -6.78,-6.79 -12.1,-15.04 -15.45,-24.24 -4.19,3.1 -8.13,6.51 -11.81,10.17 -3.67,3.67 -7.07,7.62 -10.17,11.81 9.2,3.35 17.45,8.67 24.24,15.46 11.27,11.27 18.52,26.59 19.37,43.59zm44.12 -37.43c9.53,17.19 20.16,27.84 37.41,37.41 0.85,-16.99 8.08,-32.31 19.37,-43.58 6.78,-6.79 15.03,-12.12 24.23,-15.46 -3.1,-4.19 -6.5,-8.13 -10.17,-11.81 -3.67,-3.66 -7.62,-7.07 -11.8,-10.17 -3.35,9.2 -8.67,17.45 -15.46,24.24 -11.28,11.27 -26.59,18.52 -43.59,19.36zm37.41 44.13c-17.25,9.57 -27.88,20.24 -37.41,37.41 17,0.85 32.31,8.08 43.59,19.36 6.79,6.79 12.11,15.04 15.46,24.24 4.18,-3.1 8.12,-6.5 11.8,-10.17 3.67,-3.67 7.07,-7.62 10.17,-11.8 -9.2,-3.35 -17.45,-8.67 -24.23,-15.46 -11.28,-11.27 -18.52,-26.59 -19.37,-43.59zm-44.12 37.41c-9.58,-17.26 -20.23,-27.88 -37.41,-37.43 -0.85,17 -8.09,32.32 -19.37,43.6 -6.79,6.79 -15.04,12.11 -24.24,15.46 3.1,4.18 6.5,8.12 10.17,11.8 3.67,3.67 7.62,7.07 11.8,10.17 3.36,-9.2 8.68,-17.45 15.46,-24.24 11.28,-11.27 26.6,-18.51 43.6,-19.36z"/>
  </g>
  <g id="_2187234119360">
   <path class="fil1" d="M4580.03 23.76c-13.97,-7.82 -27.93,-15.58 -41.9,-23.38l-0.01 33.87c-5.66,-3.35 -11.77,-6.02 -18.18,-7.97 -7.84,-2.4 -16.14,-3.68 -24.75,-3.68 -8.59,0 -16.9,1.28 -24.72,3.68 -6.41,1.95 -12.51,4.63 -18.2,7.99l-0.01 -33.89 -41.9 23.38c0.1,55.78 0.01,111.54 0.01,167.32l41.9 23.35 0.01 -33.8c5.7,3.32 11.79,6.02 18.22,7.98 7.79,2.39 16.11,3.67 24.7,3.67 8.61,0 16.91,-1.28 24.75,-3.67 6.39,-1.96 12.5,-4.66 18.17,-7.98l0 33.81 41.91 -23.36 0 -167.32zm-5.6 164.01l-30.71 17.14 -0.01 -34.61 -4.36 2.93c-6.39,4.3 -13.5,7.72 -21.02,10.02 -7.32,2.23 -15.09,3.43 -23.13,3.43 -8.04,0 -15.79,-1.2 -23.09,-3.43 -7.56,-2.3 -14.63,-5.72 -21.06,-10.02l-4.36 -2.93 0 34.61 -30.71 -17.14 0 -160.71 30.69 -17.12 0.01 34.64 4.36 -2.93c6.43,-4.32 13.51,-7.71 21.06,-10.04 7.3,-2.21 15.03,-3.39 23.09,-3.39 8.04,0 15.82,1.18 23.14,3.39 7.52,2.32 14.61,5.72 21.02,10.04l4.37 2.95 0.01 -34.66 30.7 17.12 0 160.71zm-79.23 -130.76c-13.92,0 -26.54,5.65 -35.66,14.76 -9.13,9.14 -14.76,21.74 -14.76,35.66 0,13.92 5.64,26.53 14.76,35.66 9.13,9.14 21.74,14.76 35.66,14.76 13.91,0 26.53,-5.63 35.65,-14.77 9.14,-9.13 14.79,-21.73 14.79,-35.65 0,-13.92 -5.66,-26.53 -14.78,-35.65 -9.14,-9.13 -21.75,-14.77 -35.66,-14.77zm-31.67 18.74c8.07,-8.1 19.3,-13.12 31.67,-13.12 12.39,0 23.58,5.01 31.69,13.11 8.12,8.1 13.12,19.31 13.12,31.7 0,12.36 -5.02,23.58 -13.12,31.67 -8.1,8.15 -19.29,13.16 -31.69,13.16 -12.36,0 -23.59,-5.02 -31.67,-13.16 -8.11,-8.08 -13.14,-19.3 -13.14,-31.67 0,-12.38 5.02,-23.59 13.14,-31.69z"/>
   <path class="fil1" d="M169.67 23.76c-13.97,-7.82 -27.94,-15.58 -41.91,-23.38l-0.01 33.87c-5.65,-3.35 -11.78,-6.02 -18.2,-7.97 -7.82,-2.4 -16.1,-3.68 -24.73,-3.68 -8.6,0 -16.9,1.28 -24.72,3.68 -6.44,1.95 -12.54,4.63 -18.21,7.99l-0.01 -33.89 -41.89 23.38c0.1,55.78 0.01,111.54 0.01,167.32l41.89 23.35 0.03 -33.8c5.67,3.32 11.75,6.02 18.2,7.98 7.8,2.39 16.1,3.67 24.7,3.67 8.63,0 16.91,-1.28 24.74,-3.67 6.41,-1.96 12.54,-4.66 18.18,-7.98l0.01 33.81 41.92 -23.36 0 -167.32zm-5.61 164.01l-30.72 17.14 -0.02 -34.61 -4.34 2.93c-6.41,4.3 -13.5,7.72 -21.05,10.02 -7.3,2.23 -15.07,3.43 -23.11,3.43 -8.01,0 -15.8,-1.2 -23.09,-3.43 -7.55,-2.3 -14.65,-5.72 -21.09,-10.02l-4.34 -2.93 0 34.61 -30.71 -17.14 0 -160.71 30.69 -17.12 0.01 34.64 4.35 -2.93c6.42,-4.32 13.52,-7.71 21.06,-10.04 7.3,-2.21 15.08,-3.39 23.11,-3.39 8.03,0 15.8,1.18 23.11,3.39 7.54,2.32 14.62,5.72 21.05,10.04l4.36 2.95 0.01 -34.66 30.71 17.12 0 160.71zm-79.24 -130.76c-13.92,0 -26.53,5.65 -35.65,14.76 -9.15,9.14 -14.77,21.74 -14.77,35.66 0,13.92 5.63,26.53 14.77,35.66 9.13,9.14 21.73,14.76 35.65,14.76 13.93,0 26.53,-5.63 35.64,-14.77 9.13,-9.13 14.79,-21.73 14.79,-35.65 0,-13.92 -5.67,-26.53 -14.78,-35.65 -9.13,-9.13 -21.73,-14.77 -35.65,-14.77zm-31.69 18.74c8.11,-8.1 19.3,-13.12 31.69,-13.12 12.38,0 23.59,5.01 31.68,13.11 8.13,8.1 13.12,19.31 13.12,31.7 0,12.36 -5,23.58 -13.12,31.67 -8.08,8.15 -19.29,13.16 -31.68,13.16 -12.38,0 -23.57,-5.02 -31.69,-13.16 -8.11,-8.08 -13.12,-19.3 -13.12,-31.67 0,-12.38 5.01,-23.59 13.12,-31.69z"/>
   <path class="fil1" d="M508.89 451.88c-13.94,-7.82 -27.91,-15.61 -41.88,-23.38l0 33.86c-5.67,-3.34 -11.77,-6.03 -18.19,-7.98 -7.83,-2.39 -16.14,-3.65 -24.75,-3.65 -8.59,0 -16.89,1.26 -24.72,3.65 -6.42,1.95 -12.54,4.64 -18.19,7.99l-0.02 -33.87 -41.89 23.38c0.09,55.75 0,111.54 0,167.27l41.91 23.4 0 -33.83c5.69,3.33 11.77,6.04 18.2,7.98 7.82,2.39 16.13,3.68 24.71,3.68 8.62,0 16.92,-1.3 24.75,-3.68 6.42,-1.94 12.52,-4.65 18.18,-7.98l0.01 33.83 41.89 -23.4 -0.01 -167.27zm-5.55 164l-30.71 17.14 -0.03 -34.6 -4.35 2.92c-6.41,4.32 -13.49,7.71 -21.05,10.03 -7.29,2.24 -15.07,3.42 -23.12,3.42 -8.02,0 -15.77,-1.18 -23.08,-3.42 -7.56,-2.32 -14.65,-5.71 -21.09,-10.03l-4.34 -2.92 0 34.59 -30.75 -17.13 0 -160.71 30.73 -17.12 0.01 34.65 4.35 -2.94c6.42,-4.32 13.51,-7.72 21.09,-10.05 7.3,-2.2 15.04,-3.39 23.08,-3.39 8.03,0 15.82,1.19 23.12,3.39 7.55,2.32 14.63,5.73 21.05,10.05l4.38 2.95 0.01 -34.66 30.7 17.12 0 160.71zm-79.26 -130.76c-13.9,0 -26.52,5.64 -35.65,14.77 -9.12,9.14 -14.78,21.74 -14.78,35.66 0,13.91 5.67,26.51 14.78,35.65 9.14,9.14 21.75,14.77 35.65,14.77 13.92,0 26.54,-5.64 35.66,-14.78 9.13,-9.14 14.79,-21.73 14.79,-35.64 0,-13.92 -5.67,-26.52 -14.79,-35.65 -9.13,-9.15 -21.75,-14.78 -35.66,-14.78zm-31.68 18.74c8.11,-8.1 19.3,-13.12 31.68,-13.12 12.4,0 23.59,5.01 31.7,13.11 8.09,8.1 13.12,19.32 13.12,31.71 0,12.35 -5.04,23.58 -13.12,31.67 -8.1,8.12 -19.29,13.14 -31.7,13.14 -12.37,0 -23.56,-5.02 -31.68,-13.14 -8.1,-8.08 -13.11,-19.31 -13.11,-31.67 0,-12.38 5,-23.6 13.11,-31.7z"/>
   <path class="fil1" d="M1017.79 237.82c-13.96,-7.81 -27.94,-15.6 -41.9,-23.4l0 33.87c-5.67,-3.33 -11.78,-6.01 -18.21,-7.98 -7.81,-2.38 -16.12,-3.65 -24.72,-3.65 -8.61,0 -16.92,1.27 -24.75,3.65 -6.41,1.97 -12.51,4.65 -18.19,8l-0.01 -33.89 -41.89 23.4c0.1,55.76 0.01,111.55 0.01,167.28l41.89 23.39 0.02 -33.82c5.69,3.33 11.77,6.03 18.19,7.97 7.81,2.39 16.12,3.67 24.74,3.67 8.6,0 16.9,-1.28 24.72,-3.67 6.42,-1.94 12.52,-4.64 18.19,-7.97l0.01 33.83 41.9 -23.4 0 -167.28zm-5.61 163.99l-30.71 17.15 -0.01 -34.62 -4.36 2.95c-6.41,4.3 -13.5,7.71 -21.03,10.01 -7.32,2.23 -15.1,3.43 -23.1,3.43 -8.05,0 -15.8,-1.2 -23.13,-3.43 -7.52,-2.3 -14.62,-5.71 -21.04,-10.01l-4.35 -2.95 0 34.62 -30.74 -17.15 0 -160.69 30.72 -17.13 0.01 34.65 4.36 -2.93c6.41,-4.34 13.51,-7.74 21.04,-10.04 7.33,-2.22 15.07,-3.4 23.12,-3.4 8.01,0 15.79,1.18 23.11,3.4 7.52,2.29 14.61,5.69 21.03,10.04l4.37 2.94 0.01 -34.66 30.7 17.13 0 160.69zm-79.21 -130.75c-13.96,0 -26.56,5.63 -35.68,14.77 -9.12,9.14 -14.76,21.74 -14.76,35.64 0,13.94 5.65,26.54 14.76,35.67 9.13,9.12 21.72,14.77 35.68,14.77 13.9,0 26.52,-5.66 35.63,-14.78 9.13,-9.13 14.79,-21.72 14.79,-35.66 0,-13.9 -5.67,-26.51 -14.78,-35.63 -9.13,-9.16 -21.75,-14.78 -35.64,-14.78zm-31.71 18.73c8.11,-8.09 19.31,-13.12 31.71,-13.12 12.37,0 23.56,5.03 31.66,13.11 8.12,8.11 13.13,19.31 13.13,31.7 0,12.37 -5.03,23.59 -13.13,31.7 -8.09,8.12 -19.28,13.11 -31.66,13.11 -12.39,0 -23.59,-5 -31.71,-13.11 -8.11,-8.1 -13.1,-19.32 -13.1,-31.7 0,-12.38 4.99,-23.58 13.1,-31.69z"/>
   <path class="fil1" d="M1526.7 665.95c-13.97,-7.83 -27.95,-15.61 -41.9,-23.39l-0.01 33.83c-5.7,-3.31 -11.77,-6 -18.19,-7.94 -7.83,-2.4 -16.14,-3.67 -24.75,-3.66 -8.6,-0.01 -16.9,1.26 -24.74,3.66 -6.41,1.94 -12.51,4.64 -18.18,7.96l-0.02 -33.85 -41.88 23.39c0.09,55.75 0.01,111.52 0.01,167.28l41.89 23.37 0.01 -33.82c5.69,3.34 11.77,6.03 18.18,7.98 7.83,2.4 16.14,3.67 24.74,3.67 8.61,0 16.91,-1.27 24.75,-3.67 6.41,-1.95 12.48,-4.64 18.17,-7.98l0.01 33.83 41.91 -23.38 0 -167.28zm-5.6 164l-30.71 17.13 -0.02 -34.61 -4.38 2.93c-6.38,4.32 -13.48,7.73 -21.02,10.03 -7.29,2.22 -15.08,3.41 -23.11,3.41 -8.03,0 -15.79,-1.19 -23.09,-3.41 -7.56,-2.3 -14.66,-5.71 -21.08,-10.03l-4.35 -2.93 0 34.6 -30.73 -17.12 0 -160.73 30.71 -17.13 0.01 34.67 4.35 -2.94c6.41,-4.31 13.52,-7.73 21.08,-10.04 7.29,-2.21 15.06,-3.39 23.09,-3.39 8.03,0 15.82,1.18 23.12,3.39 7.54,2.29 14.62,5.72 21.02,10.04l4.4 2.95 0.01 -34.68 30.7 17.13 0 160.73zm-79.24 -130.77c-13.91,0 -26.54,5.64 -35.65,14.78 -9.14,9.13 -14.79,21.74 -14.79,35.64 0,13.92 5.66,26.53 14.79,35.65 9.12,9.15 21.74,14.77 35.65,14.77 13.91,0 26.5,-5.63 35.66,-14.77 9.11,-9.13 14.77,-21.73 14.77,-35.65 0,-13.9 -5.67,-26.52 -14.77,-35.63 -9.17,-9.16 -21.75,-14.79 -35.66,-14.79zm-31.71 18.74c8.11,-8.1 19.32,-13.12 31.71,-13.12 12.38,0 23.57,5.01 31.69,13.12 8.11,8.09 13.11,19.3 13.11,31.69 0,12.37 -5,23.59 -13.11,31.69 -8.11,8.11 -19.3,13.13 -31.69,13.13 -12.38,0 -23.59,-5.03 -31.71,-13.13 -8.08,-8.09 -13.09,-19.31 -13.09,-31.69 0,-12.38 5,-23.59 13.09,-31.69z"/>
   <path class="fil1" d="M1865.93 237.82c-13.95,-7.81 -27.92,-15.6 -41.9,-23.4l0 33.87c-5.68,-3.33 -11.78,-6.01 -18.18,-7.98 -7.83,-2.38 -16.14,-3.65 -24.75,-3.65 -8.59,0 -16.92,1.27 -24.73,3.65 -6.42,1.97 -12.52,4.65 -18.2,8l-0.02 -33.89 -41.88 23.4c0.1,55.76 0.01,111.55 0.01,167.28l41.89 23.39 0.01 -33.82c5.69,3.33 11.77,6.03 18.2,7.97 7.81,2.39 16.13,3.67 24.73,3.67 8.6,0 16.91,-1.28 24.75,-3.67 6.39,-1.94 12.49,-4.64 18.16,-7.97l0.01 33.83 41.91 -23.4 -0.01 -167.28zm-5.6 163.99l-30.69 17.15 -0.02 -34.62 -4.37 2.95c-6.39,4.3 -13.5,7.71 -21.04,10.01 -7.3,2.23 -15.07,3.43 -23.1,3.43 -8.04,0 -15.8,-1.2 -23.11,-3.43 -7.54,-2.3 -14.63,-5.71 -21.04,-10.01l-4.36 -2.95 0 34.62 -30.74 -17.15 0 -160.69 30.73 -17.13 0 34.65 4.35 -2.93c6.42,-4.34 13.52,-7.74 21.05,-10.04 7.32,-2.22 15.06,-3.4 23.11,-3.4 8.04,0 15.8,1.18 23.11,3.4 7.54,2.29 14.63,5.69 21.04,10.04l4.39 2.94 0 -34.66 30.69 17.13 0 160.69zm-79.22 -130.75c-13.92,0 -26.53,5.63 -35.66,14.77 -9.14,9.14 -14.78,21.74 -14.78,35.64 0,13.94 5.65,26.54 14.78,35.67 9.14,9.12 21.74,14.77 35.66,14.77 13.91,0 26.51,-5.66 35.63,-14.78 9.15,-9.13 14.8,-21.72 14.8,-35.66 0,-13.9 -5.66,-26.51 -14.79,-35.63 -9.14,-9.16 -21.74,-14.78 -35.64,-14.78zm-31.71 18.73c8.11,-8.09 19.32,-13.12 31.71,-13.12 12.37,0 23.58,5.03 31.67,13.11 8.11,8.11 13.13,19.31 13.13,31.7 0,12.37 -5.03,23.59 -13.13,31.7 -8.08,8.12 -19.29,13.11 -31.67,13.11 -12.38,0 -23.59,-5 -31.71,-13.11 -8.09,-8.1 -13.09,-19.32 -13.09,-31.7 0,-12.38 4.99,-23.58 13.09,-31.69z"/>
   <path class="fil1" d="M2205.2 237.82c-13.93,-7.81 -27.91,-15.6 -41.89,-23.4l-0.01 33.87c-5.67,-3.33 -11.75,-6.01 -18.18,-7.98 -7.83,-2.38 -16.16,-3.65 -24.74,-3.65 -8.59,0 -16.91,1.27 -24.74,3.65 -6.42,1.97 -12.51,4.65 -18.19,8l-0.01 -33.89 -41.89 23.4c0.09,55.76 0,111.55 0,167.28l41.9 23.39 0.01 -33.82c5.69,3.33 11.77,6.03 18.19,7.97 7.82,2.39 16.14,3.67 24.74,3.67 8.58,0 16.9,-1.28 24.73,-3.67 6.42,-1.94 12.51,-4.64 18.17,-7.97l0.01 33.83 41.91 -23.4 -0.01 -167.28zm-5.58 163.99l-30.71 17.15 -0.01 -34.62 -4.38 2.95c-6.38,4.3 -13.47,7.71 -21.01,10.01 -7.33,2.23 -15.1,3.43 -23.11,3.43 -8.04,0 -15.8,-1.2 -23.11,-3.43 -7.54,-2.3 -14.62,-5.71 -21.05,-10.01l-4.36 -2.95 -0.01 34.62 -30.71 -17.15 0 -160.69 30.7 -17.13 0.01 34.65 4.36 -2.93c6.42,-4.34 13.52,-7.74 21.05,-10.04 7.32,-2.22 15.06,-3.4 23.11,-3.4 8.02,0 15.79,1.18 23.12,3.4 7.53,2.29 14.62,5.69 21.01,10.04l4.39 2.94 0.01 -34.66 30.7 17.13 0 160.69zm-79.22 -130.75c-13.95,0 -26.55,5.63 -35.67,14.77 -9.12,9.14 -14.77,21.74 -14.77,35.64 0,13.94 5.66,26.54 14.77,35.67 9.13,9.12 21.72,14.77 35.67,14.77 13.91,0 26.52,-5.66 35.64,-14.78 9.14,-9.13 14.79,-21.72 14.79,-35.66 0,-13.9 -5.66,-26.51 -14.78,-35.63 -9.14,-9.16 -21.75,-14.78 -35.65,-14.78zm-31.7 18.73c8.1,-8.09 19.32,-13.12 31.7,-13.12 12.37,0 23.58,5.03 31.68,13.11 8.12,8.11 13.12,19.31 13.12,31.7 0,12.37 -5.01,23.59 -13.12,31.7 -8.09,8.12 -19.3,13.11 -31.68,13.11 -12.37,0 -23.59,-5 -31.7,-13.11 -8.12,-8.1 -13.12,-19.32 -13.12,-31.7 0,-12.38 5,-23.58 13.12,-31.69z"/>
   <path class="fil1" d="M2714.09 451.88c-13.93,-7.82 -27.91,-15.61 -41.87,-23.38l-0.01 33.86c-5.69,-3.34 -11.78,-6.03 -18.2,-7.98 -7.83,-2.39 -16.14,-3.65 -24.75,-3.65 -8.59,0 -16.89,1.26 -24.73,3.65 -6.41,1.95 -12.51,4.64 -18.19,7.99l-0.01 -33.87 -41.89 23.38c0.08,55.75 0,111.54 0,167.27l41.9 23.4 0 -33.83c5.7,3.33 11.78,6.04 18.2,7.98 7.83,2.39 16.14,3.68 24.72,3.68 8.62,0 16.93,-1.3 24.76,-3.68 6.4,-1.94 12.5,-4.65 18.17,-7.98l0.02 33.83 41.89 -23.4 -0.01 -167.27zm-5.58 164l-30.71 17.14 -0.02 -34.6 -4.36 2.92c-6.39,4.32 -13.48,7.71 -21.01,10.03 -7.33,2.24 -15.09,3.42 -23.14,3.42 -8.02,0 -15.77,-1.18 -23.09,-3.42 -7.54,-2.32 -14.64,-5.71 -21.06,-10.03l-4.35 -2.92 0 34.59 -30.73 -17.13 0 -160.71 30.71 -17.12 0.01 34.65 4.35 -2.94c6.43,-4.32 13.53,-7.72 21.08,-10.05 7.32,-2.2 15.06,-3.39 23.09,-3.39 8.04,0 15.81,1.19 23.14,3.39 7.52,2.32 14.61,5.73 21.01,10.05l4.38 2.95 0 -34.66 30.71 17.12 0 160.71zm-79.24 -130.76c-13.9,0 -26.5,5.64 -35.63,14.77 -9.16,9.14 -14.79,21.74 -14.79,35.66 0,13.91 5.64,26.51 14.79,35.65 9.14,9.14 21.73,14.77 35.63,14.77 13.92,0 26.52,-5.64 35.66,-14.78 9.14,-9.14 14.78,-21.73 14.78,-35.64 0,-13.92 -5.65,-26.52 -14.78,-35.65 -9.15,-9.15 -21.75,-14.78 -35.66,-14.78zm-31.7 18.74c8.12,-8.1 19.32,-13.12 31.7,-13.12 12.4,0 23.59,5.01 31.71,13.11 8.12,8.1 13.12,19.32 13.12,31.71 0,12.35 -5.01,23.58 -13.12,31.67 -8.11,8.12 -19.3,13.14 -31.71,13.14 -12.37,0 -23.57,-5.02 -31.7,-13.14 -8.07,-8.08 -13.12,-19.31 -13.12,-31.67 0,-12.38 5.03,-23.6 13.12,-31.7z"/>
   <path class="fil1" d="M3053.37 23.76c-13.94,-7.82 -27.91,-15.58 -41.9,-23.38l0 33.87c-5.66,-3.35 -11.75,-6.02 -18.17,-7.97 -7.84,-2.4 -16.15,-3.68 -24.76,-3.68 -8.59,0 -16.9,1.28 -24.73,3.68 -6.42,1.95 -12.51,4.63 -18.2,7.99l-0.02 -33.89 -41.88 23.38c0.1,55.78 0,111.54 0,167.32l41.9 23.35 0 -33.8c5.71,3.32 11.79,6.02 18.21,7.98 7.82,2.39 16.14,3.67 24.72,3.67 8.62,0 16.93,-1.28 24.76,-3.67 6.41,-1.96 12.51,-4.66 18.15,-7.98l0.02 33.81 41.91 -23.36 -0.01 -167.32zm-5.57 164.01l-30.72 17.14 -0.01 -34.61 -4.36 2.93c-6.4,4.3 -13.5,7.72 -21.03,10.02 -7.32,2.23 -15.1,3.43 -23.13,3.43 -8.01,0 -15.79,-1.2 -23.08,-3.43 -7.55,-2.3 -14.65,-5.72 -21.06,-10.02l-4.37 -2.93 0 34.61 -30.72 -17.14 0 -160.71 30.69 -17.12 0.02 34.64 4.37 -2.93c6.41,-4.32 13.51,-7.71 21.06,-10.04 7.28,-2.21 15.06,-3.39 23.09,-3.39 8.02,0 15.81,1.18 23.13,3.39 7.53,2.32 14.62,5.72 21.03,10.04l4.37 2.95 0.01 -34.66 30.71 17.12 0 160.71zm-79.25 -130.76c-13.9,0 -26.53,5.65 -35.66,14.76 -9.12,9.14 -14.76,21.74 -14.76,35.66 0,13.92 5.65,26.53 14.76,35.66 9.14,9.14 21.76,14.76 35.66,14.76 13.91,0 26.52,-5.63 35.66,-14.77 9.13,-9.13 14.78,-21.73 14.78,-35.65 0,-13.92 -5.66,-26.53 -14.77,-35.65 -9.16,-9.13 -21.76,-14.77 -35.67,-14.77zm-31.68 18.74c8.1,-8.1 19.31,-13.12 31.68,-13.12 12.4,0 23.59,5.01 31.71,13.11 8.1,8.1 13.09,19.31 13.09,31.7 0,12.36 -5.01,23.58 -13.09,31.67 -8.11,8.15 -19.3,13.16 -31.71,13.16 -12.36,0 -23.57,-5.02 -31.68,-13.16 -8.1,-8.08 -13.13,-19.3 -13.13,-31.67 0,-12.38 5.02,-23.59 13.13,-31.69z"/>
   <path class="fil1" d="M3222.97 665.95c-13.93,-7.83 -27.9,-15.61 -41.87,-23.39l-0.01 33.83c-5.67,-3.31 -11.78,-6 -18.19,-7.94 -7.84,-2.4 -16.15,-3.67 -24.75,-3.66 -8.62,-0.01 -16.9,1.26 -24.73,3.66 -6.42,1.94 -12.53,4.64 -18.19,7.96l-0.01 -33.85 -41.91 23.39c0.1,55.75 0.01,111.52 0.01,167.28l41.91 23.37 0.01 -33.82c5.68,3.34 11.77,6.03 18.2,7.98 7.81,2.4 16.09,3.67 24.72,3.67 8.59,0 16.9,-1.27 24.75,-3.67 6.39,-1.95 12.51,-4.64 18.17,-7.98l0.01 33.83 41.88 -23.38 0 -167.28zm-5.58 164l-30.7 17.13 -0.02 -34.61 -4.36 2.93c-6.4,4.32 -13.49,7.73 -21.03,10.03 -7.3,2.22 -15.09,3.41 -23.11,3.41 -8.03,0 -15.81,-1.19 -23.12,-3.41 -7.53,-2.3 -14.63,-5.71 -21.04,-10.03l-4.37 -2.93 0 34.6 -30.71 -17.12 0 -160.73 30.69 -17.13 0.01 34.67 4.37 -2.94c6.41,-4.31 13.51,-7.73 21.05,-10.04 7.3,-2.21 15.08,-3.39 23.11,-3.39 8.03,0 15.81,1.18 23.12,3.39 7.52,2.29 14.62,5.72 21.03,10.04l4.38 2.95 0 -34.68 30.7 17.13 0 160.73zm-79.22 -130.77c-13.92,0 -26.55,5.64 -35.65,14.78 -9.15,9.13 -14.78,21.74 -14.78,35.64 0,13.92 5.64,26.53 14.78,35.65 9.11,9.15 21.73,14.77 35.65,14.77 13.92,0 26.52,-5.63 35.65,-14.77 9.13,-9.13 14.78,-21.73 14.78,-35.65 0,-13.9 -5.66,-26.52 -14.77,-35.63 -9.15,-9.16 -21.75,-14.79 -35.66,-14.79zm-31.7 18.74c8.1,-8.1 19.32,-13.12 31.7,-13.12 12.38,0 23.58,5.01 31.7,13.12 8.1,8.09 13.1,19.3 13.1,31.69 0,12.37 -5.02,23.59 -13.1,31.69 -8.11,8.11 -19.31,13.13 -31.7,13.13 -12.37,0 -23.59,-5.03 -31.7,-13.13 -8.1,-8.09 -13.12,-19.31 -13.12,-31.69 0,-12.38 5.02,-23.59 13.12,-31.69z"/>
   <path class="fil1" d="M4071.13 237.82c-13.96,-7.81 -27.92,-15.6 -41.91,-23.4l0 33.87c-5.65,-3.33 -11.77,-6.01 -18.17,-7.98 -7.84,-2.38 -16.14,-3.65 -24.75,-3.65 -8.6,0 -16.91,1.27 -24.73,3.65 -6.42,1.97 -12.53,4.65 -18.19,8l-0.01 -33.89 -41.89 23.4c0.1,55.76 0.01,111.55 0.01,167.28l41.89 23.39 0 -33.82c5.68,3.33 11.78,6.03 18.2,7.97 7.82,2.39 16.13,3.67 24.73,3.67 8.6,0 16.9,-1.28 24.75,-3.67 6.38,-1.94 12.51,-4.64 18.15,-7.97l0.01 33.83 41.91 -23.4 0 -167.28zm-5.57 163.99l-30.73 17.15 -0.01 -34.62 -4.35 2.95c-6.4,4.3 -13.5,7.71 -21.04,10.01 -7.3,2.23 -15.09,3.43 -23.11,3.43 -8.04,0 -15.79,-1.2 -23.09,-3.43 -7.58,-2.3 -14.66,-5.71 -21.08,-10.01l-4.36 -2.95 -0.01 34.62 -30.71 -17.15 0 -160.69 30.7 -17.13 0.01 34.65 4.36 -2.93c6.41,-4.34 13.5,-7.74 21.08,-10.04 7.29,-2.22 15.04,-3.4 23.09,-3.4 8.03,0 15.81,1.18 23.12,3.4 7.54,2.29 14.62,5.69 21.04,10.04l4.36 2.94 0 -34.66 30.73 17.13 0 160.69zm-79.24 -130.75c-13.93,0 -26.55,5.63 -35.65,14.77 -9.16,9.14 -14.78,21.74 -14.78,35.64 0,13.94 5.63,26.54 14.78,35.67 9.11,9.12 21.72,14.77 35.65,14.77 13.9,0 26.51,-5.66 35.64,-14.78 9.13,-9.13 14.8,-21.72 14.8,-35.66 0,-13.9 -5.68,-26.51 -14.8,-35.63 -9.14,-9.16 -21.75,-14.78 -35.64,-14.78zm-31.69 18.73c8.09,-8.09 19.3,-13.12 31.69,-13.12 12.38,0 23.56,5.03 31.68,13.11 8.11,8.11 13.11,19.31 13.11,31.7 0,12.37 -5.01,23.59 -13.11,31.7 -8.11,8.12 -19.29,13.11 -31.68,13.11 -12.38,0 -23.59,-5 -31.69,-13.11 -8.09,-8.1 -13.13,-19.32 -13.13,-31.7 0,-12.38 5.03,-23.58 13.13,-31.69z"/>
   <path class="fil1" d="M4410.4 665.95c-13.95,-7.83 -27.93,-15.61 -41.89,-23.39l-0.01 33.83c-5.67,-3.31 -11.77,-6 -18.2,-7.94 -7.82,-2.4 -16.13,-3.67 -24.73,-3.66 -8.6,-0.01 -16.91,1.26 -24.72,3.66 -6.43,1.94 -12.54,4.64 -18.22,7.96l-0.02 -33.85 -41.89 23.39c0.1,55.75 0,111.52 0,167.28l41.91 23.37 0 -33.82c5.69,3.34 11.8,6.03 18.24,7.98 7.79,2.4 16.1,3.67 24.71,3.67 8.6,0 16.9,-1.27 24.72,-3.67 6.42,-1.95 12.53,-4.64 18.19,-7.98l0.01 33.83 41.91 -23.38 -0.01 -167.28zm-5.61 164l-30.71 17.13 -0.01 -34.61 -4.36 2.93c-6.39,4.32 -13.47,7.73 -21.01,10.03 -7.33,2.22 -15.11,3.41 -23.12,3.41 -8.03,0 -15.8,-1.19 -23.11,-3.41 -7.55,-2.3 -14.62,-5.71 -21.05,-10.03l-4.35 -2.93 -0.01 34.6 -30.72 -17.12 0 -160.73 30.71 -17.13 0.01 34.67 4.34 -2.94c6.43,-4.31 13.52,-7.73 21.08,-10.04 7.3,-2.21 15.04,-3.39 23.1,-3.39 8.02,0 15.8,1.18 23.13,3.39 7.52,2.29 14.61,5.72 21.01,10.04l4.37 2.95 0.01 -34.68 30.7 17.13 0 160.73zm-79.21 -130.77c-13.94,0 -26.55,5.64 -35.66,14.78 -9.13,9.13 -14.77,21.74 -14.77,35.64 0,13.92 5.65,26.53 14.77,35.65 9.12,9.15 21.72,14.77 35.66,14.77 13.91,0 26.51,-5.63 35.65,-14.77 9.14,-9.13 14.75,-21.73 14.75,-35.65 0,-13.9 -5.62,-26.52 -14.74,-35.63 -9.16,-9.16 -21.76,-14.79 -35.66,-14.79zm-31.68 18.74c8.08,-8.1 19.29,-13.12 31.68,-13.12 12.39,0 23.58,5.01 31.68,13.12 8.12,8.09 13.13,19.3 13.13,31.69 0,12.37 -5.02,23.59 -13.13,31.69 -8.09,8.11 -19.28,13.13 -31.68,13.13 -12.38,0 -23.59,-5.03 -31.68,-13.13 -8.12,-8.09 -13.14,-19.31 -13.14,-31.69 0,-12.38 5.01,-23.59 13.14,-31.69z"/>
  </g>
 </g>
</svg>
